<?xml version="1.0" encoding="utf-8"?>
<!-- Generator: Adobe Illustrator 15.0.0, SVG Export Plug-In . SVG Version: 6.00 Build 0)  -->
<!DOCTYPE svg PUBLIC "-//W3C//DTD SVG 1.1//EN" "http://www.w3.org/Graphics/SVG/1.1/DTD/svg11.dtd">
<svg version="1.1" id="Layer_1" xmlns="http://www.w3.org/2000/svg" xmlns:xlink="http://www.w3.org/1999/xlink" x="0px" y="0px"
	 width="70px" height="35px" viewBox="0 0 70 35" enable-background="new 0 0 70 35" xml:space="preserve">
<g>
	<path fill="#28578C" d="M17.5,33.5c-8.822,0-16-7.178-16-16c0-8.823,7.178-16,16-16s16,7.178,16,16
		C33.5,26.322,26.322,33.5,17.5,33.5z"/>
	<g>
		<path fill="#B6BFC6" d="M17.5,3C25.495,3,32,9.505,32,17.5C32,25.495,25.495,32,17.5,32S3,25.495,3,17.5C3,9.505,9.505,3,17.5,3
			 M17.5,0C7.835,0,0,7.835,0,17.5C0,27.164,7.835,35,17.5,35S35,27.164,35,17.5C35,7.835,27.165,0,17.5,0L17.5,0z"/>
	</g>
</g>
<polygon fill="#B6BFC6" points="17.5,20.163 13.081,12.512 10.585,12.512 17.5,24.487 24.415,12.512 21.919,12.512 "/>
<g>
	<path fill="#28578C" d="M52.5,33.5c-8.822,0-16-7.178-16-16c0-8.823,7.178-16,16-16s16,7.178,16,16
		C68.5,26.322,61.322,33.5,52.5,33.5z"/>
	<g>
		<path fill="#F0B51F" d="M52.5,3C60.495,3,67,9.505,67,17.5C67,25.495,60.495,32,52.5,32S38,25.495,38,17.5
			C38,9.505,44.505,3,52.5,3 M52.5,0C42.835,0,35,7.835,35,17.5C35,27.164,42.835,35,52.5,35S70,27.164,70,17.5
			C70,7.835,62.165,0,52.5,0L52.5,0z"/>
	</g>
</g>
<polygon fill="#F0B51F" points="52.5,20.163 48.081,12.512 45.586,12.512 52.5,24.487 59.414,12.512 56.92,12.512 "/>
</svg>
