<?xml version="1.0" encoding="utf-8"?>
<!-- Generator: Adobe Illustrator 15.0.0, SVG Export Plug-In . SVG Version: 6.00 Build 0)  -->
<!DOCTYPE svg PUBLIC "-//W3C//DTD SVG 1.1//EN" "http://www.w3.org/Graphics/SVG/1.1/DTD/svg11.dtd">
<svg version="1.1" id="Layer_1" xmlns="http://www.w3.org/2000/svg" xmlns:xlink="http://www.w3.org/1999/xlink" x="0px" y="0px"
	 width="100px" height="50px" viewBox="0 0 100 50" enable-background="new 0 0 100 50" xml:space="preserve">
<g id="Layer_499">
	<g>
		<path fill="#3C5B9B" d="M100,37.5c0,6.903-5.597,12.5-12.502,12.5h-25C55.595,50,50,44.403,50,37.5v-25
			C50,5.595,55.595,0,62.498,0h25C94.403,0,100,5.595,100,12.5V37.5z"/>
		<g>
			<path fill="#FFFFFF" d="M70.834,40.625h6.25c0,0,0-8.627,0-15.625h4.638l0.569-6.25h-4.966v-2.499
				c0-1.218,0.812-1.501,1.381-1.501s3.507,0,3.507,0V9.395l-4.828-0.02c-5.359,0-6.578,3.994-6.578,6.55v2.825h-3.098V25h3.125
				C70.834,32.082,70.834,40.625,70.834,40.625z"/>
		</g>
	</g>
</g>
<g id="Layer_1_1_">
</g>
<path fill="#C5C5C6" d="M50,37.5C50,44.403,44.403,50,37.498,50h-25C5.595,50,0,44.403,0,37.5v-25C0,5.595,5.595,0,12.498,0h25
	C44.403,0,50,5.595,50,12.5V37.5z"/>
<g>
	<path fill="#FFFFFF" d="M20.834,40.625h6.25c0,0,0-8.627,0-15.625h4.638l0.569-6.25h-4.966v-2.499c0-1.218,0.812-1.501,1.381-1.501
		s3.507,0,3.507,0V9.395l-4.828-0.02c-5.359,0-6.578,3.994-6.578,6.55v2.825h-3.098V25h3.125
		C20.834,32.082,20.834,40.625,20.834,40.625z"/>
</g>
<g id="Layer_1_2_">
</g>
</svg>
