<?xml version="1.0" encoding="utf-8"?>
<!-- Generator: Adobe Illustrator 15.0.0, SVG Export Plug-In . SVG Version: 6.00 Build 0)  -->
<!DOCTYPE svg PUBLIC "-//W3C//DTD SVG 1.1//EN" "http://www.w3.org/Graphics/SVG/1.1/DTD/svg11.dtd">
<svg version="1.1" id="Layer_1" xmlns="http://www.w3.org/2000/svg" xmlns:xlink="http://www.w3.org/1999/xlink" x="0px" y="0px"
	 width="100px" height="50px" viewBox="0 0 100 50" enable-background="new 0 0 100 50" xml:space="preserve">
<g id="Layer_491">
	<g>
		<path fill="#0173B2" d="M100,37.5c0,6.905-5.597,12.5-12.5,12.5h-25C55.595,50,50,44.405,50,37.5v-25C50,5.597,55.595,0,62.5,0h25
			C94.403,0,100,5.597,100,12.5V37.5z"/>
		<g>
			<rect x="59.375" y="19.792" fill="#FFFFFF" width="7.291" height="20.833"/>
			<circle fill="#FFFFFF" cx="63.021" cy="13.021" r="3.646"/>
			<path fill="#FFFFFF" d="M90.625,29.176c0-5.622-1.213-9.384-7.766-9.384c-3.148,0-5.264,1.17-6.128,2.812h-0.09v-2.812h-5.808
				v20.833h6.07V30.299c0-2.723,0.515-5.359,3.883-5.359c3.319,0,3.587,3.113,3.587,5.535v10.15h6.25L90.625,29.176L90.625,29.176z"
				/>
		</g>
	</g>
</g>
<g id="Layer_1_1_">
</g>
<path fill="#C5C5C6" d="M50,37.5C50,44.405,44.403,50,37.5,50h-25C5.595,50,0,44.405,0,37.5v-25C0,5.597,5.595,0,12.5,0h25
	C44.403,0,50,5.597,50,12.5V37.5z"/>
<g>
	<rect x="9.375" y="19.792" fill="#FFFFFF" width="7.291" height="20.833"/>
	<circle fill="#FFFFFF" cx="13.021" cy="13.021" r="3.646"/>
	<path fill="#FFFFFF" d="M40.625,29.176c0-5.622-1.213-9.384-7.766-9.384c-3.148,0-5.264,1.17-6.128,2.812h-0.09v-2.812h-5.808
		v20.833h6.07V30.299c0-2.723,0.515-5.359,3.883-5.359c3.319,0,3.587,3.113,3.587,5.535v10.15h6.25L40.625,29.176L40.625,29.176z"/>
</g>
<g id="Layer_1_2_">
</g>
</svg>
