<?xml version="1.0" encoding="utf-8"?>
<!-- Generator: Adobe Illustrator 15.0.2, SVG Export Plug-In . SVG Version: 6.00 Build 0)  -->
<!DOCTYPE svg PUBLIC "-//W3C//DTD SVG 1.1//EN" "http://www.w3.org/Graphics/SVG/1.1/DTD/svg11.dtd">
<svg version="1.1" id="Layer_1" xmlns="http://www.w3.org/2000/svg" xmlns:xlink="http://www.w3.org/1999/xlink" x="0px" y="0px"
	 width="200px" height="50px" viewBox="0 0 200 50" enable-background="new 0 0 200 50" xml:space="preserve">
<path fill="#FFFFFF" d="M69.368,49.125c-4.224,0-4.528-2.245-4.528-4.528v-7.725h2.321v8.904c0,1.18,0.381,2.474,2.169,2.474
	c1.941-0.039,2.055-1.37,2.055-2.474v-8.104c0-1.219-0.267-1.941-0.571-3.121c-0.457-1.788-1.065-2.777-1.941-4.451l-2.321-4.453
	c-0.799-1.445-1.066-2.359-1.37-3.957c-0.304-1.522-0.304-2.511-0.304-4.071V15.83c0-2.245,0.304-4.49,4.414-4.49
	c4.224,0,4.49,2.283,4.49,4.528v6.887h-2.359V14.65c0-1.142-0.267-2.397-2.055-2.397c-1.94,0.038-2.169,1.332-2.169,2.397v2.436
	c0,1.598,0.038,2.587,0.381,4.224c0.304,1.446,0.646,2.321,1.37,3.729l2.207,4.224c0.457,1.027,1.332,2.397,1.789,3.996
	c0.533,1.674,0.837,2.396,0.837,4.338v7.077C73.744,46.88,73.478,49.087,69.368,49.125z M87.481,48.858H85.16v-19.14h-4.147v19.14
	h-2.359V15.906c0-2.283,0.305-4.528,4.528-4.528c4.109,0,4.338,2.245,4.338,4.49v32.991H87.481z M85.16,28.234V14.65
	c0-1.104-0.114-2.359-2.055-2.397c-1.789,0-2.093,1.256-2.093,2.397v13.546h4.147V28.234z M99.125,34.094V11.53h2.32v37.329h-2.32
	v-7.116l-4.224-20.015v27.131H92.58V11.53h2.093L99.125,34.094L99.125,34.094z M114.611,12.938h-3.463v35.921h-2.358V12.938h-3.387
	v-1.37h9.208V12.938z M127.473,48.858h-2.32v-19.14h-4.148v19.14h-2.358V15.906c0-2.283,0.304-4.528,4.528-4.528
	c4.109,0,4.338,2.245,4.338,4.49v32.991H127.473z M125.152,28.234V14.65c0-1.104-0.114-2.359-2.055-2.397
	c-1.789,0-2.094,1.256-2.094,2.397v13.546h4.148V28.234z M148.592,36.872v8.485c0,2.055-1.064,3.768-4.375,3.768
	s-4.529-1.637-4.529-3.653V15.906c0-2.283,0.305-4.528,4.529-4.528c4.109,0,4.375,2.245,4.375,4.49v7.04h-2.359V14.65
	c0-1.104-0.113-2.359-2.016-2.397c-1.827,0-2.17,1.256-2.17,2.397v31.659c0,0.951,0.838,1.826,2.17,1.826
	c1.369-0.037,2.016-0.836,2.016-1.787v-9.476H148.592z M160.35,48.858V33.066c0-1.104-0.152-2.244-0.912-2.739
	c-0.724-0.532-1.256-0.647-2.17-0.647h-1.064v19.179h-2.359V11.644h4.223c0.647,0,2.359,0.076,3.463,0.913
	c1.143,0.837,1.143,1.979,1.143,3.311v9.969c0,0.685-0.115,1.18-0.571,1.788c-0.532,0.686-1.827,1.371-1.94,1.408
	c0.113,0.038,1.141,0.609,1.636,1.18c0.837,0.875,0.913,1.75,0.913,2.777v15.868H160.35z M159.398,13.014
	c-0.418-0.19-1.064-0.342-1.75-0.342h-1.408v15.981h1.104c0.99,0,2.018-0.456,2.436-0.951c0.381-0.38,0.57-1.598,0.57-2.587V15.106
	C160.35,14.041,160.16,13.356,159.398,13.014z M169.863,46.348c0,0.951,0.685,1.787,2.055,1.787c1.332,0,2.017-0.875,2.017-1.826
	V11.606h2.359V45.51c0,2.018-1.065,3.653-4.376,3.653s-4.414-1.712-4.414-3.768v-33.79h2.359V46.348z M186.605,12.938h-5.099V11.53
	h7.991l-5.518,35.769h5.859v1.521h-8.752L186.605,12.938z M69.673,5.822c0,0.685-0.038,1.332-0.533,1.903
	c-0.457,0.571-1.18,0.799-1.903,0.799c-0.685,0-1.408-0.152-1.902-0.685c-0.533-0.571-0.571-1.294-0.571-2.017v-4.49h0.875v4.49
	c0,0.418,0,0.989,0.267,1.37c0.304,0.418,0.875,0.533,1.37,0.533c0.457,0,0.951-0.152,1.256-0.495
	c0.342-0.419,0.342-0.914,0.342-1.408v-4.49h0.761v4.49H69.673z M76.522,8.409h-0.875L72.07,2.245v6.164h-0.761V1.332h1.104
	l3.349,5.746V1.332h0.761V8.409z M78.196,8.409V1.332h0.875v7.077H78.196z M83.295,8.409h-0.837l-2.397-7.077h0.913l1.979,5.822
	l1.941-5.822h0.761L83.295,8.409z M91.21,8.409h-4.566V1.332h4.49v0.761h-3.577v2.245h2.854v0.723h-2.854v2.587h3.691v0.761H91.21z
	 M96.537,8.409l-1.293-3.044h-1.941v3.044h-0.875V1.332h2.664c0.571,0,1.142,0.076,1.598,0.418c0.457,0.342,0.761,0.951,0.761,1.56
	c0,0.837-0.495,1.598-1.332,1.827l1.408,3.272H96.537L96.537,8.409z M94.939,4.642c0.457,0,0.875-0.038,1.218-0.38
	c0.267-0.266,0.342-0.571,0.342-0.913c0-0.418-0.152-0.761-0.495-0.989c-0.304-0.229-0.609-0.229-0.989-0.229h-1.75v2.511H94.939
	L94.939,4.642z M99.163,6.316c0.304,0.99,1.104,1.446,2.093,1.446c0.418,0,0.951-0.076,1.256-0.343
	c0.266-0.19,0.418-0.571,0.418-0.913c0-0.723-0.57-0.989-1.217-1.142l-1.18-0.304c-0.457-0.114-0.914-0.229-1.294-0.571
	c-0.38-0.343-0.571-0.799-0.571-1.294c0-1.37,1.18-1.94,2.397-1.94c1.18,0,2.131,0.571,2.511,1.712l-0.799,0.228
	c-0.152-0.761-0.988-1.256-1.75-1.256c-0.685,0-1.522,0.343-1.522,1.142c0,0.799,0.609,0.952,1.293,1.142l1.066,0.267
	c0.456,0.114,0.912,0.228,1.293,0.533c0.457,0.342,0.646,0.837,0.646,1.408c0,0.647-0.266,1.218-0.799,1.598
	s-1.217,0.533-1.826,0.533c-1.446,0-2.397-0.647-2.854-2.017L99.163,6.316L99.163,6.316z M105.213,8.409V1.332h0.875v7.077H105.213z
	 M110.046,8.409h-0.876V2.131h-2.016V1.37h4.87v0.761h-2.017v6.278H110.046z M115.487,5.441v2.968h-0.876V5.441l-2.359-4.109h1.028
	l1.864,3.272l1.902-3.272h0.799L115.487,5.441z M121.309,4.947c0-1.75,0.875-3.691,2.893-3.691c1.979,0,2.892,1.826,2.892,3.539
	s-0.875,3.729-2.892,3.729C122.184,8.523,121.309,6.697,121.309,4.947z M126.218,4.833c0-0.647-0.114-1.37-0.419-1.94
	s-0.875-0.952-1.521-0.952c-1.561,0-2.018,1.712-2.018,2.968c0,1.218,0.495,2.854,1.979,2.854
	C125.762,7.801,126.218,6.05,126.218,4.833z M128.463,8.409V1.332h4.338v0.761h-3.425v2.245h2.854v0.723h-2.854v3.348H128.463z
	 M141.59,6.203c-0.342,1.332-1.141,2.321-2.625,2.321c-2.055,0-2.892-1.979-2.892-3.729c0-1.826,0.913-3.577,2.93-3.577
	c1.408,0,2.245,0.951,2.55,2.245l-0.838,0.152c-0.266-0.913-0.685-1.674-1.75-1.674c-1.521,0-1.94,1.674-1.94,2.892
	c0,0.571,0.076,1.256,0.343,1.75c0.305,0.647,0.837,1.142,1.56,1.142c1.065,0,1.599-0.799,1.827-1.75L141.59,6.203z M147.755,8.409
	h-0.913l-0.723-2.055h-2.626l-0.647,2.055h-0.76l2.282-7.077h1.027L147.755,8.409z M144.863,2.283L143.76,5.67h2.169L144.863,2.283
	L144.863,2.283z M152.854,8.409h-4.186V1.332h0.875V7.61h3.273v0.799H152.854z M153.881,8.409V1.332h0.875v7.077H153.881z
	 M156.507,8.409V1.332h4.338v0.761h-3.425v2.245h2.854v0.723h-2.854v3.348H156.507z M161.111,4.947c0-1.75,0.875-3.691,2.892-3.691
	c1.979,0,2.892,1.826,2.892,3.539s-0.875,3.729-2.892,3.729S161.111,6.697,161.111,4.947z M165.982,4.833
	c0-0.647-0.115-1.37-0.42-1.94c-0.304-0.571-0.875-0.952-1.521-0.952c-1.561,0-2.017,1.712-2.017,2.968
	c0,1.218,0.495,2.854,1.979,2.854C165.525,7.801,165.982,6.05,165.982,4.833L165.982,4.833z M172.412,8.409l-1.293-3.044h-1.941
	v3.044h-0.875V1.332h2.664c0.57,0,1.141,0.076,1.598,0.418c0.457,0.342,0.762,0.951,0.762,1.56c0,0.837-0.495,1.598-1.332,1.827
	l1.408,3.272H172.412L172.412,8.409z M170.814,4.642c0.457,0,0.875-0.038,1.217-0.38c0.268-0.266,0.344-0.571,0.344-0.913
	c0-0.418-0.152-0.761-0.495-0.989c-0.305-0.229-0.608-0.229-0.989-0.229h-1.75v2.511H170.814z M179.832,8.409h-0.875l-3.615-6.164
	v6.164h-0.723V1.332h1.104l3.349,5.746V1.332h0.761V8.409z M181.507,8.409V1.332h0.875v7.077H181.507z M188.965,8.409h-0.913
	l-0.724-2.055h-2.625l-0.646,2.055h-0.762l2.283-7.077h1.027L188.965,8.409L188.965,8.409z M186.073,2.283L184.97,5.67h2.169
	L186.073,2.283L186.073,2.283z M51.636,25.609c-0.038-0.039-0.38-0.419-1.065-1.142c0.038-0.304,0.076-0.685,0.114-1.142
	l0.076-0.761l-0.305,0.152c-0.114,0.038-0.418,0.381-0.761,0.799c-0.761-0.837-1.789-1.903-3.006-3.158v-3.311
	c2.359,1.712,4.262,3.12,4.262,3.12c0.114,0.076,0.267-0.114,0.114-0.229c-0.837-0.647-2.436-1.826-4.376-3.234V14.84
	c0-0.229,0-0.723-0.229-0.571c-0.457,0.304-2.473-0.076-2.511-0.076l-0.533,0.114c-1.789-1.332-3.615-2.664-5.175-3.805
	c-0.381-0.267-0.533-0.114-0.152,0.19c0.266,0.229,2.473,1.865,4.985,3.691c-0.799,0.152-1.446,0.152-2.017,0.114
	c-0.913-0.951-1.864-1.94-2.93-3.006c-0.305-0.305-0.533-0.114-0.229,0.19c0.038,0.038,1.104,1.18,2.625,2.74
	c-0.495-0.038-0.951-0.152-1.408-0.19c-0.267-0.381-0.571-0.761-0.799-1.142c-0.495-0.647-0.533-0.229-0.267,0.19
	c0.152,0.228,0.342,0.533,0.609,0.913h-0.951c-0.038-0.152-0.076-0.267-0.152-0.38c-0.19-0.495-0.533-0.685-0.305,0.152
	c0.038,0.114,0.076,0.19,0.076,0.305c-0.19,0.038-0.457,0.114-0.723,0.266c-0.076-0.533-0.19-1.027-0.267-1.522
	c-0.114-0.533-0.342-0.495-0.266,0.076c0.076,0.533,0.152,1.065,0.266,1.598c-0.342,0.19-0.685,0.418-0.875,0.761
	c0-0.914-0.038-1.789-0.038-2.626c0-0.875-0.229-0.533-0.267,0v2.397c-0.228-0.304-0.647-0.533-1.027-0.723l0.229-1.408
	c0.076-0.571-0.19-0.609-0.267-0.076c-0.076,0.457-0.152,0.913-0.266,1.37c-0.305-0.114-0.571-0.152-0.723-0.152l0.076-0.229
	c0.228-0.837-0.114-0.685-0.267-0.152c-0.038,0.114-0.076,0.229-0.114,0.381c-0.343,0-0.685,0-0.99,0.038
	c0.267-0.381,0.457-0.685,0.609-0.914c0.305-0.418,0.229-0.837-0.266-0.19c-0.267,0.342-0.533,0.723-0.799,1.142
	c-0.495,0-0.913,0.038-1.293,0.038c1.446-1.522,2.435-2.55,2.473-2.626c0.305-0.304,0.076-0.495-0.228-0.19
	c-0.99,0.989-1.903,1.94-2.74,2.816c-1.408,0.076-1.865,0.114-2.321,0.152c2.587-1.902,4.871-3.577,5.137-3.805
	c0.381-0.304,0.229-0.457-0.152-0.19c-1.636,1.217-3.577,2.625-5.441,3.995h-0.571c-0.457,0-1.56,0.038-1.865,0
	c-0.114,0-0.304-0.076-0.38-0.076c-0.229,0-0.267,0.152-0.267,0.381v1.979c-1.864,1.37-3.462,2.549-4.262,3.158
	c-0.152,0.114,0,0.305,0.114,0.229c0,0,1.865-1.37,4.186-3.082v3.31c-3.234,3.387-4.909,5.214-4.947,5.251
	c-0.228,0.229-0.038,0.381,0.152,0.19c0.685-0.646,2.587-2.587,4.718-4.833v5.061c-1.75,2.778-2.968,4.87-3.006,4.87
	c-0.267,0.419-0.229,0.647,0.076,0.305c0.076-0.076,1.293-1.979,2.93-4.527v3.119c-0.418,0.039-0.989,0.152-1.179,0.419
	c-0.229,0.305-0.152,0.571-0.19,0.989c-0.038,0.267-0.076,0.646-0.152,0.838c-0.114,0.342-0.418,0.57-0.609,0.761
	c-0.19,0.19-0.304,0.495-0.418,0.761c-0.19,0.457,0.076,1.142,0.38,1.637c0.152,0.266,0.457,0.57,0.761,0.608
	c1.142,0.19,1.294-0.608,1.446-1.027c0-0.038,0-0.038,0.038-0.076c0,0.761,0.038,1.18,0.038,1.218s0.571,0,1.446-0.038
	c-0.19,0.608-0.343,0.951-0.343,0.989c-0.19,0.723,0.152,0.457,0.229,0.19l0.418-1.18c0.761-0.038,1.712-0.076,2.664-0.114
	c0.19,0.305,0.609,0.762,0.761,1.065l0.19,0.343l0.114,0.229c0.152,0.266,0.267,0.494,0.418,0.685
	c-0.114,0.647-0.19,1.027-0.19,1.104c-0.229,0.989-0.038,1.065,0.228,0.152c0-0.038,0.076-0.381,0.19-0.913
	c0.114,0.152,0.228,0.342,0.38,0.532c0.305,0.419,0.951,0.837,2.474,1.484c0.571,0.267,1.408,0.419,2.321,0.456
	c0.038,0.762,0.229,0.571,0.267,0c1.18,0.039,2.511-0.152,3.805-0.57c0.685-0.343,1.18-0.723,1.484-1.065v0.038
	c0.267,0.913,0.457,0.837,0.229-0.152c0-0.038,0-0.076-0.038-0.152c0.19-0.229,0.266-0.381,0.266-0.418
	c0.076-0.152,0.761-1.599-0.076-2.664l-0.038-0.038l-0.076-0.038l-0.152-0.114c1.522,0.076,3.158,0.152,4.262,0.19l0.342,0.913
	c0.076,0.267,0.457,0.495,0.229-0.19c0,0-0.114-0.266-0.266-0.723c0.685,0.038,1.104,0.038,1.104,0v-1.561
	c0.951-0.152,1.255-0.418,1.864-0.951c0.723-0.646,1.18-1.521,1.142-2.396c0.038,0.076,0.076,0.113,0.076,0.113
	c0.304,0.343,0.342,0.114,0.076-0.305c0,0-0.114-0.151-0.267-0.418c-0.152-0.494-0.418-0.913-0.761-1.256
	c-0.343-0.57-0.761-1.256-1.256-2.055c0.495-0.076,1.027-0.229,1.446-0.381c0.457-0.189,1.142-0.723,1.446-1.56l0.19-0.076
	c0.038-0.076,0.076-0.19,0.076-0.267l0.989,0.989C51.636,25.989,51.865,25.837,51.636,25.609z M49.429,23.782
	c-0.266,0.305-0.533,0.609-0.761,0.875c-0.076-0.305-0.152-0.914-0.228-1.332c-0.076-0.342-0.152-0.609-0.267-0.837
	C48.63,22.945,49.049,23.364,49.429,23.782z M46.651,20.891c0.343,0.342,0.647,0.685,0.951,0.989v0.152
	c0.114,1.142-0.114,2.055-0.266,2.588s-0.305,0.761-0.571,0.875l-0.152,0.076C46.651,23.82,46.651,22.222,46.651,20.891z
	 M45.776,15.03c0.038-0.228,0.418-0.304,0.495,0.114c0.076,0.229,0.038,5.441,0,10.578c-0.152,0.039-0.305,0.039-0.457,0.039h-0.038
	C45.776,20.548,45.738,15.145,45.776,15.03z M45.053,15.03c0-0.152,0.38-0.228,0.342,0.114c0.038,0.076-0.038,5.365-0.076,10.465
	l-0.19-0.076c0-0.077-0.038-0.153-0.038-0.153c0-0.533,0.229-0.609,0-0.875c-0.038-0.076-0.152-0.114-0.266-0.152
	C44.939,19.521,45.015,15.106,45.053,15.03L45.053,15.03z M44.102,14.802c0.076-0.305,0.38-0.076,0.38,0.038
	c0,0.114-0.038,4.756-0.076,9.513c-0.114,0.038-0.266,0.038-0.418,0.076C44.026,21.651,44.064,18.417,44.102,14.802z M44.026,24.582
	h0.076c0,0,0.495-0.152,0.647-0.038c0.19,0.152,0.114,0.799,0.114,1.027v0.229c0,0.038,0.038,0.076,0.038,0.152
	c0.076,0.19,0.267,0.267,0.267,0.343c-0.114-0.038-0.19-0.076-0.305-0.076c-0.152-0.038-0.304-0.076-0.418-0.076
	c-0.152-0.038-0.266-0.038-0.418-0.038h-0.342c-0.305,0.038-0.571,0.076-0.761,0.19c-0.076,0.038-0.152,0.076-0.229,0.151
	c0,0-0.038,0-0.038,0.039c-0.076,0.037-0.114,0.113-0.19,0.189c-0.114,0.152-0.19,0.343-0.267,0.533
	c-0.038-0.19-0.266-0.418-0.266-0.57c0-0.609,0.38-1.027,0.647-1.256c0.076-0.076,0.19-0.152,0.266-0.19
	c0.038-0.038,0.076-0.038,0.076-0.038l0.19-0.114c0.038,0,0.076-0.038,0.076-0.038c0.076-0.038,0.114-0.076,0.19-0.076
	c0.038,0,0.038,0,0.076-0.038C43.722,24.658,43.912,24.62,44.026,24.582z M45.206,26.598l0.076,0.039v1.369
	c-0.19,0-0.305,0.038-0.457,0.076c0-0.533,0-1.065,0.038-1.637c0.076,0.039,0.152,0.076,0.267,0.115L45.206,26.598z M44.406,26.332
	v1.94l-0.076,0.038c-0.076,0.038-0.19,0.076-0.304,0.114v-2.169L44.406,26.332z M43.684,26.294v2.245
	c-0.076,0-0.114,0.037-0.152,0.037c-0.571,0.039-0.913-0.189-0.989-0.342c-0.038-0.076-0.076-0.152-0.152-0.266
	c-0.038-0.115-0.076-0.344-0.076-0.344c0-0.304,0.152-0.494,0.457-0.836C42.999,26.521,43.303,26.332,43.684,26.294z M35.578,15.906
	c0.114-1.065,2.968-1.446,3.463-1.332c0.457,0.114,1.256,0.267,1.598,0.305c0,0,1.598,0.38,3.044-0.152v9.703
	c-0.267,0.076-0.875,0.229-1.294,0.571c-0.457,0.38-0.761,0.837-0.761,1.445c0,0.42,0.152,0.8,0.343,1.332
	c0.114,0.305,0.19,0.647,0.228,0.647c0.267,0.419,0.19,0.799,0.267,1.18c0.114,0.608,0.495,0.723,0.647,0.761l0.533,0.114v0.724
	h-0.114c-0.951-0.076-1.294-0.229-1.865-0.495l-0.647-0.381c-1.141-0.532-2.664-0.495-3.424-0.152
	c-0.418,0.152-0.647,0.305-0.875,0.571l-0.038,0.152l0.038,0.113c0.076,0.229,0.267,0.457,0.343,0.647
	c0.076,0.152,0.038,0.532,0.038,0.647c0,0.304-0.267,0.607-0.343,0.684h0.038c-0.266,0.152-0.38,0.495-0.418,0.952
	c-0.304,0.151-0.533,0.267-0.761,0.419C35.578,34.322,35.464,15.944,35.578,15.906z M38.508,34.551
	c0.038,0.114,0.114,0.229,0.229,0.305c0.076,0.114,0.19,0.19,0.342,0.266c0.114,0.076,0.267,0.191,0.418,0.268l0.19,0.113
	c0.114,0.039,0.19,0.114,0.304,0.19c-0.114,0-0.19,0-0.304,0.038l-0.457,0.038c-0.114,0-0.19,0-0.267,0.038
	c-0.266,0.038-0.495,0.038-0.875-0.038c-0.114,0-0.229-0.038-0.38-0.076c-0.229-0.038-0.381-0.151-0.533-0.304
	c-0.152-0.152-0.305-0.343-0.381-0.533c-0.076-0.152-0.114-0.229-0.114-0.343l-0.038-0.304c0-0.152,0.038-0.305,0.038-0.419
	c0.038-0.114,0.038-0.19,0.114-0.267v-0.038c0.038-0.075,0.114-0.114,0.152-0.151l0.076-0.039c0.114-0.037,0.19-0.037,0.304-0.037
	h0.381l0.342,0.037h0.038l0.495,0.115L38.508,33.6c-0.038,0.076-0.076,0.19-0.076,0.267c-0.038,0.076-0.038,0.19-0.038,0.267
	C38.394,34.285,38.432,34.438,38.508,34.551z M38.661,34.057c0-0.152,0.076-0.343,0.152-0.533c0.076,0,0.114,0,0.19-0.038
	c0.381,0.114,0.761,0.229,1.142,0.381L38.661,34.057z M41.553,34.322c0.495,0.152,1.027,0.229,1.598,0.305
	c-1.256,0.038-2.778,0.114-4.072,0.19c-0.152-0.114-0.229-0.19-0.304-0.305C39.688,34.438,40.677,34.398,41.553,34.322z
	 M39.155,36.149c0,0.19-0.038,0.343-0.19,0.456c-0.837,0.686-1.522,0.838-3.12,0.609l-0.457-0.076v-0.914
	c0.418,0,0.875-0.113,1.332-0.456c0.038,0,0.19-0.038,0.381-0.038c0.152,0.114,0.342,0.19,0.571,0.229
	C38.508,36.188,38.623,36.188,39.155,36.149z M36.377,34.627l-0.342-0.152l0.342-0.152C36.339,34.438,36.339,34.551,36.377,34.627z
	 M35.388,34.665c0.761,0.038,1.18,0.761,1.104,0.837c-0.533,0.609-1.674,0.647-2.169,0.039
	C34.247,35.426,34.741,34.703,35.388,34.665z M34.247,35.008c0.152,0.038-0.152,0.152-0.152,0.152
	c-0.342-0.076-1.027-0.114-1.826-0.19l-0.038-0.076c0-0.038-0.038-0.076-0.038-0.152C33.105,34.817,33.866,34.894,34.247,35.008z
	 M32.04,34.285c-0.038-0.152-0.114-0.268-0.229-0.419c0.99,0.151,2.55,0.419,2.892,0.685c-0.19,0.076,0.038-0.038-0.266,0.19
	C34.17,34.551,33.219,34.438,32.04,34.285z M33.638,35.312c0.114,0,0.38,0,0.267,0.229c0-0.039-0.533-0.039-1.37-0.039l-0.114-0.229
	C33.029,35.273,33.447,35.273,33.638,35.312z M33.942,35.807c0.418,0.152,0.685,0.305,1.104,0.381v0.837
	c-0.305-0.114-0.609-0.229-0.914-0.419c0,0-0.38-0.189-0.875-0.418c-0.229-0.114-0.418-0.267-0.571-0.457
	C33.372,35.73,33.79,35.769,33.942,35.807z M26.712,14.992c0-0.152,0-0.19,0.228-0.19c3.044,0.038,7.763-1.104,8.219,1.104
	c0,0.076,0.114,14.118,0.038,18.456c-1.027-0.419-1.826-0.571-3.577-0.8l-0.305-0.419c-0.342-0.494-0.418-0.685-0.685-0.875
	l-0.647-0.608c-0.343-0.267-0.761-0.685-0.837-0.761c-0.951-0.647-1.788-0.951-2.473-1.104
	C26.75,21.042,26.636,15.982,26.712,14.992z M26.142,15.259c0-0.457,0.266-0.457,0.228-0.114c0.038,0.495,0,5.327-0.114,14.574
	c-0.114-0.039-0.229-0.039-0.343-0.039C25.989,24.315,26.142,15.944,26.142,15.259z M25.267,15.145
	c-0.038-0.228,0.228-0.342,0.266-0.038c0.038,0.114-0.076,8.904-0.114,14.573l-0.342,0.039
	C25.076,23.973,25.229,15.221,25.267,15.145z M24.277,15.03c0.038-0.304,0.457-0.152,0.457,0.19
	c-0.038,6.126-0.114,11.149-0.152,14.611l-0.114,0.039h-0.229L24.277,15.03z M23.021,35.389c-0.229,0.189-0.457,0.266-0.761,0.228
	c-0.19,0-0.571-0.456-0.761-0.913c-0.076-0.19-0.076-0.418-0.038-0.761c0-0.114,0-0.19,0.038-0.267
	c0.038-0.114,0.114-0.229,0.19-0.305c0.114,0.152,0.342,0.305,0.571,0.419l0.457,0.267c0.267,0.189,0.647,0.305,0.913,0.342
	C23.516,34.703,23.364,35.121,23.021,35.389z M23.554,34.057c-0.076,0-0.381,0.037-0.837-0.19l-0.418-0.229
	c-0.229-0.304-0.342-0.456-0.342-0.532c0,0,0-0.039,0.038-0.039c0.228-0.189,1.141-0.189,1.712-0.113v1.064
	C23.668,34.057,23.592,34.057,23.554,34.057z M24.277,35.465c-0.038-0.152-0.076-1.066-0.038-1.256V32.99
	c0.114,0,0.229,0,0.343,0.039c0,1.408,0.038,2.168,0.152,2.207c0.076,0.037,1.484,0.037,3.197,0.037v0.039
	c0,0,0.076,0.113,0.114,0.152l0.038,0.113C26.065,35.541,24.315,35.502,24.277,35.465z M27.359,34.475
	c0.038,0.076,0.114,0.152,0.19,0.267c-1.37-0.038-2.397-0.114-2.435-0.152s-0.038-0.608-0.076-1.522l0.342,0.076
	c0,0.724,0.038,1.18,0.038,1.219C25.533,34.398,26.294,34.438,27.359,34.475z M25.875,33.334c0.114,0.037,0.229,0.113,0.381,0.189
	c0,0,0,0.038,0.038,0c0.228,0.114,0.457,0.305,0.685,0.494c-0.646,0-1.104,0-1.065,0.039C25.837,33.98,25.875,33.714,25.875,33.334z
	 M41.248,37.177c0,0.114,0,0.228-0.038,0.343v0.076c-0.038,0.113-0.038,0.228-0.076,0.38l-0.114,0.343c0,0.037,0,0.037-0.038,0.076
	c-0.038,0.113-0.076,0.229-0.152,0.342c-0.076,0.114-0.114,0.229-0.19,0.305c-0.304,0.418-0.723,0.686-1.789,1.18
	c-0.304,0.114-0.608,0.19-0.875,0.267l-0.152,0.038c-0.228,0.076-0.495,0.113-0.723,0.152h-0.114
	c-0.267,0.037-0.495,0.076-0.761,0.076h-0.038c-0.266,0-0.533,0.037-0.761,0c-0.267,0-0.495-0.039-0.723-0.039h-0.114
	c-0.114,0-0.266-0.037-0.38-0.076l-0.229-0.037l-0.266-0.076l-0.457-0.152c-1.408-0.646-2.359-1.104-2.778-1.674l-0.343-0.533
	l-0.228-0.343c-0.114-0.228-0.229-0.419-0.38-0.646L29.3,36.91l-0.19-0.342c-0.114-0.229-0.266-0.495-0.418-0.724
	c-0.038-0.076-0.114-0.152-0.152-0.267c0-0.037-0.19-0.381-0.19-0.381V35.16l-0.114-0.152c-0.076-0.114-0.114-0.19-0.19-0.267
	c-0.076-0.114-0.114-0.19-0.19-0.267c-0.114-0.189-0.229-0.342-0.305-0.381c-0.038-0.037-0.076-0.076-0.114-0.076
	c-0.076-0.075-0.152-0.151-0.267-0.228s-0.267-0.19-0.457-0.267c-0.152-0.076-0.343-0.189-0.533-0.266l-0.343-0.152l-0.457-0.191
	l-0.342-0.113c-0.19-0.038-0.343-0.114-0.495-0.114l-0.343-0.076c-0.152,0-0.266-0.038-0.38-0.038h-0.114
	c-0.723,0.038-0.837-0.038-1.065-0.038h-0.152c-0.038,0-0.114,0-0.19,0.038l0.114-0.266c0.076-0.229,0.038-0.571,0.076-0.876
	c0.038-0.343,0.152-0.799,0.342-0.951c0.038-0.038,0.114-0.114,0.19-0.114c0.038,0,0.038,0,0.076-0.038l0.19-0.038h0.609
	l0.304-0.038h0.076l0.267-0.076c0.266-0.075,0.533-0.114,0.799-0.151c0.152-0.039,0.343-0.039,0.495-0.039
	c0.229,0,0.495,0,0.723,0.076l0.457,0.114c0.038,0,0.038,0,0.076,0.038c0.152,0.038,0.305,0.114,0.457,0.19
	c0.038,0,0.076,0.038,0.076,0.038c0.152,0.076,0.342,0.19,0.495,0.305l0.076,0.037c0.19,0.115,0.38,0.268,0.571,0.42h0.038
	c0.038,0.037,0.304,0.228,0.533,0.418l0.875,0.686c0.19,0.151,0.533,0.684,0.837,1.104l0.228,0.342
	c0.19,0.266,0.343,0.646,0.457,0.989c0,0.038,0.038,0.076,0.038,0.152c0.038,0.114,0.076,0.228,0.152,0.343l0.114,0.229l0.152,0.266
	l0.152,0.229l0.152,0.19c0,0,0,0.038,0.038,0.038c0.038,0.037,0.114,0.113,0.19,0.152l0.038,0.037l0.228,0.152l0.495,0.267
	c0.19,0.114,0.419,0.229,0.647,0.343c0,0,0.038,0,0.038,0.038c0.229,0.114,0.495,0.19,0.761,0.267l0.342,0.076
	c0.038,0,0.076,0,0.076,0.037c1.75,0.229,3.196,0,3.767-0.608c0.19-0.229,0.304-0.495,0.267-0.761h0.114
	c0.571-0.038,0.761-0.076,1.104,0.189C40.982,36.605,41.248,36.834,41.248,37.177L41.248,37.177z M46.081,35.616
	c-0.152-0.038-3.349-0.151-5.898-0.19c-0.152-0.076-0.342-0.189-0.533-0.266c2.511,0.037,5.213,0.037,6.05,0
	c0-0.039,0.038-0.229,0.038-0.533l0.418-0.076C46.119,35.084,46.119,35.465,46.081,35.616z M48.668,29.795
	c0.229,0.305,0.419,0.685,0.457,1.104c0.152,0.837,0.114,1.56-0.571,2.168l-0.267,0.229l-0.152,0.115
	c-0.038,0.037-0.076,0.037-0.076,0.075L47.907,33.6l-0.076,0.038l-0.152,0.114l-0.076,0.038c-0.038,0.038-0.114,0.076-0.152,0.076
	l-0.076,0.038l-0.19,0.076c-0.038,0-0.038,0-0.076,0.037l-0.228,0.076h-0.076l-0.267,0.076l-0.342,0.039L45.7,34.285
	c-0.19,0.037-0.342,0.037-0.533,0.037c-0.229,0.039-0.457,0.039-0.685,0.039h-0.723c-0.228,0-0.418-0.039-0.608-0.039h-0.038
	c-1.065-0.113-2.017-0.38-2.74-0.723l-0.533-0.229l-0.457-0.189c-0.381-0.152-0.723-0.268-1.104-0.343h-0.076l-0.419-0.076h-0.114
	c-0.152,0-0.305-0.038-0.419,0c0.076-0.229,0.152-0.532,0.152-0.761V31.85c-0.038-0.152-0.114-0.343-0.19-0.533
	c-0.076-0.152-0.114-0.266-0.19-0.457c0.152-0.189,0.228-0.342,0.533-0.456c0.609-0.229,1.94-0.38,3.006,0.114l0.799,0.342
	c0.571,0.268,1.027,0.533,2.055,0.609l0.571,0.038c0.114,0,0.229,0,0.342,0.038h0.875c0.19,0,0.38,0,0.533-0.038
	c0.152,0,0.304-0.038,0.418-0.038c0.152,0,0.267-0.038,0.38-0.038c0.19-0.038,0.343-0.076,0.495-0.114c0.038,0,0.038,0,0.076-0.038
	c0.152-0.038,0.267-0.075,0.381-0.114C48.516,30.822,48.668,30.175,48.668,29.795z M43.988,30.632c0.114,0,0.267,0.038,0.38,0v0.723
	c-0.114,0-0.228,0-0.38-0.038V30.632z M44.787,31.354v-0.837h0.038c0.114-0.038,0.266-0.114,0.418-0.229v1.065
	C45.091,31.393,44.939,31.354,44.787,31.354z M45.738,31.393v-1.445l0.457-0.381c0,0.608,0,1.217-0.038,1.788
	C46.042,31.354,45.928,31.393,45.738,31.393z M48.25,29.68c0.038,0.229,0.114,0.99-0.875,1.332l-0.799,0.267v-2.017
	c0.343-0.229,0.761-0.266,1.636,0.343C48.25,29.604,48.25,29.643,48.25,29.68z M48.097,28.996l-0.457-0.076h-0.457
	c-0.114,0-0.19,0-0.304,0.037c-0.114,0-0.19,0.039-0.267,0.076c-0.152,0.038-0.266,0.114-0.38,0.19
	c-0.152,0.076-0.267,0.19-0.418,0.343c-0.038,0-0.038,0.038-0.038,0.038c-0.19,0.19-0.343,0.267-0.495,0.343
	c-0.152,0.076-0.267,0.113-0.419,0.152h-0.038l-0.114,0.037l-0.305,0.114c-0.228,0.076-0.495,0.114-0.723,0.076
	c-0.076,0-0.152-0.038-0.267-0.076c-0.418-0.19-0.647-0.571-0.685-0.723c-0.038-0.267,0.038-0.305-0.038-0.724
	c0.114,0.039,0.267,0.076,0.419,0.076h0.646c0.076,0,0.152-0.037,0.229-0.076l0.342-0.152h0.038
	c0.152-0.113,0.343-0.189,0.571-0.266c0.076-0.038,0.19-0.038,0.305-0.076h0.837c0.229,0,0.495-0.038,0.799,0.038
	c0.038,0,0.076,0,0.152,0.038c0.038,0,0.076,0,0.114,0.038l0.152,0.038c0.038,0,0.038,0,0.076,0.038l0.228,0.114l0.076,0.037
	l0.19,0.115l0.076,0.037C47.945,28.844,48.021,28.92,48.097,28.996z M45.776,28.044v-1.142c0.152,0.076,0.342,0.152,0.495,0.19
	v0.989L45.776,28.044z M47.869,28.501c-0.647-0.457-0.913-0.457-1.256-0.419v-0.875c0.152,0.038,0.267,0.038,0.418,0.038
	C47.336,27.701,47.641,28.12,47.869,28.501L47.869,28.501z M50.342,23.668c-0.076,0.419-0.152,0.761-0.228,1.028
	c-0.038,0.076-0.076,0.19-0.076,0.266l-0.076,0.152c-0.304,0.761-0.647,1.37-1.827,1.751c-0.152,0.037-0.304,0.075-0.418,0.075
	h-0.38c-0.152,0-0.305-0.038-0.457-0.075l-0.19-0.039l-0.229-0.037l-0.114-0.039c-0.495-0.152-0.875-0.418-0.989-0.685v-0.038
	l-0.038-0.114v-0.038c0.152,0.038,0.342,0.076,0.571,0.076c0.152,0,0.304,0,0.495-0.038c0.114,0,0.266-0.038,0.38-0.076l0.076-0.038
	c0.38-0.113,0.799-0.304,1.027-1.027c0.114-0.342,0.152-1.446,0.19-2.055c0.342,0.761,0.533,2.093,0.533,2.245l0.076,0.418
	c0,0,0.152-0.152,0.267-0.342c0.342-0.457,0.571-0.799,0.799-1.065c0.076-0.114,0.152-0.19,0.19-0.267l0.267-0.304h0.038
	l0.266-0.229C50.38,23.326,50.38,23.516,50.342,23.668z M23.326,13.851c-0.19,0.114-0.304-0.076-0.076-0.19
	c0.457-0.267,7.725-3.539,8.295-3.805c0.342-0.152,0.533,0.076,0.19,0.266C31.697,10.122,23.782,13.623,23.326,13.851z
	 M31.583,9.285c0,0,0.114,0.114-0.038,0.152c-0.19,0.076-2.474,0.19-2.625,0.19c-0.076,0-0.685,0.038-0.837,0.038
	c-0.418-0.038-0.114-0.152,0.076-0.152C28.881,9.361,31.354,9.17,31.583,9.285z M46.956,13.813c0.19,0.114,0.304-0.076,0.076-0.19
	c-0.457-0.267-7.724-3.539-8.295-3.805c-0.343-0.152-0.533,0.076-0.19,0.229C38.546,10.083,46.499,13.584,46.956,13.813
	L46.956,13.813z M38.927,9.285c0,0-0.114,0.114,0.038,0.152c0.19,0.038,2.436,0.152,2.55,0.152c0.076,0,0.646,0.038,0.837,0.038
	c0.418-0.038,0.114-0.114-0.076-0.152C42.047,9.399,39.231,9.132,38.927,9.285z M31.316,43.455l-0.038,0.076
	c-0.076,0-0.114,0-0.152,0.114l-0.609,2.245c-0.038,0.113,0,0.152,0.076,0.152l-0.038,0.076l-0.875-0.229v-0.076
	c0.114,0.038,0.152,0,0.19-0.076l0.457-1.674c-0.076,0-0.266,0-0.342,0.076l-0.076-0.039l0.152-0.646l0.076,0.038
	c0,0.076,0.038,0.076,0.114,0.114c0.114,0.038,0.19-0.038,0.229-0.152c0-0.076,0-0.114-0.076-0.114v-0.076L31.316,43.455z
	 M32.534,44.939c-0.266-0.114-0.418-0.381-0.418-0.609c0.038-0.381,0.495-0.685,1.256-0.608c0.837,0.075,1.217,0.419,1.179,0.799
	c-0.038,0.229-0.228,0.495-0.533,0.532c0.343,0.152,0.533,0.419,0.495,0.724c-0.038,0.456-0.533,0.761-1.37,0.685
	s-1.294-0.494-1.256-0.913C31.963,45.244,32.192,45.016,32.534,44.939z M33.219,46.043c0.342,0.037,0.685-0.076,0.723-0.381
	c0.038-0.267-0.267-0.457-0.647-0.494c-0.343-0.039-0.685,0.076-0.723,0.38C32.534,45.853,32.839,46.004,33.219,46.043z
	 M33.333,44.825c0.418,0.038,0.609-0.076,0.609-0.305s-0.152-0.38-0.571-0.419c-0.419-0.037-0.609,0.076-0.609,0.305
	C32.763,44.597,32.915,44.787,33.333,44.825z M36.948,44.482l-0.076-0.038c0-0.152-0.266-0.304-0.609-0.267
	c-0.495,0.039-0.761,0.457-0.723,0.914c0.19-0.191,0.495-0.381,0.799-0.381c0.609-0.038,1.104,0.229,1.142,0.913
	c0.038,0.456-0.38,0.913-1.142,0.951c-0.913,0.038-1.332-0.532-1.37-1.218c-0.038-0.837,0.38-1.521,1.332-1.598
	c0.457-0.038,0.799,0.152,0.914,0.152c0.038,0,0.076,0,0.076-0.039l0.038,0.039L36.948,44.482L36.948,44.482z M36.834,45.624
	c0-0.267-0.304-0.495-0.647-0.456c-0.342,0-0.609,0.266-0.571,0.532c0,0.304,0.305,0.495,0.647,0.456
	C36.606,46.119,36.834,45.891,36.834,45.624z M38.28,44.787c-0.267,0-0.533-0.19-0.609-0.419c-0.114-0.38,0.19-0.799,0.951-1.027
	c0.799-0.228,1.294-0.038,1.408,0.343c0.076,0.229-0.038,0.533-0.304,0.685c0.38,0,0.647,0.19,0.723,0.495
	c0.114,0.457-0.229,0.913-1.028,1.141c-0.837,0.229-1.408,0-1.522-0.418C37.861,45.32,37.976,45.016,38.28,44.787z M38.965,44.406
	c0.381-0.114,0.533-0.305,0.457-0.494c-0.076-0.19-0.266-0.305-0.646-0.19c-0.381,0.114-0.533,0.304-0.457,0.495
	C38.356,44.444,38.584,44.521,38.965,44.406z M39.308,45.624c0.342-0.114,0.609-0.343,0.533-0.608
	c-0.076-0.267-0.419-0.305-0.761-0.229c-0.342,0.113-0.609,0.342-0.533,0.608S38.965,45.7,39.308,45.624z M25.723,31.926
	l0.723,0.266c0.038,0,0.038,0,0.076-0.076h0.038l-0.228,0.571h-0.038v-0.114l-1.104-0.418v-0.039c0.076,0,0.076,0,0.076-0.037
	l0.57-1.561c0-0.038,0-0.038-0.038-0.076v-0.038l0.457,0.152v0.038c-0.038,0-0.076,0-0.076,0.038L25.723,31.926L25.723,31.926z
	 M27.816,32.648c0-0.038,0-0.076-0.038-0.114l-0.38-0.228l-0.152,0.266l0.647,0.381c0.038,0,0.038,0,0.076-0.076h0.038l-0.304,0.532
	h-0.038c0.038-0.038,0.038-0.075,0-0.075l-0.989-0.571l0.038-0.038c0.038,0.038,0.076,0,0.076-0.038l0.837-1.408
	c0-0.038,0.038-0.038-0.038-0.075l0.038-0.039l0.989,0.571c0.038,0,0.038,0,0.076-0.076h0.038l-0.304,0.532h-0.038
	c0.038-0.076,0.038-0.076,0-0.113l-0.647-0.381l-0.152,0.266l0.38,0.229c0.038,0.039,0.076,0,0.114-0.037h0.038L27.816,32.648z
	 M28.234,33.828c0.076,0,0.114,0,0.114-0.038l0.913-0.951l-0.266-0.267c0,0-0.038,0-0.114,0.038h-0.038l0.418-0.456H29.3
	c-0.038,0.076-0.038,0.076-0.038,0.113l0.799,0.799c0,0,0.038,0,0.114-0.037l0.038,0.037l-0.457,0.419
	c0.038-0.075,0.076-0.075,0.038-0.114l-0.304-0.266l-0.914,0.951c-0.038,0.037-0.038,0.037,0,0.076l-0.038,0.037L28.234,33.828z
	 M29.528,35.654c0.076,0.038,0.076,0.038,0.114,0l1.218-0.533l-0.152-0.342c0-0.038-0.038-0.038-0.114,0v-0.038l0.571-0.267v0.038
	c-0.076,0.038-0.076,0.038-0.076,0.076l0.457,1.027c0,0.038,0.038,0.038,0.114,0v0.038l-0.571,0.267v-0.038
	c0.076-0.038,0.076-0.076,0.076-0.076l-0.19-0.381l-1.218,0.533c-0.038,0-0.038,0.038-0.038,0.076H29.68L29.528,35.654z
	 M30.898,38.09c-0.038,0-0.038,0.038,0,0.076l-0.038,0.038l-0.266-0.381l0.038-0.038c0.038,0.038,0.076,0.038,0.076,0l0.532-0.381
	l-0.342-0.494l-0.533,0.381c-0.038,0-0.038,0.037,0,0.076l-0.038,0.037l-0.266-0.38l0.038-0.038c0.038,0.038,0.076,0.038,0.076,0
	l1.332-0.951c0.038,0,0.038-0.038,0-0.076l0.038-0.038l0.266,0.38l-0.038,0.039c-0.038-0.039-0.076-0.039-0.076,0l-0.457,0.342
	l0.343,0.495l0.457-0.343c0.038,0,0.038-0.038,0-0.076l0.038-0.038l0.266,0.381l-0.038,0.038c-0.038-0.038-0.076-0.038-0.076,0
	L30.898,38.09z M32.496,38.623c0-0.039,0-0.076-0.038-0.115l-0.342-0.266l-0.19,0.266l0.609,0.419c0.038,0,0.038,0,0.114-0.076
	h0.038l-0.343,0.495h-0.038c0.038-0.038,0.038-0.076,0-0.076l-0.914-0.686l0.038-0.037c0.038,0.037,0.076,0,0.076,0l0.951-1.332
	c0-0.038,0.038-0.038,0-0.076l0.038-0.038l0.913,0.685c0.038,0,0.038,0,0.076-0.037h0.038l-0.38,0.494h-0.038
	c0.038-0.076,0.038-0.076,0.038-0.114l-0.609-0.419l-0.19,0.229l0.343,0.267c0.038,0.038,0.076,0,0.114-0.038h0.038L32.496,38.623z
	 M33.295,39.65c0,0.037,0,0.037,0.038,0.076v0.037l-0.457-0.152v-0.037c0.076,0,0.076,0,0.076-0.039l0.495-1.56
	c0-0.038,0-0.038-0.038-0.076v-0.038l0.799,0.267c0.304,0.114,0.418,0.343,0.267,0.723c-0.114,0.305-0.267,0.419-0.495,0.457
	l0.076,0.646c0,0.038,0,0.076,0.038,0.076v0.038l-0.457-0.152v-0.037c0.038,0,0.038,0,0.076-0.039c0-0.037-0.076-0.57-0.076-0.646
	l-0.229-0.076L33.295,39.65z M33.6,38.736l0.38,0.114c0.114,0.038,0.19-0.038,0.229-0.114c0.038-0.113,0.038-0.189-0.114-0.229
	l-0.38-0.113L33.6,38.736z M35.769,39.535c-0.038-0.037-0.038-0.076-0.076-0.076l-0.418-0.037l-0.038,0.342l0.723,0.039
	c0.038,0,0.038,0,0.038-0.115h0.038l-0.038,0.609h-0.038c0-0.076,0-0.076-0.038-0.076l-1.142-0.076v-0.038
	c0.038,0,0.076-0.038,0.076-0.076l0.114-1.636c0-0.039,0-0.076-0.076-0.076V38.28l1.142,0.075c0.038,0,0.038,0,0.038-0.113h0.038
	l-0.038,0.608h-0.038c0-0.075,0-0.114-0.038-0.114l-0.723-0.037l-0.038,0.304l0.418,0.038c0.038,0,0.076-0.038,0.076-0.076h0.038
	V39.535z M36.986,38.355c0-0.037-0.038-0.037-0.076-0.037V38.28l0.837-0.267c0.229-0.076,0.457,0,0.571,0.342
	c0.076,0.191,0,0.344-0.114,0.42c0.152,0,0.304,0.113,0.38,0.342c0.076,0.267,0.038,0.533-0.304,0.646l-0.837,0.267v-0.038
	c0.038-0.038,0.038-0.038,0.038-0.076L36.986,38.355z M37.519,38.812l0.304-0.076c0.19-0.037,0.229-0.076,0.19-0.229
	s-0.114-0.152-0.266-0.076l-0.305,0.076L37.519,38.812L37.519,38.812z M37.747,39.574l0.381-0.115
	c0.152-0.037,0.19-0.113,0.152-0.266s-0.114-0.19-0.267-0.152l-0.38,0.114L37.747,39.574L37.747,39.574z M39.802,38.395
	c-0.038-0.039-0.076-0.039-0.114-0.039l-0.38,0.191l0.152,0.304l0.647-0.343c0.038,0,0.038-0.037,0-0.113h0.038l0.267,0.532h-0.038
	c-0.038-0.038-0.038-0.076-0.076-0.038l-1.027,0.533l-0.038-0.038c0.038-0.038,0.038-0.038,0.038-0.076l-0.761-1.484
	c0-0.038-0.038-0.038-0.076-0.038l-0.038-0.037l1.027-0.533c0.038,0,0.038-0.038,0-0.114h0.038l0.267,0.532h-0.038
	c-0.038-0.076-0.076-0.076-0.076-0.076l-0.647,0.419l0.152,0.267l0.38-0.19c0.038-0.038,0.038-0.076,0.038-0.114h0.038
	L39.802,38.395z M39.155,32.307l0.761,0.189c0.038,0,0.038,0,0.076-0.076h0.038l-0.152,0.609H39.84v-0.115l-1.18-0.304v-0.038
	c0.076,0,0.076,0,0.076-0.038l0.38-1.599c0-0.037,0-0.037-0.038-0.076v-0.037l0.457,0.113v0.039c-0.038,0-0.076,0-0.076,0.037
	L39.155,32.307z M40.221,33.066v-0.037c0.038,0,0.076,0,0.076-0.039l0.609-1.521c0-0.038,0-0.038-0.038-0.076v-0.038l0.418,0.19
	v0.038c-0.038,0-0.076,0-0.076,0.038l-0.609,1.521c0,0.039,0,0.039,0.038,0.076v0.039L40.221,33.066z M42.504,33.143l-0.267-0.076
	c-0.038,0-0.038,0-0.038,0.076h-0.038l0.114-0.494h0.038v0.076l0.647,0.189v0.039c-0.038,0-0.038,0-0.038,0.037l-0.152,0.533v0.114
	c-0.228,0.114-0.495,0.152-0.799,0.076c-0.381-0.114-0.647-0.495-0.457-1.104c0.152-0.608,0.608-0.837,0.951-0.724
	c0.152,0.039,0.19,0.076,0.342,0.191c0.076,0.037,0.114,0.113,0.152,0.152c0,0,0.038,0,0.038-0.039l0.038,0.039l-0.267,0.38
	l-0.038-0.038v-0.038c0-0.076-0.19-0.228-0.342-0.267c-0.229-0.037-0.457,0.076-0.533,0.419c-0.114,0.38,0.076,0.608,0.266,0.647
	c0.114,0.037,0.229,0.037,0.343,0L42.504,33.143z M44.749,33.98c0,0.037,0,0.037,0.076,0.076v0.037l-0.457-0.037v-0.039
	c0.076,0,0.076-0.037,0.076-0.075l0.038-0.647l-0.609-0.037l-0.038,0.646c0,0.038,0,0.038,0.076,0.076v0.037l-0.457-0.037v-0.038
	c0.076,0,0.076-0.038,0.076-0.076l0.114-1.636c0-0.039,0-0.039-0.076-0.076v-0.039l0.457,0.039v0.037
	c-0.038,0-0.076,0.039-0.076,0.076l-0.038,0.571l0.609,0.038l0.038-0.57c0-0.039,0-0.076-0.076-0.076v-0.039l0.457,0.039v0.037
	c-0.076,0-0.076,0.039-0.076,0.076L44.749,33.98z M45.928,33.942v-0.038c0.038,0,0.076-0.038,0.038-0.076l-0.19-1.294l-0.381,0.076
	c-0.038,0-0.038,0.038-0.038,0.114H45.32l-0.114-0.609h0.038c0.038,0.076,0.038,0.076,0.076,0.076l1.104-0.189
	c0.038,0,0.038-0.039,0.038-0.115h0.038l0.114,0.609h-0.038l-0.038-0.076l-0.38,0.076l0.19,1.294c0,0.038,0,0.038,0.076,0.038v0.038
	L45.928,33.942z M22.793,38.471l-0.038,0.037c-0.076-0.037-0.114-0.037-0.19,0l-1.446,1.484l0.533,0.533
	c0.114,0.113,0.152,0.113,0.229,0.076l0.076,0.076l-0.457,0.456l-0.038-0.038c0.038-0.076,0-0.113-0.076-0.229l-1.56-1.483
	c-0.114-0.114-0.152-0.114-0.229-0.076l-0.076-0.076l0.457-0.456l0.076,0.075c-0.076,0.076-0.038,0.114,0.076,0.229l0.533,0.532
	l1.446-1.483c0.076-0.076,0.076-0.114,0-0.19l0.038-0.038L22.793,38.471z M19.521,36.758l0.837-0.608
	c0.076-0.038,0.076-0.114,0-0.229l0.076-0.038l0.571,0.799l-0.076,0.038c-0.076-0.114-0.114-0.114-0.19-0.075l-1.903,1.331
	c-0.076,0.038-0.076,0.076,0,0.229l-0.076,0.038l-0.533-0.799l0.076-0.039c0.076,0.115,0.114,0.115,0.19,0.076l0.723-0.494
	l-0.799-1.104l-0.723,0.494c-0.076,0.039-0.076,0.115,0,0.229l-0.076,0.039l-0.571-0.8l0.076-0.038
	c0.076,0.114,0.114,0.114,0.19,0.076l1.903-1.332c0.076-0.038,0.076-0.113,0-0.229l0.076-0.037l0.571,0.799l-0.076,0.037
	c-0.076-0.113-0.114-0.113-0.19-0.075l-0.837,0.608L19.521,36.758z M18.151,33.029l-0.609-1.332c-0.076-0.152-0.076-0.19-0.19-0.152
	l-0.038-0.076l0.571-0.266l0.038,0.075c-0.076,0.038-0.076,0.114,0,0.229l0.951,2.093l-0.076,0.038
	c-0.076-0.152-0.114-0.152-0.19-0.114l-2.093,0.914c-0.076,0.037-0.114,0.075-0.038,0.266L16.4,34.741l-0.913-2.017
	c-0.076-0.152-0.076-0.19-0.19-0.152l-0.038-0.076l0.571-0.266l0.038,0.076c-0.038,0.037-0.038,0.113,0,0.228l0.571,1.256
	l0.609-0.267l-0.343-0.761c-0.076-0.114-0.114-0.19-0.19-0.152l-0.038-0.076l0.571-0.267l0.038,0.076
	c-0.038,0.038-0.038,0.114,0,0.229l0.342,0.723L18.151,33.029z M14.041,26.104h0.076c0.038,0.114,0.038,0.152,0.152,0.152
	l1.522-0.038c0.342,0,0.571-0.267,0.571-0.723s-0.267-0.685-0.609-0.685l-1.522,0.038c-0.076,0-0.114,0.038-0.114,0.152h-0.076
	l-0.038-0.913h0.076c0.038,0.114,0.038,0.152,0.152,0.152l1.522-0.038c0.609-0.038,1.027,0.342,1.065,1.293
	c0.038,0.951-0.342,1.332-0.989,1.371l-1.522,0.037c-0.076,0-0.114,0.038-0.114,0.19h-0.076L14.041,26.104z M16.743,23.173h-0.076
	c0-0.114-0.038-0.152-0.114-0.152l-2.283-0.343c-0.076,0-0.114,0-0.152,0.114h-0.076l0.152-1.027h0.076c0,0.076,0,0.114,0.038,0.114
	c0.076,0,1.636-0.837,1.864-0.875l-1.598-0.266c-0.076,0-0.114,0-0.152,0.114h-0.076l0.152-0.837h0.076
	c0,0.114,0.038,0.152,0.114,0.152l2.283,0.342c0.114,0,0.114,0,0.152-0.076h0.076l-0.19,0.875h-0.076c0-0.076,0-0.114-0.038-0.114
	c-0.076,0-1.522,0.837-2.017,0.989l1.75,0.267c0.076,0,0.114,0,0.152-0.114h0.076L16.743,23.173z M17.466,19.482l-0.076-0.038
	c0.038-0.19,0.038-0.228-0.076-0.228l-2.207-0.723c-0.076-0.038-0.114,0-0.19,0.152h-0.038l0.342-1.027l0.076,0.038
	c-0.038,0.19-0.038,0.228,0.076,0.228l2.207,0.723c0.076,0.038,0.114,0,0.19-0.152l0.076,0.038L17.466,19.482z M18.417,16.971
	l-0.076-0.038c0.038-0.076,0.038-0.152,0-0.19s-1.788-0.076-2.473-0.152c-0.114,0-0.229,0-0.267,0.038l-0.076-0.038l0.381-0.799
	l0.076,0.038c-0.038,0.114-0.038,0.152,0.038,0.152c0.076,0.038,1.37,0.076,1.979,0.152c-0.457-0.495-1.294-1.446-1.37-1.484
	c-0.038,0-0.038,0-0.114,0.114l-0.076-0.038l0.38-0.761l0.076,0.038c-0.038,0.114,0.038,0.152,0.114,0.267
	c0.609,0.685,1.56,1.75,1.674,1.788c0.038,0.038,0.076,0,0.114-0.076l0.076,0.038L18.417,16.971z M19.825,13.737l0.875-1.18
	c0.076-0.114,0.114-0.152,0.038-0.229l0.038-0.076l0.495,0.381l-0.038,0.076c-0.076-0.038-0.114,0-0.19,0.114l-1.37,1.827
	l-0.076-0.038c0.076-0.152,0.076-0.19,0-0.228l-1.827-1.408c-0.076-0.038-0.114-0.038-0.228,0.114l-0.038-0.038l1.332-1.789
	c0.076-0.114,0.114-0.152,0.038-0.228l0.038-0.076l0.495,0.38l-0.038,0.076c-0.076-0.038-0.114,0-0.19,0.114l-0.837,1.104
	l0.533,0.418l0.495-0.647c0.076-0.114,0.114-0.152,0.038-0.228l0.038-0.076l0.495,0.38l-0.038,0.076
	c-0.076-0.038-0.114,0-0.19,0.114l-0.495,0.647L19.825,13.737z M21.842,11.948l-0.038-0.038c0.076-0.076,0.076-0.114,0-0.19
	l-1.56-1.712c-0.076-0.076-0.114-0.076-0.19,0L20.015,9.97l1.18-1.065c0.533-0.457,1.027-0.533,1.332-0.19
	c0.266,0.304,0.266,0.647,0,1.065l0.875,0.267c0.266,0.076,0.342,0.114,0.457,0.038l0.038,0.038l-0.685,0.609l-0.076-0.076
	c0.038-0.038,0.076-0.114,0.038-0.152c0-0.038-0.038-0.038-0.152-0.076L22.07,10.16l-0.418,0.381l0.609,0.685
	c0.076,0.076,0.114,0.076,0.19,0l0.038,0.038L21.842,11.948z M21.385,10.274l0.533-0.495c0.304-0.267,0.304-0.457,0.152-0.647
	c-0.152-0.152-0.38-0.152-0.646,0.114l-0.533,0.495L21.385,10.274z M24.467,8.752l0.076-0.038v0.038c0.076,0.152,0.609,0,0.913-0.19
	c0.495-0.304,0.571-0.533,0.457-0.761c-0.304-0.495-1.826,0.875-2.321,0.038c-0.229-0.343-0.076-0.875,0.608-1.294
	c0.305-0.19,0.533-0.267,0.723-0.305c0.19-0.038,0.305-0.038,0.343-0.076c0.076-0.038,0.076-0.076,0.076-0.114h0.038v0.799h-0.076
	c0,0-0.038-0.038-0.038-0.076c-0.076-0.114-0.381-0.114-0.837,0.152c-0.304,0.19-0.342,0.381-0.266,0.533
	c0.266,0.457,1.788-0.913,2.359,0c0.229,0.381,0.038,0.951-0.799,1.484c-0.267,0.152-0.495,0.228-0.685,0.304
	c-0.19,0.038-0.305,0.038-0.38,0.114c-0.038,0-0.038,0.076-0.038,0.114h-0.076L24.467,8.752L24.467,8.752z M27.664,7.915
	l-0.038-0.076c0.152-0.076,0.19-0.114,0.152-0.19l-0.875-2.131c-0.038-0.076-0.076-0.114-0.266-0.038l-0.038-0.076l0.989-0.38
	l0.038,0.076c-0.152,0.076-0.19,0.114-0.152,0.19l0.875,2.131c0.038,0.076,0.076,0.114,0.266,0.038l0.038,0.076L27.664,7.915z
	 M30.251,7.001V6.925c0.076-0.038,0.114-0.076,0.076-0.152l-0.495-2.055l-0.761,0.19c-0.152,0.038-0.19,0.076-0.19,0.152
	l-0.076,0.038l-0.152-0.647l0.076-0.038c0.038,0.076,0.076,0.076,0.229,0.038l2.093-0.533c0.152-0.038,0.19-0.076,0.19-0.152
	l0.114,0.038l0.152,0.609l-0.076,0.038c-0.038-0.114-0.114-0.114-0.228-0.076l-0.761,0.19l0.495,2.017
	c0.038,0.076,0.076,0.114,0.19,0.076v0.076L30.251,7.001z M34.475,6.316l-0.952,0.076V6.316c0.114-0.038,0.152-0.076,0.152-0.152
	l-0.038-0.914l-1.065-1.332c-0.038-0.038-0.076-0.076-0.152-0.114V3.729l0.989-0.076v0.076c-0.114,0-0.152,0.038-0.152,0.076
	s0.457,0.571,0.723,0.875c0.152-0.304,0.571-0.875,0.571-0.989c0-0.038-0.038-0.076-0.152-0.076V3.539l0.951-0.076v0.076
	c-0.076,0.038-0.114,0.038-0.152,0.114l-0.875,1.484l0.076,0.913c0,0.076,0.038,0.114,0.152,0.114L34.475,6.316z M42.009,4.68
	c0.913,0.305,1.255,1.065,0.989,1.827c-0.267,0.723-0.989,1.142-1.903,0.837c-0.913-0.304-1.255-1.065-0.989-1.826
	C40.335,4.794,41.058,4.376,42.009,4.68z M41.248,6.925c0.533,0.19,0.951-0.038,1.142-0.609s0-1.027-0.533-1.179
	c-0.533-0.19-0.951,0.038-1.142,0.608C40.487,6.316,40.677,6.735,41.248,6.925z M43.113,8.105l0.038-0.076
	c0.152,0.076,0.19,0.076,0.228,0l1.104-2.017c0.038-0.076,0.038-0.114-0.114-0.229l0.038-0.076l1.941,1.065
	c0.114,0.076,0.152,0.076,0.228,0l0.076,0.038l-0.304,0.533l-0.076-0.038c0.038-0.076,0-0.114-0.114-0.19l-1.218-0.647L44.597,7.04
	l0.761,0.418c0.114,0.076,0.19,0.076,0.229,0l0.076,0.038l-0.305,0.533l-0.076-0.038c0-0.076,0-0.114-0.152-0.19l-0.761-0.419
	l-0.457,0.837c-0.038,0.076-0.038,0.114,0.114,0.228l-0.038,0.076L43.113,8.105z M52.169,12.443l-0.761,0.076l-0.038-0.076
	c0,0,0.038,0,0.038-0.038c0.152-0.114,0.076-0.457-0.152-0.723c-0.381-0.457-0.837-0.57-1.37-0.114
	c-0.418,0.342-0.457,0.913-0.114,1.332c0.229,0.267,0.571,0.381,0.723,0.267c0,0,0.038-0.076,0.076-0.076l0.076,0.038l-0.076,0.761
	h-0.076c0-0.038,0-0.076-0.038-0.114c-0.114-0.114-0.495-0.038-1.027-0.647c-0.609-0.723-0.495-1.56,0.076-2.055
	c0.723-0.609,1.598-0.305,2.131,0.304c0.19,0.229,0.266,0.418,0.304,0.571s0.038,0.267,0.076,0.304l0.114,0.076L52.169,12.443z
	 M50.533,14.498l0.076-0.038c0.038,0.076,0.114,0.076,0.19,0.076l2.397-0.266c0.114,0,0.152,0,0.19-0.038
	c0.038,0,0.038-0.038,0-0.152l0.076-0.038l0.495,0.913l-0.076,0.038c-0.038-0.076-0.114-0.114-0.152-0.076
	c-0.038,0-0.038,0.038-0.152,0.152l-1.446,1.827c-0.076,0.076-0.076,0.114-0.038,0.19l-0.076,0.038l-0.418-0.761l0.076-0.038
	C51.712,16.4,51.75,16.4,51.789,16.4s0.038-0.038,0.076-0.076l0.304-0.418l-0.571-0.989l-0.457,0.038c-0.038,0-0.076,0-0.076,0.038
	c-0.038,0.038-0.076,0.076,0,0.152l-0.076,0.038L50.533,14.498z M52.397,15.639l0.761-0.875l-1.142,0.152L52.397,15.639z
	 M54.642,17.009c0.076-0.038,0.114-0.076,0.076-0.229l0.076-0.038l0.343,0.989l-0.076,0.038c-0.076-0.152-0.114-0.19-0.19-0.152
	l-1.979,0.685l0.457,1.332c0.038,0.152,0.076,0.19,0.19,0.152l0.038,0.076l-0.608,0.229l-0.038-0.076
	c0.076-0.038,0.076-0.114,0-0.228l-0.723-2.093l0.076-0.038c0.076,0.114,0.114,0.152,0.19,0.114L54.642,17.009z M53.158,20.624
	h0.076c0.038,0.19,0.076,0.19,0.19,0.19l2.245-0.457c0.076,0,0.114-0.038,0.076-0.229h0.076l0.19,1.027h-0.076
	c-0.038-0.19-0.076-0.19-0.19-0.19l-2.245,0.457c-0.076,0-0.114,0.038-0.076,0.228h-0.076L53.158,20.624z M53.501,22.451h0.076
	c0.038,0.152,0.076,0.19,0.152,0.19l2.283-0.152c0.076,0,0.114-0.038,0.114-0.229h0.076l0.152,2.207c0,0.114,0.038,0.19,0.114,0.19
	v0.076l-0.609,0.038v-0.076c0.076-0.038,0.076-0.076,0.076-0.19l-0.114-1.37l-0.685,0.038l0.076,0.875
	c0,0.152,0.038,0.19,0.114,0.19v0.076l-0.609,0.038v-0.076c0.076-0.038,0.076-0.076,0.076-0.228l-0.076-0.875l-0.951,0.076
	c-0.076,0-0.114,0.038-0.114,0.229h-0.076L53.501,22.451z M56.203,27.359c-0.114,0.951-0.799,1.445-1.561,1.332
	c-0.761-0.115-1.332-0.723-1.179-1.675c0.114-0.951,0.799-1.446,1.56-1.331C55.784,25.799,56.316,26.408,56.203,27.359z
	 M53.881,27.093c-0.076,0.571,0.228,0.913,0.837,0.989s0.99-0.189,1.065-0.761c0.076-0.571-0.228-0.913-0.837-0.989
	S53.958,26.521,53.881,27.093z M53.082,29.376l0.076,0.038c-0.038,0.114,0,0.152,0.076,0.19l2.169,0.761
	c0.076,0.038,0.114,0,0.19-0.114l0.076,0.038l-0.533,1.484c-0.229,0.646-0.647,0.951-1.066,0.799
	c-0.38-0.114-0.57-0.457-0.495-0.913l-0.913,0.228c-0.266,0.039-0.342,0.076-0.418,0.191l-0.076-0.039l0.304-0.875l0.076,0.039
	c0,0.075-0.038,0.113,0.038,0.151c0.038,0,0.038,0,0.19-0.038l0.951-0.229l0.19-0.532l-0.875-0.305c-0.076-0.038-0.114,0-0.19,0.114
	l-0.076-0.038L53.082,29.376z M54.3,30.632l-0.229,0.685c-0.114,0.381-0.038,0.57,0.152,0.646c0.229,0.076,0.381-0.037,0.533-0.418
	l0.229-0.686L54.3,30.632z M51.827,32.839l0.076,0.038c-0.038,0.113-0.038,0.152,0.038,0.189l1.979,1.143
	c0.076,0.037,0.114,0.037,0.19-0.039l0.076,0.039l-0.533,0.912l-0.076-0.037c0.038-0.076,0.038-0.114,0-0.114
	c-0.076-0.038-1.826,0.228-2.055,0.151l1.408,0.8c0.076,0.038,0.114,0.038,0.19-0.038l0.076,0.038l-0.418,0.761l-0.076-0.037
	c0.038-0.115,0.038-0.152-0.038-0.191l-2.017-1.141c-0.076-0.039-0.114-0.039-0.19,0.037l-0.076-0.037l0.457-0.8l0.076,0.038
	c-0.038,0.076-0.038,0.114,0,0.152c0.076,0.038,1.75-0.229,2.245-0.19l-1.56-0.875c-0.076-0.038-0.114-0.038-0.19,0.038
	l-0.076-0.038L51.827,32.839z M49.81,35.997l0.038,0.038c-0.114,0.152-0.114,0.189-0.038,0.266l1.789,1.447
	c0.076,0.037,0.114,0.037,0.229-0.076l0.038,0.037l-0.685,0.838l-0.038-0.039c0.114-0.152,0.114-0.189,0.038-0.266l-1.789-1.446
	c-0.076-0.038-0.114-0.038-0.228,0.076l-0.038-0.038L49.81,35.997z M48.744,37.328l0.038,0.039c-0.076,0.076-0.038,0.152,0,0.189
	l0.837,2.246c0.038,0.076,0.038,0.151,0.076,0.151c0.038,0.038,0.038,0.038,0.152-0.038l0.038,0.038l-0.761,0.724l-0.038-0.039
	c0.076-0.076,0.076-0.113,0.038-0.151l-0.19-0.114l-2.131-0.951c-0.076-0.038-0.114-0.038-0.19,0l-0.038-0.038l0.647-0.571
	l0.038,0.038c-0.038,0.076-0.076,0.076-0.038,0.114c0,0,0.038,0.038,0.076,0.038l0.457,0.19l0.837-0.762l-0.152-0.418
	c0-0.038-0.038-0.076-0.038-0.076c-0.038-0.038-0.076-0.038-0.152,0.038l-0.038-0.038L48.744,37.328L48.744,37.328z M48.098,39.384
	l1.065,0.495l-0.457-1.066L48.098,39.384z"/>
<circle fill="#FFFFFF" cx="15.906" cy="28.995" r="0.419"/>
<path fill="#FFFFFF" d="M23.744,40.791c-0.228,0-0.418,0.191-0.418,0.419c0,0.229,0.19,0.419,0.418,0.419
	c0.229,0,0.419-0.19,0.419-0.419C24.163,40.982,23.973,40.791,23.744,40.791z M28.881,43.722c-0.229,0-0.418,0.19-0.418,0.419
	c0,0.228,0.19,0.418,0.418,0.418c0.228,0,0.418-0.19,0.418-0.418C29.3,43.912,29.109,43.722,28.881,43.722z M41.324,43.531
	c-0.229,0-0.418,0.19-0.418,0.418c0,0.229,0.19,0.419,0.418,0.419s0.418-0.19,0.418-0.419
	C41.743,43.722,41.553,43.531,41.324,43.531z M45.7,41.02c-0.229,0-0.418,0.19-0.418,0.419c0,0.228,0.19,0.419,0.418,0.419
	c0.228,0,0.418-0.191,0.418-0.419C46.157,41.172,45.966,41.02,45.7,41.02z"/>
<circle fill="#FFFFFF" cx="47.945" cy="9.551" r="0.419"/>
<circle fill="#FFFFFF" cx="37.938" cy="5.175" r="0.419"/>
<g>
	<path fill="#FFFFFF" d="M29.718,31.164h0.571c0.076,0,0.495,0.039,0.685,0.076c0.076,0,0.152,0.229,0.038,0.229
		c-0.609-0.038-0.38,0-0.989-0.076C29.452,31.354,29.718,31.164,29.718,31.164z M31.963,31.278c0.152-0.038,1.865,0.229,1.979,0.343
		c0,0,0.076,0.038,0.038,0.152c-0.114,0.189-0.418-0.152-1.598-0.19c-0.266-0.038-0.646,0-0.608-0.19
		C31.773,31.354,31.887,31.278,31.963,31.278z"/>
</g>
<path fill="#FFFFFF" d="M28.463,17.808c-0.076,0.076-0.076,0.305-0.114,0.38c0,0.038-0.229,0-0.229-0.038
	c0,0,0.076-0.457,0.114-0.571h0.457c0.038-0.076-0.114-0.533-0.114-0.533c-0.076,0.038-0.152,0.571-0.152,0.571h-0.19
	c0,0,0.152-0.99,0.305-0.99c0.038,0,0.152-0.038,0.19,0.038c0.038,0.114,0.418,1.37,0.418,1.484c-0.076,0.038-0.266,0.114-0.266,0
	c0,0,0-0.267-0.076-0.343C28.729,17.77,28.539,17.732,28.463,17.808z"/>
<g>
	<path fill="#FFFFFF" d="M29.756,21.461c-0.038,0.152-0.418,0.076-0.685,0.076c-0.646,0-1.332,0.076-1.332-0.076
		c-0.038-0.266,0.761-0.152,1.065-0.152C29.262,21.309,29.833,21.195,29.756,21.461z M30.708,21.423
		c-0.076,0.114-0.267,0.114-0.495,0.076c-0.076,0-0.114,0-0.152-0.076c0-0.152,0.228-0.152,0.533-0.152
		C30.708,21.309,30.746,21.347,30.708,21.423z M31.925,21.499c-0.076,0.038-0.761,0.114-0.799-0.038
		c-0.038-0.152,0.266-0.19,0.571-0.152C32.04,21.271,32.001,21.461,31.925,21.499z M34.247,21.956
		c-0.076,0.076-0.837-0.305-1.18-0.381c-0.266-0.076-0.457,0-0.647-0.038c-0.152-0.038-0.076-0.19,0.076-0.228
		C32.915,21.195,34.399,21.804,34.247,21.956z"/>
</g>
<g>
	<path fill="#FFFFFF" d="M29.338,22.641c-0.038,0.152-0.418,0.076-0.685,0.076c-0.609,0-0.913,0-0.913-0.19
		c0-0.152,0.342-0.038,0.647-0.038C28.843,22.489,29.414,22.375,29.338,22.641z M30.974,22.641
		c-0.038,0.152-0.418,0.076-0.685,0.076c-0.609,0-0.647,0-0.647-0.076c-0.038-0.114,0.076-0.152,0.381-0.152
		C30.479,22.489,31.05,22.413,30.974,22.641z M32.078,22.679c-0.076,0.114-0.267,0.038-0.533,0.038c-0.076,0-0.114,0-0.152-0.076
		c0-0.152,0.267-0.152,0.571-0.152C32.04,22.489,32.116,22.603,32.078,22.679z M34.285,23.173c-0.038,0.19-0.38-0.152-0.761-0.228
		c-0.266-0.076-0.799-0.114-1.027-0.114c-0.152-0.038-0.152-0.19,0-0.19C33.257,22.489,34.323,22.983,34.285,23.173z"/>
</g>
<g>
	<path fill="#FFFFFF" d="M34.361,24.391c0,0.267-0.533-0.076-0.875-0.114c-0.266-0.038-0.723-0.076-1.104-0.038
		c-0.152,0-0.152-0.228,0-0.228C32.725,23.935,34.361,24.201,34.361,24.391z M31.811,24.087c-0.076,0.114-0.342,0.076-0.571,0.076
		c-0.076,0-0.152-0.038-0.152-0.114c0-0.152,0.152-0.152,0.457-0.152C31.849,23.858,31.849,24.011,31.811,24.087z M29.528,24.011
		c-0.076,0.114-0.495,0.076-0.723,0.038c-0.609-0.114-1.142,0.19-1.142-0.076c0-0.19,0.609-0.152,0.913-0.152
		C29.034,23.82,29.68,23.744,29.528,24.011z M30.67,24.011c-0.076,0.152-0.267,0.114-0.495,0.114c-0.076,0-0.152,0-0.152-0.076
		c0-0.19,0.266-0.19,0.571-0.19C30.632,23.896,30.708,23.935,30.67,24.011z"/>
</g>
<g>
	<path fill="#FFFFFF" d="M31.24,16.21c0.038,0.152-0.418,0.076-0.761,0.114c-0.647,0.076-0.685,0.152-0.647,0
		C29.985,16.058,31.24,15.982,31.24,16.21z M31.583,16.324c-0.038-0.038-0.076-0.076,0-0.152c0.266-0.19,0.647-0.038,0.723,0.038
		c0.076,0.114-0.038,0.19-0.114,0.19C32.116,16.362,31.697,16.4,31.583,16.324z M34.17,16.971c-0.076,0.076-0.533-0.229-0.761-0.343
		c-0.38-0.114-0.761-0.114-0.761-0.304C32.648,15.944,34.513,16.628,34.17,16.971z"/>
</g>
<g>
	<path fill="#FFFFFF" d="M31.088,18.912c-0.038,0.076-0.38,0-0.647,0.038c-0.305,0-0.495,0.076-0.533-0.114
		c0-0.152,0.304-0.114,0.609-0.114C30.86,18.722,31.203,18.684,31.088,18.912z M31.431,18.95c-0.114-0.038-0.076-0.114,0-0.19
		c0.305-0.038,0.685,0,0.761,0c0.114,0.038,0.076,0.19-0.038,0.19C31.507,18.95,31.583,18.988,31.431,18.95z M34.17,19.521
		l-0.647-0.19c-0.266-0.076-0.38-0.076-0.457-0.152c-0.114-0.038-0.038-0.19,0-0.229C33.143,18.95,34.475,19.292,34.17,19.521z
		 M32.877,18.95c-0.038,0.229-0.229,0.114-0.343,0.114c-0.076-0.038-0.076-0.114-0.038-0.152
		C32.572,18.797,32.839,18.874,32.877,18.95z"/>
</g>
<g>
	<path fill="#FFFFFF" d="M30.327,17.656c0.076,0.19-0.266,0.19-0.342,0.19c-0.038-0.038-0.076-0.114-0.038-0.152
		C30.023,17.58,30.289,17.58,30.327,17.656z M30.822,17.77c-0.038-0.038-0.076-0.114,0-0.19c0.267-0.114,0.989-0.038,1.065,0
		c0.19,0.114,0.076,0.228,0,0.228C31.469,17.732,30.936,17.808,30.822,17.77z M33.562,18.075c-0.076,0.076-0.571-0.114-0.837-0.152
		c-0.267-0.038-0.457-0.076-0.457-0.152c0-0.19,0.418-0.152,0.799-0.076C33.409,17.77,33.752,17.884,33.562,18.075z M34.208,18.227
		c-0.038,0.229-0.229,0.114-0.304,0.076c-0.038-0.038-0.114-0.152-0.038-0.19C33.942,17.999,34.247,18.151,34.208,18.227z"/>
</g>
<g>
	<path fill="#FFFFFF" d="M27.854,19.901c0.38-0.076,0.647,0.381,0.076,0.305c-0.19-0.038-0.229-0.076-0.229-0.152
		C27.74,20.015,27.74,19.939,27.854,19.901z M30.632,20.091c-0.038,0.152-0.875,0.114-1.104,0.114c-0.647,0-0.875,0-0.914-0.114
		c0-0.152,0.343-0.152,0.647-0.152C29.566,19.939,30.708,19.825,30.632,20.091z M31.963,20.167c-0.038,0.076-0.114,0.038-0.38,0.038
		c-0.267,0-0.457,0-0.495-0.114c0-0.152,0.266-0.152,0.571-0.152C32.001,19.977,32.04,20.091,31.963,20.167z M33.523,20.472
		c-0.19,0.152-0.304-0.076-0.609-0.152c-0.266-0.038-0.495-0.038-0.723-0.076c-0.152-0.076-0.076-0.229,0.038-0.267
		C33.029,19.977,33.714,20.32,33.523,20.472z M34.132,20.738c-0.038,0.152-0.152,0.19-0.304,0.076
		c-0.038-0.038-0.114-0.152-0.076-0.19C33.828,20.51,34.094,20.586,34.132,20.738z"/>
</g>
<g>
	<path fill="#FFFFFF" d="M34.094,25.609c-0.076,0.189-0.647-0.115-1.065-0.115h-0.495c-0.152-0.038-0.152-0.228,0-0.228
		C33.029,25.19,34.208,25.38,34.094,25.609z M31.354,25.342c-0.076,0.114-0.228,0.076-0.495,0.038c-0.076,0-0.418,0.114-0.533,0
		c-0.038-0.19,0.418-0.228,0.609-0.19C31.278,25.152,31.393,25.267,31.354,25.342z M29.68,25.342c-0.076,0.114-0.913,0-1.179-0.038
		c-0.457,0-0.761,0.152-0.761-0.114c0.076-0.152,0.875-0.076,1.065-0.076C29.224,25.152,29.794,25.114,29.68,25.342z M32.192,25.229
		c0.076,0.19-0.267,0.19-0.343,0.19c-0.038-0.038-0.076-0.114-0.038-0.152C31.887,25.152,32.116,25.19,32.192,25.229z"/>
</g>
<g>
	<path fill="#FFFFFF" d="M37.101,16.286c0.38,0,0.418,0.076,0.38,0.229c-0.038,0.076-0.495,0.038-0.609,0.038
		c-0.457,0-0.647,0.266-0.799,0.228c-0.19-0.038-0.076-0.19,0.114-0.304C36.339,16.4,36.682,16.286,37.101,16.286L37.101,16.286z
		 M38.052,16.248c0,0,0.533,0.038,0.609,0.076c0.152,0.076,0.114,0.19,0.076,0.229s-0.761-0.038-0.761-0.076
		c-0.038-0.038-0.076-0.038-0.076-0.114C37.861,16.286,37.899,16.248,38.052,16.248z M42.618,16.324
		c0.152,0.038,0.19,0.267,0.076,0.304c-0.533,0.076-0.646,0.038-0.646-0.038C41.857,16.286,42.58,16.324,42.618,16.324z
		 M40.677,16.438c0,0,0.609,0,0.761,0.038c0.076,0,0.152,0.114,0.038,0.228c-0.038,0.076-0.837,0.076-0.914-0.19
		C40.563,16.553,40.563,16.438,40.677,16.438z M39.308,16.4c0,0,0.533,0.038,0.685,0.076c0.076,0,0.19,0.114,0.114,0.19
		c-0.038,0.076-0.837,0.076-0.913-0.19C39.231,16.477,39.193,16.4,39.308,16.4z"/>
</g>
<g>
	<path fill="#FFFFFF" d="M37.938,17.694c0.076-0.152,0.533-0.114,0.647-0.038c0,0,0.038,0.076-0.038,0.152
		C38.28,17.922,37.899,17.808,37.938,17.694z M39.27,17.77c0.152-0.114,0.723,0,0.533,0.229c-0.038,0.038-0.418,0.076-0.571,0
		C39.193,17.96,39.117,17.884,39.27,17.77z M41.172,17.846c0.19,0.267-0.495,0.229-0.571,0.229s-0.228-0.038-0.266-0.114
		C40.335,17.732,41.02,17.694,41.172,17.846z M42.656,17.732c0.114,0.343-0.457,0.267-0.533,0.267c-0.076,0-0.228,0-0.266-0.114
		C41.819,17.694,42.58,17.504,42.656,17.732z M37.101,17.428c0.152,0,0.457,0,0.457,0.152c-0.114,0.19-0.685,0.152-0.837,0.19
		c-0.533,0.076-0.646,0.267-0.799,0.229c-0.19-0.038-0.076-0.19,0.114-0.305C36.225,17.656,36.72,17.466,37.101,17.428z"/>
</g>
<g>
	<path fill="#FFFFFF" d="M39.612,18.988c0.038,0.114-0.038,0.152-0.038,0.152c-0.038,0.076-0.571,0.038-0.647-0.152
		c0-0.038,0-0.19,0.152-0.152C39.231,18.912,39.612,18.76,39.612,18.988z M40.183,18.912c0.038,0,0.951,0,0.723,0.267
		c-0.038,0.038-0.114,0.076-0.19,0.076c-0.228,0-0.609-0.038-0.685-0.076c-0.038-0.038-0.038-0.114,0-0.19
		C40.068,18.95,40.106,18.912,40.183,18.912z M41.438,18.912c0.685,0.114,1.18-0.076,1.218,0.076c0.076,0.152,0,0.19,0,0.19
		c-0.076,0.076-1.37,0.114-1.408-0.114C41.248,18.95,41.362,18.912,41.438,18.912z M38.432,18.874c0.152,0.229-0.342,0.19-0.38,0.19
		c-0.076,0-0.19-0.038-0.19-0.114C37.823,18.722,38.318,18.684,38.432,18.874z M36.91,18.684c0.152,0,0.342-0.076,0.457,0.114
		c-0.114,0.229-0.418,0.114-0.837,0.19c-0.533,0.076-0.533,0.229-0.647,0.114s0-0.19,0.19-0.267
		C36.263,18.76,36.53,18.722,36.91,18.684z"/>
</g>
<g>
	<path fill="#FFFFFF" d="M37.633,20.053c0.076,0,0.228,0.038,0.342,0.114c0.076,0.076,0.038,0.152,0,0.19
		c-0.647,0.076-0.609-0.076-0.609-0.076C37.291,20.015,37.557,20.015,37.633,20.053z M42.656,20.129
		c0.304,0.152-0.19,0.304-0.533,0.229c-0.038,0-0.076-0.038-0.114-0.076C41.971,20.091,42.542,20.091,42.656,20.129z M39.003,20.053
		c0.152,0.038,0.152,0.267,0,0.305c-0.038,0-0.647,0.114-0.685-0.076C38.318,19.901,38.927,20.015,39.003,20.053z M41.781,20.206
		c0.038,0.19-0.152,0.19-0.304,0.152c-0.229,0-0.875,0.076-0.837-0.114c0.038-0.114,0.267-0.076,0.38-0.076
		C41.21,20.091,41.743,20.091,41.781,20.206z M40.183,20.358c-0.076,0.152-0.723,0.076-0.609-0.152
		C39.612,20.129,40.259,20.015,40.183,20.358z M36.568,19.939c0.152,0,0.418,0,0.457,0.19c-0.19,0.152-0.418,0.038-0.837,0.152
		c-0.38,0.076-0.457,0.152-0.457-0.038C35.73,20.091,36.187,19.939,36.568,19.939z"/>
</g>
<g>
	<path fill="#FFFFFF" d="M37.519,21.309c0,0,0.533-0.076,0.685,0.038c0.038,0.038,0.152,0.114,0.076,0.228
		c-0.076,0.076-0.837,0.076-0.837-0.152C37.443,21.423,37.405,21.347,37.519,21.309z M38.813,21.423
		c0.19-0.076,0.799,0.076,0.533,0.304c-0.038,0.038-0.495,0-0.609-0.114C38.699,21.575,38.661,21.499,38.813,21.423z M39.992,21.461
		c0.152-0.038,0.685,0.076,0.457,0.267c-0.038,0.038-0.381,0.076-0.495-0.038C39.917,21.651,39.84,21.499,39.992,21.461z
		 M41.477,21.537c-0.19,0.038-0.457,0.076-0.457,0.19c0.038,0.114,0.152,0.076,0.533,0.076c0.19,0,0.761,0.076,0.913,0.038
		s0.152-0.19,0.114-0.19C42.237,21.651,41.971,21.499,41.477,21.537L41.477,21.537z M36.644,21.309c0.152,0,0.418-0.076,0.418,0.152
		c-0.152,0.19-0.381,0.114-0.799,0.229c-0.38,0.076-0.457,0.152-0.457-0.076C35.769,21.461,36.263,21.309,36.644,21.309z"/>
</g>
<path fill="#FFFFFF" d="M37.671,22.869h0.304c0.152,0,0.076,0.19,0.076,0.229c0,0.038-0.267,0.076-0.457,0.038
	c-0.076,0-0.267-0.038-0.267-0.19C37.367,22.831,37.557,22.869,37.671,22.869z M38.699,22.869c0.038,0,0.875,0,0.647,0.229
	c-0.038,0.038-0.114,0.076-0.152,0.076c-0.229,0-0.571-0.038-0.647-0.076c-0.038-0.038-0.038-0.076,0-0.152
	C38.584,22.907,38.623,22.869,38.699,22.869z M39.992,22.907c0.152-0.076,0.685,0.152,0.495,0.304c-0.038,0-0.457,0-0.571-0.114
	C39.878,23.098,39.802,22.983,39.992,22.907z M41.134,23.021c0.038,0,0.952,0,0.723,0.266c-0.038,0.038-0.114,0.076-0.19,0.076
	c-0.228,0-0.609-0.038-0.685-0.076c-0.038-0.038-0.038-0.114,0-0.19C40.982,23.06,41.058,23.021,41.134,23.021z M36.568,22.793
	c0.19,0,0.457-0.076,0.457,0.152c-0.152,0.19-0.305,0.114-0.723,0.19c-0.38,0.076-0.457,0.152-0.457-0.076
	C35.883,22.907,36.187,22.831,36.568,22.793z M42.275,23.098c0.152-0.038,0.685,0.076,0.457,0.266
	c-0.038,0.038-0.38,0.076-0.495-0.038C42.199,23.288,42.123,23.135,42.275,23.098z M39.231,24.315c0.038,0,0.875,0,0.647,0.229
	c-0.038,0.038-0.114,0.076-0.152,0.076c-0.229,0-0.571-0.038-0.647-0.076c-0.038-0.038-0.038-0.076,0-0.152
	C39.117,24.353,39.193,24.315,39.231,24.315z M40.601,24.429c0.267-0.038,0.723,0.038,0.685,0.267
	c-0.038,0.152-0.19,0.038-0.267,0.038c-0.19,0-0.761,0.076-0.685-0.152C40.335,24.467,40.525,24.467,40.601,24.429z M41.628,24.733
	c0,0.152,0.647,0.343,0.647,0.114C42.237,24.733,41.667,24.391,41.628,24.733z M38.546,24.277c0,0-0.457-0.114-0.647-0.076
	c-0.038,0-0.114,0.114-0.076,0.19s0.761,0.152,0.761-0.038C38.623,24.391,38.623,24.315,38.546,24.277z M36.834,24.201
	c0.152,0,0.723,0,0.723,0.228c-0.076,0.19-0.533,0-1.104,0.076c-0.38,0.038-0.457,0.152-0.457-0.076
	C35.997,24.277,36.454,24.201,36.834,24.201z M38.204,25.533c0.19-0.077,0.837,0.076,0.571,0.304c-0.038,0.038-0.533,0-0.685-0.075
	C38.09,25.723,38.052,25.609,38.204,25.533z M39.536,25.723c0.152-0.037,0.685,0.076,0.457,0.267c-0.038,0.038-0.418,0-0.533-0.076
	C39.421,25.837,39.384,25.762,39.536,25.723z M41.134,25.951c0.152,0.267-0.418,0.19-0.495,0.19s-0.19-0.038-0.19-0.152
	C40.487,25.762,41.058,25.799,41.134,25.951z M41.515,26.142c0,0.152,0.38,0.267,0.38,0.038
	C41.857,26.104,41.553,25.837,41.515,26.142z M36.111,25.609c0.038,0,1.522-0.229,1.484,0.037c0,0.039,0.076,0.115-0.761,0.152
	c-0.19,0-0.799,0.114-0.875,0.076C35.921,25.837,35.845,25.723,36.111,25.609z M37.747,28.044c0,0,0.533-0.038,0.685,0.076
	c0.038,0.038,0.152,0.114,0.076,0.229c-0.038,0.076-0.837,0.076-0.799-0.152C37.671,28.158,37.633,28.082,37.747,28.044z
	 M39.231,28.234c0.038,0,0.875,0.038,0.647,0.267c-0.038,0.038-0.114,0.075-0.152,0.075c-0.229,0-0.571-0.037-0.609-0.113
	c-0.038-0.038-0.038-0.076,0-0.152C39.117,28.234,39.155,28.234,39.231,28.234z M40.715,28.652
	c-0.228-0.037-0.571-0.151-0.495-0.266s0.304,0.038,0.38,0.038C41.058,28.349,41.134,28.729,40.715,28.652z M41.933,28.768
	c-0.229,0-0.609-0.076-0.571-0.229c0.038-0.114,0.228,0,0.304-0.038C42.275,28.311,42.352,28.768,41.933,28.768z M37.101,28.12
	c0.038,0.152-0.19,0.114-0.571,0.114s-0.647,0.305-0.761,0.076c-0.038-0.076,0.038-0.152,0.267-0.229
	C36.225,28.006,37.062,27.969,37.101,28.12z M38.014,26.789c0.038,0,0.647,0,0.495,0.228c-0.038,0.038-0.076,0.076-0.114,0.076
	c-0.152,0-0.418-0.038-0.457-0.076s-0.038-0.076,0-0.151C37.938,26.789,37.976,26.789,38.014,26.789z M38.965,26.865
	c0.152-0.076,1.027,0.075,0.761,0.342c-0.038,0-0.723-0.038-0.837-0.152C38.851,27.055,38.813,26.94,38.965,26.865z M40.868,27.093
	c0.152,0,0.799,0.114,0.761,0.305c0,0.038-0.228,0.038-0.342,0c-0.342-0.076-0.533-0.152-0.799-0.152
	c-0.114,0-0.114-0.114-0.076-0.19C40.411,27.055,40.792,27.093,40.868,27.093z M37.367,26.902c0.038,0.229-0.304,0.114-0.723,0.114
	c-0.381,0-0.647,0.267-0.761,0.038c-0.038-0.076,0.038-0.152,0.267-0.229C36.339,26.789,37.367,26.75,37.367,26.902z M41.477,29.528
	c0.038,0,0.951,0.038,0.685,0.304c-0.038,0.039-0.114,0.076-0.19,0.076c-0.229,0-0.609-0.076-0.685-0.113
	c-0.038-0.039-0.038-0.115,0-0.19C41.324,29.566,41.4,29.528,41.477,29.528z M40.83,29.719c-0.076,0.152-0.723,0.037-0.609-0.19
	C40.259,29.452,40.944,29.376,40.83,29.719z M39.193,29.338c0.038,0,0.875,0.038,0.647,0.267c-0.038,0.038-0.114,0.075-0.152,0.075
	c-0.229,0-0.571-0.075-0.609-0.113s-0.038-0.076,0-0.152C39.079,29.338,39.155,29.338,39.193,29.338z M38.394,29.262
	c0.152,0.267-0.342,0.19-0.38,0.152c-0.076,0-0.19-0.038-0.19-0.114C37.785,29.109,38.28,29.071,38.394,29.262z M36.682,29.186
	c0.152,0,0.457-0.076,0.419,0.152c-0.114,0.19-0.381,0.114-0.799,0.229c-0.38,0.076-0.457,0.152-0.457-0.076
	C35.845,29.3,36.263,29.186,36.682,29.186z M36.035,30.479c0,0,0.457-0.152,0.685-0.076c0.076,0,0.114,0.076,0.076,0.19
	c-0.19,0-0.685,0.076-0.761,0.152C35.997,30.746,35.921,30.556,36.035,30.479z"/>
<g>
	<path fill="#FFFFFF" d="M30.556,26.484c0.228-0.039,0.799,0.229,0.19,0.266c-0.038,0-0.38,0-0.418-0.037
		C30.099,26.521,30.479,26.484,30.556,26.484z M29.871,26.637c0,0.113-0.647,0.113-1.142,0.076
		c-0.609-0.039-0.989,0.037-0.989-0.152c0.038-0.229,0.609-0.076,0.913-0.076C29.109,26.521,29.871,26.332,29.871,26.637z
		 M33.372,26.826c-0.038,0.229-0.914-0.076-1.332-0.076c-0.304,0-0.533-0.037-0.571-0.037c-0.152-0.039-0.152-0.229,0-0.229
		C31.773,26.445,33.372,26.674,33.372,26.826z M34.17,27.321c-0.076,0.114-0.19,0-0.38-0.076c-0.076-0.038-0.19-0.076-0.152-0.19
		c0.114-0.152,0.305-0.038,0.38,0.038C34.17,27.169,34.208,27.245,34.17,27.321z"/>
</g>
<g>
	<path fill="#FFFFFF" d="M32.572,29.376c0,0.19-0.951-0.076-1.332-0.114h-0.799c-0.152-0.038-0.152-0.229,0-0.266
		C30.898,28.957,32.61,29.109,32.572,29.376z M29.909,29.186c0,0.114-0.609,0.076-1.142,0.038c-0.951,0-1.027-0.038-0.989-0.19
		c0.076-0.229,0.609-0.152,0.913-0.152C29.109,28.92,29.909,28.881,29.909,29.186z M34.208,29.871
		c-0.076,0.113-0.38-0.115-0.647-0.152c-0.076,0-0.38-0.039-0.342-0.152c0-0.152,0.228-0.152,0.533-0.076
		C34.056,29.566,34.285,29.756,34.208,29.871z"/>
</g>
<g>
	<path fill="#FFFFFF" d="M33.333,28.196c-0.076,0.305-0.419-0.038-1.332-0.076c-0.304,0-0.533-0.038-0.571-0.038
		c-0.152-0.038-0.152-0.229,0-0.229C31.887,27.74,33.372,27.969,33.333,28.196z M30.632,27.74c0.228-0.039,0.799,0.229,0.19,0.266
		c-0.038,0-0.38,0-0.418-0.037C30.175,27.777,30.556,27.74,30.632,27.74z M29.871,27.854c0,0.229-1.027,0.076-1.256,0.076
		c-0.609-0.037-0.837,0.076-0.875-0.189c0.038-0.229,0.609-0.076,0.913-0.076C29.109,27.664,29.871,27.549,29.871,27.854z
		 M33.904,28.311c0.228,0.076,0.608,0.57,0.038,0.342c-0.038,0-0.343-0.151-0.343-0.228C33.485,28.158,33.866,28.311,33.904,28.311z
		"/>
</g>
<g>
	<path fill="#FFFFFF" d="M34.094,32.839c0.038,0,0.152,0,0.076,0.151c-0.076,0.115-1.674-0.151-1.75-0.151
		c-0.152-0.038-0.152-0.076-0.152-0.19c0.038-0.076,0.152-0.076,0.19-0.076S34.056,32.801,34.094,32.839z M31.697,32.648
		c-0.076,0.076-0.761,0.114-0.723-0.076c0-0.19,0.19-0.076,0.495-0.076C31.773,32.496,31.773,32.572,31.697,32.648z"/>
</g>
<path fill="#FFFFFF" d="M36.796,32.61c0.152,0,0.267-0.114,0.267,0.114c-0.038,0.152-0.229,0.076-0.647,0.189
	c-0.38,0.076-0.495,0.191-0.418-0.037C35.959,32.801,36.416,32.648,36.796,32.61z M36.796,31.469c0.152,0,0.305-0.076,0.305,0.152
	c-0.076,0.114-0.305,0.038-0.723,0.152c-0.38,0.076-0.457,0.189-0.418,0C35.921,31.621,36.416,31.469,36.796,31.469z M27.816,16.4
	c0,0-0.038,0.114-0.038,0.304v1.789h0.038c-0.038-0.038-0.038-1.142-0.038-1.142v-0.685C27.816,16.515,27.816,16.4,27.816,16.4
	c0.342-0.076,1.293-0.19,1.522-0.076c0.076,0.038,0.076,0.342,0.076,0.723c0,0.571-0.038,1.293-0.076,1.37
	c-0.038,0.038-0.342,0.076-0.723,0.114c0.343,0,0.685-0.038,0.723-0.114s0.076-0.799,0.076-1.37c0-0.381-0.038-0.685-0.076-0.723
	C29.109,16.21,28.158,16.324,27.816,16.4z M27.854,18.531c0.114,0.038,0.457,0.038,0.799,0H27.854z M27.816,16.286
	c-0.114,0.038-0.152,0.076-0.114,1.027v1.218c0.038,0.19,0.229,0.19,0.457,0.152l0.343-0.038h0.342c0.609,0,0.723,0,0.799-0.152
	v-0.38l-0.038-0.761c0.038-1.065-0.076-1.104-0.152-1.142C29.109,16.058,28.044,16.21,27.816,16.286z M29.3,16.438v0.913
	l0.038,0.799v0.19c-0.114,0-0.533,0.038-0.533,0.038h-0.342l-0.343,0.038h-0.228c0.038,0,0.038-0.304,0.038-0.418v-1.484
	C28.349,16.438,29.109,16.362,29.3,16.438z M57.801,23.63c-0.19-1.217-0.229-2.245-0.267-3.082
	c-0.038-0.875-0.038-1.484-0.228-1.864v0.038l-1.827-4.49c-0.38-1.332-3.539-5.023-3.729-5.213
	c-0.381-0.571-2.512-2.207-3.121-2.511c-0.038,0-2.359-1.636-2.359-1.636c-0.951-0.685-2.549-1.332-3.843-1.712l-1.522-0.533
	c-1.903-0.647-4.833-0.723-5.251-0.685h-1.065c-0.342-0.038-3.311,0.038-5.099,0.723l-1.104,0.38
	c-1.408,0.381-2.702,0.799-3.691,1.484c0,0-2.626,1.864-2.74,1.94c-0.609,0.305-3.387,2.321-3.729,2.854l0.038-0.038
	c-0.152,0.19-3.006,3.577-3.386,4.909l-1.865,4.528v-0.038c-0.19,0.38-0.152,1.142-0.19,1.979s-0.114,1.75-0.304,2.968
	c-0.152,0.952-0.038,1.827,0.076,2.854c0.114,1.027,0.152,2.244,0.342,3.158c0.152,0.761,0.381,1.445,0.418,1.94
	c0.267,1.218,0.875,2.854,1.18,3.272c0.229,0.342,0.647,0.951,0.647,0.951c0.38,0.494,0.799,1.104,1.104,1.561
	c0.267,0.418,0.38,0.723,0.571,1.104c0.304,0.532,0.571,0.988,0.875,1.445c0.305,0.419,0.647,0.799,1.104,1.18
	c0.114,0.076,1.104,0.762,1.598,1.065c0.571,0.381,0.761,0.495,0.875,0.608l0.342,0.344c0.951,0.988,1.674,1.712,2.321,2.092
	c0.228,0.152,0.875,0.305,1.065,0.305s0.38-0.038,0.533-0.114c0.266-0.151,0.418-0.419,0.533-0.799c0-0.038,0.152-0.343,0.266-0.647
	c0.229,0.039,0.457,0.305,0.685,0.495L26.94,44.9c-0.114,0.381-0.038,0.762,0.229,1.104c1.027,1.332,4.871,1.865,8.219,1.751
	c3.462,0.114,7.8-0.913,8.371-2.245c0.114-0.266,0.076-0.494-0.152-0.723c-0.076-0.076-0.114-0.152-0.152-0.19
	c0.038-0.038,0.038-0.076,0.114-0.114c0.152-0.076,0.342-0.038,0.457-0.038c0.152,0.267,0.304,0.532,0.457,0.837
	c0.076,0.114,0.19,0.19,0.343,0.229c0.989,0.152,4.224-2.664,4.262-2.701c0.114-0.115,0.723-0.609,1.255-0.99
	c0.457-0.304,0.875-0.57,0.99-0.685c0.875-0.723,1.522-1.56,2.131-2.587c0.418-0.762,0.913-1.599,1.674-2.626l0.076-0.076
	c0.685-0.951,1.636-2.778,1.789-4.147c0.038-0.494,0.19-1.142,0.342-1.941C57.648,27.854,58.105,25.57,57.801,23.63z M27.169,43.912
	c-0.152-0.152-0.38-0.305-0.647-0.381c0.685-1.637,0.989-2.397,1.065-2.777v-0.229l-0.114-0.267
	c-0.076-0.152-0.304-0.456-0.304-0.685c0-0.343,0.114-0.267,0.267-0.267c0.152,0,0.799,0.151,1.255,0.38
	c0.343,0.152,0.609,0.495,0.723,0.647c0.038,0.076,0.038,0.19-0.038,0.267s-0.152,0.113-0.342,0.189
	c-0.19,0.076-0.533,0.343-0.609,0.381c-0.419,0.152-0.685,0.838-1.065,2.055c0,0.038,0,0.038-0.038,0.076
	c-0.038,0.114-0.076,0.267-0.114,0.419C27.169,43.797,27.169,43.836,27.169,43.912z M26.789,39.954
	c-0.229-0.114-0.457-0.228-0.761-0.456c-0.457-0.343-1.598-1.256-2.131-1.561c-0.342-0.189-0.38-0.381-0.799-0.837
	c-0.343-0.381-0.723-0.761-1.028-0.989c-0.418-0.305-1.179-1.446-1.408-1.865c-0.837-1.369-2.207-4.071-2.511-6.734
	c-0.038-0.343-0.038-1.218-0.038-2.017c0-0.685,0-1.256-0.038-1.522c0.038-0.533,0.19-1.979,0.304-2.359
	c0.114-0.266,0.19-0.837,0.305-1.293c0.076-0.381,0.19-0.99,0.266-1.18c0-0.038,0.38-1.104,0.647-1.598l1.218-2.283
	c0-0.038,0.646-1.332,1.104-1.789l0.457-0.495c0.495-0.533,1.027-1.104,1.522-1.484c0.799-0.609,2.017-1.446,3.082-1.941
	l1.484-0.723c0.533-0.267,0.799-0.419,1.255-0.533c0.038,0,2.968-0.952,4.947-1.065c-0.19,0.418-0.304,0.799-0.38,0.989
	c0,0-0.457,0.076-1.065,0.114c-0.342,0-1.37,0.19-1.37,0.19c0.723,1.104,1.332,1.75,1.636,2.055c0,0-0.342,2.055-0.342,2.321
	c0.038,0,1.142-0.571,1.484-0.761c0.343-0.19,0.761-0.343,0.837-0.343c0.038,0,1.027,0.419,1.255,0.571
	c0.571,0.343,0.952,0.533,1.065,0.571v-0.038c0,0-0.533-2.207-0.533-2.321c0,0,0.267-0.267,0.457-0.495
	c0.304-0.38,0.609-0.608,0.799-0.837c0.19-0.229,0.571-0.647,0.571-0.685c-0.038,0-2.397-0.304-2.511-0.342
	c0,0-0.229-0.533-0.418-0.989c0.495,0.038,0.799,0.076,1.332,0.152h0.038c1.446,0.229,3.044,0.837,3.729,1.104
	c0,0,0.571,0.229,0.647,0.267c0.038,0,1.027,0.418,1.027,0.418c0.685,0.342,1.256,0.723,1.522,0.913l0.343,0.267
	c0.723,0.495,2.321,1.56,2.587,1.979l0.418,0.533c0.229,0.305,0.38,0.685,0.495,0.989c0.229,0.571,0.761,1.18,1.256,1.827
	c0.342,0.418,0.685,0.837,0.875,1.18c0,0,0.647,0.913,0.799,1.75c0.152,1.065,0.418,2.664,0.571,3.158
	c0.761,2.587,0.533,3.92,0.228,5.289c-0.076,0.418-0.304,0.989-0.342,1.408c-0.038,0.457-0.114,0.989-0.418,1.598
	c-0.114,0.229-0.343,0.762-0.419,1.066c-0.152,0.494-0.304,0.988-0.57,1.369c-0.114,0.152-0.305,0.457-0.609,0.913
	c-0.647,1.065-1.674,2.664-2.55,3.729c-0.266,0.342-1.027,0.951-1.636,1.408c-0.38,0.304-0.685,0.57-0.837,0.723
	c-0.229,0.229-0.723,0.609-1.142,0.913l0.038-0.114c0-0.076,0-0.114-0.038-0.189c-0.038-0.115-0.152-0.305-0.457-0.381
	c-0.305-0.076-0.647,0.037-1.065,0.229c-0.305,0.113-0.647,0.304-1.142,0.723c-0.19,0.152-0.457,0.457-0.38,0.685
	c0.076,0.152,0.228,0.305,0.418,0.419c-1.027,0.305-2.017,0.608-2.397,0.685c-0.228,0.038-1.065,0.305-1.598,0.381
	c-0.609,0.114-1.218,0.19-1.522,0.228c-1.256,0.039-3.044-0.418-3.425-0.608c-0.875-0.343-2.017-0.761-2.74-0.951
	c0,0,0.038,0,0.038-0.038c0.305-0.114,0.495-0.305,0.571-0.533c0.038-0.113,0.038-0.342-0.19-0.57
	c-0.229-0.266-0.571-0.533-0.914-0.686c-0.076-0.037-0.875-0.342-1.218-0.342c-0.266,0-0.38-0.038-0.495,0.038
	c-0.152,0.076-0.19,0.229-0.19,0.38C26.674,39.65,26.712,39.803,26.789,39.954z M35.274,9.551c-0.266-0.19-0.799-1.179-0.799-1.179
	c0.038-0.114,0.799-1.827,0.799-1.827c0.076,0.304,0.038,0.913,0.038,1.522C35.274,8.638,35.236,9.247,35.274,9.551z M32.306,8.866
	c0.266,0.076,1.027,0.304,1.027,0.304c0.571,0.229,1.065,0.418,1.674,0.571c-0.076,0.19-0.267,0.533-0.267,0.533
	s-1.294,2.017-1.37,2.131c0,0,0.38-2.055,0.38-2.093C33.638,10.198,32.877,9.551,32.306,8.866z M37.671,9.475
	c0,0.076-0.495,0.646-0.495,0.646c-0.076,0-1.522-0.342-1.712-0.418c0,0,0.571-1.104,0.799-1.218l2.093,0.229
	c-0.152,0.076-0.761,0.229-1.332,0.418l-1.218,0.457C35.807,9.589,37.481,9.513,37.671,9.475z M37.177,12.443
	c-0.152-0.038-1.599-0.837-1.599-0.837c-0.038-0.038-0.266-1.56-0.228-1.827L37.177,12.443z M43.265,45.244
	c-0.342,0.836-3.957,2.207-7.534,2.092c-3.767,0.115-7.458-0.456-8.257-1.483c-0.114-0.152-0.19-0.532-0.19-0.685
	c0-0.076,0-0.152,0.038-0.229l0.19-0.609l0.038-0.076v-0.037c0.343-1.18,0.723-2.512,1.027-2.588c0.267,0,0.267-0.152,1.712,0.381
	c0.533,0.266,3.349,1.104,3.958,1.141c0.457,0.038,2.017,0,2.664-0.113c0.533-0.076,0.951-0.229,1.142-0.268
	c0.495-0.037,3.158-0.836,3.653-0.988c0,0,0.038,0,0.038,0.037c0.114,0.115,0.19,0.419,0.305,0.686l0.076,0.229
	c0.038,0.152,0.114,0.342,0.152,0.532l0.038,0.152l0.152,0.419c0.038,0.076,0.076,0.152,0.076,0.189
	c0.038,0.115,0.114,0.229,0.19,0.343l0.114,0.19c0.038,0.038,0.038,0.076,0.076,0.152l0.342,0.457
	C43.303,45.205,43.303,45.205,43.265,45.244z M43.379,44.064c-0.076,0.037-0.152,0.076-0.19,0.113
	c-0.152-0.229-0.267-0.494-0.343-0.761l-0.038-0.114c-0.038-0.114-0.076-0.229-0.114-0.305l-0.076-0.229l-0.038-0.151
	c-0.19-0.647-0.343-1.142-0.685-1.256h-0.229c-0.418,0.038-0.875-0.152-0.913-0.305c0-0.038,0.038-0.19,0.076-0.228
	c0.418-0.381,0.609-0.609,0.875-0.724c0.19-0.076,0.647-0.304,1.104-0.19c0.114,0.038,0.114,0.19,0.114,0.19v0.038
	c0,0.152-0.19,0.457-0.304,0.646c-0.229,0.191-0.343,0.419-0.343,0.647c0,0.38,0.267,0.799,0.685,1.407
	c0.19,0.305,0.457,0.686,0.723,1.18C43.607,43.949,43.493,43.988,43.379,44.064L43.379,44.064z M56.811,29.566
	c-0.152,0.799-0.304,1.445-0.342,1.979c-0.19,1.864-0.875,2.777-1.712,3.92l-0.076,0.076c-0.761,1.027-1.255,1.902-1.712,2.701
	c-0.571,1.027-1.028,1.826-1.865,2.473c-0.114,0.076-0.533,0.381-0.989,0.647c-0.837,0.532-1.37,0.913-1.484,1.027
	c-0.799,0.761-3.462,2.739-3.881,2.587c-0.571-1.104-1.065-1.902-1.408-2.473c-0.418-0.646-0.609-0.951-0.609-1.18
	c0-0.114,0.076-0.229,0.19-0.305s1.18-0.913,1.674-1.369l1.065-0.762c0.647-0.533,1.712-1.712,2.017-2.093
	c0.875-1.104,1.37-1.902,2.055-2.968c0.267-0.419,0.723-1.142,0.799-1.294c0.304-0.419,0.457-0.761,0.609-1.256
	c0.076-0.267,0.266-0.608,0.38-0.837c0.305-0.646,0.418-1.445,0.495-1.94c0.038-0.381,0.038-0.533,0.114-0.952
	c0.152-0.723,0.457-1.787,0.457-2.853c0-0.875-0.152-1.561-0.495-2.74c-0.152-0.457-0.418-2.131-0.609-3.159
	c-0.152-0.913-0.761-2.093-0.761-2.169c-0.229-0.38-0.647-0.761-1.027-1.217c-0.495-0.609-0.914-1.256-1.104-1.75
	c-0.152-0.38-0.457-0.723-0.685-1.065l-0.38-0.495c-0.305-0.457-1.37-1.256-2.474-2.017l-0.38-0.19
	c-0.267-0.229-0.989-0.609-1.75-0.989l-0.913-0.533l-0.647-0.267c-0.685-0.266-2.474-0.837-3.12-0.951h-0.038
	c-0.723-0.114-1.294-0.229-2.245-0.267c-0.038-0.114-0.076-0.228-0.114-0.304c-0.076-0.19-0.304-0.647-0.418-0.913
	c-0.152,0.114-0.418,0.646-0.685,1.217c-2.017,0.152-4.794,0.914-4.947,0.952c-0.495,0.152-0.799,0.304-1.332,0.57l-2.131,1.066
	c-1.408,0.646-2.131,1.293-2.55,1.598c-0.533,0.418-0.913,0.685-1.446,1.255l-0.457,0.495c-0.495,0.533-1.446,2.359-1.446,2.397
	l-0.837,1.408c-0.267,0.495-1.104,2.626-1.142,2.664c-0.076,0.229-0.19,0.609-0.266,1.065c-0.114,0.457-0.267,0.875-0.305,1.142
	c-0.114,1.674-0.228,2.436-0.228,2.664v0.038c0.038,0.229-0.076,0.875-0.076,1.37c0.038,0.838,0.038,1.675,0.038,2.055
	c0.152,1.561,1.065,4.186,1.94,5.633c0.038,0.076,0.685,1.445,2.283,3.311c0.228,0.266,0.837,0.799,1.18,1.179
	c0.418,0.457,0.571,0.685,0.951,0.913l1.446,0.951c0.533,0.381,1.065,0.762,1.598,1.066c0,0.037,0,0.076-0.038,0.152v0.037
	l-0.076,0.229l-0.038,0.076c-0.038,0.076-0.076,0.19-0.114,0.305c0,0,0,0.038-0.038,0.038c-0.038,0.114-0.076,0.228-0.152,0.343
	l-0.038,0.113c-0.038,0.115-0.076,0.229-0.152,0.343l-0.076,0.19c-0.038,0.076-0.076,0.152-0.076,0.229
	c-0.038,0.037-0.038,0.113-0.076,0.189l-0.076,0.152c-0.076,0.19-0.152,0.343-0.19,0.495c0,0,0,0.038-0.038,0.038l-0.038,0.038
	c-0.229,0.532-0.305,0.685-0.305,0.761c-0.076,0.267-0.152,0.419-0.304,0.533c-0.19,0.113-0.381,0.189-0.761,0.037
	c-0.533-0.189-0.951-0.646-1.446-1.104l-1.142-1.104l-0.571-0.494c-0.114-0.114-0.457-0.381-1.294-0.913l-0.571-0.343
	c-0.19-0.152-0.646-0.608-0.685-0.646c-0.837-0.646-0.99-1.142-1.561-2.169c-0.418-0.761-1.065-1.903-1.255-2.131l-0.495-0.647
	c-0.837-1.141-1.484-2.017-1.712-3.919c-0.038-0.495-0.229-0.951-0.418-1.751c-0.076-0.342-0.114-0.951-0.19-1.369
	c-0.114-1.484-0.38-3.196-0.114-4.681c0.19-1.255,0.19-2.055,0.19-2.892c0.038-0.761,0.038-1.37,0.19-1.636l0.076-0.267l1.598-4.224
	c0.19-0.609,1.446-2.702,1.941-3.387s1.789-2.093,1.789-2.093c0.228-0.418,2.397-1.902,3.082-2.245l2.778-1.94
	c0.913-0.647,2.664-1.218,3.957-1.598l0.952-0.381c1.788-0.608,4.452-0.837,4.794-0.799h1.142c0.38-0.038,3.5,0.19,5.289,0.799
	l1.142,0.267c1.294,0.418,2.816,0.989,3.729,1.674l2.968,1.979c-0.381-0.19,2.511,1.408,3.082,2.436
	c0.038,0.038,3.196,4.033,3.539,5.251l1.636,3.996c0.152,0.266,0.19,1.104,0.229,1.902c0.038,0.837,0.19,1.979,0.38,3.234
	C57.763,25.646,57.192,27.777,56.811,29.566L56.811,29.566z"/>
<g>
	<path fill="#FFFFFF" d="M34.056,30.632c-0.038,0.19-0.913-0.152-1.332-0.19c-0.305,0-1.027-0.038-1.065-0.038
		c-0.152-0.038-0.229-0.19-0.076-0.229C32.04,30.1,34.094,30.403,34.056,30.632z M29.833,30.251h-0.913
		c-0.952,0-1.027,0-0.989-0.114c0.076-0.229,0.609-0.076,0.913-0.113C29.3,30.061,29.833,29.947,29.833,30.251z M30.403,30.213
		c0.076-0.076,0.647-0.113,0.609,0.076c0,0.152-0.076,0.114-0.38,0.076C30.289,30.365,30.327,30.289,30.403,30.213L30.403,30.213z"
		/>
</g>
<g>
	<path fill="#FFFFFF" d="M35.198,1.104c-0.266,0-0.457-0.229-0.457-0.457c0-0.267,0.19-0.457,0.457-0.457
		c0.267,0,0.457,0.228,0.457,0.457C35.654,0.913,35.464,1.104,35.198,1.104z M33.562,1.142c-0.266,0-0.457-0.19-0.495-0.418
		c0-0.267,0.152-0.457,0.418-0.495c0.267,0,0.457,0.19,0.495,0.418C34.018,0.913,33.828,1.142,33.562,1.142z M31.925,1.294
		c-0.266,0.038-0.495-0.152-0.495-0.381c-0.038-0.266,0.152-0.495,0.38-0.495c0.267-0.038,0.495,0.152,0.495,0.38
		C32.382,1.027,32.192,1.256,31.925,1.294z M30.327,1.56c-0.266,0.038-0.495-0.114-0.533-0.342
		c-0.038-0.267,0.114-0.495,0.342-0.533c0.267-0.038,0.495,0.114,0.533,0.342C30.746,1.294,30.556,1.522,30.327,1.56z M28.729,1.94
		c-0.266,0.076-0.495-0.076-0.571-0.304s0.076-0.495,0.305-0.571c0.228-0.076,0.495,0.076,0.571,0.305
		C29.109,1.636,28.958,1.865,28.729,1.94z M27.131,2.436c-0.229,0.076-0.495-0.038-0.571-0.267s0.038-0.495,0.267-0.571
		c0.228-0.076,0.495,0.038,0.571,0.267C27.511,2.093,27.397,2.359,27.131,2.436z M25.609,3.044c-0.229,0.114-0.495,0-0.609-0.228
		c-0.114-0.229,0-0.495,0.229-0.609c0.228-0.114,0.495,0,0.608,0.229C25.951,2.664,25.837,2.93,25.609,3.044z M24.125,3.729
		c-0.229,0.114-0.495,0.038-0.609-0.19c-0.114-0.229-0.038-0.495,0.19-0.609c0.229-0.114,0.495-0.038,0.609,0.19
		C24.429,3.349,24.353,3.615,24.125,3.729z M22.717,4.528c-0.228,0.152-0.495,0.076-0.609-0.152
		c-0.114-0.229-0.076-0.495,0.152-0.609s0.495-0.076,0.609,0.152C22.983,4.109,22.907,4.414,22.717,4.528z M21.309,5.441
		c-0.19,0.152-0.495,0.114-0.647-0.114c-0.152-0.19-0.114-0.495,0.114-0.647c0.228-0.152,0.495-0.114,0.647,0.114
		C21.575,5.023,21.537,5.289,21.309,5.441z M20.015,6.431c-0.19,0.152-0.495,0.114-0.647-0.076c-0.152-0.19-0.152-0.495,0.076-0.646
		c0.19-0.152,0.495-0.114,0.647,0.076C20.244,5.974,20.206,6.278,20.015,6.431z M18.759,7.496c-0.19,0.19-0.457,0.152-0.646-0.038
		c-0.19-0.19-0.152-0.457,0.038-0.647c0.19-0.19,0.457-0.152,0.646,0.038C18.95,7.04,18.95,7.344,18.759,7.496z M17.618,8.676
		c-0.19,0.19-0.457,0.19-0.647,0.038c-0.19-0.19-0.19-0.457-0.038-0.647c0.19-0.19,0.457-0.19,0.647-0.038
		C17.77,8.219,17.77,8.485,17.618,8.676z M16.515,9.932c-0.152,0.19-0.457,0.228-0.647,0.076c-0.19-0.152-0.229-0.457-0.076-0.647
		c0.152-0.19,0.457-0.229,0.647-0.076C16.667,9.437,16.667,9.703,16.515,9.932z M15.525,11.225c-0.152,0.19-0.418,0.267-0.646,0.114
		c-0.19-0.152-0.267-0.418-0.114-0.647c0.152-0.228,0.418-0.266,0.647-0.114C15.639,10.73,15.677,10.997,15.525,11.225z
		 M14.65,12.595c-0.114,0.228-0.418,0.266-0.609,0.152c-0.228-0.114-0.304-0.419-0.152-0.609c0.152-0.229,0.419-0.267,0.647-0.152
		C14.688,12.101,14.764,12.367,14.65,12.595z M13.851,14.041c-0.114,0.229-0.38,0.305-0.608,0.19
		c-0.229-0.114-0.305-0.381-0.19-0.609c0.114-0.229,0.38-0.304,0.609-0.19C13.851,13.508,13.965,13.813,13.851,14.041z
		 M13.128,15.525c-0.114,0.229-0.381,0.343-0.609,0.229c-0.229-0.114-0.342-0.342-0.229-0.609c0.114-0.228,0.381-0.342,0.609-0.228
		C13.128,14.992,13.242,15.259,13.128,15.525z M12.519,17.047c-0.076,0.228-0.342,0.342-0.571,0.266s-0.38-0.342-0.267-0.571
		c0.076-0.228,0.343-0.38,0.571-0.266C12.481,16.553,12.633,16.781,12.519,17.047z M12.062,18.607
		c-0.076,0.228-0.305,0.38-0.571,0.304c-0.229-0.076-0.38-0.304-0.305-0.571c0.076-0.266,0.305-0.38,0.571-0.304
		C11.986,18.113,12.101,18.341,12.062,18.607z M11.682,20.206c-0.038,0.266-0.304,0.418-0.532,0.342
		c-0.267-0.038-0.419-0.266-0.343-0.533c0-0.228,0.267-0.38,0.495-0.342C11.568,19.711,11.72,19.939,11.682,20.206z M11.377,21.842
		c-0.038,0.266-0.266,0.418-0.495,0.38c-0.267-0.038-0.418-0.266-0.38-0.495c0.038-0.267,0.266-0.418,0.495-0.38
		C11.263,21.347,11.416,21.575,11.377,21.842z M11.225,23.478c0,0.266-0.228,0.457-0.495,0.418c-0.266,0-0.457-0.229-0.418-0.495
		c0-0.267,0.229-0.457,0.495-0.418C11.073,22.983,11.263,23.211,11.225,23.478z M11.187,25.114c0,0.266-0.19,0.456-0.457,0.456
		c-0.266,0-0.457-0.19-0.457-0.456c0-0.267,0.19-0.457,0.457-0.457C10.997,24.658,11.187,24.848,11.187,25.114z M11.263,26.75
		c0,0.267-0.152,0.457-0.418,0.495s-0.457-0.152-0.495-0.419c0-0.266,0.152-0.456,0.418-0.494
		C11.035,26.294,11.225,26.484,11.263,26.75z M11.454,28.387c0.038,0.266-0.152,0.494-0.38,0.533
		c-0.267,0.037-0.495-0.115-0.533-0.381c-0.038-0.267,0.152-0.495,0.38-0.533C11.187,27.969,11.416,28.12,11.454,28.387z
		 M11.72,29.984c0.038,0.267-0.114,0.495-0.342,0.533c-0.266,0.038-0.495-0.114-0.533-0.343c-0.076-0.228,0.114-0.495,0.342-0.532
		C11.454,29.604,11.682,29.756,11.72,29.984z M12.139,31.583c0.076,0.229-0.076,0.495-0.305,0.571
		c-0.228,0.076-0.495-0.076-0.571-0.305c-0.076-0.267,0.076-0.495,0.305-0.571C11.796,31.203,12.062,31.354,12.139,31.583z
		 M12.633,33.143c0.076,0.229-0.038,0.495-0.267,0.571c-0.228,0.076-0.495-0.038-0.571-0.267s0.038-0.494,0.267-0.57
		C12.291,32.801,12.557,32.914,12.633,33.143z M13.28,34.665c0.114,0.229,0,0.495-0.229,0.608c-0.229,0.115-0.495,0-0.609-0.228
		c-0.114-0.229,0-0.495,0.229-0.608C12.899,34.322,13.166,34.438,13.28,34.665z M14.003,36.149c0.114,0.228,0.038,0.495-0.19,0.608
		c-0.229,0.114-0.495,0.038-0.609-0.189c-0.114-0.229-0.038-0.495,0.19-0.609C13.584,35.845,13.851,35.921,14.003,36.149z
		 M14.802,37.557c0.152,0.229,0.076,0.495-0.152,0.647c-0.229,0.151-0.495,0.076-0.647-0.152s-0.076-0.495,0.152-0.647
		C14.384,37.291,14.688,37.367,14.802,37.557z M15.715,38.927c0.152,0.19,0.114,0.495-0.114,0.647
		c-0.19,0.152-0.495,0.113-0.647-0.115c-0.152-0.189-0.114-0.494,0.114-0.646C15.297,38.66,15.563,38.736,15.715,38.927z
		 M16.743,40.221c0.152,0.19,0.152,0.494-0.076,0.646c-0.19,0.152-0.495,0.152-0.647-0.037c-0.152-0.191-0.152-0.495,0.076-0.647
		C16.286,39.992,16.59,40.03,16.743,40.221z M17.846,41.438c0.19,0.19,0.152,0.456,0,0.647c-0.19,0.189-0.457,0.189-0.647,0
		c-0.19-0.191-0.152-0.457,0-0.647C17.39,41.248,17.656,41.248,17.846,41.438z M19.026,42.58c0.19,0.189,0.19,0.457,0.038,0.646
		c-0.152,0.19-0.457,0.19-0.647,0.038c-0.19-0.19-0.19-0.456-0.038-0.646S18.835,42.428,19.026,42.58z M20.282,43.646
		c0.19,0.151,0.228,0.456,0.076,0.646c-0.152,0.19-0.457,0.229-0.646,0.076c-0.19-0.151-0.229-0.456-0.076-0.646
		S20.053,43.493,20.282,43.646z M21.613,44.635c0.229,0.152,0.267,0.418,0.114,0.646c-0.152,0.19-0.418,0.267-0.647,0.114
		c-0.228-0.151-0.266-0.419-0.114-0.646C21.119,44.559,21.385,44.482,21.613,44.635z M22.983,45.51
		c0.228,0.114,0.304,0.419,0.152,0.609c-0.114,0.229-0.418,0.305-0.608,0.152c-0.229-0.115-0.305-0.419-0.152-0.609
		C22.489,45.434,22.755,45.396,22.983,45.51z M24.429,46.271c0.229,0.113,0.304,0.38,0.19,0.608
		c-0.114,0.228-0.381,0.304-0.609,0.19c-0.229-0.114-0.305-0.381-0.19-0.609C23.935,46.271,24.201,46.156,24.429,46.271z
		 M25.913,46.956c0.229,0.114,0.343,0.343,0.229,0.608c-0.114,0.229-0.343,0.343-0.609,0.267c-0.229-0.114-0.342-0.38-0.266-0.608
		C25.418,46.994,25.685,46.88,25.913,46.956z M27.473,47.564c0.229,0.076,0.381,0.343,0.305,0.57
		c-0.076,0.229-0.342,0.381-0.571,0.305s-0.38-0.342-0.305-0.57C26.94,47.603,27.207,47.451,27.473,47.564z M29.034,48.021
		c0.266,0.076,0.38,0.305,0.342,0.57c-0.076,0.229-0.305,0.381-0.571,0.343c-0.266-0.076-0.38-0.305-0.342-0.571
		C28.539,48.098,28.805,47.945,29.034,48.021z M30.632,48.363c0.266,0.039,0.418,0.267,0.38,0.533s-0.267,0.418-0.533,0.381
		c-0.267-0.039-0.418-0.267-0.38-0.533C30.175,48.479,30.403,48.326,30.632,48.363z M32.268,48.63
		c0.266,0.038,0.418,0.267,0.38,0.495c-0.038,0.266-0.267,0.418-0.495,0.418c-0.267-0.037-0.418-0.266-0.418-0.494
		C31.773,48.744,32.001,48.592,32.268,48.63z M33.904,48.744c0.266,0,0.457,0.229,0.418,0.457c0,0.266-0.229,0.457-0.457,0.457
		c-0.267,0-0.457-0.229-0.419-0.495C33.447,48.935,33.638,48.744,33.904,48.744z M35.541,48.782c0.266,0,0.457,0.19,0.457,0.456
		c0,0.268-0.19,0.457-0.457,0.457c-0.267,0-0.457-0.189-0.457-0.457C35.083,48.973,35.312,48.782,35.541,48.782z M37.177,48.668
		c0.266-0.038,0.457,0.152,0.495,0.419s-0.152,0.456-0.419,0.495c-0.266,0.037-0.457-0.152-0.495-0.419
		C36.758,48.935,36.948,48.706,37.177,48.668z M38.813,48.479c0.266-0.039,0.495,0.113,0.533,0.38s-0.114,0.495-0.381,0.532
		c-0.266,0.039-0.495-0.113-0.533-0.38S38.546,48.516,38.813,48.479z M40.449,48.174c0.266-0.076,0.495,0.076,0.533,0.342
		c0.038,0.229-0.076,0.495-0.343,0.533c-0.266,0.076-0.495-0.114-0.533-0.343C40.03,48.479,40.183,48.211,40.449,48.174z
		 M42.009,47.717c0.228-0.076,0.495,0.076,0.571,0.305s-0.038,0.494-0.305,0.57c-0.228,0.076-0.495-0.076-0.571-0.305
		C41.628,48.06,41.781,47.793,42.009,47.717z M43.569,47.184c0.228-0.076,0.495,0.039,0.571,0.268
		c0.076,0.228-0.038,0.494-0.267,0.57c-0.228,0.076-0.495-0.038-0.609-0.267C43.227,47.564,43.341,47.299,43.569,47.184z
		 M45.053,46.575c0.229-0.114,0.495,0,0.609,0.229c0.114,0.228,0,0.495-0.229,0.608c-0.228,0.115-0.495,0-0.608-0.229
		C44.749,46.956,44.825,46.689,45.053,46.575z M46.537,45.814c0.229-0.114,0.495-0.038,0.609,0.189
		c0.114,0.229,0.038,0.495-0.19,0.609c-0.229,0.114-0.495,0.038-0.609-0.189C46.233,46.195,46.309,45.929,46.537,45.814z
		 M47.945,44.977c0.228-0.151,0.495-0.076,0.647,0.152c0.152,0.229,0.076,0.495-0.152,0.647c-0.229,0.152-0.495,0.076-0.647-0.152
		C47.679,45.396,47.755,45.129,47.945,44.977z M49.315,44.025c0.19-0.152,0.495-0.113,0.647,0.076
		c0.152,0.19,0.114,0.495-0.076,0.647c-0.19,0.151-0.495,0.114-0.647-0.076C49.049,44.482,49.087,44.178,49.315,44.025z
		 M50.571,42.998c0.19-0.152,0.457-0.152,0.647,0.039c0.152,0.189,0.152,0.494-0.038,0.646c-0.19,0.152-0.495,0.152-0.647-0.038
		C50.342,43.455,50.38,43.188,50.571,42.998z M51.789,41.895c0.19-0.189,0.457-0.189,0.647,0c0.19,0.191,0.19,0.457,0,0.647
		c-0.19,0.19-0.457,0.19-0.647,0C51.598,42.352,51.598,42.086,51.789,41.895z M52.93,40.715c0.152-0.189,0.457-0.189,0.646-0.037
		c0.19,0.152,0.229,0.456,0.038,0.646c-0.152,0.19-0.457,0.19-0.646,0.038C52.778,41.172,52.74,40.906,52.93,40.715z M53.958,39.422
		c0.152-0.19,0.418-0.229,0.647-0.076c0.19,0.152,0.228,0.418,0.076,0.646c-0.152,0.19-0.457,0.229-0.646,0.076
		C53.843,39.916,53.805,39.611,53.958,39.422z M54.909,38.09c0.152-0.229,0.418-0.267,0.647-0.114
		c0.228,0.152,0.266,0.419,0.114,0.647c-0.152,0.228-0.419,0.266-0.647,0.113C54.833,38.584,54.794,38.28,54.909,38.09z
		 M55.784,36.682c0.114-0.229,0.419-0.305,0.609-0.189c0.229,0.113,0.305,0.38,0.19,0.608c-0.114,0.228-0.418,0.304-0.609,0.151
		C55.708,37.177,55.632,36.91,55.784,36.682z M56.545,35.236c0.114-0.229,0.38-0.305,0.609-0.229
		c0.228,0.113,0.342,0.381,0.228,0.608c-0.114,0.229-0.38,0.343-0.608,0.229C56.507,35.73,56.431,35.465,56.545,35.236z
		 M57.192,33.714c0.114-0.229,0.342-0.343,0.609-0.267c0.228,0.076,0.342,0.343,0.266,0.609c-0.114,0.229-0.342,0.342-0.609,0.266
		C57.23,34.246,57.116,33.98,57.192,33.714z M57.763,32.191c0.076-0.229,0.342-0.38,0.571-0.305c0.228,0.076,0.38,0.344,0.304,0.571
		c-0.076,0.229-0.342,0.381-0.571,0.305C57.801,32.687,57.687,32.42,57.763,32.191z M58.181,30.594
		c0.076-0.267,0.304-0.381,0.533-0.343c0.229,0.076,0.38,0.305,0.342,0.532c-0.076,0.268-0.304,0.381-0.571,0.344
		C58.295,31.088,58.143,30.859,58.181,30.594z M58.523,28.996c0.038-0.268,0.267-0.42,0.533-0.381
		c0.267,0.037,0.419,0.266,0.381,0.532s-0.267,0.419-0.533,0.381C58.638,29.49,58.485,29.262,58.523,28.996z M58.752,27.359
		c0.038-0.267,0.228-0.419,0.495-0.419c0.266,0.038,0.418,0.229,0.418,0.495c-0.038,0.266-0.266,0.418-0.495,0.418
		C58.904,27.816,58.714,27.625,58.752,27.359z M58.866,25.723c0-0.266,0.228-0.456,0.457-0.456c0.266,0,0.457,0.228,0.457,0.456
		c0,0.267-0.229,0.457-0.457,0.457C59.056,26.18,58.866,25.989,58.866,25.723z M58.866,24.087c0-0.267,0.19-0.457,0.418-0.457
		c0.266,0,0.457,0.19,0.457,0.419c0,0.266-0.19,0.457-0.457,0.457C59.056,24.505,58.866,24.315,58.866,24.087z M58.752,22.451
		c-0.038-0.267,0.152-0.457,0.418-0.495c0.267-0.038,0.457,0.152,0.495,0.418c0.038,0.266-0.152,0.495-0.418,0.495
		C58.98,22.869,58.752,22.679,58.752,22.451z M58.523,20.814c-0.038-0.267,0.114-0.495,0.381-0.533
		c0.266-0.038,0.495,0.114,0.533,0.38s-0.114,0.495-0.381,0.533C58.79,21.233,58.562,21.042,58.523,20.814L58.523,20.814z
		 M58.181,19.216c-0.076-0.267,0.076-0.495,0.342-0.533c0.229-0.076,0.495,0.076,0.571,0.342s-0.076,0.495-0.342,0.571
		C58.485,19.597,58.257,19.444,58.181,19.216z M57.725,17.618c-0.076-0.229,0.038-0.495,0.304-0.571
		c0.229-0.076,0.495,0.038,0.571,0.304c0.076,0.229-0.038,0.495-0.304,0.571C58.067,17.999,57.801,17.884,57.725,17.618z
		 M57.154,16.096c-0.114-0.228,0-0.495,0.266-0.608c0.229-0.076,0.495,0,0.609,0.266c0.114,0.229,0,0.495-0.266,0.609
		C57.534,16.438,57.268,16.324,57.154,16.096z M56.507,14.574c-0.114-0.228,0-0.495,0.229-0.609c0.228-0.114,0.495-0.038,0.608,0.19
		c0.114,0.229,0,0.495-0.228,0.609C56.887,14.878,56.621,14.802,56.507,14.574z M55.746,13.128
		c-0.114-0.229-0.038-0.495,0.152-0.609c0.229-0.114,0.495-0.038,0.609,0.152c0.114,0.228,0.038,0.495-0.152,0.609
		C56.126,13.432,55.86,13.356,55.746,13.128z M54.871,11.72c-0.152-0.228-0.076-0.495,0.114-0.646
		c0.228-0.152,0.495-0.076,0.647,0.114c0.152,0.229,0.076,0.495-0.114,0.647C55.289,11.986,55.023,11.948,54.871,11.72z
		 M53.919,10.388c-0.152-0.19-0.114-0.495,0.076-0.647c0.19-0.152,0.495-0.114,0.646,0.076c0.152,0.19,0.114,0.495-0.076,0.647
		C54.338,10.616,54.071,10.579,53.919,10.388z M52.854,9.132c-0.152-0.19-0.152-0.457,0.038-0.647
		c0.19-0.152,0.457-0.152,0.646,0.038c0.152,0.19,0.152,0.495-0.038,0.647C53.311,9.323,53.044,9.323,52.854,9.132z M51.75,7.915
		c-0.19-0.19-0.19-0.457,0-0.646c0.19-0.19,0.457-0.19,0.647,0c0.19,0.19,0.19,0.457,0,0.646C52.207,8.105,51.902,8.105,51.75,7.915
		z M50.533,6.811c-0.19-0.152-0.229-0.457-0.038-0.646c0.152-0.19,0.457-0.229,0.647-0.038c0.19,0.152,0.228,0.457,0.038,0.647
		C50.989,6.963,50.723,7.001,50.533,6.811z M49.239,5.784c-0.19-0.152-0.228-0.418-0.076-0.646c0.152-0.19,0.418-0.267,0.646-0.114
		C50,5.175,50.038,5.479,49.886,5.67C49.733,5.898,49.429,5.936,49.239,5.784z M47.907,4.871c-0.229-0.152-0.267-0.418-0.152-0.609
		c0.152-0.228,0.418-0.266,0.647-0.152c0.228,0.152,0.266,0.419,0.152,0.647C48.402,4.947,48.098,4.985,47.907,4.871z M46.461,4.034
		c-0.228-0.114-0.304-0.381-0.19-0.609c0.114-0.229,0.38-0.305,0.609-0.19c0.228,0.114,0.304,0.38,0.19,0.609
		C46.956,4.071,46.689,4.147,46.461,4.034z M45.015,3.272c-0.228-0.114-0.342-0.38-0.228-0.609c0.114-0.228,0.38-0.342,0.608-0.228
		c0.229,0.114,0.343,0.38,0.229,0.608C45.51,3.272,45.244,3.387,45.015,3.272z M43.493,2.664c-0.229-0.114-0.342-0.38-0.267-0.609
		c0.076-0.228,0.343-0.342,0.571-0.266c0.229,0.076,0.343,0.342,0.267,0.609C43.988,2.625,43.722,2.74,43.493,2.664z M41.933,2.131
		c-0.229-0.076-0.38-0.304-0.305-0.571c0.076-0.228,0.305-0.38,0.571-0.304c0.229,0.076,0.381,0.342,0.305,0.571
		C42.428,2.055,42.199,2.207,41.933,2.131z M40.373,1.712c-0.267-0.076-0.381-0.305-0.343-0.533
		c0.038-0.267,0.305-0.418,0.533-0.343c0.267,0.038,0.419,0.305,0.343,0.533C40.868,1.598,40.601,1.75,40.373,1.712z M38.737,1.37
		c-0.267-0.038-0.418-0.267-0.381-0.533c0.038-0.266,0.267-0.418,0.533-0.38c0.267,0.038,0.419,0.267,0.381,0.533
		C39.231,1.256,39.003,1.408,38.737,1.37z M37.101,1.18c-0.229,0-0.419-0.229-0.419-0.495c0.038-0.267,0.229-0.457,0.495-0.418
		c0.266,0.038,0.457,0.266,0.418,0.495C37.595,1.027,37.367,1.218,37.101,1.18z"/>
</g>
</svg>
