<svg xmlns="http://www.w3.org/2000/svg" width="1080" height="780" viewBox="0 0 1080 780"><path fill="#F2F7F9" d="M995.323 427.33c-.632-.633-6.32-6.952-17.693-18.96.63-5.058 1.265-11.376 1.896-18.96l1.264-12.638-5.058 2.53c-1.896.627-6.95 6.317-12.638 13.27-12.64-13.903-29.702-31.6-49.924-52.453v-54.98a10572.266 10572.266 0 0 1 70.78 51.82c1.894 1.26 4.422-1.897 1.894-3.793-13.9-10.742-40.442-30.332-72.673-53.715v-30.966c0-3.79 0-12.006-3.79-9.478-7.583 5.054-41.076-1.265-41.707-1.265l-8.848 1.896c-29.7-22.118-60.035-44.236-85.944-63.194-6.32-4.424-8.847-1.897-2.53 3.16 4.428 3.792 41.08 30.965 82.787 61.3-13.27 2.526-24.013 2.526-33.492 1.894-15.167-15.796-30.965-32.228-48.66-49.923-5.055-5.055-8.846-1.894-3.79 3.16.633.634 18.326 19.59 43.604 45.5-8.216-.63-15.8-2.526-23.385-3.16-4.422-6.318-9.478-12.637-13.27-18.956-8.216-10.743-8.85-3.792-4.424 3.16 2.528 3.79 5.69 8.85 10.11 15.167h-15.8c-.63-2.53-1.262-4.423-2.525-6.32-3.16-8.215-8.848-11.374-5.056 2.527.63 1.896 1.263 3.16 1.263 5.057-3.158.63-7.583 1.898-12.007 4.424-1.264-8.85-3.16-17.062-4.422-25.277-1.897-8.85-5.69-8.216-4.425 1.264 1.264 8.846 2.525 17.693 4.424 26.54-5.69 3.16-11.376 6.953-14.536 12.64 0-15.166-.633-29.702-.633-43.604 0-14.535-3.792-8.845-4.424 0v39.814c-3.79-5.058-10.742-8.85-17.06-12.01l3.79-23.38c1.265-9.48-3.16-10.113-4.423-1.264-1.263 7.583-2.528 15.166-4.424 22.75-5.056-1.897-9.48-2.53-12.008-2.53l1.266-3.792c3.79-13.902-1.896-11.374-4.424-2.526-.634 1.895-1.265 3.79-1.896 6.32-5.69 0-11.376 0-16.43.632 4.42-6.32 7.58-11.377 10.107-15.167 5.06-6.95 3.792-13.902-4.422-3.16-4.424 5.688-8.85 12.01-13.27 18.96-8.217 0-15.168.632-21.487.632 24.012-25.28 40.443-42.34 41.075-43.604 5.055-5.054 1.265-8.214-3.793-3.16-16.43 16.43-31.596 32.23-45.5 46.766-23.38 1.262-30.965 1.894-38.548 2.526 42.974-31.595 80.89-59.4 85.312-63.192 6.318-5.057 3.792-7.584-2.527-3.16-27.176 20.223-59.403 43.602-90.37 66.353h-9.48c-7.584 0-25.91.634-30.965 0-1.896 0-5.055-1.263-6.32-1.263-3.79 0-4.423 2.528-4.423 6.32v32.862c-30.967 22.746-57.507 42.34-70.777 52.45-2.527 1.896 0 5.054 1.895 3.79 0 0 30.966-22.75 69.515-51.187v54.978c-53.714 56.244-81.52 86.58-82.15 87.21-3.793 3.79-.634 6.32 2.525 3.16 11.376-10.742 42.974-42.973 78.36-80.256v84.046c-29.068 46.133-49.29 80.89-49.922 80.89-4.424 6.952-3.792 10.742 1.265 5.056 1.265-1.266 21.485-32.86 48.66-75.2v51.816c-6.95.633-16.43 2.528-19.59 6.95-3.79 5.06-2.527 9.48-3.16 16.433-.632 4.423-1.262 10.74-2.527 13.9-1.896 5.69-6.95 9.48-10.11 12.64-3.16 3.16-5.057 8.217-6.95 12.64-3.16 7.583 1.262 18.96 6.32 27.173 2.524 4.424 7.582 9.48 12.637 10.11 18.958 3.16 21.486-10.11 24.014-17.063 0-.63 0-.63.633-1.26 0 12.637.633 19.59.633 20.22 0 .633 9.478 0 24.013-.63-3.16 10.108-5.688 15.796-5.688 16.427-3.16 12.01 2.527 7.585 3.794 3.16l6.948-19.588c12.64-.634 28.438-1.266 44.236-1.897 3.158 5.054 10.11 12.64 12.638 17.692l3.16 5.69 1.896 3.79c2.525 4.42 4.422 8.215 6.95 11.373-1.897 10.743-3.16 17.062-3.16 18.327-3.79 16.43-.63 17.692 3.792 2.526 0-.63 1.265-6.32 3.16-15.164 1.896 2.526 3.79 5.688 6.32 8.845 5.055 6.953 15.797 13.904 41.074 24.65 9.48 4.42 23.382 6.95 38.55 7.582.63 12.64 3.79 9.48 4.422 0 19.59.634 41.708-2.527 63.194-9.48 11.376-5.686 19.592-12.005 24.646-17.69v.63c4.425 15.167 7.584 13.905 3.794-2.526 0-.633 0-1.265-.633-2.53 3.16-3.79 4.423-6.316 4.423-6.95 1.266-2.525 12.64-26.54-1.263-44.234l-.633-.63-1.264-.634-2.528-1.896c25.278 1.265 52.452 2.528 70.778 3.16l5.688 15.165c1.265 4.425 7.583 8.216 3.79-3.16 0 0-1.894-4.42-4.422-12.006 11.375.634 18.325.634 18.325 0v-25.91c15.8-2.524 20.856-6.95 30.968-15.796 12.007-10.744 19.59-25.28 18.96-39.814.63 1.265 1.262 1.896 1.262 1.896 5.056 5.688 5.688 1.896 1.265-5.055 0 0-1.896-2.527-4.425-6.95-2.526-8.217-6.95-15.168-12.64-20.855-5.688-9.48-12.638-20.854-20.854-34.124 8.216-1.265 17.062-3.792 24.013-6.32 7.583-3.16 18.96-12.004 24.014-25.906l3.16-1.266c.632-1.265 1.263-3.16 1.263-4.425l16.43 16.43c3.167 2.526 6.96-.002 3.166-3.793zm-36.65-30.336c-4.424 5.055-8.85 10.113-12.64 14.535-1.264-5.058-2.53-15.168-3.792-22.12-1.262-5.69-2.526-10.11-4.42-13.903 7.582 7.585 14.534 14.535 20.853 21.487zm-46.134-48.027c5.687 5.688 10.742 11.375 15.8 16.433v2.524c1.893 18.958-1.897 34.124-4.426 42.973-2.527 8.85-5.057 12.64-9.48 14.535l-2.527 1.266c.63-29.07.63-55.613.632-77.73zm-14.536-97.32c.632-3.792 6.95-5.055 8.216 1.897 1.266 3.79.634 90.368 0 175.678-2.526.632-5.054.632-7.583.632h-.632c0-86.573-.63-176.31 0-178.207zm-12.007 0c0-2.528 6.32-3.792 5.687 1.897.634 1.265-.63 89.104-1.263 173.786l-3.16-1.266c0-1.266-.63-2.53-.63-2.53 0-8.847 3.79-10.107 0-14.533-.633-1.263-2.528-1.895-4.425-2.524 1.897-80.26 3.16-153.563 3.792-154.83zm-15.8-3.792c1.266-5.055 6.32-1.262 6.32.632 0 1.896-.63 78.994-1.264 157.987-1.896.634-4.425.634-6.952 1.263.635-46.132 1.267-99.846 1.897-159.882zm-1.262 162.41h1.264s8.214-2.527 10.743-.63c3.157 2.527 1.896 13.27 1.896 17.062v3.79c0 .633.632 1.264.632 2.527 1.264 3.16 4.422 4.423 4.422 5.688-1.896-.633-3.16-1.266-5.055-1.266-2.528-.633-5.057-1.264-6.95-1.264-2.528-.633-4.426-.633-6.954-.633h-5.688c-5.056.633-9.48 1.264-12.64 3.16-1.266.633-2.527 1.266-3.792 2.528 0 0-.63 0-.63.63-1.266.633-1.897 1.897-3.16 3.16-1.896 2.53-3.16 5.688-4.426 8.85-.63-3.16-4.424-6.95-4.424-9.48 0-10.108 6.32-17.06 10.743-20.853 1.263-1.265 3.16-2.525 4.42-3.157.634-.633 1.267-.633 1.267-.633l3.16-1.896c.633 0 1.264-.635 1.264-.635 1.265-.633 1.896-1.265 3.16-1.265.633 0 .633 0 1.264-.632 4.423-3.79 7.583-4.42 9.48-5.054zm19.59 33.493l1.264.633v22.753c-3.16 0-5.058.63-7.585 1.265 0-8.85 0-17.696.633-27.174 1.262.63 2.526 1.262 4.423 1.895l1.264.63zm-13.27-4.423v32.23l-1.266.632c-1.265.63-3.16 1.264-5.057 1.896V438.07l6.322 1.265zm-12.008-.632v37.285c-1.263 0-1.896.63-2.528.63-9.48.632-15.166-3.158-16.43-5.688-.634-1.264-1.265-2.524-2.528-4.422-.63-1.896-1.264-5.688-1.264-5.688 0-5.06 2.526-8.216 7.582-13.902 3.79-4.424 8.846-7.582 15.167-8.215zm-134.602-172.52c1.896-17.695 49.29-24.015 57.507-22.118 7.583 1.897 20.854 4.423 26.54 5.055 0 0 26.543 6.32 50.557-2.526V407.74c-4.425 1.264-14.535 3.792-21.487 9.478-7.584 6.318-12.64 13.903-12.64 24.016 0 6.95 2.53 13.27 5.69 22.114 1.895 5.06 3.16 10.745 3.79 10.745 4.424 6.95 3.16 13.27 4.424 19.59 1.896 10.112 8.216 12.007 10.742 12.64l8.848 1.896v12.006h-1.896c-15.797-1.266-21.484-3.79-30.965-8.216l-10.742-6.32c-18.958-8.85-44.235-8.216-56.874-2.526-6.95 2.525-10.74 5.056-14.533 9.478l-.633 2.53.633 1.896c1.263 3.79 4.423 7.58 5.688 10.74 1.266 2.53.633 8.85.633 10.743 0 5.06-4.425 10.11-5.688 11.377h.63c-4.422 2.525-6.317 8.216-6.95 15.8-5.055 2.526-8.846 4.423-12.638 6.95-.637-.633-2.532-305.86-.637-306.494zm48.66 309.65c.63 1.897 1.895 3.794 3.79 5.056 1.265 1.895 3.16 3.16 5.688 4.425 1.896 1.264 4.425 3.156 6.952 4.422l3.16 1.896c1.895.633 3.16 1.897 5.056 3.16-1.895 0-3.16 0-5.053.63l-7.584.634c-1.897 0-3.16 0-4.425.63-4.424.635-8.215.635-14.536-.63-1.895 0-3.79-.633-6.317-1.265-3.792-.633-6.32-2.526-8.847-5.056-2.528-2.528-5.057-5.688-6.318-8.85-1.268-2.524-1.898-3.79-1.898-5.687l-.632-5.057c0-2.527.632-5.055.632-6.95.633-1.896.633-3.16 1.897-4.423v-.633c.63-1.266 1.893-1.896 2.524-2.53l1.264-.63c1.896-.634 3.16-.634 5.055-.634h6.32l5.687.633h.63l8.217 1.896-1.265 3.16c-.63 1.263-1.262 3.16-1.262 4.423-.633 1.266-.633 3.16-.633 4.424 0 2.53.632 5.055 1.894 6.95l.004.003zm2.527-8.215c0-2.526 1.264-5.688 2.526-8.845 1.262 0 1.895 0 3.16-.634 6.317 1.895 12.638 3.79 18.956 6.317l-24.642 3.16zm48.027 4.426c8.213 2.525 17.06 3.79 26.54 5.055-20.854.63-46.134 1.895-67.62 3.155-2.526-1.894-3.79-3.157-5.055-5.055 15.17-1.262 31.6-1.894 46.134-3.156zm-39.814 30.33c0 3.162-.633 5.69-3.16 7.584-13.9 11.378-25.275 13.903-51.816 10.113l-7.585-1.264V603.64c6.95 0 14.534-1.896 22.117-7.583.634 0 3.16-.633 6.32-.633 2.527 1.896 5.688 3.16 9.48 3.792 13.9 3.79 15.797 3.79 24.644 3.16v-.002zm-46.13-25.275l-5.69-2.53 5.69-2.525c-.632 1.892-.632 3.79 0 5.054zm-16.433.63c12.64.632 19.592 12.64 18.325 13.9-8.846 10.11-27.804 10.743-36.02.634-1.26-1.896 6.95-13.903 17.695-14.535zm-18.956 5.686c2.524.633-2.53 2.528-2.53 2.528-5.688-1.265-17.062-1.896-30.333-3.16l-.63-1.264c0-.633-.633-1.266-.633-2.525 15.166 1.26 27.807 2.526 34.127 4.42zm-36.654-12.006c-.632-2.527-1.895-4.425-3.792-6.95 16.43 2.525 42.34 6.95 48.03 11.374-3.162 1.265.63-.633-4.425 3.16-4.423-3.16-20.22-5.056-39.812-7.584zm26.542 17.062c1.896 0 6.32 0 4.422 3.794 0-.633-8.847-.633-22.748-.633l-1.897-3.793c10.11 0 17.063 0 20.222.632zm5.055 8.216c6.953 2.527 11.376 5.055 18.328 6.32v13.9c-5.057-1.896-10.11-3.79-15.167-6.95 0 0-6.316-3.158-14.533-6.95-3.79-1.897-6.95-4.424-9.48-7.585 11.376 0 18.328.633 20.855 1.264h-.002zM581.404 251.016c0-2.53 0-3.16 3.79-3.16 50.555.63 128.918-18.327 136.5 18.326 0 1.265 1.896 234.45.63 306.492-17.06-6.95-30.332-9.48-59.4-13.27l-5.056-6.955c-5.688-8.214-6.95-11.375-11.374-14.534l-10.745-10.11c-5.688-4.424-12.64-11.375-13.9-12.64-15.8-10.745-29.703-15.8-41.078-18.325 1.264-145.346-.632-229.393.632-245.824zm-9.48 4.422c0-7.58 4.423-7.58 3.793-1.894.63 8.214 0 88.472-1.896 242.034-1.895-.632-3.79-.632-5.687-.632 1.263-89.103 3.79-228.13 3.79-239.508zm-14.535-1.894c-.63-3.792 3.79-5.687 4.425-.632.63 1.897-1.266 147.873-1.896 242.034l-5.69.632c0-95.425 2.527-240.77 3.16-242.034zm-16.43-1.897c.63-5.055 7.582-2.528 7.582 3.162-.63 101.74-1.894 185.157-2.526 242.662l-1.896.632h-3.79l.63-246.457zm-20.854 338.09c-3.792 3.16-7.585 4.422-12.64 3.793-3.16 0-9.48-7.585-12.64-15.168-1.267-3.16-1.267-6.95-.633-12.64 0-1.895 0-3.158.633-4.425.63-1.896 1.895-3.79 3.158-5.055 1.896 2.53 5.688 5.055 9.48 6.95l7.58 4.424c4.426 3.16 10.744 5.057 15.17 5.688-1.897 5.058-4.424 12.01-10.11 16.43l.002.003zm8.846-22.12c-1.265 0-6.32.634-13.902-3.158l-6.95-3.795c-3.792-5.054-5.688-7.583-5.688-8.845 0 0 0-.633.633-.633 3.792-3.16 18.957-3.16 28.437-1.896v17.693c-.634.635-1.897.635-2.53.634zM540.96 591c-.634-2.528-1.266-17.694-.634-20.854v-20.223c1.896 0 3.79 0 5.688.633 0 23.38.634 36.02 2.527 36.65 1.266.632 24.647.632 53.085.632v.63s1.266 1.898 1.896 2.53l.634 1.896c-33.494-.63-62.563-1.262-63.194-1.894zm51.186-16.43c.633 1.264 1.896 2.527 3.16 4.425-22.75-.633-39.813-1.896-40.443-2.53-.633-.63-.633-10.11-1.267-25.275l5.688 1.26c0 12.01.633 19.595.633 20.226 1.894.63 14.532 1.263 32.23 1.894zM567.5 555.61c1.896.632 3.79 1.896 6.318 3.16 0 0 0 .63.632 0 3.793 1.894 7.584 5.056 11.376 8.213-10.743 0-18.326 0-17.693.633-1.266-1.264-.633-5.687-.633-12.006zm255.304 63.826c0 1.897 0 3.79-.633 5.688v1.264c-.63 1.897-.63 3.79-1.26 6.32l-1.897 5.687c0 .633 0 .633-.633 1.265-.632 1.897-1.265 3.792-2.526 5.69-1.267 1.895-1.896 3.79-3.16 5.054-5.057 6.952-12.01 11.376-29.7 19.592-5.058 1.895-10.112 3.16-14.536 4.424l-2.527.63c-3.79 1.266-8.215 1.896-12.006 2.527h-1.896c-4.424.633-8.217 1.265-12.64 1.265h-.633c-4.423 0-8.846.633-12.64 0-4.423 0-8.214-.632-12.004-.632h-1.895c-1.895 0-4.423-.633-6.318-1.265l-3.79-.63-4.427-1.266-7.584-2.53c-23.382-10.74-39.18-18.323-46.132-27.805l-5.688-8.847-3.79-5.69c-1.897-3.79-3.793-6.95-6.32-10.74l-3.79-4.427-3.16-5.685c-1.896-3.79-4.424-8.216-6.954-12.007-.63-1.265-1.895-2.528-2.525-4.424 0-.632-3.16-6.32-3.16-6.32v-.63l-1.896-2.53c-1.263-1.895-1.894-3.16-3.156-4.42-1.266-1.897-1.897-3.16-3.162-4.428-1.896-3.16-3.79-5.688-5.055-6.32-.632-.63-1.265-1.265-1.896-1.265-1.263-1.26-2.526-2.524-4.422-3.79-1.897-1.264-4.425-3.158-7.583-4.42-2.528-1.266-5.688-3.16-8.85-4.427l-5.688-2.526-7.583-3.16-5.688-1.895c-3.16-.633-5.688-1.895-8.216-1.895l-5.687-1.267c-2.527 0-4.424-.632-6.318-.632h-1.896c-12.007.632-13.903-.632-17.695-.632h-2.527c-.633 0-1.896 0-3.16.632l1.897-4.423c1.264-3.794.63-9.48 1.264-14.535.632-5.69 2.526-13.27 5.687-15.8.63-.633 1.895-1.896 3.16-1.896.63 0 .63 0 1.263-.634l3.158-.632h10.11l5.057-.633h1.265l4.422-1.26c4.424-1.267 8.85-1.897 13.27-2.53 2.53-.63 5.69-.63 8.218-.63 3.79 0 8.215 0 12.007 1.264l7.583 1.895c.63 0 .63 0 1.263.633 2.528.63 5.06 1.894 7.586 3.16.63 0 1.263.63 1.263.63 2.527 1.265 5.688 3.162 8.215 5.055l1.265.633c3.158 1.897 6.318 4.428 9.48 6.953h.632c.632.63 5.055 3.792 8.846 6.95l14.536 11.376c3.16 2.526 8.848 11.374 13.902 18.325l3.79 5.69c3.16 4.422 5.69 10.743 7.586 16.432 0 .632.63 1.265.63 2.525.633 1.897 1.265 3.794 2.53 5.69l1.895 3.79 2.527 4.423 2.527 3.792 2.527 3.16s0 .63.634.63c.633.634 1.896 1.896 3.16 2.53l.63.632 3.793 2.526 8.216 4.425c3.16 1.894 6.95 3.79 10.744 5.688 0 0 .632 0 .632.632 3.79 1.897 8.215 3.16 12.64 4.424l5.687 1.265c.632 0 1.263 0 1.263.632 29.07 3.79 53.084 0 62.562-10.112 3.16-3.79 5.058-8.213 4.426-12.64h1.896c9.48-.63 12.64-1.264 18.325 3.162 6.31 3.79 10.735 7.583 10.734 13.27zm80.258-25.908c-2.527-.634-55.612-2.53-97.953-3.16-2.527-1.267-5.69-3.162-8.85-4.425 41.71.633 86.577.633 100.48 0 0-.63.63-3.792.63-8.848l6.95-1.265c-.628 8.85-.628 15.168-1.258 17.698zm42.97-96.69c3.792 5.057 6.95 11.377 7.584 18.328 2.528 13.902 1.896 25.91-9.48 36.02l-4.423 3.793-2.527 1.896c-.632.633-1.265.633-1.265 1.265l-2.525 1.897-1.264.63-2.526 1.898-1.264.632c-.632.633-1.896 1.264-2.53 1.264l-1.264.635-3.158 1.263c-.633 0-.633 0-1.265.632l-3.792 1.266h-1.26l-4.426 1.266-5.688.63-8.214 1.265c-3.16.633-5.688.633-8.85.633-3.79.63-7.58.63-11.373.63h-12.01c-3.793 0-6.952-.63-10.11-.63h-.633c-17.695-1.896-33.493-6.32-45.502-12.01l-8.847-3.79-7.582-3.16c-6.32-2.525-12.006-4.424-18.327-5.69h-1.263l-6.952-1.263H763.4c-2.528 0-5.056-.632-6.95 0 1.263-3.79 2.526-8.845 2.526-12.638v-2.527c-.632-2.527-1.896-5.688-3.16-8.848-1.263-2.528-1.895-4.426-3.16-7.583 2.53-3.162 3.793-5.69 8.85-7.584 10.11-3.792 32.23-6.32 49.922 1.896l13.27 5.688c9.48 4.422 17.064 8.848 34.128 10.11l9.48.632c1.894 0 3.79 0 5.686.63h14.537c3.156 0 6.316 0 8.847-.63 2.527 0 5.056-.633 6.95-.633 2.527 0 4.423-.63 6.32-.63 3.16-.633 5.687-1.265 8.214-1.896.633 0 .633 0 1.265-.632 2.527-.632 4.423-1.263 6.32-1.896 17.06-5.694 19.587-16.436 19.587-22.758zm-77.728 13.903c1.896 0 4.424.633 6.32 0v12.01c-1.897 0-3.793 0-6.32-.633V510.74zm13.27 12.01v-13.903h.632c1.896-.633 4.424-1.896 6.953-3.794v17.696c-2.53.63-5.06 0-7.587 0zm15.8.63v-24.01l7.582-6.318c0 10.11 0 20.223-.632 29.702-1.895 0-3.79.632-6.95.632v-.005zm41.706-28.436c.633 3.79 1.896 16.43-14.534 22.117l-13.27 4.425v-33.492c5.687-3.793 12.64-4.426 27.173 5.688.63 0 .63.63.63 1.264zm-2.526-11.377l-7.583-1.264h-7.58c-1.897 0-3.163 0-5.058.63-1.895 0-3.158.633-4.423 1.266-2.528.63-4.424 1.895-6.32 3.16-2.525 1.263-4.42 3.156-6.95 5.687-.633 0-.633.633-.633.633-3.16 3.157-5.688 4.422-8.215 5.687-2.527 1.264-4.424 1.896-6.95 2.526h-.634l-1.896.634-5.055 1.894c-3.792 1.266-8.216 1.898-12.008 1.266-1.264 0-2.53-.633-4.424-1.266-6.952-3.157-10.743-9.477-11.376-12.006-.632-4.422.633-5.055-.632-12.005 1.896.63 4.425 1.263 6.952 1.263h10.742c1.266 0 2.528-.633 3.792-1.264l5.688-2.53h.632c2.527-1.895 5.688-3.158 9.48-4.423 1.264-.632 3.157-.632 5.057-1.263h13.9c3.792 0 8.216-.634 13.27.63.634 0 1.267 0 2.53.634.632 0 1.264 0 1.895.633l2.528.634c.632 0 .632 0 1.263.63l3.793 1.896 1.263.632 3.16 1.897 1.264.633c0 .63 1.266 1.894 2.53 3.155h-.003zm-38.55-15.798v-18.96c2.53 1.264 5.69 2.527 8.217 3.16v16.433l-8.214-.634h-.002zm34.758 7.582c-10.744-7.583-15.166-7.583-20.854-6.95V453.87c2.53.632 4.424.632 6.95.632 5.057 7.583 10.112 14.532 13.903 20.854v-.004zm41.075-80.256c-1.264 6.95-2.526 12.638-3.79 17.062-.632 1.265-1.265 3.157-1.265 4.422l-1.263 2.53c-5.06 12.637-10.747 22.745-30.337 29.07-2.526.627-5.056 1.26-6.95 1.26h-6.32c-2.526 0-5.056-.633-7.583-1.26l-3.158-.635-3.792-.632-1.896-.633c-8.217-2.528-14.534-6.95-16.43-11.376v-.63l-.634-1.897v-.633c2.53.633 5.69 1.265 9.48 1.265 2.527 0 5.055 0 8.216-.633 1.896 0 4.422-.633 6.32-1.264l1.263-.634c6.318-1.898 13.27-5.057 17.06-17.062 1.896-5.69 2.53-24.017 3.16-34.126 5.687 12.638 8.85 34.754 8.85 37.282l1.262 6.95s2.53-2.527 4.424-5.686c5.688-7.585 9.48-13.27 13.27-17.696 1.266-1.894 2.53-3.157 3.16-4.422l4.425-5.055h.634l4.425-3.793c-1.9 2.533-1.9 5.695-2.533 8.224zM525.16 232.056c-3.16 1.896-5.055-1.263-1.264-3.16 7.58-4.422 128.283-58.77 137.763-63.193 5.686-2.527 8.844 1.263 3.16 4.424-.634 0-132.078 58.137-139.66 61.93zm137.132-75.832s1.896 1.896-.633 2.527c-3.16 1.264-41.078 3.16-43.606 3.16-1.263 0-11.374.633-13.9.633-6.953-.632-1.897-2.53 1.263-2.53 12.005-2.526 53.082-5.685 56.875-3.79zm255.304 75.202c3.16 1.896 5.056-1.264 1.264-3.162-7.584-4.423-128.284-58.77-137.764-63.193-5.688-2.526-8.848 1.265-3.16 3.793 0 .632 132.076 58.77 139.66 62.563zm-133.34-75.202s-1.896 1.896.632 2.527c3.16.634 40.443 2.528 42.34 2.528 1.265 0 10.744.632 13.904.632 6.95-.633 1.896-1.897-1.266-2.527-3.792-1.264-50.554-5.688-55.61-3.16zM657.866 723.71l-.633 1.264c-1.264 0-1.896 0-2.525 1.895l-10.113 37.284c-.633 1.896 0 2.53 1.265 2.53l-.63 1.262-14.536-3.792v-1.265c1.896.632 2.53 0 3.16-1.267l7.584-27.806c-1.267 0-4.426 0-5.69 1.265l-1.263-.632 2.527-10.74 1.266.63c0 1.264.63 1.264 1.894 1.896 1.896.632 3.16-.633 3.79-2.526 0-1.264 0-1.896-1.262-1.896v-1.266l15.165 3.162zm20.223 24.644c-4.426-1.896-6.953-6.32-6.953-10.11.633-6.32 8.217-11.375 20.854-10.11 13.904 1.265 20.224 6.95 19.59 13.27-.63 3.796-3.79 8.218-8.844 8.85 5.687 2.53 8.846 6.952 8.213 12.007-.63 7.583-8.847 12.64-22.75 11.373-13.903-1.262-21.486-8.212-20.855-15.163 1.264-5.062 5.056-8.852 10.743-10.116zm11.375 18.33c5.687.63 11.372-1.266 12.005-6.323.634-4.42-4.424-7.58-10.74-8.21-5.69-.635-11.374 1.26-12.008 6.318-.632 5.053 4.423 7.582 10.743 8.216zm1.894-20.226c6.948.63 10.108-1.262 10.108-5.057 0-3.79-2.526-6.316-9.48-6.95-6.95-.63-10.11 1.267-10.11 5.057 0 3.16 2.53 6.32 9.48 6.95zm60.035-5.687l-1.265-.632c0-2.525-4.423-5.055-10.11-4.422-8.216.632-12.638 7.583-12.005 15.166 3.158-3.16 8.213-6.317 13.27-6.317 10.11-.633 18.327 3.79 18.958 15.165.632 7.58-6.318 15.164-18.956 15.798-15.17.632-22.12-8.846-22.752-20.224-.632-13.902 6.32-25.275 22.12-26.54 7.582-.634 13.27 2.528 15.165 2.528.63 0 1.262 0 1.262-.632l.633.633-6.32 9.478zm-1.898 18.96c0-4.425-5.055-8.215-10.743-7.58-5.686 0-10.11 4.42-9.478 8.844 0 5.058 5.055 8.216 10.74 7.583 5.69-.632 9.48-4.424 9.48-8.846zm24.014-13.904c-4.422 0-8.845-3.158-10.108-6.948-1.896-6.322 3.16-13.274 15.8-17.063 13.27-3.79 21.484-.633 23.382 5.688 1.263 3.794-.633 8.85-5.058 11.378 6.32 0 10.742 3.158 12.008 8.213 1.896 7.585-3.792 15.168-17.062 18.96-13.902 3.79-23.382 0-25.276-6.95-.634-4.425 1.264-9.48 6.317-13.27l-.002-.007zm11.377-6.32c6.32-1.894 8.85-5.054 7.583-8.212-1.263-3.162-4.423-5.058-10.742-3.162-6.317 1.898-8.847 5.06-7.584 8.218.633 3.79 4.423 5.054 10.744 3.158v-.002zm5.687 20.224c5.688-1.896 10.11-5.69 8.847-10.11-1.263-4.423-6.95-5.056-12.637-3.794-5.688 1.896-10.11 5.69-8.85 10.11 1.266 4.422 6.953 5.056 12.642 3.79v.004zm-225.602-227.5l12.006 4.424c.633 0 .633 0 1.265-1.266h.632l-3.792 9.48h-.633v-1.897l-18.324-6.95v-.633c1.263 0 1.263 0 1.263-.633l9.478-25.91c0-.63 0-.63-.632-1.264v-.63l7.583 2.526v.633c-.634 0-1.266 0-1.266.63l-7.583 21.485.002.005zm34.756 12.008c0-.633 0-1.266-.633-1.896l-6.317-3.793-2.53 4.423 10.742 6.32c.633 0 .633 0 1.266-1.266h.633l-5.058 8.848h-.633c.63-.632.63-1.264 0-1.264l-16.432-9.48.633-.63c.632.63 1.265 0 1.265-.63l13.902-23.384c0-.633.63-.633-.634-1.265l.634-.632 16.43 9.48c.632 0 .632 0 1.262-1.266h.632l-5.055 8.85h-.633c.633-1.267.633-1.267 0-1.897l-10.742-6.32-2.528 4.425 6.32 3.794c.633.633 1.265 0 1.896-.632h.633l-5.057 8.216h.002zm6.95 19.59c1.266 0 1.896 0 1.896-.633l15.168-15.8-4.424-4.423s-.634 0-1.896.633h-.63l6.95-7.583h.632c-.632 1.265-.632 1.265-.632 1.896l13.27 13.27s.633 0 1.896-.63l.633.63-7.583 6.953c.632-1.263 1.265-1.263.632-1.894l-5.056-4.423-15.168 15.797c-.633.632-.633.632 0 1.264l-.633.633-5.055-5.69zm21.485 30.33c1.266.634 1.266.634 1.896 0l20.222-8.844-2.528-5.688c0-.632-.632-.632-1.896 0v-.632l9.48-4.426v.632c-1.265.633-1.265.633-1.265 1.265l7.583 17.06c0 .635.633.635 1.896 0v.635l-9.48 4.425v-.633c1.266-.632 1.266-1.266 1.266-1.266l-3.16-6.317-20.224 8.845c-.63 0-.63.633-.63 1.263h-.635l-2.527-6.32zm22.75 40.448c-.63 0-.63.63 0 1.262l-.63.63-4.426-6.317.634-.63c.63.632 1.264.632 1.264 0l8.848-6.32-5.688-8.216-8.848 6.32c-.63 0-.63.632 0 1.265l-.63.63-4.426-6.317.632-.632c.634.634 1.264.634 1.264 0l22.117-15.8c.634 0 .634-.63 0-1.262l.634-.63 4.423 6.317-.633.633c-.63-.633-1.265-.633-1.265 0l-7.583 5.687 5.687 8.217 7.583-5.69c.63 0 .63-.63 0-1.264l.63-.63 4.426 6.316-.634.633c-.632-.633-1.263-.633-1.263 0l-22.117 15.8zm26.543 8.845c0-.63 0-1.26-.633-1.893l-5.688-4.426-3.158 4.428 10.11 6.95c.63 0 .63 0 1.896-1.264h.63l-5.688 8.216h-.633c.633-.633.633-1.266 0-1.266l-15.165-11.377.632-.63c.63.63 1.262 0 1.262 0l15.8-22.117c0-.634.633-.634 0-1.266l.633-.633 15.166 11.375c.634 0 .634 0 1.265-.632h.633l-6.32 8.216h-.632c.633-1.265.633-1.265.633-1.896l-10.11-6.95-3.16 3.79 5.687 4.422c.633.633 1.264 0 1.896-.63h.632l-5.69 7.585zm13.27 17.066c0 .634 0 .634.634 1.265v.633l-7.584-2.528v-.633c1.266 0 1.266 0 1.266-.63l8.216-25.91c0-.632 0-.632-.633-1.265v-.63l13.27 4.42c5.056 1.896 6.95 5.69 4.426 12.01-1.895 5.055-4.424 6.95-8.216 7.584l1.266 10.74c0 .634 0 1.266.63 1.266v.632l-7.583-2.527v-.634c.63 0 .63 0 1.263-.632 0-.633-1.263-9.478-1.263-10.74l-3.792-1.266-1.896 8.847h-.004zm5.055-15.167l6.32 1.895c1.896.633 3.16-.632 3.792-1.896.634-1.897.634-3.16-1.896-3.79l-6.32-1.897-1.895 5.686zm36.02 13.27c-.63-.634-.63-1.265-1.262-1.265l-6.95-.634-.633 5.69 12.008.63c.63 0 .63 0 .63-1.893h.633l-.633 10.107h-.63c0-1.264 0-1.264-.633-1.264l-18.958-1.262v-.633c.633 0 1.265-.633 1.265-1.265l1.895-27.173c0-.632 0-1.264-1.265-1.264v-.634l18.958 1.265c.634 0 .634 0 .634-1.896h.632l-.632 10.11h-.633c0-1.265 0-1.897-.633-1.897l-12.005-.633-.634 5.056 6.952.633c.63 0 1.263-.634 1.263-1.266h.63v9.485zm20.224-19.59c0-.634-.63-.634-1.265-.634v-.633l13.902-4.422c3.79-1.263 7.583 0 9.478 5.69 1.267 3.158 0 5.686-1.895 6.95 2.527 0 5.055 1.896 6.318 5.688 1.266 4.425.633 8.847-5.057 10.743l-13.9 4.425v-.632c.63-.633.63-.633.63-1.266l-8.212-25.908zm8.847 7.583l5.058-1.266c3.16-.633 3.792-1.264 3.16-3.79-.633-2.53-1.896-2.53-4.424-1.265l-5.057 1.265 1.264 5.056zm3.794 12.638l6.318-1.895c2.526-.634 3.16-1.896 2.526-4.424-.63-2.526-1.894-3.158-4.422-2.526l-6.318 1.896 1.896 6.95zm34.124-19.59c-.632-.63-1.263-.63-1.896-.63l-6.32 3.158 2.528 5.057 10.742-5.688c.632 0 .632-.633 0-1.896h.632l4.424 8.85h-.633c-.63-.63-.63-1.265-1.263-.63l-17.062 8.843-.633-.63c.634-.632.634-.632.634-1.264L777.3 630.18c0-.632-.632-.632-1.263-.632l-.633-.632 17.062-8.845c.632 0 .632-.632 0-1.896h.632l4.422 8.85h-.63c-.633-1.266-1.266-1.266-1.266-1.266l-10.742 6.95 2.526 4.425 6.32-3.158c.633-.632.633-1.265.633-1.896h.63l3.796 7.583v-.002zm-10.743-101.11l12.64 3.16c.63 0 .63 0 1.265-1.265h.634l-2.528 10.112h-.633v-1.896l-19.59-5.055v-.632c1.265 0 1.265 0 1.265-.632l6.317-26.54c0-.632 0-.632-.63-1.264v-.633l7.583 1.896v.632c-.632 0-1.264 0-1.264.634l-5.06 21.485zm17.694 12.64v-.632c.633 0 1.265 0 1.265-.634l10.11-25.28c0-.628 0-.628-.63-1.26v-.633l6.95 3.16v.632c-.634 0-1.267 0-1.267.633l-10.11 25.276c0 .633 0 .633.633 1.265v.633l-6.95-3.16zm37.916 1.26l-4.423-1.26c-.633 0-.633 0-.633 1.26h-.63l1.895-8.21h.633v1.26l10.742 3.16v.634c-.633 0-.633 0-.633.632l-2.528 8.85v1.893c-3.793 1.896-8.217 2.53-13.272 1.264-6.32-1.896-10.744-8.216-7.584-18.324 2.526-10.11 10.11-13.902 15.8-12.01 2.526.634 3.158 1.266 5.687 3.16 1.264.63 1.896 1.897 2.528 2.53 0 0 .632 0 .632-.634l.633.633-4.424 6.317-.633-.633v-.632c0-1.265-3.16-3.793-5.688-4.424-3.79-.63-7.584 1.262-8.848 6.952-1.896 6.317 1.264 10.11 4.424 10.742a8.77 8.77 0 0 0 5.688 0l.632-3.16zm37.286 13.905c0 .632 0 .632 1.263 1.265v.632l-7.583-.633v-.635c1.265 0 1.265-.632 1.265-1.26l.633-10.745-10.11-.633-.633 10.744c0 .634 0 .634 1.264 1.264v.632l-7.582-.632v-.63c1.264 0 1.264-.633 1.264-1.266l1.897-27.173c0-.633 0-.633-1.266-1.265v-.634l7.584.633v.63c-.633 0-1.264.634-1.264 1.265l-.633 9.48 10.11.632.634-9.48c0-.63 0-1.262-1.265-1.262v-.633l7.58.633v.63c-1.263 0-1.263.632-1.263 1.263l-1.895 27.175v.002zm19.59-.63v-.632c.633 0 1.264-.633.633-1.264l-3.16-21.487-6.32 1.265c-.632 0-.632.633-.632 1.895h-.632l-1.895-10.11h.633c.63 1.267.63 1.267 1.262 1.267l18.325-3.16c.633 0 .633-.633.633-1.897h.633l1.897 10.112h-.632l-.63-1.266-6.32 1.265 3.16 21.485c0 .633 0 .633 1.262.633v.63l-8.215 1.262zm-384.22 75.2l-.634.634c-1.266-.634-1.896-.634-3.16 0l-24.014 24.645 8.847 8.847c1.897 1.896 2.53 1.896 3.792 1.266l1.267 1.262-7.584 7.584-.633-.63c.633-1.265 0-1.896-1.264-3.792l-25.91-24.646c-1.896-1.895-2.526-1.895-3.792-1.262l-1.266-1.265 7.584-7.585 1.264 1.266c-1.264 1.265-.63 1.896 1.266 3.79l8.846 8.85 24.014-24.646c1.266-1.263 1.266-1.895 0-3.158l.633-.633 10.744 9.478-.002-.005zm-54.35-28.438l13.903-10.11c1.266-.634 1.266-1.896 0-3.79l1.266-.634 9.48 13.27-1.265.635c-1.265-1.897-1.896-1.897-3.16-1.266l-31.597 22.12c-1.265.632-1.265 1.264 0 3.79l-1.265.632-8.847-13.27 1.263-.634c1.265 1.896 1.895 1.896 3.16 1.265l12.007-8.216-13.27-18.326-12.01 8.216c-1.263.633-1.263 1.896 0 3.79l-1.263.633-9.48-13.27 1.265-.633c1.263 1.896 1.894 1.896 3.158 1.265l31.598-22.118c1.263-.633 1.263-1.896 0-3.79l1.263-.633 9.48 13.27-1.268.635c-1.263-1.898-1.895-1.898-3.16-1.267l-13.902 10.11 12.64 18.326.002-.003zm-22.748-61.928l-10.11-22.12c-1.266-2.528-1.266-3.16-3.16-2.528l-.63-1.264 9.48-4.423.63 1.265c-1.263.632-1.263 1.896 0 3.79l15.8 34.758-1.265.63c-1.267-2.524-1.898-2.524-3.16-1.892L412.04 573.94c-1.266.632-1.896 1.264-.633 4.425l-1.265.633L394.98 545.5c-1.266-2.526-1.266-3.158-3.16-2.526l-.63-1.264 9.477-4.423.63 1.262c-.63.63-.63 1.895 0 3.79l9.48 20.855 10.11-4.422-5.688-12.643c-1.265-1.894-1.897-3.158-3.16-2.525l-.632-1.265 9.478-4.424.634 1.262c-.633.634-.633 1.897 0 3.794l5.69 12.008 12.004-4.42zm-68.25-115.017h1.263c.633 1.896.633 2.528 2.528 2.528l25.278-.63c5.687 0 9.48-4.425 9.48-12.008s-4.425-11.377-10.11-11.377l-25.28.634c-1.263 0-1.896.63-1.896 2.526h-1.263l-.63-15.168h1.263c.63 1.897.63 2.53 2.527 2.53l25.278-.633c10.11-.633 17.062 5.688 17.693 21.485.633 15.8-5.688 22.12-16.43 22.752l-25.278.63c-1.265 0-1.897.633-1.897 3.16h-1.266l-1.26-16.43zm44.87-48.66h-1.267c0-1.894-.63-2.524-1.896-2.524l-37.916-5.69c-1.263 0-1.896 0-2.528 1.895h-1.263l2.53-17.06h1.262c0 1.262 0 1.895.633 1.895 1.263 0 27.173-13.903 30.964-14.534l-26.542-4.426c-1.263 0-1.895 0-2.527 1.896h-1.266l2.53-13.903h1.263c0 1.897.63 2.528 1.897 2.528l37.916 5.69c1.896 0 1.896 0 2.527-1.266h1.264l-3.16 14.535h-1.264c0-1.267 0-1.898-.632-1.898-1.264 0-25.277 13.902-33.492 16.432l29.067 4.424c1.265 0 1.897 0 2.53-1.896h1.263l-1.892 13.9zm12.004-61.298l-1.263-.632c.632-3.158.632-3.79-1.265-3.79l-36.652-12.007c-1.264-.63-1.896 0-3.16 2.525h-.632l5.688-17.06 1.264.634c-.63 3.157-.63 3.79 1.263 3.79l36.655 12.006c1.263.63 1.895 0 3.16-2.526l1.264.63-6.322 16.43zm15.8-41.708l-1.265-.63c.633-1.263.633-2.527 0-3.16s-29.7-1.265-41.077-2.53c-1.895 0-3.792 0-4.423.632l-1.263-.63 6.32-13.273 1.266.63c-.633 1.898-.633 2.53.63 2.53 1.264.633 22.75 1.262 32.86 2.527-7.582-8.216-21.485-24.013-22.75-24.646-.63 0-.63 0-1.895 1.897l-1.265-.633 6.32-12.64 1.264.633c-.632 1.897.632 2.528 1.896 4.425 10.11 11.374 25.91 29.07 27.804 29.7.63.632 1.264 0 1.896-1.262l1.264.632-7.582 15.797zm23.38-53.713l14.537-19.59c1.264-1.897 1.896-2.53.633-3.794l.63-1.263 8.216 6.32-.634 1.263c-1.264-.63-1.896 0-3.16 1.895l-22.748 30.334-1.266-.633c1.266-2.53 1.266-3.16 0-3.79l-30.333-23.384c-1.264-.632-1.896-.632-3.792 1.897l-.632-.632 22.12-29.702c1.262-1.896 1.895-2.53.63-3.79l.632-1.267 8.217 6.32-.633 1.263c-1.263-.632-1.896 0-3.16 1.894l-13.9 18.328 8.847 6.952 8.216-10.745c1.264-1.893 1.896-2.526.63-3.79l.634-1.264 8.214 6.318-.63 1.264c-1.267-.63-1.897 0-3.16 1.896l-8.216 10.74 10.11 6.953v.004zm33.493-29.703l-.63-.632c1.263-1.262 1.263-1.893 0-3.157l-25.91-28.437c-1.264-1.264-1.895-1.264-3.16 0l-.63-.632 19.59-17.693c8.85-7.583 17.064-8.847 22.12-3.16 4.423 5.057 4.423 10.743 0 17.695l14.532 4.425c4.424 1.263 5.688 1.895 7.584.632l.632.63-11.376 10.112-1.264-1.265c.63-.632 1.264-1.896.63-2.527 0-.632-.63-.632-2.523-1.264l-15.8-4.424-6.953 6.32 10.11 11.374c1.267 1.264 1.897 1.264 3.16 0l.633.632-10.744 11.373zm-7.58-27.803l8.847-8.216c5.058-4.423 5.058-7.582 2.527-10.742-2.527-2.527-6.32-2.527-10.743 1.896l-8.847 8.214 8.218 8.85zm51.185-25.28l1.264-.63v.63c1.267 2.53 10.11 0 15.167-3.16 8.216-5.055 9.48-8.845 7.585-12.637-5.058-8.216-30.334 14.532-38.55.63-3.792-5.687-1.265-14.534 10.11-21.485 5.057-3.16 8.85-4.424 12.01-5.056 3.16-.634 5.054-.634 5.685-1.267 1.267-.63 1.267-1.263 1.267-1.895h.63v13.27h-1.263s-.632-.632-.632-1.263c-1.263-1.896-6.317-1.896-13.9 2.527-5.057 3.16-5.69 6.32-4.425 8.847 4.425 7.583 29.7-15.167 39.182 0 3.79 6.32.632 15.8-13.27 24.645-4.427 2.528-8.218 3.792-11.378 5.057-3.16.632-5.055.632-6.32 1.896-.63 0-.63 1.264-.63 1.896h-1.266l-1.262-12.008h-.003zm53.083-13.9l-.63-1.265c2.525-1.262 3.158-1.895 2.525-3.16L584.56 93.664c-.632-1.265-1.263-1.896-4.423-.632l-.63-1.263 16.43-6.32.633 1.264c-2.53 1.263-3.162 1.896-2.53 3.16l14.535 35.387c.632 1.265 1.265 1.897 4.424.633l.63 1.264-16.432 6.32zm42.973-15.168v-1.264c1.268-.632 1.897-1.264 1.268-2.527l-8.218-34.127-12.64 3.16c-2.528.632-3.16 1.264-3.16 2.53l-1.263.63-2.528-10.742 1.263-.63c.633 1.262 1.266 1.262 3.79.63l34.76-8.847c2.526-.632 3.16-1.263 3.16-2.527l1.895.632 2.526 10.11-1.264.633c-.632-1.895-1.896-1.895-3.792-1.264l-12.638 3.16 8.216 33.493c.632 1.264 1.263 1.895 3.16 1.264v1.264l-14.535 4.42zm70.147-11.375l-15.8 1.263v-1.263c1.896-.632 2.524-1.264 2.524-2.53l-.63-15.165-17.693-22.12c-.63-.632-1.263-1.263-2.524-1.895V63.96l16.43-1.264v1.265c-1.896 0-2.53.634-2.53 1.266s7.584 9.478 12.01 14.535c2.526-5.056 9.48-14.534 9.48-16.43 0-.633-.634-1.263-2.53-1.263v-1.264l15.802-1.265v1.265c-1.265.63-1.897.63-2.53 1.896l-14.532 24.645 1.263 15.167c0 1.264.634 1.896 2.528 1.896l-1.267 2.527zM835.44 79.76c15.17 5.055 20.855 17.693 16.433 30.333-4.424 12.005-16.432 18.957-31.597 13.902-15.168-5.056-20.854-17.694-16.43-30.333 3.792-12.007 15.8-18.958 31.594-13.902zm-12.636 37.284c8.85 3.16 15.8-.632 18.96-10.11 3.16-9.48 0-17.063-8.85-19.592-8.846-3.16-15.798.632-18.956 10.11-3.792 9.482-.633 16.433 8.846 19.592zm30.966 19.59l.634-1.262c2.524 1.263 3.157 1.263 3.79 0l18.326-33.494c.63-1.263.63-1.896-1.896-3.792l.633-1.262 32.23 17.694c1.895 1.263 2.526 1.263 3.79 0l1.264.63-5.053 8.848-1.265-.63c.633-1.266 0-1.897-1.896-3.16l-20.224-10.744-5.688 9.48 12.64 6.95c1.896 1.265 3.16 1.265 3.79 0l1.267.633-5.055 8.848-1.264-.633c0-1.264 0-1.896-2.527-3.16l-12.638-6.95-7.583 13.903c-.63 1.263-.63 1.895 1.897 3.792l-.634 1.263-14.535-6.953zm150.402 72.042l-12.64 1.265-.63-1.263s.63 0 .63-.633c2.528-1.893 1.264-7.583-2.528-12.006-6.318-7.583-13.9-9.48-22.748-1.896-6.952 5.688-7.584 15.168-1.896 22.12 3.79 4.423 9.478 6.32 12.007 4.423 0 0 .632-1.262 1.264-1.262l1.267.63-1.265 12.642h-1.263c0-.633 0-1.264-.634-1.897-1.896-1.897-8.215-.63-17.062-10.745-10.11-12.006-8.216-25.91 1.264-34.125 12.008-10.11 26.543-5.055 35.39 5.058 3.16 3.79 4.423 6.952 5.056 9.478.633 2.53.633 4.427 1.266 5.058l1.896 1.262.632 1.896-.006-.004zM976.998 242.8l1.263-.633c.635 1.266 1.9 1.266 3.16 1.266l39.815-4.423c1.896 0 2.526 0 3.16-.633.63 0 .63-.63 0-2.528l1.264-.634 8.214 15.167-1.263.633c-.632-1.264-1.896-1.897-2.53-1.264-.63 0-.63.63-2.526 2.528l-24.014 30.333c-1.266 1.264-1.266 1.897-.633 3.16l-1.265.633-6.95-12.638 1.265-.632c.633 1.264 1.264 1.264 1.896 1.264.63 0 .63-.632 1.264-1.264l5.056-6.952-9.48-16.43-7.58.63c-.633 0-1.267 0-1.267.633-.632.63-1.264 1.264 0 2.528l-1.264.633L977 242.8h-.002zm30.966 18.958l12.64-14.533-18.96 2.526 6.32 12.008zm37.284 22.75c1.263-.632 1.896-1.263 1.263-3.79l1.268-.632 5.687 16.43-1.263.63c-1.264-2.526-1.896-3.158-3.16-2.526l-32.86 11.374 7.583 22.12c.633 2.526 1.265 3.157 3.16 2.526l.63 1.264-10.11 3.793-.63-1.265c1.266-.63 1.266-1.896 0-3.79l-12.007-34.758 1.264-.63c1.265 1.892 1.896 2.525 3.16 1.892l36.02-12.637-.004-.002zm-24.644 60.034h1.265c.63 3.16 1.262 3.16 3.157 3.16l37.284-7.583c1.266 0 1.897-.635 1.266-3.793h1.263l3.16 17.06h-1.264c-.634-3.156-1.266-3.156-3.16-3.156l-37.286 7.586c-1.264 0-1.896.63-1.264 3.79h-1.265l-3.158-17.063h.002zm5.684 30.335h1.265c.634 2.528 1.266 3.16 2.527 3.16l37.917-2.53c1.265 0 1.897-.63 1.897-3.79h1.263l2.527 36.652c0 1.894.63 3.16 1.896 3.16v1.263l-10.11.633v-1.265c1.266-.632 1.266-1.265 1.266-3.16l-1.897-22.75-11.376.632 1.266 14.535c0 2.528.632 3.16 1.896 3.16v1.265l-10.113.632v-1.265c1.266-.633 1.266-1.265 1.266-3.793l-1.267-14.535-15.798 1.265c-1.265 0-1.896.63-1.896 3.793h-1.267l-1.265-17.063zm44.87 81.52c-1.897 15.8-13.272 24.015-25.91 22.116-12.638-1.896-22.118-12.006-19.59-27.806 1.895-15.8 13.27-24.012 25.908-22.12 12.64 1.9 21.486 12.013 19.59 27.81h.002zm-38.548-4.423c-1.266 9.48 3.79 15.168 13.9 16.433 10.112 1.262 16.432-3.16 17.694-12.643 1.264-9.478-3.79-15.163-13.903-16.43-10.108-1.264-16.428 3.16-17.69 12.64zm-13.273 37.917l1.267.63c-.634 1.898 0 2.53 1.265 3.164l36.02 12.64c1.265.633 1.895 0 3.16-1.897l1.262.633-8.847 24.647c-3.79 10.74-10.74 15.797-17.694 13.27-6.318-1.895-9.478-7.583-8.215-15.166l-15.166 3.79c-4.426.634-5.69 1.267-6.953 3.16l-1.263-.63 5.056-14.535 1.265.633c0 1.265-.632 1.896.633 2.528.63 0 .63 0 3.158-.633l15.798-3.793 3.16-8.846-14.535-5.06c-1.264-.63-1.897 0-3.16 1.898l-1.264-.634 5.053-15.796zm20.225 20.854l-3.79 11.376c-1.897 6.317-.633 9.48 2.525 10.74 3.792 1.265 6.32-.63 8.85-6.95l3.79-11.374-11.375-3.792zm-41.078 36.652l1.264.634c-.63 1.895-.63 2.527.633 3.16l32.86 18.956c1.266.634 1.897.634 3.16-.63l1.266.63-8.848 15.17-1.266-.635c.634-1.264.634-1.895 0-1.895-1.265-.633-30.333 3.792-34.124 2.528l23.38 13.27c1.268.632 1.898.632 3.16-.632l1.267.634-6.952 12.638-1.264-.632c.632-1.895.632-2.526-.634-3.157l-33.492-18.96c-1.265-.633-1.896-.633-3.16.633l-1.265-.634 7.58-13.27 1.268.632c-.633 1.265-.633 1.896 0 2.528 1.263.633 29.067-3.793 37.283-3.16l-25.908-14.536c-1.265-.63-1.897-.63-3.16.633l-1.265-.635 8.217-13.27zM964.99 599.85l.633.63c-1.896 2.527-1.896 3.16-.633 4.425l29.7 24.013c1.266.632 1.897.632 3.793-1.262l.633.633-11.376 13.898-.63-.63c1.894-2.53 1.894-3.16.63-4.426l-29.7-24.013c-1.266-.635-1.896-.635-3.79 1.26l-.634-.63 11.374-13.902v.002zm-17.694 22.115l.633.633c-1.267 1.265-.635 2.528 0 3.16l13.9 37.282c.63 1.265.63 2.53 1.265 2.53.63.632.63.632 2.527-.634l.633.633-12.64 12.004-.633-.632c1.266-1.263 1.266-1.896.633-2.525l-3.16-1.897-35.39-15.798c-1.264-.632-1.895-.632-3.158 0l-.634-.632 10.742-9.478.633.632c-.633 1.264-1.263 1.264-.633 1.895 0 0 .633.63 1.267.63l7.583 3.16 13.902-12.64-2.53-6.95c0-.632-.63-1.264-.63-1.264-.633-.633-1.265-.633-2.53.632l-.63-.633 8.847-10.112.002.002zm-10.742 34.125l17.695 8.215-7.587-17.69-10.11 9.475z"/><circle fill="#F2F7F9" cx="401.931" cy="483.569" r="6.952"/><path fill="#F2F7F9" d="M532.11 679.473c-3.792 0-6.95 3.16-6.95 6.95 0 3.794 3.158 6.953 6.95 6.953 3.79 0 6.95-3.16 6.95-6.952.002-3.79-3.16-6.95-6.95-6.95zm85.313 48.658c-3.79 0-6.95 3.164-6.95 6.954 0 3.794 3.16 6.95 6.95 6.95 3.792 0 6.952-3.156 6.952-6.95 0-3.79-3.16-6.952-6.952-6.953zm206.645-3.155c-3.792 0-6.952 3.157-6.952 6.948 0 3.794 3.16 6.955 6.952 6.955s6.95-3.16 6.95-6.955c.002-3.79-3.158-6.948-6.95-6.948zm72.674-41.71c-3.792 0-6.952 3.16-6.952 6.953 0 3.79 3.16 6.95 6.952 6.95s6.95-3.16 6.95-6.95c.633-4.426-2.526-6.952-6.95-6.953z"/><circle fill="#F2F7F9" cx="934.025" cy="160.648" r="6.951"/><circle fill="#F2F7F9" cx="767.826" cy="87.975" r="6.951"/><path fill="#F2F7F9" d="M631.326 519.59h9.48c1.262 0 8.21.634 11.373 1.266 1.263 0 2.527 3.79.63 3.79-10.11-.63-6.317 0-16.43-1.26-9.478-.634-5.054-3.795-5.054-3.796zm37.284 1.897c2.526-.634 30.965 3.79 32.86 5.687 0 0 1.266.633.632 2.53-1.896 3.157-6.95-2.53-26.54-3.162-4.426-.633-10.743 0-10.112-3.158 0-.632 1.897-1.897 3.16-1.897zM610.473 297.78c-1.266 1.263-1.266 5.056-1.896 6.318 0 .63-3.79 0-3.79-.633 0 0 1.264-7.58 1.895-9.477h7.582c.634-1.265-1.895-8.85-1.895-8.85-1.266.634-2.528 9.48-2.528 9.48h-3.16s2.527-16.43 5.057-16.43c.63 0 2.524-.632 3.16.632.63 1.897 6.948 22.75 6.948 24.644-1.263.633-4.423 1.897-4.423 0 0 0 0-4.422-1.263-5.686-1.265-.632-4.425-1.263-5.687 0l-.002.002zm21.484 60.664c-.63 2.53-6.95 1.265-11.374 1.265-10.743 0-22.118 1.263-22.118-1.267-.633-4.424 12.638-2.525 17.695-2.525 7.583 0 17.062-1.9 15.797 2.524v.002zm15.8-.63c-1.264 1.895-4.424 1.895-8.216 1.263-1.26 0-1.895 0-2.525-1.262 0-2.528 3.792-2.528 8.848-2.528 1.895.632 2.53 1.265 1.894 2.527zm20.222 1.263c-1.268.632-12.64 1.896-13.272-.633-.633-2.525 4.423-3.157 9.478-2.525 5.687-.634 5.055 2.523 3.793 3.157zm38.547 7.583c-1.267 1.265-13.904-5.055-19.59-6.318-4.427-1.265-7.585 0-10.743-.633-2.53-.634-1.267-3.16 1.263-3.79 6.95-1.9 31.596 8.214 29.07 10.74zm-81.52 11.376c-.63 2.526-6.95 1.266-11.375 1.266-10.11 0-15.167 0-15.167-3.16 0-2.53 5.688-.634 10.742-.634 7.585 0 17.063-1.896 15.8 2.528zm27.174 0c-.63 2.526-6.95 1.266-11.373 1.266-10.11 0-10.742 0-10.742-1.266-.633-1.896 1.264-2.528 6.317-2.528 7.584 0 17.063-1.264 15.8 2.528zm18.326.633c-1.263 1.893-4.422.63-8.846.63-1.267 0-1.897 0-2.528-1.265 0-2.528 4.423-2.528 9.48-2.528 1.262 0 2.525 1.897 1.893 3.16v.002zm36.654 8.212c-.632 3.16-6.322-2.525-12.64-3.79-4.426-1.265-13.27-1.896-17.063-1.896-2.528-.633-2.528-3.16 0-3.16 12.638-2.528 30.333 5.688 29.7 8.847h.003zm1.263 20.222c0 4.427-8.848-1.26-14.534-1.894-4.425-.632-12.01-1.264-18.328-.632-2.527 0-2.527-3.793 0-3.793 5.688-1.262 32.86 3.16 32.86 6.322v-.003zm-42.34-5.055c-1.264 1.895-5.688 1.264-9.48 1.264-1.263 0-2.525-.633-2.525-1.896 0-2.526 2.526-2.526 7.583-2.526 5.054-.634 5.054 1.892 4.423 3.157zm-37.918-1.266c-1.263 1.896-8.213 1.264-12.005.633-10.11-1.895-18.96 3.16-18.96-1.265 0-3.16 10.11-2.526 15.167-2.526 7.585 0 18.326-1.264 15.798 3.158zm18.96 0c-1.265 2.528-4.424 1.896-8.217 1.896-1.264 0-2.527 0-2.527-1.263 0-3.16 4.427-3.16 9.48-3.16.634.635 1.897 1.266 1.265 2.527zm9.48-129.546c.63 2.528-6.952 1.264-12.64 1.896-10.74 1.264-11.375 2.526-10.74 0 2.523-4.426 23.38-5.686 23.38-1.896zm5.687 1.896c-.633-.632-1.266-1.265 0-2.53 4.422-3.157 10.742-.63 12.005.634 1.266 1.896-.632 3.16-1.895 3.16-1.264-.63-8.215 0-10.11-1.264zm42.97 10.742c-1.263 1.264-8.846-3.79-12.638-5.688-6.32-1.896-12.638-1.896-12.638-5.054 0-6.32 30.963 5.054 25.276 10.742zm-51.186 32.23c-.633 1.263-6.32 0-10.743.634-5.055 0-8.216 1.26-8.848-1.897 0-2.53 5.056-1.896 10.11-1.896 5.69 0 11.377-.633 9.48 3.16zm5.688.634c-1.896-.633-1.264-1.897 0-3.16 5.057-.634 11.374 0 12.64 0 1.895.63 1.263 3.16-.632 3.16-10.745 0-9.48.63-12.008 0zm45.5 9.476l-10.742-3.158c-4.425-1.264-6.32-1.264-7.582-2.527-1.896-.632-.634-3.16 0-3.79 1.26 0 23.38 5.686 18.324 9.476zm-21.49-9.476c-.63 3.79-3.788 1.893-5.686 1.893-1.266-.632-1.266-1.893-.633-2.525 1.266-1.898 5.69-.63 6.32.632zm-42.336-21.487c1.264 3.157-4.425 3.157-5.69 3.157-.63-.63-1.262-1.896-.63-2.526 1.263-1.895 5.688-1.895 6.32-.63zm8.213 1.893c-.632-.63-1.262-1.893 0-3.158 4.427-1.897 16.434-.632 17.696 0 3.158 1.896 1.265 3.79 0 3.79-6.95-1.263-15.796 0-17.695-.632zm45.5 5.058c-1.263 1.262-9.478-1.896-13.9-2.528-4.424-.632-7.584-1.265-7.584-2.53 0-3.157 6.952-2.525 13.27-1.26 5.69 1.26 11.376 3.157 8.215 6.318zm10.746 2.525c-.633 3.792-3.79 1.895-5.058 1.263-.63-.632-1.895-2.53-.63-3.158 1.264-1.897 6.32.63 5.688 1.894zM600.36 332.535c6.32-1.264 10.74 6.32 1.264 5.057-3.16-.633-3.792-1.264-3.792-2.527.633-.634.633-1.898 2.528-2.53zm46.133 3.16c-.633 2.525-14.536 1.896-18.328 1.896-10.742 0-14.533 0-15.166-1.896 0-2.528 5.686-2.528 10.742-2.528 5.055 0 24.013-1.896 22.75 2.528zm22.117 1.264c-.63 1.262-1.896.633-6.318.633-4.425 0-7.583 0-8.216-1.896 0-2.528 4.424-2.528 9.48-2.528 5.686.63 6.318 2.526 5.054 3.79zm25.91 5.057c-3.16 2.526-5.054-1.266-10.11-2.53-4.422-.63-8.213-.63-12.006-1.264-2.528-1.262-1.266-3.79.632-4.422 13.27 0 24.644 5.69 21.486 8.218h-.002zm10.11 4.42c-.63 2.53-2.526 3.162-5.055 1.266-.632-.63-1.896-2.528-1.265-3.16 1.266-1.895 5.69-.63 6.32 1.895zM704 427.33c-1.264 3.157-10.743-1.897-17.695-1.897h-8.215c-2.527-.633-2.527-3.793 0-3.793 8.215-1.262 27.806 1.895 25.91 5.69zm-45.5-4.426c-1.266 1.896-3.79 1.264-8.216.63-1.267 0-6.95 1.897-8.847 0-.633-3.156 6.95-3.79 10.11-3.156 5.687-.633 7.585 1.262 6.953 2.526zm-27.807 0c-1.264 1.896-15.166 0-19.59-.633-7.582 0-12.64 2.53-12.64-1.893 1.264-2.528 14.534-1.265 17.695-1.265 6.95.634 16.43 0 14.535 3.792zm41.71-1.897c1.262 3.16-4.425 3.16-5.69 3.16-.63-.632-1.263-1.895-.63-2.527 1.264-1.895 5.055-1.262 6.32-.633zm81.52-148.505c6.318 0 6.95 1.264 6.318 3.79-.63 1.265-8.213.632-10.11.632-7.58 0-10.74 4.426-13.27 3.794-3.16-.632-1.266-3.16 1.896-5.058 2.53-1.262 8.216-3.158 15.167-3.158zm15.8-.632s8.846.633 10.11 1.265c2.526 1.264 1.895 3.16 1.264 3.79-.633.633-12.64-.63-12.64-1.264-.63-.627-1.264-.627-1.264-1.892-.632-1.265 0-1.897 2.53-1.898zm75.832 1.264c2.527.632 3.16 4.423 1.264 5.054-8.848 1.265-10.744.633-10.744-.63-3.16-5.056 8.847-4.424 9.48-4.424zm-32.23 1.897s10.11 0 12.638.63c1.266 0 2.528 1.898.633 3.794-.633 1.265-13.902 1.265-15.167-3.16 0 .63 0-1.262 1.895-1.263zm-22.75-.63s8.847.632 11.375 1.26c1.264 0 3.158 1.898 1.896 3.16-.632 1.267-13.9 1.267-15.166-3.16.632 0 0-1.26 1.895-1.26zm-22.75 21.485c1.264-2.528 8.848-1.896 10.74-.63 0 0 .635 1.26-.63 2.525-4.423 1.895-10.742 0-10.11-1.895zm22.12 1.26c2.524-1.892 12.005 0 8.845 3.794-.632.63-6.95 1.262-9.48 0-.63-.633-1.896-1.898.634-3.795zm31.596 1.266c3.16 4.428-8.214 3.795-9.48 3.795-1.26 0-3.788-.63-4.42-1.896 0-3.794 11.374-4.424 13.9-1.9zm24.648-1.894c1.896 5.688-7.584 4.424-8.848 4.424-1.266 0-3.793 0-4.425-1.897-.633-3.158 12.008-6.32 13.273-2.527zm-92.264-5.056c2.527 0 7.583 0 7.583 2.53-1.896 3.157-11.375 2.525-13.903 3.157-8.848 1.264-10.74 4.426-13.27 3.793-3.16-.63-1.264-3.16 1.895-5.055 3.16-.632 11.374-3.793 17.694-4.425zm41.706 25.91c.633 1.896-.632 2.528-.632 2.528-.63 1.264-9.48.633-10.743-2.53 0-.628 0-3.158 2.53-2.525 2.527 1.264 8.845-1.264 8.845 2.527zm9.478-1.263c.633 0 15.8 0 12.008 4.423-.63.63-1.896 1.264-3.158 1.264-3.792 0-10.112-.633-11.375-1.264-.633-.633-.633-1.897 0-3.162.63-.628 1.263-1.26 2.525-1.26zm20.855 0c11.376 1.894 19.592-1.265 20.225 1.262 1.263 2.527 0 3.16 0 3.16-1.265 1.264-22.75 1.895-23.384-1.897 0-1.894 1.895-2.527 3.16-2.526zm-49.92-.63c2.524 3.79-5.69 3.156-6.32 3.156-1.266 0-3.162-.632-3.162-1.893-.63-3.794 7.585-4.426 9.483-1.263zm-25.28-3.163c2.527 0 5.688-1.265 7.584 1.896-1.896 3.79-6.95 1.897-13.902 3.16-8.85 1.263-8.85 3.792-10.743 1.896-1.896-1.896 0-3.16 3.16-4.423 3.16-1.264 7.583-1.896 13.902-2.53zm12.007 22.75c1.265 0 3.79.63 5.688 1.897 1.265 1.264.632 2.528 0 3.16-10.743 1.265-10.11-1.263-10.11-1.263-1.267-4.425 3.158-4.425 4.424-3.79l-.002-.002zm83.418 1.265c5.056 2.523-3.16 5.053-8.85 3.79-.632 0-1.265-.634-1.896-1.265-.63-3.16 8.848-3.16 10.744-2.527h.002zm-60.668-1.266c2.527.63 2.527 4.422 0 5.055-.632 0-10.742 1.895-11.375-1.265 0-6.32 10.11-4.424 11.375-3.79zm46.132 2.528c.63 3.158-2.528 3.158-5.058 2.526-3.792 0-14.534 1.263-13.902-1.898.633-1.894 4.424-1.262 6.32-1.262 3.16-1.264 12.008-1.264 12.64.634zm-26.544 2.527c-1.264 2.527-12.005 1.263-10.11-2.527.632-1.265 11.376-3.162 10.11 2.526zm-60.032-6.953c2.525 0 6.95 0 7.582 3.16-3.16 2.527-6.95.632-13.903 2.527-6.317 1.264-7.582 2.527-7.582-.634 0-2.525 7.582-5.053 13.903-5.053zm15.797 22.753s8.85-1.266 11.376.632c.63.63 2.525 1.894 1.26 3.79-1.262 1.265-13.898 1.265-13.898-2.525-.002 0-.634-1.265 1.26-1.897zm21.486 1.895c3.158-1.265 13.27 1.262 8.846 5.055-.632.632-8.215 0-10.11-1.896-.633-.632-1.264-1.897 1.263-3.16zm19.59.63c2.526-.63 11.374 1.264 7.582 4.425-.633.632-6.32 1.265-8.216-.633-.632-.632-1.895-3.16.633-3.792zm24.645 1.264c-3.16.63-7.583 1.263-7.583 3.16.633 1.895 2.528 1.264 8.85 1.264 3.158 0 12.64 1.265 15.166.63 2.527-.63 2.527-3.16 1.896-3.16-5.69 0-10.11-2.528-18.33-1.895zm-80.257-3.79c2.528 0 6.95-1.267 6.95 2.523-2.527 3.16-6.32 1.896-13.27 3.793-6.32 1.265-7.585 2.527-7.585-1.265-.63-2.528 7.585-5.052 13.905-5.05zm17.062 25.908h5.057c2.527 0 1.265 3.16 1.265 3.793 0 .63-4.425 1.264-7.583.63-1.268 0-4.427-.63-4.427-3.156.633-1.898 3.792-1.265 5.687-1.266zm17.064 0c.633 0 14.534 0 10.743 3.793-.632.63-1.895 1.264-2.527 1.264-3.792 0-9.48-.633-10.742-1.262-.634-.632-.634-1.264 0-2.527.63-.633 1.263-1.265 2.526-1.265v-.002zm21.486.632c2.528-1.265 11.375 2.528 8.216 5.055-.633 0-7.583 0-9.48-1.894-.63 0-1.896-1.895 1.264-3.16zm18.958 1.896c.632 0 15.8 0 12.007 4.422-.633.633-1.896 1.265-3.16 1.265-3.792 0-10.11-.632-11.375-1.265-.63-.63-.63-1.896 0-3.157 0-.63 1.266-1.263 2.528-1.264zm-75.832-3.794c3.16 0 7.582-1.26 7.582 2.53-2.527 3.157-5.057 1.896-12.006 3.157-6.32 1.263-7.583 2.526-7.583-1.264.63-2.527 5.684-3.792 12.006-4.424zm94.79 5.06c2.528-.634 11.376 1.26 7.583 4.42-.634.634-6.32 1.265-8.217-.63-.63-.634-1.895-3.162.633-3.79zm-50.554 20.22c.632 0 14.532 0 10.74 3.792-.632.63-1.895 1.265-2.528 1.265-3.79 0-9.48-.635-10.74-1.266-.633-.633-.633-1.265 0-2.53.63-.63 1.896-1.26 2.528-1.26v-.002zm22.75 1.894c4.424-.634 12.007.633 11.375 4.426-.634 2.525-3.16.632-4.425.632-3.16 0-12.64 1.262-11.375-2.53 0-1.895 3.16-1.895 4.423-2.527h.002zm17.062 5.058c0 2.525 10.742 5.688 10.742 1.896-.632-1.897-10.11-7.584-10.742-1.896zm-51.186-7.584s-7.586-1.896-10.743-1.264c-.634 0-1.896 1.896-1.265 3.156.63 1.267 12.64 2.53 12.64-.63.63.63.63-.63-.632-1.262zm-28.44-1.264c2.53 0 12.01 0 12.01 3.79-1.267 3.16-8.85 0-18.328 1.265-6.32.635-7.585 2.53-7.585-1.263 0-2.526 7.585-3.79 13.902-3.79zm22.75 22.118c3.16-1.266 13.9 1.266 9.48 5.056-.63.63-8.848 0-11.376-1.267 0-.63-.63-2.523 1.897-3.79zm22.118 3.16c2.528-.634 11.374 1.265 7.583 4.426-.634.63-6.953 0-8.85-1.267-.63-1.264-1.262-2.53 1.266-3.16zm26.54 3.792c2.53 4.424-6.95 3.16-8.215 3.16s-3.16-.634-3.16-2.526c.635-3.797 10.114-3.164 11.376-.634zm6.323 3.16c0 2.527 6.315 4.425 6.315.63-.632-1.264-5.687-5.686-6.318-.63h.002zm-89.74-8.846c.633 0 25.277-3.795 24.646.63 0 .63 1.264 1.896-12.64 2.527-3.16 0-13.272 1.896-14.534 1.264-.632-.63-1.895-2.526 2.528-4.42zm27.174 40.44s8.846-.63 11.376 1.264c.63.633 2.525 1.896 1.262 3.793-.63 1.265-13.9 1.265-13.27-2.528-.633-.634-1.262-1.896.632-2.53zm24.647 3.162c.633 0 14.533.633 10.742 4.425-.633.633-1.896 1.262-2.53 1.262-3.79 0-9.478-.63-10.11-1.895-.63-.633-.63-1.265 0-2.527 0-1.266.633-1.266 1.9-1.266zm24.646 6.95c-3.792-.632-9.48-2.525-8.217-4.422 1.265-1.896 5.057.632 6.318.632 7.587-1.265 8.85 5.054 1.898 3.79zm20.22 1.897c-3.79 0-10.11-1.268-9.478-3.793.632-1.896 3.792 0 5.056-.634 10.11-3.16 11.376 4.425 4.422 4.426zm-80.255-10.747c.634 2.53-3.16 1.896-9.478 1.896-6.317 0-10.742 5.058-12.64 1.266-.63-1.266.633-2.53 4.424-3.79 3.16-1.264 17.062-1.897 17.695.627zm15.167-22.115c.632 0 10.743 0 8.214 3.79-.63.63-1.26 1.264-1.894 1.264-2.53 0-6.953-.633-7.584-1.265-.633-.634-.633-1.265 0-2.526 0-1.264.63-1.264 1.263-1.264l.002.002zm15.798 1.264c2.526-1.265 17.062 1.263 12.64 5.688-.632 0-12.008-.633-13.9-2.53-.636 0-1.27-1.897 1.26-3.158zm31.597 3.79c2.526 0 13.27 1.897 12.64 5.056 0 .632-3.794.632-5.69 0-5.687-1.267-8.848-2.527-13.27-2.527-1.897 0-1.897-1.895-1.266-3.16 0 0 6.32.63 7.585.63l.002.002zm-58.138-3.162c.632 3.794-5.057 1.896-12.008 1.896-6.32 0-10.745 4.422-12.64.632-.63-1.265.632-2.528 4.425-3.79 3.16-.63 20.223-1.264 20.224 1.262zm68.25 43.605c.632 0 15.798.633 11.375 5.056-.634.634-1.897 1.267-3.16 1.267-3.793 0-10.112-1.266-11.376-1.897-.633-.628-.633-1.893 0-3.156.63-.635 1.894-1.268 3.16-1.27zm-10.743 3.16c-1.262 2.526-12.007.634-10.11-3.16.63-1.265 12.006-2.526 10.11 3.16zm-27.173-6.318c.633 0 14.534.63 10.742 4.423-.633.63-1.897 1.265-2.527 1.265-3.792 0-9.48-1.265-10.11-1.896-.633-.633-.633-1.265 0-2.528-.002-1.265 1.26-1.265 1.894-1.265zm-13.27-1.265c2.525 4.422-5.69 3.157-6.32 2.524-1.264 0-3.16-.63-3.16-1.895-.633-3.156 7.582-3.788 9.48-.628zm-28.44-1.265c2.528 0 7.586-1.264 6.953 2.528-1.896 3.158-6.32 1.895-13.27 3.79-6.32 1.266-7.584 2.53-7.584-1.264 0-3.157 6.95-5.053 13.9-5.053zm-10.742 21.487s7.583-2.53 11.375-1.264c1.267 0 1.896 1.264 1.267 3.16-3.162 0-11.377 1.262-12.643 2.524-.633 0-1.896-3.156 0-4.42zM645.23 441.86c3.787-.63 13.27 3.794 3.157 4.426-.633 0-6.32 0-6.95-.632-3.79-3.16 2.526-3.794 3.79-3.794h.003zm-11.376 2.53c0 1.897-10.742 1.897-18.96 1.266-10.11-.633-16.43.632-16.43-2.528.633-3.79 10.11-1.266 15.168-1.266 7.583.632 20.222-2.526 20.222 2.528zm58.137 3.16c-.63 3.79-15.164-1.264-22.115-1.264-5.055 0-8.848-.632-9.48-.632-2.525-.633-2.525-3.794 0-3.794 5.056-.63 31.597 3.16 31.596 5.69zm13.274 8.214c-1.264 1.897-3.16 0-6.32-1.262-1.264-.63-3.16-1.264-2.525-3.16 1.895-2.53 5.054-.633 6.32.632 2.524 1.264 3.158 2.528 2.524 3.79zm-26.542 34.126c0 3.16-15.8-1.264-22.118-1.895h-13.27c-2.528-.633-2.528-3.793 0-4.426 7.582-.632 36.02 1.896 35.388 6.32zm-44.237-3.16c0 1.896-10.11 1.265-18.958.632-15.8 0-17.062-.632-16.43-3.16 1.262-3.79 10.11-2.526 15.163-2.526 6.956.632 20.226 0 20.225 5.054zm71.41 11.374c-1.264 1.896-6.32-1.894-10.742-2.525-1.265 0-6.318-.633-5.687-2.53 0-2.53 3.79-2.53 8.847-1.264 5.056 1.265 8.847 4.426 7.584 6.32l-.002-.002zM691.36 470.3c-1.266 5.057-6.952-.633-22.118-1.266-5.057 0-8.85-.63-9.48-.63-2.527-.632-2.527-3.793 0-3.793 7.585-1.893 32.23 1.9 31.598 5.69zm-44.867-7.584c3.79-.63 13.27 3.793 3.158 4.426-.632 0-6.316 0-6.95-.633-3.79-3.164 2.53-3.795 3.793-3.794zm-12.64 1.895c0 3.796-17.06 1.267-20.853 1.267-10.11-.632-13.902 1.266-14.534-3.16.632-3.79 10.11-1.262 15.167-1.262 7.582 0 20.22-1.897 20.22 3.156zm66.985 7.587c3.793 1.264 10.11 9.48.633 5.686-.63 0-5.686-2.525-5.686-3.79-1.895-4.425 4.425-1.896 5.054-1.896zm3.162 75.2c.63 0 2.528 0 1.263 2.528-1.264 1.896-27.805-2.53-29.066-2.53-2.53-.63-2.53-1.264-2.53-3.156.632-1.268 2.53-1.268 3.16-1.268.632 0 26.542 3.79 27.173 4.422v.002zm-39.812-3.16c-1.266 1.263-12.64 1.895-12.007-1.265 0-3.16 3.16-1.264 8.217-1.264 5.054 0 5.054 1.265 3.79 2.53z"/><path fill="#F2F7F9" d="M748.868 543.605c2.526 0 4.422-1.896 4.422 1.895-.632 2.528-3.792 1.265-10.742 3.16-6.32 1.265-8.216 3.16-6.953-.632-.63-1.263 6.953-3.79 13.273-4.423zm0-18.96c2.526 0 5.055-1.26 5.055 2.53-1.265 1.896-5.055.632-12.007 2.528-6.32 1.265-7.584 3.158-6.95 0-.634-2.53 7.582-5.057 13.902-5.057zM599.728 274.4s-.63 1.895-.63 5.055v29.702h.63c-.63-.63-.63-18.96-.63-18.96V278.82c.63-2.527.63-4.422.63-4.422 5.69-1.264 21.487-3.16 25.278-1.264 1.264.632 1.264 5.687 1.264 12.006 0 9.48-.632 21.487-1.264 22.75-.63.635-5.687 1.266-12.007 1.898 5.686 0 11.374-.633 12.005-1.897.632-1.262 1.264-13.27 1.264-22.75 0-6.32-.633-11.373-1.265-12.005-3.79-1.896-19.59 0-25.276 1.265zm.63 35.39c1.897.63 7.586.63 13.272 0h-13.272zm-.63-37.286c-1.895.632-2.526 1.264-1.895 17.06v20.226c.633 3.158 3.792 3.158 7.584 2.526l5.687-.633h5.69c10.11 0 12.005 0 13.27-2.525v-6.32l-.632-12.64c.633-17.693-1.266-18.326-2.527-18.958-5.69-2.53-23.384 0-27.176 1.264zm24.647 2.53v15.163l.63 13.27v3.163c-1.895 0-8.845.633-8.845.633h-5.688l-5.688.632h-3.793c.635 0 .635-5.055.635-6.952v-24.646c6.95-1.263 19.59-2.527 22.75-1.263zm473.325 119.43c-3.16-20.22-3.793-37.282-4.425-51.184-.634-14.534-.634-24.647-3.793-30.966v.632l-30.332-74.57c-6.32-22.117-58.77-83.415-61.93-86.574-6.32-9.48-41.71-36.653-51.82-41.708-.63 0-39.18-27.174-39.18-27.174-15.8-11.375-42.34-22.118-63.826-28.438l-25.277-8.848C785.52 34.892 736.86 33.628 729.91 34.26h-17.696c-5.686-.632-54.98.632-84.68 12.006l-18.327 6.32c-23.38 6.32-44.867 13.27-61.298 24.645 0 0-43.606 30.966-45.5 32.23-10.11 5.057-56.244 38.55-61.932 47.397l.63-.632c-2.526 3.16-49.92 59.402-56.24 81.52l-30.966 75.2v-.63c-3.16 6.317-2.53 18.957-3.16 32.86-.632 13.9-1.896 29.07-5.056 49.29-2.526 15.8-.632 30.334 1.265 47.395 1.896 17.063 2.527 37.286 5.688 52.453 2.526 12.64 6.318 24.013 6.95 32.23 4.425 20.22 14.536 47.395 19.59 54.345 3.793 5.688 10.743 15.798 10.743 15.798 6.32 8.217 13.272 18.325 18.33 25.91 4.423 6.95 6.317 12.01 9.48 18.327 5.054 8.845 9.478 16.43 14.532 24.013 5.058 6.95 10.744 13.27 18.327 19.59 1.895 1.265 18.325 12.64 26.542 17.695 9.48 6.32 12.637 8.218 14.535 10.11l5.688 5.69c15.8 16.43 27.806 28.436 38.548 34.757 3.793 2.523 14.536 5.054 17.694 5.054 3.16 0 6.32-.63 8.847-1.895 4.425-2.53 6.953-6.95 8.85-13.27 0-.635 2.526-5.69 4.424-10.743 3.79.63 7.582 5.054 11.373 8.212l-1.893 7.584c-1.896 6.32-.633 12.64 3.792 18.328 17.06 22.115 80.887 30.964 136.497 29.067 57.508 1.896 129.55-15.164 139.027-37.283 1.896-4.426 1.265-8.216-2.526-12.01-1.267-1.26-1.897-2.525-2.53-3.157.633-.633.633-1.266 1.897-1.896 2.526-1.264 5.688-.632 7.583-.632 2.527 4.427 5.055 8.85 7.584 13.903 1.265 1.896 3.16 3.162 5.688 3.794 16.43 2.525 70.146-44.237 70.777-44.87 1.896-1.894 12.007-10.11 20.854-16.43 7.584-5.057 14.536-9.48 16.432-11.375 14.535-12.007 25.277-25.91 35.39-42.975 6.95-12.64 15.166-26.54 27.805-43.602l1.266-1.265c11.375-15.8 27.173-46.134 29.7-68.884.633-8.214 3.16-18.956 5.69-32.227 5.048-31.595 12.632-69.508 7.577-101.738zm-508.715 336.83c-2.528-2.53-6.32-5.06-10.743-6.32 11.376-27.176 16.43-39.813 17.692-46.134v-3.79l-1.896-4.425c-1.263-2.526-5.055-7.585-5.055-11.375 0-5.687 1.896-4.422 4.422-4.422 2.527 0 13.27 2.526 20.854 6.32 5.69 2.523 10.113 8.215 12.01 10.74.632 1.265.632 3.16-.634 4.425-1.263 1.262-2.526 1.895-5.686 3.16-3.16 1.263-8.85 5.686-10.11 6.316-6.95 2.527-11.376 13.902-17.694 34.125 0 .63 0 .63-.633 1.264-.632 1.895-1.265 4.42-1.895 6.95-.632 1.266-.632 1.897-.632 3.162zm-6.32-65.725c-3.79-1.898-7.583-3.793-12.64-7.586-7.584-5.688-26.54-20.854-35.39-25.908-5.687-3.16-6.318-6.32-13.27-13.903-5.69-6.317-12.01-12.638-17.062-16.432-6.952-5.055-19.59-24.013-23.382-30.962-13.902-22.752-36.652-67.62-41.71-111.855-.63-5.687-.63-20.222-.63-33.492 0-11.376 0-20.853-.632-25.278.633-8.847 3.162-32.86 5.057-39.18 1.896-4.42 3.16-13.9 5.055-21.486 1.264-6.32 3.16-16.43 4.424-19.59 0-.63 6.32-18.325 10.743-26.54l20.22-37.92c0-.63 10.745-22.116 18.328-29.7l7.583-8.215c8.216-8.847 17.062-18.324 25.277-24.646 13.27-10.11 33.494-24.012 51.188-32.228l24.646-12.007c8.847-4.425 13.27-6.953 20.853-8.85.63 0 49.29-15.797 82.15-17.694-3.158 6.952-5.055 13.272-6.318 16.432 0 0-7.583 1.263-17.692 1.895-5.69 0-22.752 3.16-22.752 3.16 12.01 18.327 22.12 29.07 27.175 34.125 0 0-5.688 34.125-5.688 38.55.633 0 18.96-9.48 24.646-12.64 5.688-3.16 12.64-5.686 13.903-5.686.632 0 17.06 6.952 20.853 9.477 9.48 5.69 15.8 8.85 17.693 9.48v-.63s-8.847-36.654-8.847-38.55c0 0 4.423-4.424 7.583-8.215 5.055-6.32 10.108-10.112 13.27-13.904s9.48-10.742 9.48-11.374c-.633 0-39.813-5.055-41.708-5.686 0 0-3.79-8.848-6.95-16.432 8.213.632 13.27 1.265 22.115 2.53h.633c24.015 3.79 50.556 13.902 61.93 18.324 0 0 9.48 3.792 10.744 4.424.632 0 17.062 6.952 17.062 6.952 11.375 5.687 20.853 12.007 25.276 15.167l5.688 4.422c12.008 8.215 38.55 25.908 42.972 32.86l6.953 8.848c3.79 5.056 6.318 11.377 8.213 16.432 3.79 9.478 12.64 19.59 20.854 30.332 5.69 6.95 11.377 13.902 14.536 19.592 0 0 10.742 15.164 13.27 29.067 2.53 17.695 6.95 44.236 9.48 52.45 12.64 42.974 8.848 65.09 3.79 87.84-1.263 6.95-5.054 16.43-5.687 23.384-.632 7.582-1.895 16.428-6.95 26.54-1.896 3.79-5.687 12.64-6.95 17.692-2.527 8.216-5.057 16.432-9.48 22.752-1.896 2.528-5.055 7.583-10.11 15.166-10.743 17.693-27.805 44.235-42.34 61.93-4.423 5.688-17.062 15.8-27.173 23.38-6.32 5.06-11.375 9.48-13.902 12.01-3.79 3.79-12.007 10.11-18.96 15.17l.633-1.898c0-1.263 0-1.895-.63-3.16-.633-1.894-2.528-5.055-7.583-6.32-5.057-1.263-10.743.635-17.694 3.795-5.056 1.896-10.74 5.057-18.957 12.008-3.16 2.53-7.585 7.585-6.32 11.375 1.266 2.53 3.793 5.058 6.953 6.95-17.063 5.06-33.493 10.112-39.812 11.378-3.792.634-17.694 5.056-26.542 6.318-10.11 1.897-20.222 3.16-25.278 3.792-20.854.634-50.556-6.95-56.873-10.11-14.534-5.687-33.492-12.64-45.5-15.797 0 0 .633 0 .633-.633 5.055-1.896 8.216-5.055 9.48-8.848.63-1.895.63-5.688-3.16-9.478-3.794-4.427-9.48-8.85-15.17-11.376-1.263-.635-14.533-5.69-20.22-5.69-4.423 0-6.32-.632-8.216.633-2.528 1.267-3.16 3.79-3.16 6.32-1.897 1.893-1.265 4.418-.002 6.947v.002zM723.59 160.646c-4.425-3.16-13.27-19.59-13.27-19.59.63-1.896 13.27-30.333 13.27-30.333 1.264 5.055.632 15.167.632 25.277-.632 9.48-1.265 19.59-.632 24.647zm-49.293-11.376c4.425 1.265 17.063 5.058 17.063 5.058 9.48 3.79 17.692 6.95 27.805 9.478-1.263 3.16-4.422 8.848-4.422 8.848s-21.486 33.49-22.752 35.387c0 0 6.32-34.123 6.32-34.756-1.893-1.895-14.534-12.638-24.013-24.013zm89.104 10.11c0 1.267-8.213 10.746-8.213 10.746-1.265 0-25.277-5.687-28.438-6.95 0 0 9.478-18.327 13.27-20.223l34.758 3.792c-2.527 1.264-12.64 3.792-22.118 6.952l-20.222 7.583s27.805-1.263 30.965-1.895v-.003h-.002zm-8.212 49.295c-2.527-.633-26.54-13.903-26.54-13.903-.632-.632-4.425-25.91-3.794-30.333l30.334 44.235zm101.11 544.732c-5.688 13.902-65.722 36.653-125.124 34.757-62.562 1.896-123.86-7.583-137.132-24.645-1.896-2.528-3.158-8.848-3.158-11.373 0-1.267 0-2.53.632-3.794l3.16-10.11.632-1.264v-.635c5.687-19.59 12.006-41.708 17.062-42.972 4.425 0 4.425-2.53 28.438 6.318 8.847 4.427 55.61 18.326 65.724 18.958 7.582.633 33.49 0 44.232-1.895 8.85-1.265 15.798-3.793 18.96-4.426 8.214-.63 52.448-13.902 60.664-16.428 0 0 .633 0 .633.63 1.897 1.895 3.16 6.952 5.057 11.375l1.265 3.79c.633 2.53 1.896 5.69 2.527 8.848l.632 2.53 2.527 6.95c.63 1.265 1.263 2.525 1.263 3.16.634 1.895 1.896 3.79 3.16 5.688l1.896 3.158c.632.634.632 1.266 1.265 2.53l5.69 7.584c.627.635.627.635-.004 1.264h-.002zm1.896-19.59c-1.267.633-2.528 1.265-3.16 1.896-2.527-3.794-4.424-8.216-5.688-12.64l-.63-1.896c-.633-1.896-1.266-3.79-1.896-5.056l-1.264-3.792-.632-2.525c-3.16-10.744-5.688-18.96-11.376-20.854h-3.792c-6.95.632-14.534-2.528-15.164-5.058 0-.63.63-3.16 1.265-3.79 6.95-6.32 10.11-10.112 14.532-12.007 3.16-1.265 10.744-5.06 18.327-3.16 1.896.63 1.896 3.16 1.896 3.16v.632c0 2.524-3.16 7.582-5.056 10.74-3.792 3.162-5.688 6.952-5.688 10.742 0 6.32 4.423 13.27 11.375 23.382 3.16 5.055 7.583 11.375 12.006 19.59-1.264-1.26-3.16-.627-5.056.635zM1081.27 493.05c-2.53 13.27-5.057 24.016-5.69 32.86-3.156 30.966-14.532 46.134-28.435 65.09l-1.264 1.266c-12.64 17.062-20.853 31.597-28.436 44.866-9.48 17.063-17.062 30.334-30.966 41.076-1.896 1.265-8.848 6.32-16.43 10.744-13.902 8.846-22.752 15.168-24.646 17.062-13.27 12.64-57.51 45.5-64.458 42.974-9.48-18.325-17.695-31.597-23.383-41.076-6.95-10.74-10.11-15.8-10.11-19.59 0-1.896 1.267-3.792 3.16-5.056 1.897-1.264 19.59-15.166 27.806-22.75l17.695-12.638c10.744-8.85 28.438-28.438 33.494-34.758 14.533-18.328 22.75-31.6 34.125-49.292 4.422-6.952 12.005-18.958 13.27-21.486 5.056-6.952 7.583-12.64 10.11-20.854 1.265-4.423 4.425-10.112 6.32-13.903 5.056-10.744 6.95-24.015 8.216-32.23.63-6.32.63-8.846 1.895-15.798 2.528-12.006 7.586-29.7 7.586-47.395 0-14.535-2.527-25.912-8.217-45.502-2.528-7.583-6.95-35.388-10.11-52.45-2.528-15.167-12.64-34.757-12.64-36.02-3.79-6.32-10.743-12.64-17.062-20.222-8.217-10.113-15.168-20.854-18.326-29.07-2.527-6.32-7.583-12.006-11.375-17.693l-6.318-8.216c-5.056-7.585-22.75-20.856-41.078-33.495l-6.317-3.16c-4.425-3.79-16.43-10.112-29.07-16.43l-15.165-8.848-10.745-4.424c-11.374-4.424-41.074-13.903-51.818-15.8h-.632c-12.008-1.895-21.485-3.79-37.284-4.422-.632-1.895-1.264-3.79-1.895-5.055-1.264-3.16-5.055-10.742-6.953-15.166-2.527 1.894-6.952 10.742-11.374 20.22-33.493 2.528-79.625 15.168-82.153 15.8-8.215 2.527-13.27 5.055-22.116 9.48l-35.392 17.692c-23.38 10.744-35.39 21.487-42.34 26.542-8.847 6.95-15.167 11.376-24.014 20.854l-7.585 8.215c-8.215 8.848-24.014 39.183-24.014 39.812l-13.902 23.382c-4.422 8.215-18.325 43.605-18.958 44.236-1.264 3.79-3.16 10.11-4.423 17.694-1.896 7.583-4.424 14.535-5.056 18.958-1.896 27.806-3.792 40.446-3.792 44.235v.634c.63 3.79-1.263 14.533-1.263 22.75.632 13.903.632 27.806.632 34.125 2.527 25.908 17.693 69.513 32.227 93.524.634 1.266 11.376 24.016 37.917 54.98 3.793 4.423 13.902 13.27 19.594 19.588 6.95 7.583 9.48 11.377 15.796 15.168l24.016 15.8c8.85 6.318 17.695 12.637 26.542 17.69 0 .634 0 1.266-.632 2.53v.632l-1.265 3.79-.634 1.265c-.63 1.266-1.263 3.162-1.895 5.056 0 0 0 .633-.63.633-.634 1.896-1.268 3.793-2.53 5.688l-.63 1.894c-.633 1.897-1.266 3.793-2.528 5.688l-1.267 3.16c-.632 1.266-1.263 2.53-1.263 3.792-.633.63-.633 1.896-1.265 3.16l-1.266 2.53c-1.264 3.155-2.526 5.686-3.16 8.21 0 0 0 .634-.632.634l-.633.632c-3.79 8.85-5.057 11.377-5.057 12.64-1.262 4.425-2.524 6.95-5.054 8.847-3.16 1.898-6.32 3.16-12.64.635-8.848-3.16-15.798-10.742-24.014-18.325l-18.958-18.33-9.48-8.215c-1.895-1.895-7.582-6.318-21.484-15.164l-9.48-5.687c-3.16-2.527-10.742-10.11-11.375-10.744-13.9-10.742-16.43-18.958-25.91-36.02-6.95-12.64-17.692-31.598-20.853-35.39l-8.216-10.74c-13.902-18.96-24.644-33.495-28.436-65.093-.632-8.215-3.793-15.798-6.952-29.067-1.264-5.69-1.896-15.8-3.16-22.75-1.896-24.648-6.32-53.083-1.896-77.73 3.16-20.854 3.16-34.125 3.16-48.027.632-12.64.632-22.75 3.16-27.172l1.263-4.423 26.54-70.146c3.16-10.112 24.015-44.87 32.23-56.243 8.213-11.375 29.7-34.757 29.7-34.757 3.792-6.952 39.813-31.597 51.19-37.284l46.13-32.23c15.166-10.744 44.235-20.222 65.722-26.54l15.8-6.32c29.7-10.112 73.937-13.904 79.624-13.272h18.96c6.32-.633 58.137 3.16 87.84 13.27l18.956 4.425c21.486 6.95 46.766 16.43 61.93 27.804l49.293 32.862c-6.32-3.16 41.708 23.382 51.187 40.444.633.632 53.083 66.986 58.77 87.208l27.175 66.353c2.53 4.426 3.16 18.33 3.794 31.602.63 13.9 3.157 32.86 6.317 53.712 5.056 30.962-4.424 66.35-10.743 96.053v.003z"/><path fill="#F2F7F9" d="M703.368 510.743c-.632 3.16-15.168-2.526-22.118-3.16-5.055 0-17.062-.63-17.695-.63-2.527-.633-3.79-3.16-1.263-3.792 7.582-1.263 41.707 3.794 41.076 7.583zm-70.145-6.32h-15.168c-15.798 0-17.062 0-16.43-1.894 1.265-3.794 10.11-1.267 15.167-1.898 7.583.633 16.43-1.265 16.43 3.79zm9.478-.63c1.265-1.264 10.744-1.896 10.11 1.263 0 2.528-1.262 1.897-6.316 1.266-5.688 0-5.055-1.265-3.792-2.526v-.003zm79.624-483.436c-4.423 0-7.583-3.792-7.583-7.583 0-4.424 3.16-7.584 7.585-7.584s7.585 3.792 7.585 7.584c0 4.424-3.16 7.583-7.586 7.583zm-27.173.633c-4.422 0-7.582-3.16-8.213-6.95 0-4.425 2.528-7.585 6.95-8.217 4.425 0 7.583 3.16 8.216 6.952.634 4.423-2.527 8.215-6.952 8.215zm-27.17 2.528c-4.426.63-8.217-2.528-8.217-6.32-.632-4.423 2.528-8.216 6.32-8.216 4.42-.632 8.213 2.528 8.213 6.32 1.267 3.79-1.893 7.583-6.315 8.216zm-26.54 4.423c-4.427.633-8.218-1.894-8.852-5.687-.632-4.422 1.897-8.214 5.69-8.846 4.422-.632 8.214 1.896 8.845 5.687 1.267 4.425-1.893 8.216-5.684 8.847zm-26.544 6.32c-4.423 1.264-8.215-1.264-9.48-5.055-1.263-3.792 1.266-8.214 5.058-9.48 3.79-1.263 8.214 1.266 9.48 5.058 1.262 4.422-1.266 8.214-5.058 9.478zm-26.54 8.216c-3.794 1.265-8.218-.63-9.48-4.422-1.264-3.792.63-8.216 4.423-9.48 3.79-1.263 8.215.632 9.48 4.423 1.895 3.792 0 8.216-4.424 9.48zm-25.28 10.11c-3.79 1.897-8.213 0-10.11-3.79-1.896-3.792 0-8.216 3.792-10.113 3.79-1.895 8.216 0 10.11 3.792 1.897 3.793 0 8.216-3.792 10.11zM538.43 63.962c-3.79 1.897-8.214.633-10.11-3.16-1.896-3.79-.63-8.215 3.16-10.11 3.79-1.896 8.216-.632 10.112 3.16 1.895 3.792.63 8.216-3.16 10.11h-.002zm-23.38 13.27c-3.79 2.53-8.213 1.265-10.11-2.527-1.895-3.792-1.265-8.215 2.527-10.11 3.792-1.896 8.216-1.264 10.11 2.527 1.898 3.16.633 8.216-2.527 10.11zM491.67 92.4c-3.16 2.526-8.217 1.895-10.744-1.897-2.526-3.16-1.896-8.215 1.896-10.742 3.792-2.527 8.216-1.895 10.742 1.897 2.528 3.79 1.896 8.216-1.894 10.742zm-21.487 16.43c-3.16 2.53-8.215 1.896-10.74-1.263-2.528-3.16-2.528-8.215 1.263-10.742 3.16-2.53 8.214-1.897 10.743 1.262 2.525 3.16 1.894 8.215-1.267 10.742zm-20.854 17.694c-3.16 3.16-7.584 2.527-10.743-.632-3.16-3.16-2.528-7.583.63-10.742 3.16-3.16 7.585-2.527 10.745.632 2.525 3.16 2.525 8.216-.633 10.742zm-18.958 19.59c-3.16 3.16-7.585 3.16-10.745.632-3.16-3.16-3.16-7.583-.632-10.743 3.16-3.16 7.584-3.16 10.744-.63 3.16 3.16 3.16 7.582.632 10.74zm-18.328 20.854c-2.53 3.16-7.583 3.792-10.745 1.264-3.16-2.526-3.793-7.582-1.264-10.742 2.528-3.16 7.583-3.792 10.742-1.263 3.792 2.527 3.792 6.952 1.266 10.74zm-16.43 21.487c-2.528 3.16-6.952 4.422-10.743 1.896-3.16-2.53-4.424-6.95-1.896-10.742 2.53-3.792 6.95-4.424 10.742-1.896 3.792 2.528 4.424 6.952 1.897 10.744zm-14.535 22.75c-1.897 3.79-6.953 4.423-10.113 2.527-3.792-1.894-5.055-6.95-2.526-10.11 2.526-3.792 6.95-4.42 10.74-2.527 2.53 1.896 3.794 6.318 1.898 10.112v-.002zm-13.27 24.013c-1.897 3.793-6.32 5.057-10.113 3.16-3.792-1.896-5.056-6.32-3.16-10.112 1.897-3.79 6.32-5.054 10.112-3.16 3.16 1.266 5.054 6.322 3.16 10.112zm-12.01 24.645c-1.897 3.79-6.32 5.688-10.112 3.79-3.792-1.895-5.687-5.685-3.792-10.108 1.897-3.792 6.32-5.69 10.112-3.792 3.79 1.263 5.687 5.685 3.79 10.11h.002zm-10.112 25.277c-1.263 3.793-5.687 5.688-9.48 4.423-3.79-1.262-6.317-5.688-4.422-9.478 1.265-3.793 5.687-6.32 9.48-4.426 3.79 1.263 6.318 5.057 4.422 9.48zm-7.584 25.91c-1.263 3.793-5.054 6.32-9.48 5.058-3.79-1.265-6.318-5.058-5.053-9.48 1.265-4.423 5.056-6.32 9.48-5.055 3.79 1.263 5.688 5.054 5.054 9.477zm-6.32 26.543c-.63 4.423-5.054 6.95-8.846 5.688-4.423-.63-6.95-4.423-5.688-8.848 0-3.79 4.424-6.32 8.216-5.686 4.425.63 6.95 4.422 6.32 8.847h-.002zm-5.054 27.173c-.633 4.425-4.424 6.952-8.216 6.32-4.424-.633-6.952-4.426-6.32-8.216.632-4.426 4.425-6.95 8.214-6.318 4.425 0 6.953 3.79 6.322 8.214zm-2.53 27.173c0 4.422-3.79 7.582-8.212 6.948-4.424 0-7.583-3.792-6.952-8.215 0-4.426 3.792-7.583 8.215-6.952 4.426.002 7.584 3.794 6.95 8.22zm-.63 27.172c0 4.422-3.16 7.584-7.582 7.584-4.424 0-7.583-3.162-7.583-7.584 0-4.425 3.16-7.584 7.583-7.584 4.42 0 7.583 3.158 7.582 7.584zm1.263 27.173c0 4.423-2.527 7.585-6.95 8.216-4.424.634-7.584-2.527-8.216-6.95 0-4.425 2.528-7.583 6.953-8.216 4.422-.632 7.58 2.525 8.213 6.95zm3.16 27.174c.632 4.42-2.526 8.215-6.318 8.847-4.424.63-8.216-1.896-8.848-6.32-.63-4.423 2.527-8.214 6.32-8.846 4.424-.632 8.214 1.893 8.846 6.32zm4.424 26.54c.633 4.422-1.896 8.216-5.687 8.85-4.424.632-8.216-1.897-8.847-5.69-1.263-3.792 1.896-8.214 5.688-8.847 4.425-.63 8.216 1.897 8.847 5.686zm6.95 26.54c1.266 3.794-1.263 8.217-5.055 9.48-3.792 1.265-8.215-1.265-9.48-5.055-1.262-4.426 1.265-8.216 5.058-9.48 3.792-1.262 8.214 1.266 9.477 5.056zm8.217 25.91c1.263 3.793-.632 8.215-4.423 9.478-3.79 1.266-8.214-.632-9.477-4.422-1.265-3.794.63-8.216 4.422-9.48s8.216.633 9.48 4.423zm10.742 25.28c1.897 3.79 0 8.214-3.79 10.108-3.792 1.896-8.216 0-10.112-3.79-1.896-3.795 0-8.217 3.792-10.112 3.79-1.893 8.216 0 10.11 3.793zm12.008 24.644c1.895 3.793.63 8.216-3.16 10.11-3.792 1.897-8.216.634-10.11-3.158-1.897-3.79-.632-8.216 3.16-10.11 3.158-1.897 7.583-.632 10.11 3.158zm13.27 23.383c2.527 3.79 1.264 8.216-2.527 10.74-3.792 2.53-8.216 1.266-10.743-2.524-2.527-3.793-1.265-8.216 2.527-10.744 3.794-1.9 8.85-.634 10.744 2.527zm15.167 22.75c2.527 3.16 1.897 8.214-1.895 10.742-3.16 2.527-8.215 1.896-10.743-1.897-2.527-3.16-1.896-8.217 1.896-10.742 3.792-2.527 8.215-1.262 10.743 1.897zm17.064 21.484c2.527 3.16 2.527 8.217-1.266 10.745-3.16 2.528-8.213 2.528-10.742-.63-2.53-3.163-2.53-8.22 1.264-10.743 3.16-3.16 8.216-2.53 10.744.63zm18.327 20.226c3.16 3.16 2.53 7.58 0 10.742-3.16 3.16-7.58 3.16-10.742 0-3.16-3.162-2.528-7.584 0-10.743 3.16-3.16 7.583-3.16 10.743 0zm19.59 18.958c3.16 3.157 3.16 7.583.634 10.742-2.53 3.16-7.583 3.16-10.743.63-3.16-3.155-3.16-7.582-.63-10.74 2.525-3.16 7.582-3.16 10.74-.632zm20.855 17.692c3.16 2.528 3.793 7.584 1.263 10.744-2.526 3.16-7.58 3.79-10.74 1.267-3.163-2.53-3.794-7.584-1.266-10.746 2.53-3.154 6.952-3.79 10.744-1.262v-.002zm22.118 16.432c3.79 2.525 4.424 6.95 1.896 10.74-2.53 3.162-6.95 4.427-10.745 1.897-3.79-2.53-4.423-6.95-1.895-10.74 2.527-3.163 6.952-4.425 10.743-1.897zm22.75 14.534c3.792 1.896 5.057 6.95 2.528 10.11-1.894 3.793-6.95 5.057-10.11 2.527-3.79-1.897-5.054-6.95-2.528-10.113 1.896-3.79 6.32-4.42 10.11-2.525zm24.014 12.64c3.79 1.896 5.055 6.318 3.16 10.108-1.897 3.793-6.32 5.057-10.112 3.16-3.79-1.896-5.057-6.32-3.158-10.112 1.895-3.157 6.318-5.055 10.11-3.157v.003zm24.647 11.373c3.79 1.896 5.687 5.688 3.79 10.112-1.895 3.79-5.687 5.687-10.11 4.42-3.792-1.895-5.687-6.316-4.425-10.107 2.53-3.793 6.95-5.69 10.744-4.425zm25.908 10.112c3.792 1.264 6.32 5.687 5.057 9.477-1.266 3.794-5.69 6.32-9.48 5.06-3.793-1.266-6.32-5.69-5.06-9.48.635-4.426 5.06-6.954 9.482-5.057zm25.912 7.582c4.423 1.264 6.317 5.054 5.686 9.48-1.263 3.788-5.055 6.315-9.478 5.686-4.425-1.266-6.32-5.06-5.688-9.48 1.263-4.423 5.688-6.952 9.48-5.687zm26.54 5.687c4.424.63 6.95 4.42 6.32 8.847-.633 4.423-4.425 6.95-8.85 6.32-4.423-.634-6.95-4.428-6.318-8.85 1.264-4.423 5.057-6.95 8.848-6.317zm27.173 4.42c4.425.633 6.952 4.426 6.32 8.216-.63 4.424-4.423 6.952-8.216 6.952-4.423-.634-6.948-4.425-6.948-8.218.63-5.053 4.422-7.58 8.845-6.95zm27.173 1.9c4.425 0 7.585 3.79 6.953 7.58 0 4.424-3.79 7.584-7.582 7.584-4.424 0-7.583-3.792-6.95-8.214 0-3.79 3.16-6.95 7.58-6.95zm27.177.63c4.422 0 7.58 3.16 7.58 7.584 0 4.424-3.158 7.584-7.58 7.584-4.425 0-7.585-3.16-7.585-7.583 0-4.425 3.792-7.584 7.585-7.584zm27.17-1.897c4.426-.633 7.585 2.528 8.217 6.95.632 4.426-2.528 7.585-6.95 8.216-4.425.633-7.583-2.528-8.216-6.95 0-3.79 3.16-7.584 6.95-8.216zm27.174-3.16c4.425-.63 8.216 1.897 8.848 6.32s-1.896 8.216-6.32 8.847c-4.423.632-8.214-1.894-8.845-6.32-.633-4.42 1.895-8.212 6.317-8.845v-.002zm27.174-5.056c4.425-1.263 8.216 1.265 8.85 5.69.63 3.79-1.267 8.21-5.69 8.845-4.424 1.263-8.214-1.897-8.847-5.69-1.263-3.79 1.262-8.214 5.687-8.846zm25.907-7.583c3.796-1.262 8.22 1.265 9.483 5.058 1.264 3.79-.633 8.216-5.057 9.48-3.792 1.263-8.214-1.265-9.48-5.06-1.26-3.79 1.268-8.214 5.057-9.478h-.002zm25.914-8.845c3.79-1.265 8.217.633 9.48 4.424s-.634 8.215-4.423 9.478c-3.792 1.264-8.215-.634-10.11-4.426-.633-3.158 1.262-7.584 5.054-9.477zM886 775.522c3.792-1.897 8.216 0 10.11 3.793 1.896 3.79 0 8.213-3.79 10.11-3.792 1.895-8.217 0-10.112-3.793-1.263-3.79 0-8.214 3.792-10.11zm24.646-12.638c3.793-1.896 8.215-.633 10.11 3.16 1.896 3.79.633 8.213-3.16 10.11-3.793 1.896-8.215.632-10.11-3.16-1.896-3.792-.63-8.215 3.16-10.11zm23.38-13.904c3.794-2.528 8.217-1.266 10.745 2.527 2.525 3.79 1.263 8.215-2.53 10.742-3.79 2.527-8.215 1.265-10.74-2.528-1.896-3.79-.633-8.214 2.525-10.742h.002zm22.75-15.797c3.16-2.526 8.216-1.896 10.745 1.264 2.527 3.16 1.896 8.216-1.265 10.745-3.16 2.524-8.216 1.893-10.744-1.266-3.155-3.16-2.526-8.216 1.265-10.744h.002zm20.856-17.064c3.16-2.53 7.583-2.53 10.743.632 2.527 3.16 2.527 8.216-.633 10.742-3.16 2.528-8.215 2.528-10.742-.633-3.16-3.157-2.528-7.582.632-10.74zm20.223-18.328c3.16-3.158 7.58-3.158 10.74 0 3.16 3.16 3.16 7.583 0 10.744-3.16 3.16-7.58 3.16-10.74 0-3.162-3.16-3.162-7.583 0-10.744zm18.957-19.59c2.527-3.16 7.584-3.16 10.743-.633 3.16 2.53 3.793 7.583.633 10.743-2.526 3.157-7.582 3.157-10.742.632-3.16-3.16-3.793-7.583-.634-10.743zm17.063-21.486c2.527-3.157 6.95-3.79 10.743-1.262 3.16 2.525 3.792 6.95 1.265 10.742-2.53 3.16-7.584 3.79-10.742 1.264-3.16-2.528-3.79-7.583-1.265-10.744zm15.8-22.116c2.526-3.793 6.95-4.426 10.74-1.896 3.793 2.525 4.424 6.95 1.896 10.74-2.525 3.794-6.948 4.427-10.742 1.896-3.16-2.53-3.79-7.583-1.893-10.74zm14.533-23.383c1.896-3.79 6.95-5.055 10.11-3.16 3.79 1.896 5.056 6.32 3.16 10.11-1.897 3.792-6.95 5.056-10.112 2.53-4.423-1.265-5.685-5.69-3.158-9.48zm12.64-24.015c1.896-3.79 6.32-5.055 10.11-3.79 3.792 1.896 5.687 6.318 3.792 10.112-1.897 3.79-6.32 5.686-10.112 3.79-4.423-1.896-5.687-6.32-3.79-10.112zm10.742-25.277c1.896-3.79 5.688-5.686 10.11-4.42 3.793 1.265 5.688 5.687 4.423 10.108-1.895 3.793-5.686 5.688-10.11 4.426-3.79-1.266-5.687-5.69-4.423-10.115zm9.48-25.276c1.262-3.794 5.686-6.32 9.478-5.06 3.79 1.266 6.318 5.69 5.056 9.48-1.265 3.793-5.688 6.317-9.48 5.055-4.422-1.26-6.32-5.686-5.055-9.476zm6.95-26.54c1.265-4.43 5.057-6.32 8.848-5.69 3.792 1.264 6.32 5.058 5.69 8.848-1.267 4.426-5.06 6.32-9.48 5.687-3.162-.634-5.69-4.424-5.057-8.847zm5.688-26.546c.63-4.425 4.423-6.953 8.848-6.32 4.423.632 6.95 4.426 6.318 8.848-.63 4.423-4.423 6.952-8.85 6.32-4.42-.633-6.948-4.423-6.316-8.85v.002zm3.79-27.174c.633-4.423 3.793-6.95 8.218-6.95 4.422.63 6.95 3.793 6.95 8.216-.632 4.425-4.423 6.95-8.215 6.95-4.426-.63-7.585-3.79-6.952-8.216zm1.898-27.173c0-4.423 3.79-7.583 7.583-7.583 4.422 0 7.582 3.793 7.582 7.583 0 4.426-3.79 7.583-7.583 7.583-4.424 0-7.584-3.157-7.584-7.583zm0-27.174c0-4.423 3.16-7.584 6.95-7.584 4.425 0 7.583 3.16 7.583 6.95 0 4.426-3.16 7.584-7.583 7.584-3.79 0-6.95-3.157-6.95-6.95zm-1.897-27.173c-.635-4.424 2.525-7.585 6.95-8.217 4.423-.633 7.583 2.53 8.215 6.952.633 4.424-2.527 8.216-6.95 8.216-4.425 0-8.217-3.16-8.216-6.95zm-3.79-27.174c-.636-4.422 1.894-8.216 6.315-8.848 4.426-.633 8.218 1.896 8.85 6.32.632 4.424-1.897 8.214-6.32 8.846-4.424.633-8.216-2.526-8.846-6.318zm-5.69-26.54c-1.265-4.423 1.264-8.217 5.69-8.85 3.79-1.264 8.214 1.266 9.477 5.687 1.267 4.426-1.263 8.217-5.687 9.48-4.425 0-8.218-2.528-9.48-6.318zm-7.583-26.542c-1.266-3.792.632-8.215 5.057-9.48 3.79-1.263 8.215.634 9.48 5.056 1.262 3.794-.635 8.216-5.06 9.48-3.792 1.263-8.214-.633-9.477-5.056zm-9.48-25.28c-1.896-3.79 0-8.212 4.422-10.108 3.79-1.264 8.216 0 10.112 4.422 1.896 3.794 0 8.216-4.424 10.113-3.79 1.265-8.216-.632-10.11-4.425zm-10.743-25.276c-1.896-3.79 0-8.216 3.792-10.112 3.79-1.896 8.215-.63 10.11 3.16 1.895 3.794 0 8.216-3.792 10.113-3.79 1.893-8.217.63-10.11-3.162zm-12.64-24.015c-1.896-3.79-.63-8.214 2.527-10.11 3.795-1.897 8.217-.633 10.113 2.528 1.895 3.79.632 8.214-2.527 10.11-3.79 2.53-8.215 1.265-10.11-2.53l-.002.003zm-14.534-23.38c-2.528-3.794-1.266-8.216 1.895-10.745 3.79-2.526 8.216-1.263 10.743 1.896 2.527 3.794 1.264 8.217-1.896 10.746-3.79 2.526-8.217 1.894-10.742-1.897zm-15.8-22.12c-2.527-3.16-1.896-8.214 1.265-10.743 3.16-2.528 8.216-1.895 10.743 1.265 2.526 3.16 1.896 8.215-1.266 10.743-3.79 2.528-8.213 1.895-10.743-1.265zm-17.694-20.853c-2.527-3.16-2.527-7.584.632-10.743 3.16-2.527 7.584-2.527 10.743.632 2.528 3.16 2.528 8.215-.63 10.742-3.16 2.526-7.58 2.526-10.744-.632zm-18.326-20.222c-3.16-3.16-3.16-7.583 0-10.743s7.584-3.16 10.744 0 3.16 7.583 0 10.743-8.217 3.16-10.744 0zm-20.222-18.327c-3.16-2.526-3.792-7.582-.633-10.743 2.527-3.16 7.584-3.79 10.743-.63 3.158 2.526 3.79 7.582.63 10.742-3.16 3.16-7.582 3.79-10.742.63h.002zM955.512 98.08c-3.16-2.527-3.792-6.95-1.263-10.743 2.525-3.16 6.95-4.423 10.738-1.896 3.16 2.526 3.792 7.582 1.267 10.742-2.53 3.792-7.584 4.425-10.743 1.896zM933.395 82.92c-3.79-2.53-4.424-6.95-2.527-10.11 2.527-3.793 6.952-4.425 10.743-2.53 3.793 2.53 4.424 6.952 2.527 10.743-2.528 3.16-7.583 3.792-10.742 1.897zM909.38 69.017c-3.792-1.896-5.055-6.32-3.16-10.11 1.897-3.793 6.32-5.057 10.11-3.162 3.793 1.896 5.058 6.32 3.16 10.112-1.894 3.79-6.318 5.055-10.11 3.16zm-24.014-12.64c-3.792-1.895-5.688-6.32-3.792-10.11 1.896-3.793 6.32-5.688 10.11-3.793 3.792 1.896 5.69 6.32 3.792 10.11-1.894 3.793-6.317 5.69-10.11 3.793zm-25.278-10.11c-3.79-1.896-5.686-6.32-4.423-10.11 1.263-3.793 5.688-5.688 9.48-4.423 3.79 1.263 5.687 5.687 4.424 10.11-1.267 3.79-5.69 5.687-9.482 4.423zm-25.91-8.848c-3.79-1.266-6.316-5.058-5.054-9.48 1.263-3.79 5.055-6.32 9.48-5.057 3.79 1.264 6.32 5.688 5.054 9.48-1.263 3.79-5.054 6.32-9.48 5.056zm-25.91-6.95c-4.422-1.267-6.316-5.06-5.685-8.85.63-4.423 5.055-6.95 8.846-5.687 4.424.632 6.95 5.056 5.687 8.848-.633 3.79-5.056 6.32-8.85 5.69zM781.1 24.78c-4.425-.633-6.953-4.424-6.32-8.848.635-4.424 4.424-6.952 8.85-6.32 4.42.634 6.95 4.425 6.32 8.848-.635 4.423-4.428 6.95-8.852 6.32h.002zm-27.175-3.16c-3.792 0-6.952-3.792-6.952-8.215.633-4.424 3.793-7.583 8.217-6.952 4.425.632 7.584 4.424 6.952 8.215 0 4.423-3.793 7.582-8.217 6.95v.002z"/></svg>