<?xml version="1.0" encoding="utf-8"?>
<!-- Generator: Adobe Illustrator 15.0.0, SVG Export Plug-In . SVG Version: 6.00 Build 0)  -->
<!DOCTYPE svg PUBLIC "-//W3C//DTD SVG 1.1//EN" "http://www.w3.org/Graphics/SVG/1.1/DTD/svg11.dtd">
<svg version="1.1" id="Layer_1" xmlns="http://www.w3.org/2000/svg" xmlns:xlink="http://www.w3.org/1999/xlink" x="0px" y="0px"
	 width="70px" height="35px" viewBox="0 0 70 35" enable-background="new 0 0 70 35" xml:space="preserve">
<g opacity="0.05">
	<g>
		<path fill="#FFFFFF" d="M53.6,2.38c-0.205-0.004-0.36-0.169-0.358-0.374c0.003-0.202,0.165-0.363,0.371-0.359
			c0.205,0.002,0.366,0.169,0.36,0.373C53.971,2.222,53.807,2.383,53.6,2.38z"/>
		<path fill="#FFFFFF" d="M52.302,2.415c-0.206,0.012-0.374-0.14-0.386-0.342c-0.012-0.204,0.135-0.375,0.342-0.388
			c0.205-0.014,0.375,0.139,0.39,0.342C52.659,2.23,52.506,2.402,52.302,2.415z"/>
		<path fill="#FFFFFF" d="M50.986,2.541c-0.205,0.025-0.383-0.114-0.408-0.315c-0.027-0.203,0.109-0.386,0.313-0.411
			c0.204-0.027,0.386,0.115,0.413,0.316C51.33,2.333,51.191,2.511,50.986,2.541z"/>
		<path fill="#FFFFFF" d="M49.685,2.754c-0.202,0.04-0.39-0.087-0.429-0.287c-0.04-0.2,0.082-0.39,0.285-0.432
			c0.202-0.04,0.393,0.09,0.433,0.29C50.014,2.523,49.887,2.714,49.685,2.754z"/>
		<path fill="#FFFFFF" d="M48.4,3.058c-0.199,0.054-0.396-0.06-0.449-0.257c-0.054-0.194,0.056-0.395,0.256-0.449
			c0.197-0.055,0.396,0.06,0.451,0.256C48.711,2.805,48.598,3.003,48.4,3.058z"/>
		<path fill="#FFFFFF" d="M47.137,3.451c-0.196,0.067-0.398-0.032-0.465-0.223c-0.068-0.194,0.026-0.4,0.223-0.468
			c0.195-0.069,0.401,0.034,0.469,0.225C47.43,3.176,47.33,3.382,47.137,3.451z"/>
		<path fill="#FFFFFF" d="M45.912,3.929c-0.19,0.081-0.399-0.003-0.48-0.191c-0.08-0.187,0-0.4,0.19-0.481
			c0.19-0.083,0.403,0.003,0.483,0.192C46.186,3.636,46.102,3.847,45.912,3.929z"/>
		<path fill="#FFFFFF" d="M44.717,4.495c-0.184,0.094-0.398,0.022-0.492-0.159c-0.093-0.18-0.026-0.401,0.156-0.494
			C44.564,3.747,44.783,3.82,44.877,4C44.971,4.182,44.899,4.4,44.717,4.495z"/>
		<path fill="#FFFFFF" d="M43.568,5.136c-0.176,0.108-0.396,0.05-0.502-0.123c-0.105-0.174-0.054-0.398,0.123-0.503
			c0.176-0.107,0.398-0.051,0.504,0.123C43.799,4.807,43.744,5.029,43.568,5.136z"/>
		<path fill="#FFFFFF" d="M42.459,5.86c-0.17,0.12-0.391,0.078-0.509-0.087c-0.118-0.167-0.081-0.391,0.087-0.512
			c0.168-0.119,0.395-0.077,0.513,0.088C42.666,5.517,42.627,5.741,42.459,5.86z"/>
		<path fill="#FFFFFF" d="M41.404,6.66c-0.16,0.129-0.386,0.105-0.514-0.053s-0.108-0.385,0.052-0.515
			c0.159-0.131,0.388-0.104,0.517,0.051C41.588,6.303,41.564,6.531,41.404,6.66z"/>
		<path fill="#FFFFFF" d="M40.406,7.53c-0.15,0.139-0.376,0.128-0.516-0.02c-0.139-0.149-0.135-0.378,0.016-0.518
			c0.15-0.141,0.381-0.131,0.52,0.018C40.564,7.158,40.558,7.385,40.406,7.53z"/>
		<path fill="#FFFFFF" d="M39.474,8.458c-0.142,0.153-0.368,0.158-0.517,0.02c-0.148-0.138-0.158-0.367-0.02-0.518
			c0.141-0.152,0.372-0.157,0.521-0.016C39.605,8.082,39.615,8.31,39.474,8.458z"/>
		<path fill="#FFFFFF" d="M38.604,9.458c-0.129,0.159-0.354,0.181-0.513,0.052c-0.157-0.127-0.185-0.355-0.055-0.515
			c0.13-0.158,0.358-0.181,0.517-0.053C38.712,9.07,38.734,9.297,38.604,9.458z"/>
		<path fill="#FFFFFF" d="M37.813,10.5c-0.118,0.168-0.343,0.206-0.508,0.087c-0.167-0.115-0.208-0.341-0.091-0.509
			c0.121-0.168,0.348-0.205,0.514-0.088C37.895,10.107,37.932,10.332,37.813,10.5z"/>
		<path fill="#FFFFFF" d="M37.088,11.611c-0.107,0.175-0.326,0.226-0.502,0.121c-0.174-0.106-0.23-0.325-0.125-0.502
			c0.107-0.176,0.332-0.229,0.504-0.123C37.141,11.211,37.194,11.435,37.088,11.611z"/>
		<path fill="#FFFFFF" d="M36.443,12.758c-0.094,0.182-0.311,0.25-0.49,0.155c-0.181-0.092-0.256-0.308-0.16-0.492
			c0.096-0.183,0.314-0.25,0.496-0.159C36.471,12.356,36.539,12.573,36.443,12.758z"/>
		<path fill="#FFFFFF" d="M35.88,13.954c-0.083,0.189-0.294,0.269-0.48,0.189c-0.187-0.082-0.276-0.291-0.192-0.481
			c0.08-0.19,0.296-0.272,0.483-0.192C35.877,13.551,35.961,13.761,35.88,13.954z"/>
		<path fill="#FFFFFF" d="M35.4,15.176c-0.068,0.194-0.271,0.291-0.464,0.224c-0.192-0.068-0.295-0.271-0.225-0.467
			c0.067-0.195,0.275-0.293,0.468-0.224C35.37,14.776,35.471,14.981,35.4,15.176z"/>
		<path fill="#FFFFFF" d="M35.007,16.438c-0.055,0.198-0.253,0.31-0.449,0.255c-0.195-0.053-0.312-0.25-0.258-0.449
			c0.055-0.199,0.256-0.312,0.453-0.258C34.948,16.041,35.061,16.241,35.007,16.438z"/>
		<path fill="#FFFFFF" d="M34.701,17.724c-0.04,0.2-0.231,0.325-0.431,0.284c-0.199-0.04-0.328-0.228-0.287-0.43
			c0.04-0.202,0.232-0.326,0.433-0.288C34.614,17.33,34.741,17.521,34.701,17.724z"/>
		<path fill="#FFFFFF" d="M34.485,19.023c-0.026,0.205-0.207,0.342-0.408,0.314c-0.202-0.023-0.344-0.203-0.318-0.408
			c0.027-0.205,0.21-0.344,0.412-0.316C34.372,18.639,34.513,18.818,34.485,19.023z"/>
		<path fill="#FFFFFF" d="M34.361,20.338c-0.013,0.207-0.185,0.355-0.388,0.344c-0.203-0.014-0.357-0.18-0.345-0.387
			c0.013-0.205,0.186-0.357,0.39-0.344C34.221,19.963,34.372,20.133,34.361,20.338z"/>
		<path fill="#FFFFFF" d="M34.324,21.652c0.003,0.205-0.155,0.369-0.358,0.369c-0.205,0.006-0.371-0.15-0.375-0.355
			c-0.002-0.205,0.159-0.373,0.363-0.375C34.157,21.287,34.321,21.445,34.324,21.652z"/>
		<path fill="#FFFFFF" d="M34.379,22.982c0.015,0.205-0.134,0.375-0.337,0.393c-0.203,0.016-0.379-0.133-0.395-0.338
			c-0.015-0.205,0.137-0.379,0.338-0.395C34.19,22.627,34.362,22.777,34.379,22.982z"/>
		<path fill="#FFFFFF" d="M34.523,24.293c0.029,0.203-0.108,0.383-0.31,0.412c-0.201,0.027-0.387-0.105-0.416-0.307
			c-0.029-0.205,0.11-0.389,0.312-0.416C34.311,23.951,34.494,24.088,34.523,24.293z"/>
		<path fill="#FFFFFF" d="M34.757,25.586c0.042,0.201-0.082,0.391-0.28,0.436c-0.199,0.041-0.393-0.08-0.436-0.281
			c-0.044-0.201,0.082-0.395,0.28-0.436C34.521,25.26,34.713,25.385,34.757,25.586z"/>
		<path fill="#FFFFFF" d="M35.079,26.863c0.058,0.195-0.054,0.395-0.248,0.453c-0.195,0.055-0.398-0.049-0.455-0.25
			c-0.058-0.197,0.055-0.396,0.25-0.455C34.821,26.555,35.022,26.664,35.079,26.863z"/>
		<path fill="#FFFFFF" d="M35.491,28.119c0.069,0.195-0.026,0.398-0.217,0.469c-0.192,0.072-0.4-0.021-0.471-0.217
			c-0.072-0.193,0.027-0.4,0.219-0.471C35.213,27.83,35.42,27.928,35.491,28.119z"/>
		<path fill="#FFFFFF" d="M35.985,29.336c0.083,0.186,0.001,0.398-0.185,0.482c-0.187,0.082-0.4,0.006-0.484-0.186
			c-0.086-0.188,0-0.4,0.186-0.484S35.901,29.146,35.985,29.336z"/>
		<path fill="#FFFFFF" d="M36.564,30.518c0.1,0.184,0.031,0.402-0.149,0.496c-0.18,0.096-0.398,0.031-0.497-0.15
			c-0.096-0.18-0.025-0.4,0.151-0.498C36.25,30.271,36.471,30.338,36.564,30.518z"/>
		<path fill="#FFFFFF" d="M37.231,31.67c0.11,0.174,0.057,0.395-0.114,0.502c-0.173,0.107-0.396,0.062-0.505-0.113
			c-0.111-0.176-0.058-0.398,0.115-0.508C36.9,31.445,37.123,31.494,37.231,31.67z"/>
		<path fill="#FFFFFF" d="M37.965,32.758c0.121,0.164,0.083,0.391-0.08,0.506c-0.164,0.121-0.391,0.09-0.512-0.078
			s-0.084-0.393,0.082-0.512C37.619,32.553,37.844,32.592,37.965,32.758z"/>
		<path fill="#FFFFFF" d="M38.778,33.797c0.132,0.16,0.111,0.385-0.046,0.516c-0.155,0.131-0.383,0.113-0.517-0.043
			c-0.131-0.16-0.108-0.389,0.047-0.52C38.419,33.621,38.645,33.643,38.778,33.797z"/>
		<path fill="#FFFFFF" d="M39.66,34.783c0.144,0.148,0.137,0.373-0.011,0.514c-0.146,0.141-0.374,0.141-0.518-0.008
			c-0.143-0.15-0.138-0.379,0.011-0.52C39.289,34.629,39.518,34.635,39.66,34.783z"/>
		<path fill="#FFFFFF" d="M40.608,35.703c0.151,0.141,0.161,0.365,0.024,0.514c-0.137,0.154-0.363,0.168-0.517,0.029
			s-0.163-0.367-0.026-0.521C40.226,35.576,40.455,35.564,40.608,35.703z"/>
		<path fill="#FFFFFF" d="M41.618,36.557c0.161,0.129,0.185,0.354,0.06,0.514c-0.127,0.156-0.354,0.189-0.515,0.061
			c-0.162-0.127-0.187-0.354-0.062-0.516C41.229,36.457,41.455,36.43,41.618,36.557z"/>
		<path fill="#FFFFFF" d="M42.684,37.34c0.17,0.119,0.209,0.34,0.096,0.508c-0.116,0.168-0.34,0.215-0.51,0.1
			c-0.17-0.117-0.211-0.344-0.097-0.51C42.289,37.266,42.512,37.227,42.684,37.34z"/>
		<path fill="#FFFFFF" d="M43.791,38.047c0.178,0.102,0.233,0.322,0.129,0.498c-0.103,0.174-0.322,0.234-0.5,0.131
			c-0.177-0.104-0.234-0.326-0.131-0.504C43.393,37.998,43.613,37.941,43.791,38.047z"/>
		<path fill="#FFFFFF" d="M44.949,38.672c0.186,0.09,0.254,0.305,0.164,0.488c-0.092,0.184-0.306,0.26-0.49,0.164
			c-0.185-0.086-0.257-0.309-0.166-0.488C44.548,38.652,44.765,38.578,44.949,38.672z"/>
		<path fill="#FFFFFF" d="M46.152,39.219c0.191,0.08,0.275,0.289,0.197,0.477c-0.077,0.189-0.287,0.279-0.477,0.199
			c-0.191-0.076-0.279-0.293-0.199-0.479C45.752,39.229,45.962,39.139,46.152,39.219z"/>
		<path fill="#FFFFFF" d="M47.386,39.68c0.196,0.066,0.296,0.268,0.23,0.461c-0.063,0.193-0.267,0.299-0.462,0.232
			s-0.297-0.27-0.232-0.463C46.986,39.715,47.191,39.615,47.386,39.68z"/>
		<path fill="#FFFFFF" d="M48.656,40.057c0.199,0.051,0.312,0.25,0.263,0.445c-0.051,0.197-0.246,0.316-0.446,0.264
			c-0.199-0.051-0.312-0.252-0.263-0.447C48.26,40.121,48.457,40.006,48.656,40.057z"/>
		<path fill="#FFFFFF" d="M49.947,40.346c0.203,0.035,0.331,0.223,0.293,0.424c-0.037,0.199-0.223,0.332-0.425,0.293
			c-0.203-0.037-0.333-0.227-0.296-0.428C49.557,40.436,49.745,40.307,49.947,40.346z"/>
		<path fill="#FFFFFF" d="M51.241,40.539c0.205,0.023,0.345,0.199,0.321,0.406c-0.023,0.197-0.202,0.344-0.406,0.322
			c-0.203-0.025-0.346-0.207-0.322-0.408C50.857,40.656,51.037,40.514,51.241,40.539z"/>
		<path fill="#FFFFFF" d="M52.562,40.646c0.205,0.01,0.355,0.18,0.346,0.379c-0.008,0.205-0.176,0.361-0.379,0.354
			c-0.207-0.012-0.361-0.182-0.352-0.385C52.187,40.791,52.356,40.635,52.562,40.646z"/>
		<path fill="#FFFFFF" d="M53.891,40.662c0.205-0.004,0.368,0.154,0.371,0.357c0.005,0.205-0.15,0.371-0.357,0.375
			c-0.205,0.006-0.37-0.156-0.375-0.359C53.525,40.832,53.684,40.668,53.891,40.662z"/>
		<path fill="#FFFFFF" d="M55.204,40.59c0.206-0.02,0.378,0.129,0.396,0.332c0.019,0.201-0.124,0.379-0.331,0.398
			c-0.205,0.018-0.381-0.131-0.398-0.334C54.852,40.783,55,40.607,55.204,40.59z"/>
		<path fill="#FFFFFF" d="M56.508,40.428c0.204-0.031,0.387,0.102,0.418,0.301c0.033,0.203-0.1,0.391-0.304,0.422
			c-0.202,0.033-0.389-0.104-0.42-0.303C56.17,40.646,56.305,40.461,56.508,40.428z"/>
		<path fill="#FFFFFF" d="M57.812,40.174c0.2-0.049,0.392,0.076,0.438,0.271c0.045,0.199-0.072,0.396-0.273,0.441
			c-0.199,0.047-0.395-0.078-0.441-0.273C57.49,40.412,57.611,40.219,57.812,40.174z"/>
		<path fill="#FFFFFF" d="M59.082,39.834c0.197-0.064,0.396,0.045,0.456,0.24c0.059,0.193-0.044,0.398-0.241,0.461
			c-0.197,0.059-0.4-0.053-0.461-0.246C58.777,40.094,58.885,39.895,59.082,39.834z"/>
		<path fill="#FFFFFF" d="M60.33,39.402c0.191-0.072,0.398,0.021,0.472,0.213c0.073,0.188-0.017,0.398-0.21,0.473
			c-0.191,0.074-0.402-0.021-0.475-0.213C60.044,39.684,60.137,39.477,60.33,39.402z"/>
		<path fill="#FFFFFF" d="M61.537,38.893c0.186-0.088,0.398-0.006,0.482,0.174c0.086,0.186,0.014,0.4-0.174,0.49
			c-0.188,0.084-0.402,0.006-0.49-0.182C61.271,39.195,61.35,38.977,61.537,38.893z"/>
		<path fill="#FFFFFF" d="M62.724,38.289c0.182-0.1,0.397-0.037,0.497,0.141c0.099,0.18,0.039,0.4-0.143,0.5
			c-0.179,0.1-0.4,0.033-0.499-0.145S62.543,38.389,62.724,38.289z"/>
		<path fill="#FFFFFF" d="M63.852,37.613c0.174-0.113,0.395-0.066,0.506,0.107c0.109,0.172,0.064,0.396-0.107,0.506
			c-0.173,0.111-0.398,0.062-0.51-0.107C63.631,37.947,63.68,37.727,63.852,37.613z"/>
		<path fill="#FFFFFF" d="M64.938,36.855c0.165-0.123,0.389-0.09,0.511,0.074c0.123,0.162,0.095,0.389-0.071,0.514
			c-0.165,0.121-0.393,0.088-0.515-0.076C64.742,37.205,64.773,36.979,64.938,36.855z"/>
		<path fill="#FFFFFF" d="M65.96,36.037c0.155-0.135,0.381-0.117,0.514,0.037c0.132,0.156,0.119,0.383-0.037,0.518
			s-0.386,0.115-0.519-0.039S65.803,36.172,65.96,36.037z"/>
		<path fill="#FFFFFF" d="M66.93,35.139c0.146-0.145,0.373-0.143,0.516,0.004s0.146,0.373-0.002,0.52
			c-0.146,0.145-0.377,0.141-0.52-0.004C66.781,35.516,66.783,35.287,66.93,35.139z"/>
		<path fill="#FFFFFF" d="M67.838,34.18c0.135-0.152,0.36-0.164,0.514-0.033c0.152,0.135,0.17,0.365,0.035,0.52
			c-0.135,0.152-0.366,0.166-0.52,0.029C67.715,34.564,67.701,34.336,67.838,34.18z"/>
		<path fill="#FFFFFF" d="M68.678,33.162c0.125-0.166,0.35-0.195,0.511-0.07c0.161,0.123,0.196,0.35,0.069,0.514
			c-0.126,0.164-0.354,0.191-0.516,0.068C68.58,33.549,68.551,33.322,68.678,33.162z"/>
		<path fill="#FFFFFF" d="M69.447,32.082c0.113-0.172,0.336-0.215,0.505-0.102c0.169,0.111,0.22,0.334,0.104,0.506
			c-0.113,0.174-0.339,0.215-0.509,0.105C69.379,32.477,69.332,32.254,69.447,32.082z"/>
		<path fill="#FFFFFF" d="M70.134,30.963c0.101-0.178,0.321-0.236,0.497-0.137c0.178,0.1,0.242,0.32,0.139,0.502
			c-0.1,0.176-0.322,0.234-0.5,0.137C70.092,31.363,70.033,31.145,70.134,30.963z"/>
		<path fill="#FFFFFF" d="M70.744,29.795c0.09-0.184,0.305-0.256,0.486-0.172c0.184,0.088,0.263,0.305,0.173,0.49
			c-0.089,0.186-0.307,0.26-0.489,0.174C70.73,30.199,70.654,29.982,70.744,29.795z"/>
		<path fill="#FFFFFF" d="M71.275,28.584c0.076-0.191,0.285-0.279,0.475-0.203c0.188,0.072,0.281,0.281,0.207,0.473
			c-0.078,0.191-0.289,0.281-0.479,0.207C71.29,28.984,71.199,28.773,71.275,28.584z"/>
		<path fill="#FFFFFF" d="M71.72,27.344c0.062-0.197,0.265-0.299,0.458-0.236c0.194,0.061,0.301,0.262,0.24,0.457
			c-0.062,0.197-0.269,0.301-0.461,0.238C71.762,27.742,71.658,27.539,71.72,27.344z"/>
		<path fill="#FFFFFF" d="M72.078,26.066c0.048-0.203,0.242-0.32,0.441-0.27c0.196,0.047,0.318,0.24,0.27,0.441
			c-0.047,0.199-0.247,0.316-0.443,0.268C72.147,26.459,72.029,26.266,72.078,26.066z"/>
		<path fill="#FFFFFF" d="M72.344,24.781c0.034-0.203,0.221-0.334,0.42-0.299c0.203,0.033,0.336,0.219,0.302,0.422
			s-0.224,0.334-0.425,0.299C72.439,25.17,72.309,24.982,72.344,24.781z"/>
		<path fill="#FFFFFF" d="M72.522,23.469c0.02-0.207,0.198-0.35,0.4-0.328s0.349,0.193,0.327,0.4
			c-0.02,0.205-0.199,0.35-0.401,0.328C72.646,23.85,72.502,23.672,72.522,23.469z"/>
		<path fill="#FFFFFF" d="M72.609,22.156c0.006-0.205,0.172-0.359,0.375-0.35c0.205,0.004,0.361,0.17,0.357,0.375
			c-0.007,0.207-0.178,0.361-0.381,0.355C72.759,22.527,72.602,22.363,72.609,22.156z"/>
		<path fill="#FFFFFF" d="M72.607,20.828c-0.008-0.205,0.146-0.369,0.352-0.379c0.203-0.006,0.373,0.145,0.381,0.352
			c0.006,0.207-0.153,0.375-0.355,0.383C72.781,21.191,72.613,21.035,72.607,20.828z"/>
		<path fill="#FFFFFF" d="M72.517,19.52c-0.022-0.205,0.122-0.381,0.325-0.4c0.202-0.021,0.382,0.117,0.403,0.324
			c0.022,0.205-0.126,0.383-0.327,0.402C72.715,19.869,72.537,19.723,72.517,19.52z"/>
		<path fill="#FFFFFF" d="M72.335,18.207c-0.036-0.203,0.097-0.387,0.296-0.422c0.2-0.035,0.389,0.092,0.426,0.295
			c0.035,0.205-0.1,0.389-0.3,0.428C72.557,18.541,72.369,18.41,72.335,18.207z"/>
		<path fill="#FFFFFF" d="M72.063,16.924c-0.048-0.201,0.07-0.391,0.267-0.441c0.198-0.048,0.395,0.065,0.445,0.267
			c0.049,0.2-0.071,0.396-0.27,0.445C72.309,17.244,72.111,17.126,72.063,16.924z"/>
		<path fill="#FFFFFF" d="M71.701,15.647c-0.063-0.195,0.041-0.395,0.235-0.458c0.194-0.064,0.398,0.039,0.462,0.234
			c0.062,0.196-0.043,0.402-0.237,0.463C71.967,15.947,71.764,15.843,71.701,15.647z"/>
		<path fill="#FFFFFF" d="M71.254,14.409c-0.076-0.191,0.014-0.399,0.203-0.474c0.19-0.077,0.4,0.01,0.476,0.2
			c0.077,0.191-0.013,0.402-0.202,0.48C71.541,14.689,71.33,14.599,71.254,14.409z"/>
		<path fill="#FFFFFF" d="M70.719,13.197c-0.088-0.184-0.014-0.398,0.17-0.485c0.184-0.09,0.401-0.017,0.49,0.166
			c0.09,0.188,0.013,0.405-0.17,0.493C71.024,13.458,70.811,13.383,70.719,13.197z"/>
		<path fill="#FFFFFF" d="M70.104,12.033c-0.103-0.18-0.039-0.397,0.137-0.498s0.398-0.043,0.501,0.134
			c0.102,0.18,0.04,0.401-0.137,0.501C70.429,12.271,70.207,12.211,70.104,12.033z"/>
		<path fill="#FFFFFF" d="M69.414,10.917c-0.115-0.171-0.068-0.394,0.102-0.506c0.17-0.111,0.394-0.072,0.508,0.101
			c0.115,0.17,0.067,0.395-0.102,0.509C69.753,11.133,69.53,11.088,69.414,10.917z"/>
		<path fill="#FFFFFF" d="M68.643,9.84c-0.128-0.163-0.096-0.386,0.064-0.509c0.161-0.125,0.389-0.1,0.514,0.063
			c0.126,0.163,0.096,0.391-0.065,0.516C68.992,10.034,68.767,10.005,68.643,9.84z"/>
		<path fill="#FFFFFF" d="M67.798,8.823c-0.136-0.155-0.122-0.381,0.03-0.517c0.152-0.134,0.381-0.123,0.518,0.029
			c0.137,0.155,0.122,0.385-0.03,0.521C68.162,8.989,67.935,8.975,67.798,8.823z"/>
		<path fill="#FFFFFF" d="M66.889,7.864C66.74,7.721,66.74,7.495,66.884,7.35s0.372-0.152,0.519-0.007
			c0.147,0.146,0.147,0.375,0.005,0.519C67.264,8.007,67.035,8.01,66.889,7.864z"/>
		<path fill="#FFFFFF" d="M65.916,6.972c-0.156-0.134-0.173-0.361-0.041-0.514c0.133-0.154,0.361-0.176,0.516-0.041
			c0.158,0.133,0.174,0.363,0.043,0.516C66.3,7.087,66.072,7.106,65.916,6.972z"/>
		<path fill="#FFFFFF" d="M64.881,6.147c-0.166-0.123-0.196-0.348-0.076-0.511c0.123-0.164,0.348-0.199,0.514-0.077
			c0.164,0.123,0.197,0.352,0.076,0.515C65.273,6.239,65.047,6.271,64.881,6.147z"/>
		<path fill="#FFFFFF" d="M63.804,5.402c-0.175-0.111-0.22-0.332-0.11-0.504c0.11-0.171,0.333-0.226,0.506-0.113
			c0.173,0.111,0.22,0.337,0.109,0.509C64.199,5.466,63.977,5.514,63.804,5.402z"/>
		<path fill="#FFFFFF" d="M62.662,4.723c-0.182-0.101-0.244-0.317-0.146-0.495c0.099-0.179,0.316-0.246,0.498-0.146
			c0.182,0.098,0.242,0.319,0.146,0.499C63.062,4.759,62.842,4.822,62.662,4.723z"/>
		<path fill="#FFFFFF" d="M61.482,4.129c-0.186-0.086-0.263-0.298-0.178-0.484c0.085-0.186,0.299-0.266,0.485-0.181
			c0.187,0.088,0.266,0.302,0.18,0.488C61.885,4.138,61.672,4.217,61.482,4.129z"/>
		<path fill="#FFFFFF" d="M60.275,3.621c-0.194-0.07-0.283-0.28-0.213-0.471c0.072-0.188,0.279-0.285,0.473-0.214
			c0.191,0.076,0.285,0.286,0.213,0.476C60.675,3.603,60.467,3.695,60.275,3.621z"/>
		<path fill="#FFFFFF" d="M59.026,3.197c-0.198-0.06-0.304-0.26-0.243-0.455c0.057-0.195,0.258-0.306,0.454-0.246
			c0.197,0.06,0.304,0.264,0.246,0.458C59.424,3.148,59.223,3.257,59.026,3.197z"/>
		<path fill="#FFFFFF" d="M57.754,2.86c-0.201-0.046-0.319-0.238-0.274-0.436c0.044-0.199,0.235-0.325,0.437-0.279
			c0.201,0.045,0.322,0.244,0.277,0.441C58.148,2.784,57.954,2.907,57.754,2.86z"/>
		<path fill="#FFFFFF" d="M56.447,2.609c-0.203-0.033-0.335-0.216-0.304-0.417c0.032-0.202,0.214-0.34,0.417-0.307
			c0.205,0.031,0.338,0.22,0.307,0.42C56.836,2.506,56.652,2.64,56.447,2.609z"/>
		<path fill="#FFFFFF" d="M55.143,2.453c-0.204-0.019-0.35-0.193-0.332-0.396C54.829,1.854,55,1.704,55.207,1.723
			c0.205,0.018,0.352,0.193,0.334,0.397C55.525,2.323,55.349,2.469,55.143,2.453z"/>
	</g>
	<g>
		<path fill="#FFFFFF" d="M66.604,22.068c-0.016-0.014-0.306-0.33-0.861-0.922c0.045-0.25,0.068-0.537,0.102-0.934l0.051-0.617
			l-0.263,0.131c-0.079,0.041-0.325,0.314-0.614,0.648c-0.623-0.664-1.429-1.512-2.412-2.543c0.003-1.089,0.006-1.968,0.008-2.656
			c1.887,1.39,3.428,2.521,3.428,2.521c0.098,0.073,0.206-0.086,0.088-0.179c-0.668-0.508-1.972-1.469-3.515-2.607
			c0-0.853,0-1.363,0-1.507c0-0.189,0.013-0.587-0.177-0.464c-0.357,0.237-1.979-0.062-2.02-0.05
			c-0.148,0.042-0.283,0.068-0.419,0.1c-1.438-1.059-2.907-2.139-4.171-3.072c-0.303-0.226-0.414-0.077-0.12,0.154
			c0.222,0.176,1.999,1.489,4.022,2.981c-0.637,0.119-1.15,0.134-1.623,0.104c-0.734-0.76-1.514-1.562-2.342-2.411
			c-0.248-0.247-0.427-0.1-0.193,0.158c0.041,0.042,0.89,0.942,2.102,2.213c-0.389-0.047-0.758-0.108-1.143-0.15
			c-0.229-0.322-0.448-0.624-0.654-0.905c-0.383-0.518-0.435-0.178-0.203,0.156c0.121,0.175,0.287,0.424,0.484,0.719
			c-0.236-0.011-0.484-0.012-0.754,0.008c-0.039-0.106-0.074-0.212-0.107-0.308c-0.145-0.41-0.426-0.54-0.233,0.121
			c0.024,0.081,0.046,0.163,0.071,0.242c-0.137,0.042-0.355,0.105-0.592,0.204c-0.07-0.412-0.148-0.83-0.224-1.236
			c-0.079-0.431-0.288-0.4-0.22,0.048c0.07,0.435,0.136,0.868,0.206,1.3c-0.28,0.144-0.552,0.338-0.714,0.6
			c-0.008-0.735-0.02-1.441-0.029-2.106c-0.014-0.689-0.199-0.416-0.205,0c-0.004,0.493-0.01,1.159-0.014,1.941
			c-0.188-0.253-0.506-0.441-0.82-0.574c0.062-0.379,0.12-0.757,0.181-1.141c0.071-0.45-0.142-0.479-0.222-0.048
			c-0.067,0.363-0.135,0.731-0.201,1.1c-0.248-0.083-0.473-0.13-0.59-0.137c0.018-0.053,0.033-0.112,0.051-0.169
			c0.187-0.668-0.088-0.537-0.229-0.12c-0.03,0.089-0.064,0.189-0.098,0.292c-0.281,0.007-0.539,0.014-0.782,0.02
			c0.202-0.305,0.373-0.558,0.495-0.735c0.23-0.334,0.178-0.675-0.202-0.16c-0.206,0.279-0.425,0.583-0.651,0.904
			c-0.394,0.012-0.74,0.026-1.037,0.039c1.152-1.212,1.956-2.059,1.992-2.098c0.236-0.261,0.057-0.407-0.191-0.159
			c-0.783,0.8-1.518,1.555-2.216,2.277c-1.117,0.054-1.503,0.106-1.868,0.118c2.068-1.528,3.912-2.892,4.141-3.071
			c0.294-0.231,0.182-0.378-0.123-0.154c-1.322,0.982-2.87,2.119-4.372,3.223c-0.05-0.002-0.103-0.004-0.157-0.007
			c-0.097-0.004-0.15,0.009-0.312,0.014c-0.368,0.006-1.257,0.017-1.505-0.009c-0.085-0.008-0.243-0.073-0.293-0.076
			c-0.191-0.005-0.218,0.107-0.219,0.296c0,0.065,0,0.669,0.001,1.606c-1.511,1.111-2.783,2.053-3.442,2.555
			c-0.118,0.087-0.008,0.249,0.09,0.179c0,0,1.498-1.102,3.355-2.469c0.001,0.739,0.003,1.66,0.008,2.675
			c-2.555,2.678-3.893,4.131-3.926,4.163c-0.184,0.178-0.021,0.291,0.123,0.154c0.562-0.527,2.076-2.084,3.805-3.877
			c0,1.281,0.006,2.689,0.012,4.08c-1.394,2.248-2.391,3.904-2.407,3.934c-0.229,0.324-0.179,0.516,0.055,0.236
			c0.052-0.066,1.036-1.592,2.354-3.635c0.002,0.863,0.009,1.707,0.014,2.504c-0.344,0.033-0.805,0.133-0.965,0.332
			c-0.184,0.23-0.133,0.455-0.163,0.799c-0.019,0.213-0.062,0.527-0.118,0.686c-0.103,0.27-0.326,0.453-0.488,0.623
			c-0.146,0.146-0.24,0.385-0.334,0.605c-0.163,0.381,0.077,0.906,0.306,1.332c0.11,0.203,0.383,0.463,0.61,0.5
			c0.906,0.156,1.031-0.488,1.165-0.832c0.008-0.023,0.013-0.037,0.021-0.059c0.012,0.598,0.02,0.963,0.029,0.984
			c0.014,0.023,0.472,0.008,1.164-0.021c-0.168,0.49-0.267,0.777-0.271,0.791c-0.167,0.566,0.112,0.373,0.186,0.162
			c0.113-0.316,0.229-0.639,0.344-0.961c0.617-0.029,1.373-0.064,2.158-0.1c0.167,0.238,0.482,0.613,0.613,0.863l0.151,0.273
			l0.099,0.178c0.11,0.201,0.217,0.387,0.33,0.564c-0.087,0.504-0.141,0.814-0.156,0.883c-0.186,0.791-0.023,0.852,0.178,0.109
			c0.01-0.033,0.062-0.295,0.15-0.734c0.092,0.137,0.188,0.277,0.301,0.42c0.248,0.324,0.775,0.656,1.996,1.205
			c0.473,0.211,1.125,0.334,1.859,0.365c0.027,0.609,0.194,0.451,0.202,0.008c0.956,0.016,2.032-0.125,3.05-0.471l0.009-0.004
			l0.007-0.004c0.562-0.264,0.944-0.578,1.189-0.842c0.006,0.012,0.01,0.031,0.01,0.039c0.203,0.74,0.367,0.682,0.183-0.111
			c-0.005-0.02-0.016-0.064-0.024-0.121c0.143-0.182,0.214-0.314,0.226-0.348c0.065-0.129,0.601-1.291-0.05-2.139
			c-0.011-0.008-0.023-0.018-0.033-0.027l0.002-0.006c-0.016-0.012-0.031-0.021-0.047-0.037c-0.035-0.035-0.078-0.064-0.115-0.1
			c1.22,0.053,2.525,0.115,3.434,0.148c0.088,0.25,0.182,0.504,0.271,0.75c0.074,0.207,0.361,0.395,0.193-0.166
			c-0.004-0.012-0.076-0.219-0.203-0.574c0.535,0.02,0.881,0.029,0.892,0.008c0.003-0.424,0.009-0.84,0.011-1.248
			c0.756-0.133,1.014-0.32,1.508-0.77c0.572-0.525,0.943-1.223,0.918-1.939c0.036,0.057,0.059,0.086,0.064,0.098
			c0.235,0.279,0.283,0.086,0.056-0.238c-0.007-0.008-0.077-0.127-0.205-0.338c-0.11-0.393-0.323-0.74-0.624-1.021
			c-0.276-0.461-0.621-1.021-1.01-1.65c0.406-0.051,0.828-0.178,1.154-0.318c0.364-0.164,0.912-0.598,1.172-1.248l0.045-0.119
			c0.031-0.076,0.053-0.152,0.076-0.23c0.342,0.346,0.623,0.627,0.799,0.789C66.622,22.357,66.787,22.244,66.604,22.068z
			 M64.842,20.58c-0.206,0.244-0.418,0.496-0.6,0.707c-0.066-0.252-0.127-0.732-0.184-1.066c-0.047-0.279-0.129-0.486-0.213-0.664
			C64.201,19.924,64.532,20.266,64.842,20.58z M62.603,18.27c0.267,0.275,0.526,0.545,0.78,0.811l0.012,0.115
			c0.094,0.926-0.08,1.643-0.219,2.098c-0.135,0.439-0.241,0.596-0.456,0.707c-0.042,0.018-0.089,0.039-0.138,0.055
			C62.593,20.613,62.596,19.352,62.603,18.27z M61.885,13.559c0.025-0.189,0.336-0.256,0.387,0.077
			c0.045,0.171,0.041,4.382,0.008,8.511c-0.127,0.027-0.255,0.043-0.375,0.031c-0.004-0.004-0.01-0.004-0.016-0.004
			C61.892,18.002,61.879,13.643,61.885,13.559z M61.303,13.545c-0.006-0.133,0.297-0.181,0.278,0.09
			c0.021,0.07-0.014,4.315-0.06,8.419c-0.05-0.023-0.098-0.043-0.141-0.062c-0.006-0.07-0.016-0.127-0.016-0.127
			c-0.008-0.438,0.189-0.488,0.012-0.695c-0.039-0.049-0.122-0.088-0.202-0.117C61.224,17.151,61.272,13.612,61.303,13.545z
			 M60.557,13.356c0.077-0.259,0.312-0.069,0.305,0.024c-0.005,0.096-0.024,3.826-0.048,7.655c-0.096,0.016-0.216,0.037-0.324,0.061
			C60.499,18.881,60.521,16.272,60.557,13.356z M60.486,21.246c0.02-0.004,0.038-0.01,0.047-0.012c0,0,0.405-0.133,0.514-0.045
			c0.146,0.115,0.1,0.646,0.102,0.83c0,0-0.01,0.088,0.012,0.193v-0.006c0,0.002,0,0.006,0,0.006l0,0
			c0.006,0.037,0.02,0.078,0.038,0.117c0.07,0.146,0.204,0.213,0.218,0.266c-0.09-0.029-0.17-0.045-0.252-0.068
			c-0.002,0-0.004-0.002-0.011-0.004l0,0c-0.12-0.031-0.236-0.055-0.347-0.072v0.002c-0.113-0.018-0.222-0.027-0.324-0.031v-0.004
			c-0.095-0.002-0.182-0.002-0.268,0v0.01c-0.252,0.018-0.461,0.072-0.629,0.146c-0.002,0.002-0.008,0.004-0.013,0.008
			c-0.072,0.035-0.132,0.074-0.187,0.113c-0.013,0.008-0.023,0.014-0.033,0.021c-0.057,0.045-0.105,0.094-0.142,0.143
			c-0.091,0.127-0.159,0.268-0.209,0.414c-0.032-0.152-0.205-0.338-0.205-0.461c0-0.49,0.294-0.83,0.523-1.014
			c0.075-0.061,0.151-0.111,0.228-0.16c0.021-0.018,0.044-0.029,0.067-0.043c0.055-0.029,0.105-0.059,0.157-0.086
			c0.023-0.012,0.045-0.023,0.068-0.033c0.051-0.027,0.102-0.049,0.147-0.068c0.019-0.006,0.036-0.014,0.054-0.02
			C60.242,21.312,60.398,21.271,60.486,21.246z M61.449,22.865c0.021,0.016,0.042,0.029,0.062,0.041
			c-0.002,0.367-0.006,0.736-0.011,1.094c-0.144,0.004-0.263,0.029-0.365,0.064c0.003-0.434,0.011-0.873,0.016-1.312
			c0.068,0.025,0.136,0.047,0.204,0.076L61.449,22.865z M60.805,22.652c-0.003,0.533-0.006,1.057-0.009,1.564
			c-0.022,0.01-0.043,0.021-0.065,0.033c-0.054,0.029-0.154,0.07-0.252,0.104c0-0.543,0-1.123,0.002-1.748
			C60.585,22.609,60.691,22.625,60.805,22.652z M60.215,22.617c-0.004,0.633-0.006,1.248-0.008,1.818
			c-0.049,0.016-0.092,0.023-0.112,0.027c-0.476,0.033-0.731-0.15-0.788-0.268c-0.027-0.051-0.069-0.111-0.111-0.213
			s-0.05-0.27-0.05-0.277c0-0.236,0.128-0.395,0.354-0.688C59.678,22.789,59.92,22.656,60.215,22.617z M53.68,14.265
			c0.08-0.868,2.374-1.17,2.787-1.064c0.369,0.082,1.002,0.211,1.299,0.26c0,0,1.295,0.307,2.46-0.122c0,0.206,0,4.084-0.009,7.813
			c-0.218,0.047-0.695,0.172-1.041,0.469c-0.372,0.314-0.611,0.672-0.611,1.168c0,0.338,0.111,0.639,0.289,1.078
			c0.098,0.244,0.166,0.51,0.172,0.516c0.206,0.35,0.159,0.641,0.218,0.938c0.099,0.504,0.405,0.586,0.526,0.615
			c0.149,0.039,0.289,0.076,0.43,0.107c0,0.211-0.002,0.402-0.002,0.586c-0.037-0.004-0.066-0.006-0.103-0.008
			c-0.763-0.064-1.054-0.182-1.495-0.398l-0.521-0.305c-0.91-0.42-2.133-0.391-2.758-0.129c-0.33,0.135-0.524,0.23-0.697,0.473
			l-0.046,0.062l0.024,0.078c0.056,0.18,0.199,0.371,0.264,0.512c0.061,0.135,0.041,0.428,0.035,0.529
			c-0.008,0.24-0.202,0.479-0.275,0.555l0.024-0.014c-0.216,0.123-0.3,0.406-0.333,0.758c-0.248,0.107-0.439,0.227-0.608,0.346
			C53.708,29.088,53.6,14.278,53.68,14.265z M56.051,29.264c0.043,0.092,0.104,0.176,0.172,0.25
			c0.074,0.082,0.164,0.156,0.262,0.225c0.104,0.07,0.215,0.139,0.33,0.203c0.051,0.027,0.099,0.053,0.146,0.08
			c0.085,0.045,0.166,0.092,0.25,0.143c-0.078,0.002-0.156,0.008-0.247,0.018l-0.381,0.031c-0.083,0.002-0.151,0.012-0.22,0.018l0,0
			c-0.002,0-0.006,0-0.006,0c-0.221,0.023-0.398,0.033-0.692-0.02c-0.001,0-0.003,0-0.003,0l0,0c-0.09-0.016-0.184-0.035-0.3-0.064
			c-0.174-0.047-0.319-0.131-0.436-0.238l0,0c0,0,0,0-0.001-0.004c-0.133-0.121-0.23-0.273-0.294-0.443
			c-0.026-0.08-0.05-0.154-0.063-0.236v-0.002c-0.012-0.08-0.021-0.154-0.021-0.23c0-0.008,0-0.01,0-0.01
			c0-0.139,0.018-0.252,0.04-0.352l0,0c0.018-0.082,0.044-0.15,0.08-0.211c0.004-0.006,0.009-0.012,0.012-0.021
			c0.035-0.057,0.078-0.104,0.131-0.137c0.019-0.008,0.035-0.023,0.053-0.043c0.082-0.021,0.168-0.031,0.26-0.035
			c0.055-0.004,0.116,0,0.177,0.004c0.038,0.002,0.071,0,0.109,0.002c0.088,0.008,0.183,0.025,0.281,0.039
			c0.008,0.002,0.015,0.002,0.022,0.002c0.131,0.023,0.264,0.055,0.4,0.088c-0.024,0.053-0.033,0.098-0.051,0.148
			c-0.025,0.074-0.049,0.145-0.064,0.213c-0.014,0.074-0.028,0.152-0.028,0.219C55.97,29.039,55.998,29.156,56.051,29.264z
			 M56.186,28.855c0.008-0.123,0.047-0.264,0.111-0.424c0.05-0.006,0.1-0.012,0.15-0.018c0.305,0.092,0.618,0.195,0.934,0.311
			C56.971,28.758,56.566,28.803,56.186,28.855z M58.506,29.086c0.396,0.109,0.827,0.197,1.298,0.252
			c-0.997,0.033-2.245,0.096-3.272,0.158c-0.111-0.08-0.197-0.162-0.254-0.256C57.012,29.174,57.789,29.119,58.506,29.086z
			 M56.58,30.539c0.009,0.139-0.025,0.268-0.141,0.361c-0.681,0.561-1.22,0.676-2.498,0.504c-0.129-0.02-0.252-0.039-0.367-0.066
			c0.004-0.248,0.008-0.504,0.01-0.75c0.34-0.01,0.715-0.1,1.068-0.354c0.031-0.014,0.137-0.023,0.295-0.025
			c0.133,0.076,0.287,0.139,0.459,0.186C56.037,30.559,56.131,30.562,56.58,30.539z M54.322,29.332
			c-0.009,0.006-0.021,0.008-0.028,0.014l-0.255-0.141c0.102-0.041,0.184-0.086,0.263-0.127c0,0.002,0,0.004,0,0.006
			C54.302,29.174,54.309,29.252,54.322,29.332z M53.529,29.359c0.611,0.021,0.951,0.623,0.902,0.674
			c-0.443,0.482-1.344,0.506-1.736,0.02C52.619,29.955,53.023,29.381,53.529,29.359z M52.631,29.613
			c0.121,0.027-0.115,0.113-0.115,0.113c-0.291-0.053-0.826-0.102-1.477-0.141c-0.008-0.025-0.02-0.047-0.029-0.068
			c-0.014-0.041-0.024-0.076-0.037-0.111C51.699,29.461,52.306,29.533,52.631,29.613z M50.86,29.055
			c-0.044-0.113-0.093-0.229-0.171-0.342c0.783,0.117,2.039,0.328,2.321,0.547c-0.152,0.072,0.024-0.039-0.206,0.162
			C52.57,29.271,51.8,29.15,50.86,29.055z M52.135,29.865c0.095,0.014,0.293,0.014,0.213,0.178c0.014-0.021-0.421-0.031-1.092-0.035
			c-0.037-0.059-0.074-0.109-0.105-0.178C51.627,29.838,51.984,29.85,52.135,29.865z M52.387,30.262
			c0.354,0.113,0.565,0.258,0.901,0.307c0,0.227,0,0.455,0.001,0.682c-0.256-0.086-0.49-0.193-0.731-0.33
			c0,0-0.298-0.15-0.702-0.342c-0.18-0.086-0.33-0.215-0.455-0.369C51.906,30.207,52.266,30.225,52.387,30.262z M46.547,13.508
			c0.012-0.111-0.014-0.156,0.17-0.152c2.477,0.041,6.275-0.885,6.626,0.886c0,0.071,0.082,11.367,0.035,14.838
			c-0.825-0.326-1.462-0.453-2.88-0.631l-0.244-0.336c-0.271-0.4-0.344-0.557-0.541-0.705l-0.523-0.494
			c-0.278-0.23-0.604-0.561-0.672-0.602c-0.774-0.516-1.438-0.773-2.002-0.896C46.586,18.375,46.486,14.33,46.547,13.508z
			 M46.102,13.734c0.004-0.375,0.202-0.354,0.176-0.092c0.025,0.382-0.008,4.296-0.094,11.717c-0.09-0.012-0.185-0.025-0.27-0.031
			C45.978,21.033,46.088,14.275,46.102,13.734z M45.387,13.636c-0.035-0.194,0.198-0.266,0.205-0.027
			c0.025,0.095-0.064,7.171-0.079,11.724c-0.096,0.008-0.188,0.018-0.274,0.027C45.255,20.752,45.352,13.712,45.387,13.636z
			 M44.588,13.545c0.021-0.251,0.379-0.133,0.371,0.139c-0.042,4.937-0.098,8.966-0.111,11.759l-0.088,0.02c0,0-0.088,0-0.186,0.002
			C44.586,20.539,44.582,13.646,44.588,13.545z M43.592,29.934c-0.195,0.164-0.362,0.225-0.623,0.18
			c-0.17,0-0.457-0.354-0.624-0.732c-0.056-0.143-0.056-0.332-0.047-0.605c0.004-0.082,0.015-0.15,0.038-0.205
			c0.039-0.096,0.095-0.174,0.16-0.252c0.09,0.135,0.262,0.238,0.444,0.342l0.36,0.225c0.209,0.156,0.517,0.256,0.748,0.279
			C43.995,29.367,43.854,29.717,43.592,29.934z M44.029,28.869c-0.066,0.002-0.32,0.023-0.683-0.145l-0.328-0.188
			c-0.194-0.232-0.263-0.357-0.263-0.414c0-0.01,0-0.021,0.025-0.041c0.18-0.162,0.904-0.16,1.391-0.109
			c0.003,0.312,0.008,0.6,0.01,0.861C44.123,28.844,44.047,28.859,44.029,28.869z M44.609,29.982
			c-0.035-0.119-0.047-0.852-0.047-1.025c0.002-0.287,0.002-0.625,0.004-0.986c0.089,0.004,0.184,0.008,0.281,0.023
			c0.012,1.115,0.045,1.736,0.111,1.771c0.053,0.027,1.194,0.039,2.557,0.043c0.006,0.008,0.012,0.016,0.016,0.02
			c0,0,0.066,0.1,0.08,0.117c0.006,0.018,0.021,0.049,0.037,0.082C46.033,30.039,44.623,30.037,44.609,29.982z M47.082,29.191
			c0.045,0.053,0.104,0.135,0.166,0.223c-1.088-0.043-1.916-0.086-1.959-0.131c-0.025-0.023-0.039-0.48-0.047-1.219
			c0.091,0.02,0.184,0.043,0.279,0.072c0.009,0.596,0.021,0.957,0.043,0.969C45.605,29.125,46.223,29.15,47.082,29.191z
			 M45.875,28.27c0.1,0.045,0.197,0.098,0.296,0.15c0.003,0.018,0.009,0.021,0.017,0.012c0.191,0.107,0.377,0.238,0.547,0.395
			c-0.531-0.004-0.875,0-0.862,0.023C45.867,28.809,45.872,28.598,45.875,28.27z M58.242,31.367c0,0.084-0.014,0.178-0.031,0.273
			c-0.004,0.023-0.008,0.045-0.012,0.066C58.182,31.805,58.155,31.9,58.125,32c0,0.002,0,0.006,0,0.008
			c-0.029,0.098-0.066,0.197-0.104,0.289c-0.003,0.018-0.013,0.035-0.021,0.053c-0.035,0.094-0.072,0.182-0.113,0.262l0,0
			c-0.052,0.109-0.105,0.195-0.149,0.25c-0.253,0.324-0.595,0.555-1.44,0.955c-0.238,0.08-0.477,0.15-0.713,0.211
			c-0.045,0.008-0.087,0.018-0.133,0.025c-0.195,0.049-0.388,0.088-0.579,0.119c-0.026,0.004-0.055,0.008-0.083,0.012
			c-0.207,0.029-0.412,0.055-0.611,0.07c-0.008,0-0.015,0.002-0.024,0.002c-0.214,0.014-0.423,0.018-0.624,0.014
			c-0.001,0-0.004,0-0.004,0c-0.203-0.002-0.399-0.016-0.586-0.039c-0.036-0.004-0.07-0.008-0.106-0.018
			c-0.104-0.01-0.205-0.027-0.301-0.047c-0.067-0.014-0.13-0.029-0.191-0.047c-0.07-0.016-0.144-0.033-0.21-0.055
			c-0.132-0.041-0.259-0.084-0.375-0.137c-1.136-0.506-1.908-0.877-2.248-1.338c-0.109-0.143-0.196-0.287-0.289-0.432
			c-0.055-0.092-0.119-0.189-0.172-0.279c-0.101-0.174-0.197-0.348-0.302-0.535l-0.101-0.18l-0.146-0.271
			c-0.105-0.195-0.217-0.395-0.334-0.582c-0.038-0.068-0.076-0.135-0.121-0.201c-0.014-0.029-0.146-0.316-0.146-0.316l-0.013-0.023
			l-0.083-0.119c-0.052-0.08-0.103-0.154-0.153-0.229c-0.052-0.076-0.101-0.146-0.147-0.213c-0.103-0.146-0.195-0.262-0.253-0.316
			l-0.008-0.008c-0.02-0.021-0.055-0.051-0.081-0.076c-0.061-0.059-0.136-0.117-0.227-0.182c-0.001,0-0.005,0-0.009-0.006
			c-0.102-0.072-0.221-0.146-0.352-0.221l0,0c-0.137-0.074-0.276-0.146-0.428-0.221c-0.088-0.039-0.174-0.08-0.265-0.115
			c-0.12-0.053-0.243-0.102-0.364-0.15c-0.092-0.029-0.184-0.057-0.275-0.084c-0.139-0.043-0.27-0.078-0.401-0.104
			c-0.093-0.02-0.184-0.043-0.27-0.051c-0.112-0.012-0.222-0.025-0.317-0.021c-0.033,0.004-0.051,0.004-0.082,0.004l0,0
			c-0.577,0.02-0.679-0.031-0.863-0.031c-0.003,0-0.004,0-0.006,0c-0.023,0-0.052,0.004-0.081,0.004
			c-0.01,0.002-0.021,0.002-0.028,0.004c-0.043,0.006-0.092,0.01-0.148,0.018c0.037-0.064,0.072-0.137,0.105-0.219
			c0.071-0.195,0.03-0.467,0.047-0.701c0.025-0.293,0.141-0.639,0.268-0.779c0.039-0.045,0.094-0.078,0.156-0.1
			c0.02-0.006,0.043-0.012,0.062-0.016c0.047-0.01,0.097-0.021,0.148-0.029c0.023-0.002,0.049-0.006,0.07-0.006
			c0.069-0.006,0.139-0.006,0.208-0.006c0.075,0,0.151,0,0.224-0.004l0.242-0.023l0.062-0.006l0.203-0.049
			c0.002-0.002,0.002-0.002,0.008-0.002c0.211-0.047,0.426-0.098,0.656-0.129c0.001,0,0.006,0,0.008-0.002
			c0.129-0.02,0.26-0.031,0.398-0.031c0.004,0,0.008,0,0.009,0c0.187,0,0.386,0.016,0.597,0.062l0,0
			c0.115,0.025,0.234,0.059,0.36,0.102c0.017,0.006,0.036,0.014,0.056,0.021c0.119,0.043,0.242,0.1,0.373,0.164
			c0.023,0.014,0.049,0.027,0.071,0.037c0.132,0.068,0.269,0.152,0.409,0.244c0.02,0.014,0.043,0.029,0.063,0.043
			c0.151,0.1,0.306,0.215,0.47,0.348l0.012,0.008l0.021,0.01c0.041,0.025,0.244,0.189,0.421,0.336l0.698,0.553
			c0.15,0.115,0.439,0.543,0.672,0.885l0.188,0.277c0.156,0.225,0.266,0.523,0.373,0.811c0.016,0.037,0.029,0.076,0.045,0.117
			c0.037,0.086,0.072,0.174,0.116,0.26c0.03,0.061,0.062,0.121,0.093,0.18c0.04,0.072,0.082,0.141,0.124,0.205
			c0.041,0.062,0.084,0.123,0.132,0.182c0.002,0.004,0.004,0.006,0.006,0.01c0.045,0.053,0.089,0.104,0.137,0.146
			c0.006,0.008,0.014,0.016,0.02,0.027c0.043,0.039,0.09,0.078,0.139,0.111c0.012,0.01,0.021,0.021,0.033,0.029
			c0.059,0.041,0.119,0.076,0.183,0.107l0.394,0.219c0.169,0.092,0.34,0.184,0.521,0.268c0.014,0.006,0.027,0.012,0.044,0.02
			c0.186,0.084,0.386,0.162,0.601,0.215c0.09,0.021,0.186,0.043,0.283,0.057c0.027,0.004,0.047,0.014,0.074,0.016
			c1.396,0.188,2.561-0.004,3.029-0.496c0.164-0.176,0.237-0.383,0.226-0.609l0.093-0.006c0.451-0.047,0.627-0.061,0.875,0.156
			c0,0.004,0.001,0.004,0.001,0.004C58.057,30.91,58.242,31.102,58.242,31.367z M62.156,30.123
			c-0.117-0.047-2.687-0.121-4.749-0.166c-0.136-0.072-0.28-0.145-0.434-0.215c2.016,0.02,4.192,0.033,4.853,0
			c0.01-0.025,0.017-0.18,0.024-0.434l0.331-0.047c0.004,0,0.004,0,0.01,0C62.178,29.697,62.168,30,62.156,30.123z M64.235,25.443
			c0.191,0.252,0.323,0.549,0.376,0.873c0.11,0.684,0.079,1.244-0.47,1.76c-0.075,0.068-0.14,0.131-0.204,0.189
			c-0.043,0.039-0.082,0.07-0.119,0.105c-0.024,0.02-0.047,0.039-0.068,0.061c-0.041,0.033-0.082,0.066-0.121,0.098
			c-0.021,0.014-0.037,0.029-0.057,0.043c-0.041,0.031-0.084,0.059-0.127,0.082c-0.016,0.01-0.036,0.025-0.053,0.033
			c-0.043,0.025-0.088,0.055-0.137,0.072c-0.017,0.01-0.037,0.02-0.053,0.027c-0.05,0.021-0.102,0.043-0.154,0.057
			c-0.019,0.012-0.039,0.02-0.058,0.021c-0.058,0.02-0.116,0.037-0.183,0.055c-0.014,0.004-0.035,0.008-0.051,0.012
			c-0.073,0.016-0.148,0.033-0.227,0.049c-0.004,0.002-0.004,0.002-0.004,0.002c-0.088,0.012-0.179,0.027-0.283,0.045l-0.389,0.053
			c0,0,0,0-0.002,0c-0.146,0.021-0.285,0.029-0.428,0.047h-0.004c-0.185,0.016-0.367,0.023-0.551,0.029c-0.008,0-0.015,0-0.025,0
			c-0.176,0.006-0.351,0.006-0.519-0.002c-0.017,0-0.026-0.004-0.042-0.004c-0.17-0.008-0.332-0.016-0.496-0.031
			c-0.01,0-0.021-0.002-0.032-0.002c-0.863-0.094-1.629-0.305-2.218-0.572c-0.144-0.064-0.288-0.129-0.434-0.189
			c-0.119-0.049-0.24-0.096-0.358-0.139l0,0c-0.3-0.115-0.595-0.205-0.876-0.27c-0.018-0.008-0.034-0.008-0.051-0.012
			c-0.11-0.023-0.217-0.041-0.323-0.053c-0.03-0.006-0.062-0.006-0.093-0.01c-0.118-0.012-0.238-0.02-0.348-0.012
			c0.075-0.191,0.135-0.418,0.135-0.598c0-0.039-0.003-0.082-0.012-0.119c-0.027-0.133-0.092-0.275-0.158-0.422
			c-0.054-0.109-0.104-0.229-0.15-0.355c0.129-0.156,0.197-0.275,0.436-0.377c0.475-0.197,1.554-0.314,2.431,0.092l0.634,0.266
			c0.448,0.225,0.837,0.42,1.659,0.5c0.161,0.018,0.306,0.023,0.45,0.035c0.096,0.008,0.196,0.014,0.287,0.018
			c0.115,0.004,0.225,0.008,0.328,0.008c0.125,0.004,0.248,0.004,0.367,0c0.15-0.004,0.293-0.008,0.423-0.018
			c0.124-0.008,0.241-0.016,0.347-0.031c0.112-0.014,0.219-0.025,0.315-0.043c0.146-0.027,0.274-0.057,0.388-0.088
			c0.022-0.006,0.045-0.012,0.062-0.016c0.111-0.033,0.21-0.066,0.294-0.1C64.109,26.271,64.235,25.74,64.235,25.443z
			 M60.472,26.094c0.104,0.012,0.209,0.018,0.312,0.01c-0.002,0.195-0.004,0.385-0.006,0.568c-0.096-0.006-0.196-0.014-0.303-0.023
			C60.475,26.473,60.475,26.289,60.472,26.094z M61.098,26.693c0.007-0.217,0.007-0.439,0.012-0.666
			c0.008-0.002,0.019-0.002,0.027-0.006c0.106-0.043,0.221-0.107,0.34-0.18c-0.004,0.303-0.006,0.59-0.012,0.865
			C61.355,26.707,61.233,26.701,61.098,26.693z M61.879,26.707c0-0.363,0.004-0.75,0.006-1.156c0.116-0.096,0.238-0.199,0.369-0.32
			c-0.006,0.506-0.013,0.988-0.018,1.443C62.125,26.693,62.01,26.705,61.879,26.707z M63.901,25.334
			c0.032,0.186,0.081,0.805-0.696,1.072c-0.264,0.088-0.465,0.156-0.657,0.205c0.006-0.564,0.011-1.107,0.013-1.631
			c0.283-0.18,0.629-0.201,1.312,0.27C63.883,25.277,63.896,25.301,63.901,25.334z M63.766,24.799
			c-0.134-0.027-0.255-0.045-0.369-0.057c-0.019,0-0.036,0-0.055-0.004c-0.094-0.006-0.182-0.01-0.264-0.01
			c-0.016,0-0.023,0-0.035,0c-0.086,0.004-0.168,0.01-0.242,0.023c-0.002,0-0.006,0-0.013,0.002
			c-0.079,0.014-0.155,0.033-0.226,0.057c-0.109,0.037-0.214,0.084-0.304,0.146c-0.116,0.07-0.223,0.16-0.33,0.26
			c-0.017,0.014-0.028,0.025-0.044,0.037l0,0c-0.158,0.143-0.289,0.229-0.406,0.287c0,0,0,0-0.002,0.002
			c-0.113,0.057-0.217,0.092-0.32,0.125c-0.015,0.008-0.031,0.012-0.044,0.014c-0.03,0.014-0.064,0.023-0.097,0.037
			c-0.077,0.031-0.152,0.061-0.23,0.084c-0.002,0-0.002,0-0.002,0c-0.191,0.059-0.386,0.082-0.58,0.047
			c-0.07-0.01-0.138-0.021-0.203-0.053c-0.352-0.143-0.51-0.447-0.535-0.58c-0.045-0.223,0.043-0.256-0.039-0.594
			c0.105,0.029,0.223,0.049,0.354,0.062c0.127,0.01,0.271,0.012,0.428,0.006c0.033,0,0.057,0.002,0.09,0
			c0.062-0.006,0.119-0.025,0.182-0.051c0.089-0.033,0.185-0.078,0.283-0.137c0.009-0.006,0.021-0.01,0.031-0.014
			c0.137-0.078,0.293-0.154,0.475-0.205c0.07-0.025,0.148-0.043,0.228-0.055c0.104-0.01,0.211-0.012,0.331,0.004l0.33-0.004
			c0.189-0.008,0.414-0.014,0.645,0.018c0.035,0.006,0.072,0.012,0.109,0.018c0.024,0.006,0.053,0.01,0.08,0.02
			c0.041,0.012,0.088,0.027,0.135,0.043c0.016,0.006,0.035,0.012,0.051,0.018c0.062,0.023,0.121,0.057,0.184,0.09
			c0.016,0.01,0.031,0.023,0.049,0.035c0.048,0.027,0.091,0.062,0.139,0.1c0.018,0.016,0.033,0.029,0.049,0.049
			C63.655,24.672,63.713,24.729,63.766,24.799z M61.886,24.018c0-0.297,0.003-0.598,0.003-0.906
			c0.133,0.062,0.263,0.115,0.383,0.156c-0.001,0.266-0.005,0.531-0.006,0.797L61.886,24.018z M63.592,24.404
			c-0.506-0.369-0.725-0.375-1.021-0.352c0-0.238,0.003-0.479,0.003-0.707c0.109,0.023,0.229,0.025,0.351,0.025
			C63.16,23.738,63.387,24.086,63.592,24.404z M65.572,20.502c-0.05,0.322-0.123,0.609-0.199,0.836
			c-0.023,0.074-0.047,0.145-0.068,0.203l-0.048,0.119c-0.246,0.619-0.535,1.1-1.483,1.416c-0.119,0.043-0.236,0.064-0.35,0.074
			c-0.102,0.008-0.205,0.004-0.301-0.006c-0.006,0-0.012,0-0.015,0c-0.124-0.012-0.245-0.033-0.366-0.061c-0.002,0-0.002,0-0.006,0
			c-0.047-0.008-0.096-0.018-0.147-0.031c-0.005,0-0.007,0-0.015-0.002c-0.064-0.018-0.129-0.033-0.195-0.047
			c-0.037-0.006-0.068-0.02-0.104-0.031l0,0c-0.396-0.109-0.699-0.338-0.805-0.549c-0.006-0.008-0.008-0.01-0.013-0.016l-0.032-0.1
			c0,0-0.002-0.018-0.008-0.041c0.113,0.027,0.279,0.059,0.471,0.066c0.121,0.006,0.25,0,0.39-0.023
			c0.099-0.016,0.2-0.037,0.304-0.07c0.006-0.006,0.006-0.006,0.012-0.006l0.053-0.018c0.292-0.102,0.658-0.232,0.842-0.83
			c0.086-0.291,0.111-1.178,0.154-1.656c0.276,0.6,0.418,1.693,0.442,1.807l0.06,0.34c0,0,0.116-0.119,0.223-0.266
			c0.279-0.385,0.471-0.65,0.631-0.863l0.004-0.002c0.058-0.078,0.115-0.145,0.168-0.209v-0.002l0.002-0.002
			c0.07-0.086,0.141-0.16,0.212-0.232c0.004-0.002,0.009-0.008,0.015-0.012c0.069-0.068,0.143-0.135,0.225-0.199
			C65.612,20.23,65.596,20.369,65.572,20.502z M47.243,28.887l0.005,0.006l0.003,0.006C47.251,28.893,47.248,28.893,47.243,28.887z"
			/>
		<g>
			<path fill="#FFFFFF" d="M43.824,12.593c-0.162,0.085-0.249-0.062-0.077-0.16c0.368-0.216,6.206-2.834,6.663-3.049
				c0.275-0.128,0.441,0.051,0.162,0.202C50.572,9.587,44.191,12.411,43.824,12.593z"/>
		</g>
		<g>
			<g>
				<path fill="#FFFFFF" d="M50.467,8.939c0,0,0.086,0.097-0.02,0.127c-0.148,0.036-2.004,0.122-2.104,0.122
					c-0.07,0.003-0.539,0.036-0.684,0.036c-0.332-0.041-0.098-0.114,0.057-0.135C48.308,9.001,50.299,8.85,50.467,8.939z"/>
			</g>
		</g>
		<g>
			<path fill="#FFFFFF" d="M62.834,12.578c0.163,0.08,0.248-0.062,0.077-0.163c-0.368-0.219-6.206-2.832-6.663-3.046
				c-0.275-0.132-0.441,0.048-0.162,0.197C56.086,9.566,62.467,12.393,62.834,12.578z"/>
		</g>
		<g>
			<g>
				<path fill="#FFFFFF" d="M56.4,8.915c0,0-0.08,0.091,0.023,0.115c0.139,0.037,1.957,0.114,2.055,0.115
					c0.066,0.003,0.524,0.034,0.667,0.034c0.329-0.035,0.097-0.104-0.053-0.125C58.902,9.026,56.646,8.795,56.4,8.915z"/>
			</g>
		</g>
		<path fill="#FFFFFF" d="M45.756,27.141l0.594,0.217c0.019,0.006,0.029-0.004,0.059-0.066l0.02,0.012l-0.17,0.469l-0.021-0.006
			c0.016-0.059,0.013-0.074-0.006-0.082l-0.902-0.33l0.01-0.033c0.049,0.014,0.058-0.004,0.066-0.029l0.454-1.246
			c0.009-0.023,0.009-0.043-0.032-0.066l0.012-0.031l0.357,0.131l-0.012,0.033c-0.048-0.014-0.059,0.006-0.066,0.027L45.756,27.141z
			"/>
		<path fill="#FFFFFF" d="M47.449,27.738l-0.018-0.008c0.014-0.035,0.017-0.066-0.014-0.086l-0.294-0.18l-0.137,0.23l0.509,0.303
			c0.016,0.014,0.029,0.004,0.07-0.055l0.02,0.012l-0.257,0.422l-0.017-0.01c0.021-0.043,0.021-0.059,0.004-0.07l-0.787-0.475
			l0.018-0.027c0.041,0.018,0.057,0.004,0.067-0.018l0.685-1.135c0.014-0.025,0.019-0.043-0.016-0.07l0.016-0.035l0.789,0.479
			c0.015,0.008,0.029,0,0.07-0.053l0.017,0.012L47.92,27.4l-0.018-0.016c0.028-0.059,0.028-0.072,0.012-0.082L47.406,27l-0.12,0.199
			l0.292,0.178c0.033,0.02,0.059,0,0.082-0.029l0.02,0.014L47.449,27.738z"/>
		<path fill="#FFFFFF" d="M47.771,28.686l0.021-0.025c0.036,0.025,0.055,0.018,0.073-0.002l0.739-0.766l-0.229-0.221
			c-0.012-0.014-0.027-0.008-0.076,0.035l-0.019-0.016l0.353-0.365l0.016,0.016c-0.043,0.049-0.047,0.066-0.031,0.08l0.654,0.635
			c0.015,0.012,0.029,0.008,0.081-0.037l0.015,0.016L49.016,28.4l-0.015-0.014c0.042-0.055,0.046-0.068,0.032-0.082l-0.227-0.221
			l-0.742,0.766c-0.018,0.021-0.026,0.037,0.004,0.074l-0.025,0.023L47.771,28.686z"/>
		<path fill="#FFFFFF" d="M48.814,30.143l0.034-0.014c0.022,0.039,0.042,0.035,0.067,0.023l0.966-0.443l-0.132-0.287
			c-0.01-0.018-0.025-0.021-0.086,0.004l-0.012-0.021l0.463-0.209l0.009,0.02c-0.056,0.031-0.067,0.045-0.061,0.062l0.382,0.828
			c0.008,0.02,0.025,0.02,0.085-0.004l0.011,0.021l-0.461,0.209l-0.01-0.018c0.059-0.033,0.068-0.049,0.059-0.066l-0.131-0.287
			l-0.967,0.445c-0.023,0.012-0.041,0.021-0.027,0.07l-0.029,0.012L48.814,30.143z"/>
		<path fill="#FFFFFF" d="M49.917,32.102c-0.021,0.016-0.034,0.033-0.013,0.074l-0.027,0.02l-0.225-0.305l0.031-0.02
			c0.029,0.033,0.051,0.023,0.07,0.012l0.426-0.314l-0.281-0.381l-0.427,0.307c-0.019,0.014-0.033,0.027-0.007,0.07l-0.032,0.018
			l-0.222-0.305l0.027-0.021c0.033,0.033,0.051,0.029,0.072,0.014l1.072-0.779c0.021-0.014,0.034-0.031,0.012-0.072l0.027-0.02
			l0.225,0.307l-0.031,0.02c-0.03-0.035-0.048-0.027-0.069-0.01l-0.366,0.264l0.279,0.389l0.367-0.266
			c0.02-0.014,0.035-0.033,0.011-0.07l0.03-0.02l0.222,0.305l-0.028,0.021c-0.029-0.037-0.051-0.029-0.07-0.014L49.917,32.102z"/>
		<path fill="#FFFFFF" d="M51.219,32.551l-0.017-0.016c0.017-0.031,0.023-0.062-0.008-0.084l-0.278-0.203l-0.154,0.217l0.477,0.346
			c0.018,0.012,0.034,0.004,0.08-0.047l0.016,0.01l-0.29,0.402l-0.018-0.014c0.024-0.043,0.028-0.059,0.008-0.07l-0.742-0.541
			l0.021-0.027c0.038,0.021,0.057,0.008,0.071-0.012l0.78-1.072c0.014-0.02,0.023-0.039-0.011-0.072l0.018-0.023l0.745,0.539
			c0.018,0.01,0.031,0.004,0.075-0.047l0.015,0.012l-0.289,0.4l-0.018-0.01c0.033-0.059,0.035-0.074,0.02-0.084l-0.48-0.35
			L51.101,32l0.278,0.197c0.029,0.02,0.057,0.008,0.084-0.02l0.018,0.012L51.219,32.551z"/>
		<path fill="#FFFFFF" d="M51.866,33.371c-0.007,0.023-0.007,0.045,0.032,0.066l-0.01,0.033l-0.363-0.119l0.012-0.033
			c0.048,0.008,0.059-0.006,0.064-0.033l0.41-1.26C52.02,32,52.02,31.98,51.979,31.959l0.013-0.031l0.642,0.207
			c0.259,0.086,0.322,0.26,0.224,0.57c-0.081,0.25-0.231,0.346-0.396,0.361l0.062,0.516c0.002,0.043,0.017,0.061,0.033,0.066
			l-0.01,0.033l-0.364-0.117l0.011-0.033c0.024,0.006,0.045-0.006,0.055-0.037c0.008-0.023-0.057-0.459-0.059-0.521l-0.175-0.057
			L51.866,33.371z M52.105,32.631l0.296,0.094c0.103,0.033,0.157-0.027,0.185-0.104c0.024-0.08,0.016-0.162-0.086-0.193
			l-0.297-0.096L52.105,32.631z"/>
		<path fill="#FFFFFF" d="M53.84,33.283l-0.022-0.004c-0.001-0.037-0.013-0.068-0.05-0.072l-0.341-0.021l-0.019,0.264l0.591,0.041
			c0.02,0.002,0.029-0.01,0.038-0.082h0.022l-0.038,0.496l-0.018-0.002c-0.002-0.051-0.01-0.064-0.031-0.064l-0.914-0.062v-0.039
			c0.047,0,0.054-0.02,0.055-0.047l0.093-1.32c0.001-0.023-0.003-0.047-0.046-0.055v-0.035l0.918,0.066
			c0.021,0,0.029-0.016,0.039-0.08l0.023,0.002l-0.037,0.496l-0.021-0.004c0-0.064-0.007-0.08-0.026-0.08l-0.593-0.043l-0.017,0.234
			l0.344,0.025c0.037,0.004,0.053-0.025,0.06-0.061l0.022,0.002L53.84,33.283z"/>
		<path fill="#FFFFFF" d="M54.838,32.314c-0.004-0.023-0.016-0.039-0.062-0.033l-0.01-0.033l0.673-0.203
			c0.188-0.057,0.362,0.008,0.442,0.277c0.051,0.164,0.015,0.287-0.074,0.35v0.004c0.13,0.012,0.247,0.084,0.309,0.285
			c0.068,0.219,0.021,0.438-0.231,0.514l-0.679,0.207l-0.012-0.033c0.043-0.02,0.043-0.039,0.034-0.064L54.838,32.314z
			 M55.246,32.693l0.24-0.074c0.15-0.047,0.184-0.074,0.15-0.186c-0.033-0.107-0.08-0.111-0.229-0.064l-0.239,0.072L55.246,32.693z
			 M55.43,33.297l0.299-0.092c0.125-0.037,0.16-0.096,0.123-0.215s-0.1-0.148-0.223-0.113l-0.299,0.094L55.43,33.297z"/>
		<path fill="#FFFFFF" d="M57.082,32.365l-0.021,0.008c-0.02-0.027-0.047-0.049-0.078-0.031l-0.305,0.156l0.121,0.232l0.525-0.266
			c0.021-0.01,0.021-0.027-0.006-0.094l0.016-0.01l0.225,0.441l-0.02,0.008c-0.027-0.039-0.039-0.047-0.055-0.039l-0.821,0.42
			l-0.017-0.031c0.04-0.025,0.037-0.045,0.024-0.07l-0.603-1.182c-0.01-0.021-0.025-0.035-0.07-0.021l-0.013-0.031l0.817-0.416
			c0.019-0.008,0.019-0.027-0.004-0.088l0.017-0.008l0.226,0.441l-0.021,0.01c-0.033-0.057-0.045-0.064-0.063-0.057l-0.528,0.27
			l0.106,0.209l0.306-0.154c0.035-0.018,0.033-0.049,0.021-0.084l0.021-0.01L57.082,32.365z"/>
		<path fill="#FFFFFF" d="M56.583,27.438l0.618,0.156c0.019,0.002,0.027-0.01,0.05-0.072l0.021,0.006l-0.119,0.484l-0.023-0.004
			c0.01-0.059,0.004-0.076-0.013-0.08l-0.936-0.232l0.009-0.031c0.044,0.004,0.058-0.016,0.062-0.037l0.32-1.289
			c0.008-0.025,0.008-0.045-0.038-0.061l0.012-0.033l0.367,0.092l-0.011,0.031c-0.044-0.006-0.054,0.012-0.061,0.039L56.583,27.438z
			"/>
		<path fill="#FFFFFF" d="M57.424,28.076l0.014-0.033c0.045,0.014,0.057-0.002,0.066-0.027L58,26.785
			c0.01-0.023,0.012-0.043-0.027-0.066l0.012-0.029l0.35,0.141l-0.01,0.029c-0.044-0.008-0.059,0.008-0.067,0.031l-0.496,1.229
			c-0.012,0.025-0.013,0.045,0.026,0.064l-0.012,0.035L57.424,28.076z"/>
		<path fill="#FFFFFF" d="M59.271,28.113l-0.229-0.061c-0.021-0.004-0.031,0.016-0.04,0.049l-0.022-0.008l0.104-0.381l0.021,0.004
			c-0.01,0.035-0.007,0.053,0.013,0.057l0.526,0.141l-0.012,0.035c-0.021-0.006-0.033,0.006-0.04,0.037l-0.122,0.457
			c-0.007,0.023-0.01,0.045,0.008,0.049l0.01,0.002l-0.01,0.037c-0.195,0.096-0.408,0.109-0.627,0.051
			c-0.299-0.078-0.515-0.398-0.381-0.895c0.134-0.498,0.48-0.664,0.777-0.584c0.115,0.031,0.165,0.061,0.272,0.143
			c0.05,0.043,0.096,0.102,0.11,0.107c0.01,0.004,0.021-0.006,0.029-0.016l0.02,0.016l-0.211,0.33l-0.018-0.02
			c0.002-0.006,0.01-0.016,0.01-0.031c0.016-0.051-0.14-0.18-0.285-0.219c-0.17-0.047-0.363,0.051-0.441,0.352
			c-0.08,0.297,0.072,0.473,0.226,0.52c0.098,0.023,0.183,0.023,0.263,0.01L59.271,28.113z"/>
		<path fill="#FFFFFF" d="M61.067,28.791c0,0.023,0.007,0.043,0.05,0.053l-0.002,0.035l-0.38-0.029l0.003-0.031
			c0.047-0.002,0.055-0.021,0.055-0.049l0.037-0.523l-0.479-0.035l-0.038,0.527c0,0.021,0.005,0.045,0.05,0.055l-0.001,0.033
			l-0.38-0.023l0.004-0.037c0.047-0.006,0.052-0.023,0.055-0.049l0.09-1.32c0.004-0.029,0-0.049-0.047-0.055l0.002-0.035
			l0.381,0.027l-0.003,0.033c-0.046,0-0.054,0.02-0.056,0.047l-0.031,0.449l0.479,0.035l0.029-0.451
			c0.003-0.025-0.003-0.047-0.049-0.057l0.005-0.033l0.378,0.027l-0.005,0.033c-0.043,0.004-0.05,0.025-0.053,0.047L61.067,28.791z"
			/>
		<path fill="#FFFFFF" d="M62.007,28.779l-0.006-0.035c0.048-0.014,0.048-0.035,0.044-0.059l-0.166-1.051l-0.312,0.049
			c-0.022,0-0.024,0.018-0.022,0.082l-0.021,0.006l-0.08-0.5l0.021-0.004c0.016,0.066,0.026,0.078,0.047,0.074l0.898-0.143
			c0.021-0.004,0.024-0.018,0.021-0.086l0.021-0.002l0.08,0.5l-0.021,0.002c-0.017-0.062-0.025-0.076-0.045-0.074l-0.313,0.051
			l0.167,1.051c0.004,0.029,0.014,0.045,0.059,0.045l0.006,0.035L62.007,28.779z"/>
		<g>
			<path fill="#FFFFFF" d="M48.99,26.537c0.064,0.008,0.396,0.008,0.453,0c0.069-0.008,0.383,0.025,0.559,0.059
				c0.066,0.016,0.111,0.199,0.023,0.189c-0.499-0.043-0.315-0.006-0.784-0.057C48.772,26.682,48.99,26.537,48.99,26.537z"/>
			<path fill="#FFFFFF" d="M50.773,26.621c0.131-0.021,1.486,0.172,1.584,0.262c-0.012,0.008,0.058,0.031,0.023,0.117
				c-0.087,0.141-0.34-0.107-1.292-0.148c-0.188-0.029-0.478,0.023-0.46-0.123C50.634,26.67,50.712,26.631,50.773,26.621z"/>
		</g>
		<g>
			<g>
				<path fill="#FFFFFF" d="M47.966,15.773c-0.062,0.049-0.067,0.248-0.093,0.306c-0.01,0.034-0.181,0.009-0.17-0.026
					c0,0,0.051-0.353,0.082-0.453c-0.037-0.021,0.395,0.025,0.381-0.014c0.02-0.061-0.078-0.425-0.102-0.439
					c-0.049,0.022-0.117,0.45-0.117,0.453l-0.162-0.005c0,0,0.125-0.789,0.258-0.794c0.027-0.004,0.109-0.031,0.144,0.021
					c0.042,0.078,0.347,1.106,0.341,1.207c-0.049,0.045-0.221,0.083-0.227,0.012c0,0-0.012-0.199-0.076-0.268
					C48.193,15.764,48.031,15.737,47.966,15.773z"/>
			</g>
		</g>
		<g>
			<path fill="#FFFFFF" d="M49.004,18.719c-0.045,0.131-0.344,0.061-0.548,0.064c-0.505,0.004-1.075,0.057-1.075-0.07
				c-0.037-0.223,0.615-0.139,0.856-0.137C48.604,18.594,49.07,18.514,49.004,18.719z"/>
			<path fill="#FFFFFF" d="M49.775,18.693c-0.057,0.098-0.202,0.092-0.407,0.074c-0.065-0.006-0.097-0.012-0.119-0.061
				c-0.008-0.135,0.196-0.125,0.443-0.123C49.761,18.594,49.809,18.641,49.775,18.693z"/>
			<path fill="#FFFFFF" d="M50.754,18.752c-0.057,0.035-0.598,0.08-0.637-0.037c-0.043-0.127,0.221-0.137,0.468-0.135
				C50.84,18.582,50.827,18.713,50.754,18.752z"/>
			<path fill="#FFFFFF" d="M52.631,19.121c-0.068,0.074-0.66-0.236-0.955-0.309c-0.199-0.049-0.36,0.008-0.531-0.021
				c-0.118-0.02-0.059-0.141,0.051-0.178C51.555,18.508,52.745,18.99,52.631,19.121z"/>
		</g>
		<g>
			<path fill="#FFFFFF" d="M48.66,19.672c-0.045,0.129-0.338,0.061-0.543,0.064c-0.5,0.006-0.729,0.012-0.738-0.166
				c-0.007-0.135,0.281-0.039,0.521-0.035C48.262,19.549,48.725,19.475,48.66,19.672z"/>
			<path fill="#FFFFFF" d="M49.99,19.676c-0.043,0.129-0.346,0.062-0.549,0.066c-0.498,0.008-0.504,0.008-0.521-0.076
				c-0.018-0.09,0.057-0.131,0.302-0.129C49.586,19.555,50.061,19.477,49.99,19.676z"/>
			<path fill="#FFFFFF" d="M50.864,19.703c-0.06,0.098-0.224,0.041-0.437,0.041c-0.07,0-0.101-0.01-0.123-0.061
				c-0.008-0.137,0.209-0.127,0.466-0.125C50.84,19.568,50.895,19.646,50.864,19.703z"/>
			<path fill="#FFFFFF" d="M52.658,20.104c-0.033,0.168-0.322-0.127-0.6-0.193c-0.199-0.051-0.656-0.078-0.826-0.105
				c-0.117-0.018-0.11-0.145,0-0.16C51.819,19.547,52.691,19.943,52.658,20.104z"/>
		</g>
		<g>
			<path fill="#FFFFFF" d="M52.718,21.076c-0.003,0.221-0.438-0.053-0.7-0.088c-0.219-0.027-0.594-0.07-0.896-0.027
				c-0.122,0.014-0.11-0.178,0.006-0.195C51.388,20.721,52.718,20.918,52.718,21.076z"/>
			<path fill="#FFFFFF" d="M50.674,20.824c-0.061,0.092-0.271,0.07-0.475,0.053c-0.068-0.006-0.115-0.035-0.136-0.082
				c-0.006-0.131,0.12-0.135,0.362-0.133C50.689,20.639,50.703,20.773,50.674,20.824z"/>
			<path fill="#FFFFFF" d="M48.828,20.771c-0.056,0.088-0.393,0.049-0.582,0.014c-0.497-0.088-0.906,0.146-0.917-0.059
				c-0.005-0.152,0.49-0.115,0.733-0.111C48.426,20.633,48.949,20.57,48.828,20.771z"/>
			<path fill="#FFFFFF" d="M49.732,20.785c-0.057,0.109-0.199,0.1-0.401,0.08c-0.065-0.004-0.109-0.01-0.132-0.061
				c-0.006-0.156,0.209-0.146,0.451-0.143C49.719,20.672,49.765,20.723,49.732,20.785z"/>
		</g>
		<g>
			<path fill="#FFFFFF" d="M50.213,14.512c0.018,0.134-0.346,0.067-0.6,0.099c-0.507,0.062-0.549,0.111-0.516,0.008
				C49.178,14.373,50.192,14.324,50.213,14.512z"/>
			<path fill="#FFFFFF" d="M50.49,14.599c-0.027-0.016-0.072-0.068,0-0.134c0.207-0.159,0.535-0.021,0.578,0.034
				c0.066,0.081-0.024,0.154-0.084,0.154C50.902,14.634,50.585,14.656,50.49,14.599z"/>
			<path fill="#FFFFFF" d="M52.57,15.101c-0.055,0.055-0.428-0.197-0.623-0.267c-0.303-0.106-0.621-0.091-0.615-0.25
				C51.344,14.286,52.847,14.835,52.57,15.101z"/>
		</g>
		<g>
			<path fill="#FFFFFF" d="M50.084,16.677c-0.028,0.061-0.291,0.011-0.516,0.022c-0.231,0.008-0.398,0.068-0.418-0.081
				c-0.008-0.122,0.252-0.094,0.5-0.092C49.91,16.528,50.18,16.488,50.084,16.677z"/>
			<path fill="#FFFFFF" d="M50.346,16.708c-0.078-0.014-0.074-0.088-0.003-0.147c0.237-0.04,0.541-0.008,0.614,0.011
				c0.105,0.024,0.064,0.164-0.023,0.166C50.428,16.713,50.482,16.724,50.346,16.708z"/>
			<path fill="#FFFFFF" d="M52.57,17.168c-0.056,0.045-0.3-0.113-0.534-0.164c-0.223-0.052-0.312-0.077-0.358-0.109
				c-0.105-0.037-0.039-0.153,0.01-0.175C51.738,16.701,52.81,16.979,52.57,17.168z"/>
			<path fill="#FFFFFF" d="M51.508,16.706c-0.025,0.169-0.192,0.104-0.264,0.08c-0.047-0.017-0.073-0.086-0.033-0.137
				C51.272,16.579,51.501,16.653,51.508,16.706z"/>
		</g>
		<g>
			<path fill="#FFFFFF" d="M49.48,15.657c0.07,0.151-0.201,0.168-0.274,0.145c-0.042-0.017-0.067-0.089-0.03-0.135
				C49.236,15.593,49.436,15.613,49.48,15.657z"/>
			<path fill="#FFFFFF" d="M49.877,15.748c-0.027-0.017-0.056-0.085,0.014-0.148c0.218-0.081,0.8-0.029,0.866,0.008
				c0.159,0.088,0.069,0.183,0.011,0.183C50.373,15.731,49.957,15.8,49.877,15.748z"/>
			<path fill="#FFFFFF" d="M52.071,15.988c-0.054,0.053-0.474-0.098-0.678-0.117c-0.229-0.02-0.354-0.058-0.362-0.118
				c0.003-0.149,0.342-0.122,0.637-0.06C51.963,15.756,52.211,15.854,52.071,15.988z"/>
			<path fill="#FFFFFF" d="M52.602,16.111c-0.025,0.17-0.178,0.082-0.249,0.059c-0.047-0.018-0.085-0.115-0.047-0.163
				C52.367,15.935,52.625,16.063,52.602,16.111z"/>
		</g>
		<g>
			<path fill="#FFFFFF" d="M47.477,17.483c0.309-0.069,0.509,0.306,0.074,0.237c-0.156-0.024-0.17-0.061-0.172-0.11
				C47.375,17.563,47.375,17.506,47.477,17.483z"/>
			<path fill="#FFFFFF" d="M49.719,17.615c-0.043,0.133-0.695,0.085-0.898,0.09c-0.513,0.006-0.697,0.012-0.752-0.076
				c-0.006-0.137,0.285-0.13,0.53-0.126C48.855,17.505,49.787,17.419,49.719,17.615z"/>
			<path fill="#FFFFFF" d="M50.776,17.696c-0.038,0.05-0.093,0.024-0.3,0.035c-0.228,0.015-0.373,0.01-0.387-0.08
				c-0.006-0.134,0.227-0.137,0.47-0.134C50.82,17.517,50.834,17.615,50.776,17.696z"/>
			<path fill="#FFFFFF" d="M52.045,17.92c-0.148,0.123-0.231-0.077-0.495-0.11c-0.203-0.026-0.409-0.019-0.579-0.049
				c-0.106-0.056-0.068-0.174,0.047-0.202C51.645,17.517,52.2,17.798,52.045,17.92z"/>
			<path fill="#FFFFFF" d="M52.53,18.133c-0.016,0.135-0.135,0.143-0.239,0.057c-0.045-0.016-0.091-0.117-0.051-0.166
				C52.297,17.954,52.496,18.018,52.53,18.133z"/>
		</g>
		<g>
			<path fill="#FFFFFF" d="M52.515,22.064c-0.065,0.141-0.534-0.088-0.862-0.102c-0.23-0.008-0.359,0.016-0.389,0.01
				c-0.12-0.021-0.107-0.172,0.008-0.195C51.64,21.711,52.59,21.887,52.515,22.064z"/>
			<path fill="#FFFFFF" d="M50.305,21.848c-0.057,0.096-0.196,0.047-0.4,0.033c-0.066-0.006-0.334,0.074-0.417-0.016
				c-0.028-0.154,0.342-0.176,0.479-0.166C50.221,21.695,50.336,21.795,50.305,21.848z"/>
			<path fill="#FFFFFF" d="M48.949,21.846c-0.062,0.107-0.754-0.012-0.942-0.02c-0.379-0.016-0.626,0.125-0.628-0.086
				c0.061-0.131,0.698-0.059,0.843-0.057C48.581,21.695,49.04,21.678,48.949,21.846z"/>
			<path fill="#FFFFFF" d="M50.969,21.756c0.07,0.152-0.201,0.17-0.273,0.146c-0.045-0.02-0.072-0.092-0.033-0.137
				C50.723,21.693,50.922,21.713,50.969,21.756z"/>
		</g>
		<g>
			<path fill="#FFFFFF" d="M54.908,14.554c0.291,0,0.331,0.071,0.297,0.168c-0.037,0.066-0.395,0.04-0.498,0.041
				c-0.352,0.01-0.518,0.228-0.647,0.188c-0.148-0.044-0.071-0.168,0.097-0.235C54.306,14.652,54.584,14.554,54.908,14.554z"/>
			<path fill="#FFFFFF" d="M55.673,14.523c0,0,0.416,0.02,0.503,0.073c0.119,0.07,0.097,0.151,0.046,0.189
				c-0.024,0.025-0.599-0.037-0.621-0.047c-0.029-0.017-0.063-0.031-0.071-0.098C55.523,14.567,55.552,14.528,55.673,14.523z"/>
			<path fill="#FFFFFF" d="M59.346,14.592c0.124,0.019,0.166,0.218,0.049,0.237c-0.439,0.063-0.52,0.042-0.527-0.023
				C58.744,14.548,59.324,14.588,59.346,14.592z"/>
			<path fill="#FFFFFF" d="M57.799,14.683c0,0,0.497,0.004,0.602,0.033c0.048,0.012,0.108,0.1,0.048,0.188
				c-0.048,0.061-0.683,0.077-0.737-0.141C57.711,14.763,57.693,14.688,57.799,14.683z"/>
			<path fill="#FFFFFF" d="M56.705,14.64c0,0,0.438,0.033,0.546,0.06c0.048,0.015,0.165,0.076,0.103,0.163
				c-0.045,0.062-0.679,0.077-0.734-0.138C56.619,14.725,56.601,14.649,56.705,14.64z"/>
		</g>
		<g>
			<path fill="#FFFFFF" d="M55.59,15.693c0.049-0.136,0.424-0.106,0.523-0.03c0,0,0.023,0.071-0.024,0.113
				C55.854,15.881,55.557,15.781,55.59,15.693z"/>
			<path fill="#FFFFFF" d="M56.656,15.748c0.114-0.081,0.567,0,0.433,0.17c-0.028,0.017-0.352,0.074-0.465,0.009
				C56.599,15.914,56.543,15.835,56.656,15.748z"/>
			<path fill="#FFFFFF" d="M58.195,15.822c0.164,0.202-0.395,0.199-0.458,0.191c-0.071-0.009-0.194-0.029-0.215-0.095
				C57.508,15.728,58.078,15.689,58.195,15.822z"/>
			<path fill="#FFFFFF" d="M59.396,15.725c0.08,0.266-0.377,0.229-0.437,0.229c-0.072-0.001-0.202-0.01-0.224-0.077
				C58.702,15.689,59.342,15.556,59.396,15.725z"/>
			<path fill="#FFFFFF" d="M54.918,15.495c0.107-0.006,0.355-0.006,0.368,0.131c-0.089,0.159-0.56,0.123-0.665,0.143
				c-0.414,0.066-0.518,0.226-0.648,0.185c-0.146-0.042-0.068-0.168,0.098-0.233C54.219,15.657,54.611,15.508,54.918,15.495z"/>
		</g>
		<g>
			<path fill="#FFFFFF" d="M56.951,16.742c0.018,0.083-0.034,0.122-0.04,0.129c-0.042,0.056-0.458,0.036-0.533-0.108
				c-0.015-0.025-0.011-0.147,0.13-0.118C56.627,16.669,56.932,16.545,56.951,16.742z"/>
			<path fill="#FFFFFF" d="M57.4,16.661c0.042-0.008,0.765,0.004,0.574,0.214c-0.029,0.028-0.088,0.07-0.142,0.07
				c-0.19-0.003-0.505-0.027-0.552-0.07c-0.03-0.026-0.03-0.078,0-0.144C57.298,16.694,57.346,16.673,57.4,16.661z"/>
			<path fill="#FFFFFF" d="M58.416,16.669c0.541,0.107,0.935-0.064,0.992,0.062c0.058,0.125-0.004,0.14-0.004,0.14
				c-0.071,0.059-1.115,0.086-1.147-0.079C58.242,16.708,58.359,16.658,58.416,16.669z"/>
			<path fill="#FFFFFF" d="M55.993,16.646c0.12,0.193-0.265,0.156-0.309,0.152c-0.05-0.01-0.146-0.03-0.161-0.09
				C55.514,16.528,55.904,16.497,55.993,16.646z"/>
			<path fill="#FFFFFF" d="M54.758,16.501c0.111-0.005,0.285-0.049,0.354,0.104c-0.098,0.195-0.322,0.088-0.66,0.143
				c-0.42,0.067-0.423,0.192-0.529,0.097c-0.098-0.083,0-0.156,0.166-0.224C54.235,16.559,54.451,16.521,54.758,16.501z"/>
		</g>
		<g>
			<path fill="#FFFFFF" d="M55.362,17.582c0.055,0.012,0.196,0.02,0.261,0.078c0.051,0.052,0.039,0.122,0,0.145
				c-0.522,0.068-0.501-0.047-0.501-0.047C55.082,17.574,55.286,17.564,55.362,17.582z"/>
			<path fill="#FFFFFF" d="M59.398,17.668c0.242,0.118-0.155,0.253-0.415,0.175c-0.023-0.006-0.07-0.031-0.095-0.072
				C58.846,17.629,59.295,17.617,59.398,17.668z"/>
			<path fill="#FFFFFF" d="M56.439,17.582c0.136,0.036,0.136,0.202,0,0.234c-0.046,0.016-0.531,0.093-0.551-0.068
				C55.898,17.474,56.396,17.569,56.439,17.582z"/>
			<path fill="#FFFFFF" d="M58.693,17.727c0.038,0.165-0.109,0.144-0.252,0.132c-0.181-0.016-0.704,0.047-0.678-0.08
				c0.02-0.103,0.227-0.046,0.291-0.075C58.222,17.629,58.668,17.629,58.693,17.727z"/>
			<path fill="#FFFFFF" d="M57.402,17.832c-0.055,0.113-0.576,0.054-0.501-0.118C56.925,17.655,57.457,17.574,57.402,17.832z"/>
			<path fill="#FFFFFF" d="M54.493,17.504c0.108-0.001,0.329-0.013,0.363,0.151c-0.158,0.133-0.332,0.037-0.671,0.106
				c-0.309,0.07-0.373,0.134-0.368-0.038C53.828,17.609,54.186,17.504,54.493,17.504z"/>
		</g>
		<g>
			<path fill="#FFFFFF" d="M55.247,18.605c0,0,0.415-0.051,0.547,0.023c0.043,0.021,0.114,0.084,0.058,0.174
				c-0.037,0.066-0.664,0.082-0.662-0.096C55.189,18.707,55.164,18.631,55.247,18.605z"/>
			<path fill="#FFFFFF" d="M56.303,18.689c0.14-0.053,0.646,0.072,0.421,0.25c-0.04,0.037-0.394-0.006-0.499-0.092
				C56.202,18.83,56.161,18.744,56.303,18.689z"/>
			<path fill="#FFFFFF" d="M57.231,18.719c0.116-0.043,0.544,0.061,0.353,0.205c-0.033,0.029-0.305,0.047-0.393-0.021
				C57.17,18.889,57.109,18.762,57.231,18.719z"/>
			<path fill="#FFFFFF" d="M58.441,18.799c-0.159,0.021-0.36,0.072-0.375,0.146c0.019,0.086,0.119,0.072,0.444,0.061
				c0.163-0.008,0.61,0.062,0.731,0.035c0.119-0.029,0.131-0.139,0.082-0.145C59.062,18.873,58.827,18.752,58.441,18.799z"/>
			<path fill="#FFFFFF" d="M54.541,18.602c0.108,0,0.331-0.061,0.328,0.123c-0.109,0.16-0.307,0.096-0.646,0.166
				c-0.309,0.066-0.383,0.115-0.371-0.053C53.855,18.725,54.235,18.602,54.541,18.602z"/>
		</g>
		<g>
			<g>
				<path fill="#FFFFFF" d="M55.367,19.85c0,0,0.24,0,0.259,0c0.128,0.002,0.075,0.16,0.059,0.178
					c-0.012,0.033-0.21,0.053-0.351,0.045c-0.071-0.008-0.203-0.045-0.212-0.148C55.148,19.832,55.275,19.855,55.367,19.85z"/>
			</g>
			<g>
				<path fill="#FFFFFF" d="M56.21,19.863c0.038-0.008,0.701,0.002,0.526,0.176c-0.024,0.025-0.08,0.061-0.131,0.061
					c-0.174-0.004-0.465-0.021-0.508-0.061c-0.027-0.021-0.023-0.064,0-0.119C56.113,19.887,56.156,19.871,56.21,19.863z"/>
			</g>
			<path fill="#FFFFFF" d="M57.236,19.898c0.131-0.057,0.551,0.123,0.385,0.258c-0.034,0.014-0.357-0.004-0.455-0.094
				C57.143,20.041,57.105,19.953,57.236,19.898z"/>
			<path fill="#FFFFFF" d="M58.155,19.98c0.04-0.008,0.768,0.006,0.576,0.213c-0.025,0.031-0.085,0.074-0.144,0.07
				c-0.189,0-0.503-0.025-0.553-0.07c-0.029-0.023-0.027-0.078,0-0.143C58.053,20.014,58.1,19.99,58.155,19.98z"/>
			<path fill="#FFFFFF" d="M54.493,19.797c0.15-0.014,0.376-0.072,0.37,0.109c-0.109,0.158-0.231,0.092-0.569,0.164
				c-0.306,0.064-0.383,0.113-0.372-0.057C53.926,19.898,54.186,19.816,54.493,19.797z"/>
			<path fill="#FFFFFF" d="M59.086,20.037c0.119-0.045,0.542,0.062,0.355,0.207c-0.037,0.027-0.309,0.047-0.398-0.02
				C59.025,20.209,58.963,20.084,59.086,20.037z"/>
		</g>
		<g>
			<g>
				<path fill="#FFFFFF" d="M56.643,21.018c0.037-0.008,0.705,0.004,0.531,0.176c-0.025,0.025-0.082,0.061-0.133,0.061
					c-0.176-0.004-0.461-0.021-0.509-0.061c-0.026-0.021-0.026-0.061,0-0.117C56.549,21.045,56.594,21.027,56.643,21.018z"/>
			</g>
			<g>
				<path fill="#FFFFFF" d="M57.732,21.121c0.208-0.023,0.594,0.035,0.55,0.213c-0.021,0.119-0.142,0.021-0.222,0.025
					c-0.146,0.006-0.6,0.07-0.549-0.133C57.516,21.145,57.684,21.129,57.732,21.121z"/>
			</g>
			<path fill="#FFFFFF" d="M58.55,21.348c0.007,0.123,0.511,0.273,0.511,0.084C59.061,21.369,58.604,21.088,58.55,21.348z"/>
			<g>
				<path fill="#FFFFFF" d="M56.089,20.994c0,0-0.356-0.096-0.509-0.053c-0.038,0.016-0.1,0.08-0.06,0.17
					c0.031,0.059,0.604,0.133,0.608-0.029C56.129,21.082,56.149,21.027,56.089,20.994z"/>
			</g>
			<path fill="#FFFFFF" d="M54.709,20.918c0.11,0,0.577,0.008,0.572,0.188c-0.063,0.15-0.431,0.008-0.895,0.064
				c-0.311,0.041-0.379,0.113-0.371-0.055C54.021,21,54.402,20.92,54.709,20.918z"/>
		</g>
		<g>
			<path fill="#FFFFFF" d="M55.82,22.008c0.141-0.053,0.683,0.057,0.46,0.232c-0.038,0.035-0.432,0.014-0.536-0.074
				C55.721,22.146,55.68,22.064,55.82,22.008z"/>
			<g>
				<path fill="#FFFFFF" d="M56.862,22.143c0.12-0.045,0.543,0.061,0.354,0.207c-0.033,0.027-0.33-0.008-0.418-0.076
					C56.775,22.262,56.741,22.189,56.862,22.143z"/>
			</g>
			<g>
				<path fill="#FFFFFF" d="M58.171,22.35c0.112,0.213-0.336,0.164-0.385,0.15c-0.056-0.014-0.153-0.043-0.163-0.111
					C57.629,22.199,58.096,22.205,58.171,22.35z"/>
			</g>
			<path fill="#FFFFFF" d="M58.463,22.492c0.005,0.125,0.295,0.207,0.295,0.02C58.758,22.445,58.518,22.23,58.463,22.492z"/>
			<path fill="#FFFFFF" d="M54.111,22.064c0.039-0.014,1.232-0.178,1.182,0.043c-0.009,0.037,0.047,0.086-0.609,0.111
				c-0.164,0.006-0.645,0.104-0.691,0.059C53.963,22.25,53.906,22.143,54.111,22.064z"/>
		</g>
		<g>
			<path fill="#FFFFFF" d="M55.443,24.02c0,0,0.418-0.027,0.549,0.051c0.041,0.023,0.108,0.088,0.045,0.18
				c-0.044,0.059-0.666,0.047-0.655-0.133C55.382,24.117,55.362,24.041,55.443,24.02z"/>
			<g>
				<path fill="#FFFFFF" d="M56.624,24.164c0.036-0.006,0.702,0.041,0.519,0.205c-0.028,0.023-0.085,0.057-0.137,0.053
					c-0.174-0.012-0.46-0.045-0.503-0.086c-0.026-0.023-0.023-0.066,0.005-0.119C56.527,24.189,56.572,24.17,56.624,24.164z"/>
			</g>
			<path fill="#FFFFFF" d="M57.841,24.52c-0.175-0.037-0.474-0.107-0.411-0.223c0.044-0.094,0.232,0.023,0.301,0.016
				C58.112,24.273,58.168,24.588,57.841,24.52z"/>
			<path fill="#FFFFFF" d="M58.798,24.619c-0.179,0.004-0.484-0.062-0.452-0.188c0.027-0.1,0.183-0.018,0.249-0.039
				C59.07,24.236,59.132,24.609,58.798,24.619z"/>
			<path fill="#FFFFFF" d="M54.927,24.088c0.025,0.129-0.147,0.102-0.465,0.096c-0.299-0.004-0.536,0.252-0.611,0.072
				c-0.027-0.061,0.04-0.119,0.206-0.188C54.207,24.004,54.9,23.959,54.927,24.088z"/>
		</g>
		<g>
			<g>
				<path fill="#FFFFFF" d="M55.648,23.002c0.025-0.008,0.516,0.002,0.389,0.172c-0.018,0.025-0.059,0.062-0.101,0.061
					c-0.122-0.004-0.339-0.023-0.368-0.061c-0.021-0.02-0.02-0.062,0-0.113C55.577,23.027,55.61,23.008,55.648,23.002z"/>
			</g>
			<path fill="#FFFFFF" d="M56.432,23.068c0.128-0.057,0.828,0.057,0.606,0.287c-0.033,0.01-0.582-0.035-0.677-0.119
				C56.341,23.217,56.303,23.125,56.432,23.068z"/>
			<path fill="#FFFFFF" d="M57.954,23.264c0.112-0.008,0.634,0.084,0.604,0.256c-0.009,0.037-0.18,0.031-0.268,0.012
				c-0.273-0.062-0.418-0.104-0.65-0.104c-0.095,0-0.09-0.092-0.06-0.158C57.595,23.236,57.896,23.268,57.954,23.264z"/>
			<path fill="#FFFFFF" d="M55.135,23.111c0.018,0.193-0.26,0.107-0.576,0.1c-0.297-0.004-0.531,0.219-0.606,0.039
				c-0.028-0.064,0.04-0.123,0.204-0.188C54.306,22.998,55.122,22.979,55.135,23.111z"/>
		</g>
		<g>
			<path fill="#FFFFFF" d="M58.426,25.219c0.042-0.006,0.763,0.045,0.563,0.244c-0.029,0.027-0.09,0.066-0.147,0.062
				c-0.188-0.016-0.502-0.055-0.547-0.098c-0.029-0.031-0.023-0.082,0.01-0.146C58.32,25.244,58.369,25.225,58.426,25.219z"/>
			<path fill="#FFFFFF" d="M57.934,25.359c-0.061,0.111-0.58,0.023-0.496-0.146C57.465,25.158,58,25.102,57.934,25.359z"/>
			<g>
				<path fill="#FFFFFF" d="M56.609,25.053c0.036-0.004,0.702,0.041,0.518,0.205c-0.026,0.021-0.083,0.053-0.137,0.053
					c-0.17-0.016-0.458-0.047-0.5-0.088c-0.027-0.021-0.023-0.062,0.006-0.117C56.514,25.072,56.555,25.059,56.609,25.053z"/>
			</g>
			<path fill="#FFFFFF" d="M55.957,25.016c0.107,0.201-0.275,0.143-0.32,0.133c-0.051-0.008-0.145-0.033-0.154-0.096
				C55.48,24.875,55.871,24.865,55.957,25.016z"/>
			<path fill="#FFFFFF" d="M54.568,24.93c0.109-0.002,0.352-0.076,0.344,0.109c-0.105,0.16-0.307,0.096-0.646,0.17
				c-0.306,0.064-0.378,0.111-0.371-0.059C53.902,25.039,54.26,24.93,54.568,24.93z"/>
		</g>
		<path fill="#FFFFFF" d="M54.053,25.996c0,0,0.369-0.117,0.551-0.068c0.049,0.012,0.096,0.051,0.049,0.146
			c-0.171,0-0.555,0.051-0.615,0.107C54.037,26.182,53.982,26.029,54.053,25.996z"/>
		<g>
			<path fill="#FFFFFF" d="M49.648,22.76c0.193-0.043,0.643,0.189,0.148,0.225c-0.033,0.006-0.304,0.014-0.336-0.021
				C49.289,22.785,49.598,22.77,49.648,22.76z"/>
			<path fill="#FFFFFF" d="M49.1,22.877c-0.002,0.107-0.523,0.102-0.934,0.074c-0.49-0.031-0.791,0.02-0.787-0.123
				c0.027-0.18,0.494-0.062,0.734-0.059C48.479,22.789,49.109,22.645,49.1,22.877z"/>
			<path fill="#FFFFFF" d="M51.903,23.053c-0.034,0.189-0.739-0.055-1.069-0.068c-0.231-0.008-0.432-0.018-0.461-0.025
				c-0.121-0.021-0.109-0.174,0.006-0.193C50.621,22.723,51.927,22.916,51.903,23.053z"/>
			<path fill="#FFFFFF" d="M52.55,23.428c-0.059,0.092-0.151,0-0.32-0.051c-0.063-0.016-0.146-0.053-0.116-0.158
				c0.084-0.119,0.234-0.02,0.295,0.021C52.553,23.316,52.578,23.375,52.55,23.428z"/>
		</g>
		<g>
			<path fill="#FFFFFF" d="M51.289,25.104c-0.006,0.17-0.755-0.074-1.082-0.086c-0.232-0.008-0.618,0.004-0.649,0
				c-0.12-0.02-0.122-0.188-0.009-0.207C49.917,24.752,51.301,24.879,51.289,25.104z"/>
			<path fill="#FFFFFF" d="M49.125,24.926c-0.009,0.094-0.475,0.064-0.926,0.039c-0.762-0.008-0.818-0.039-0.789-0.141
				c0.051-0.172,0.487-0.113,0.732-0.131C48.506,24.711,49.146,24.693,49.125,24.926z"/>
			<path fill="#FFFFFF" d="M52.587,25.496c-0.062,0.092-0.316-0.1-0.522-0.119c-0.066-0.006-0.299-0.025-0.287-0.129
				c0.006-0.137,0.178-0.125,0.438-0.053C52.459,25.258,52.662,25.389,52.587,25.496z"/>
		</g>
		<g>
			<path fill="#FFFFFF" d="M51.889,24.145c-0.049,0.254-0.332-0.039-1.07-0.07c-0.23-0.01-0.432-0.016-0.463-0.021
				c-0.119-0.023-0.106-0.174,0.008-0.197C50.732,23.787,51.924,23.955,51.889,24.145z"/>
			<path fill="#FFFFFF" d="M49.71,23.771c0.194-0.035,0.646,0.191,0.146,0.223c-0.034,0.004-0.307,0.01-0.34-0.02
				C49.343,23.822,49.658,23.783,49.71,23.771z"/>
			<path fill="#FFFFFF" d="M49.094,23.865c-0.007,0.17-0.828,0.066-1.019,0.051c-0.493-0.031-0.688,0.055-0.696-0.148
				c0.027-0.18,0.494-0.059,0.734-0.057C48.479,23.729,49.104,23.631,49.094,23.865z"/>
			<path fill="#FFFFFF" d="M52.353,24.246c0.19,0.057,0.48,0.467,0.026,0.26c-0.033-0.014-0.275-0.135-0.291-0.172
				C52.006,24.117,52.306,24.23,52.353,24.246z"/>
		</g>
		<g>
			<path fill="#FFFFFF" d="M52.488,27.877c0.026,0.012,0.119,0.01,0.055,0.135c-0.066,0.102-1.355-0.125-1.422-0.135
				c-0.131-0.023-0.124-0.047-0.122-0.145c0.035-0.078,0.136-0.055,0.154-0.057C51.202,27.668,52.463,27.863,52.488,27.877z"/>
			<path fill="#FFFFFF" d="M50.574,27.727c-0.05,0.064-0.616,0.078-0.596-0.057c0.008-0.137,0.148-0.076,0.39-0.07
				C50.636,27.6,50.623,27.658,50.574,27.727z"/>
		</g>
		<path fill="#FFFFFF" d="M54.668,27.695c0.108-0.012,0.217-0.074,0.207,0.105c-0.037,0.109-0.185,0.072-0.525,0.146
			c-0.306,0.064-0.385,0.139-0.354-0.027C54.014,27.838,54.363,27.73,54.668,27.695z"/>
		<path fill="#FFFFFF" d="M54.66,26.766c0.109,0,0.26-0.053,0.252,0.127c-0.057,0.076-0.255,0.041-0.593,0.113
			c-0.308,0.066-0.357,0.166-0.349-0.004C53.977,26.887,54.355,26.766,54.66,26.766z"/>
		<g>
			<g>
				<path fill="#FFFFFF" d="M47.461,14.656c-0.017,0.002-0.021,0.092-0.021,0.231c0,0.14,0.005,0.331,0.01,0.534l0.004,0.92
					c0.004,0,0.021,0,0.024,0c-0.022-0.043-0.024-0.92-0.024-0.92c-0.006-0.2-0.012-0.394-0.012-0.539
					C47.441,14.749,47.445,14.66,47.461,14.656L47.461,14.656c0.271-0.06,1.037-0.158,1.226-0.068
					c0.048,0.023,0.069,0.275,0.069,0.577c0,0.467-0.045,1.053-0.064,1.11c-0.019,0.046-0.287,0.073-0.568,0.087
					c0.284-0.009,0.554-0.041,0.571-0.087c0.021-0.057,0.065-0.643,0.065-1.108c0-0.303-0.018-0.555-0.073-0.583
					C48.498,14.497,47.732,14.596,47.461,14.656z M47.461,14.656L47.461,14.656L47.461,14.656z M47.478,16.352
					c0.086,0.021,0.37,0.022,0.646,0.009c-0.267,0.012-0.535,0.005-0.646-0.021C47.478,16.343,47.478,16.352,47.478,16.352z"/>
			</g>
			<g>
				<path fill="#FFFFFF" d="M47.439,14.556c-0.106,0.024-0.111,0.069-0.09,0.814l0,0v0.504l0.003,0.478
					c0.021,0.159,0.2,0.143,0.37,0.122l0.263-0.024l0.274-0.005c0.502-0.007,0.596-0.015,0.633-0.109l-0.005-0.301l-0.032-0.621
					c0.02-0.854-0.066-0.893-0.127-0.92C48.486,14.381,47.645,14.514,47.439,14.556z M48.643,14.677c0,0.003,0,0.007,0,0.014
					c0,0.041,0.014,0.185,0.014,0.474c0,0.073-0.002,0.154-0.004,0.245l0.034,0.646c0,0,0.005,0.105,0.011,0.165
					c-0.08,0.003-0.44,0.021-0.44,0.021l-0.278,0.006l-0.279,0.025c0,0-0.162,0.01-0.174,0.01c0.021-0.007,0.025-0.238,0.025-0.35
					c0-0.035,0.002-0.567,0.002-0.567l0,0c0,0-0.002-0.538-0.002-0.621C47.873,14.682,48.502,14.613,48.643,14.677z"/>
			</g>
		</g>
		<g>
			<path fill="#FFFFFF" d="M52.455,26.098c-0.033,0.164-0.74-0.131-1.067-0.143c-0.229-0.008-0.833-0.029-0.863-0.037
				c-0.12-0.018-0.174-0.152-0.058-0.172C50.834,25.686,52.491,25.918,52.455,26.098z"/>
			<path fill="#FFFFFF" d="M49.057,25.793c-0.008,0.143,0,0-0.729,0.014c-0.766-0.01-0.82,0.002-0.791-0.102
				c0.049-0.172,0.498-0.066,0.744-0.086C48.643,25.639,49.066,25.561,49.057,25.793z"/>
			<path fill="#FFFFFF" d="M49.516,25.76c0.047-0.064,0.508-0.088,0.49,0.047c-0.011,0.139-0.069,0.078-0.311,0.078
				C49.426,25.885,49.468,25.83,49.516,25.76z"/>
		</g>
	</g>
	<g>
		<path fill="#FFFFFF" d="M56.594,36.98c0.313-0.09,0.425-0.24,0.379-0.402c-0.048-0.164-0.221-0.23-0.534-0.143
			c-0.314,0.092-0.425,0.24-0.378,0.402C56.107,37.004,56.28,37.072,56.594,36.98z"/>
		<path fill="#FFFFFF" d="M52.113,36.74c-0.324-0.027-0.482,0.074-0.497,0.242c-0.016,0.17,0.122,0.293,0.447,0.32
			c0.325,0.031,0.482-0.07,0.497-0.238C52.576,36.896,52.438,36.77,52.113,36.74z"/>
		<path fill="#FFFFFF" d="M52.031,37.619c-0.289-0.025-0.559,0.068-0.578,0.295s0.229,0.367,0.518,0.393
			c0.291,0.023,0.56-0.07,0.579-0.297C52.568,37.783,52.32,37.645,52.031,37.619z"/>
		<path fill="#FFFFFF" d="M56.676,37.287c-0.279,0.078-0.496,0.26-0.434,0.48c0.063,0.221,0.346,0.262,0.623,0.182
			c0.281-0.08,0.498-0.266,0.435-0.484C57.237,37.246,56.955,37.205,56.676,37.287z"/>
		<path fill="#FFFFFF" d="M54.374,37.568c-0.274,0.014-0.479,0.205-0.468,0.43c0.014,0.229,0.236,0.398,0.51,0.383
			c0.274-0.012,0.48-0.203,0.467-0.432C54.871,37.721,54.646,37.553,54.374,37.568z"/>
		<polygon fill="#FFFFFF" points="63.916,32.965 64.758,33.375 64.766,33.367 64.413,32.504 		"/>
		<polygon fill="#FFFFFF" points="67.039,13.298 67.367,13.891 67.969,13.174 67.963,13.165 		"/>
		<path fill="#FFFFFF" d="M71.519,20.504c-0.165-0.973-0.187-1.805-0.206-2.477c-0.017-0.688-0.029-1.188-0.195-1.491l0.012,0.023
			l-1.453-3.59l0.005,0.015c-0.298-1.063-2.856-4.042-2.982-4.198c-0.297-0.467-2.032-1.768-2.52-2.019
			c-0.015-0.012-1.902-1.315-1.902-1.315c-0.776-0.556-2.035-1.055-3.088-1.387L57.97,3.636c-1.514-0.521-3.893-0.584-4.208-0.561
			c-0.126,0.007-0.721,0.007-0.848,0c-0.314-0.024-2.693,0.04-4.118,0.581L47.905,3.97c-1.142,0.315-2.183,0.637-2.962,1.196
			c0,0-2.123,1.486-2.215,1.549c-0.492,0.255-2.723,1.858-2.98,2.307l0.016-0.023c-0.113,0.143-2.424,2.883-2.721,3.949l0.004-0.016
			L35.55,16.56l0.011-0.023c-0.167,0.302-0.135,0.906-0.152,1.598c-0.019,0.67-0.086,1.396-0.25,2.369
			c-0.133,0.779-0.029,1.465,0.069,2.297c0.101,0.834,0.136,1.818,0.289,2.549c0.127,0.619,0.302,1.152,0.338,1.545
			c0.208,0.988,0.702,2.281,0.954,2.639c0.184,0.266,0.527,0.75,0.527,0.75c0.302,0.406,0.656,0.895,0.873,1.244
			c0.216,0.35,0.294,0.568,0.469,0.871c0.239,0.426,0.457,0.807,0.699,1.152c0.246,0.346,0.52,0.656,0.875,0.939
			c0.092,0.076,0.887,0.609,1.268,0.861c0.451,0.299,0.603,0.4,0.693,0.484l0.279,0.281c0.776,0.783,1.355,1.389,1.859,1.676
			c0.193,0.107,0.689,0.234,0.852,0.236c0.164,0.002,0.303-0.029,0.423-0.1c0.212-0.117,0.351-0.332,0.423-0.65
			c0.012-0.043,0.112-0.277,0.219-0.527c0.168,0.037,0.381,0.246,0.537,0.391l-0.105,0.363c-0.092,0.311-0.033,0.617,0.176,0.887
			c0.83,1.08,3.918,1.484,6.609,1.41c2.783,0.086,6.256-0.744,6.716-1.795c0.091-0.205,0.048-0.41-0.116-0.578
			c-0.049-0.049-0.082-0.109-0.127-0.166c0.018-0.027,0.042-0.055,0.093-0.082c0.128-0.061,0.282-0.016,0.355-0.023
			c0.003,0,0.003,0,0.005,0c0.117,0.203,0.235,0.424,0.363,0.67c0.051,0.1,0.146,0.164,0.263,0.184
			c0.807,0.137,3.403-2.15,3.429-2.176c0.087-0.082,0.572-0.498,1.021-0.799c0.381-0.25,0.711-0.473,0.806-0.549
			c0.71-0.568,1.226-1.238,1.709-2.09c0.345-0.607,0.737-1.297,1.339-2.115l0.053-0.07c0.56-0.758,1.316-2.246,1.432-3.314
			c0.035-0.396,0.146-0.93,0.275-1.547C71.403,23.885,71.783,22.064,71.519,20.504z M70,17.68c0.068-0.012,0.089-0.042,0.072-0.188
			l0.059-0.013l0.162,0.84l-0.057,0.012c-0.041-0.143-0.07-0.162-0.141-0.15l-1.817,0.355c-0.069,0.014-0.089,0.043-0.072,0.191
			l-0.058,0.01l-0.162-0.838l0.055-0.014c0.041,0.145,0.07,0.165,0.141,0.153L70,17.68z M69.241,14.806l0.056-0.021l0.271,0.79
			l-0.055,0.02c-0.06-0.137-0.092-0.153-0.158-0.128l-1.579,0.543l0.366,1.06c0.037,0.111,0.062,0.144,0.149,0.13l0.023,0.068
			l-0.494,0.17l-0.024-0.066c0.055-0.035,0.054-0.079,0.016-0.187l-0.578-1.678l0.055-0.017c0.05,0.104,0.082,0.123,0.147,0.097
			l1.752-0.602C69.256,14.96,69.27,14.927,69.241,14.806z M68.129,12.626l0.051-0.029l0.412,0.745l-0.052,0.027
			c-0.039-0.064-0.075-0.08-0.112-0.06c-0.021,0.013-0.044,0.043-0.119,0.136L67.15,14.92c-0.052,0.064-0.056,0.09-0.035,0.142
			l-0.051,0.03l-0.336-0.606l0.051-0.028c0.039,0.053,0.059,0.07,0.084,0.056c0.02-0.01,0.033-0.024,0.051-0.051l0.257-0.328
			l-0.442-0.802l-0.373,0.042c-0.032,0-0.061,0.009-0.075,0.018c-0.032,0.018-0.054,0.058-0.015,0.136l-0.049,0.029l-0.326-0.588
			l0.05-0.03c0.035,0.058,0.103,0.048,0.138,0.047l1.915-0.212c0.08-0.008,0.117-0.013,0.146-0.028
			C68.16,12.735,68.166,12.708,68.129,12.626z M65.067,10.255c0.593-0.497,1.279-0.247,1.698,0.252
			c0.151,0.181,0.221,0.34,0.258,0.471c0.037,0.126,0.045,0.212,0.07,0.245c0.021,0.024,0.055,0.042,0.102,0.062v0.034l-0.598,0.062
			l-0.016-0.045c0.012-0.005,0.025-0.015,0.035-0.024c0.114-0.097,0.06-0.369-0.111-0.572c-0.316-0.375-0.678-0.458-1.11-0.094
			c-0.337,0.284-0.373,0.719-0.081,1.068c0.184,0.217,0.463,0.316,0.567,0.227c0.013-0.01,0.044-0.05,0.054-0.07l0.053,0.036
			l-0.072,0.619l-0.057-0.007c0.002-0.036-0.004-0.07-0.022-0.093c-0.077-0.091-0.4-0.022-0.823-0.527
			C64.516,11.305,64.615,10.634,65.067,10.255z M63.791,8.659c0.189,0,0.344,0.154,0.344,0.341c0,0.188-0.154,0.343-0.344,0.343
			c-0.188,0-0.341-0.155-0.341-0.343C63.45,8.812,63.603,8.659,63.791,8.659z M59.963,7.783c0.127,0.055,0.16,0.046,0.195-0.015
			l0.899-1.62c0.034-0.061,0.022-0.095-0.101-0.179l0.029-0.05l1.562,0.867c0.088,0.049,0.129,0.058,0.174,0.011l0.062,0.034
			l-0.242,0.436L62.48,7.23c0.018-0.062-0.013-0.093-0.102-0.142l-0.966-0.535l-0.262,0.474l0.604,0.334
			c0.104,0.056,0.144,0.067,0.191,0.011l0.062,0.036l-0.243,0.438l-0.063-0.034c0.016-0.058-0.016-0.09-0.115-0.146L60.98,7.329
			l-0.377,0.684c-0.035,0.061-0.025,0.097,0.104,0.181L60.68,8.244l-0.745-0.41L59.963,7.783z M57.504,5.75
			c0.203-0.589,0.782-0.91,1.522-0.658c0.735,0.255,0.994,0.867,0.792,1.455c-0.204,0.59-0.783,0.914-1.521,0.659
			C57.561,6.95,57.301,6.34,57.504,5.75z M55.771,5.127c0.188,0,0.341,0.155,0.341,0.343c0,0.189-0.152,0.343-0.341,0.343
			c-0.19,0-0.343-0.154-0.343-0.343C55.428,5.282,55.58,5.127,55.771,5.127z M52.092,4.28l0.005,0.058
			c-0.077,0.01-0.111,0.027-0.108,0.065c0.003,0.033,0.363,0.459,0.575,0.713c0.126-0.257,0.458-0.706,0.451-0.781
			c-0.001-0.041-0.028-0.051-0.127-0.053l-0.003-0.058l0.752-0.052l0.004,0.058c-0.051,0.017-0.088,0.044-0.125,0.106l-0.704,1.176
			l0.05,0.738c0.006,0.072,0.033,0.093,0.131,0.1l0.004,0.057l-0.752,0.053L52.24,6.401c0.096-0.019,0.119-0.046,0.113-0.116
			l-0.051-0.738L51.436,4.47c-0.027-0.034-0.07-0.068-0.133-0.079L51.3,4.335L52.092,4.28z M48.381,4.906
			c0.03,0.056,0.074,0.059,0.188,0.03l1.68-0.421c0.113-0.027,0.15-0.05,0.15-0.114l0.068-0.017l0.127,0.503l-0.069,0.018
			c-0.036-0.078-0.077-0.08-0.191-0.051L49.74,5.002l0.402,1.621c0.017,0.066,0.05,0.085,0.146,0.074l0.014,0.059L49.59,6.932
			l-0.014-0.056c0.072-0.031,0.091-0.06,0.072-0.129l-0.402-1.621l-0.594,0.149c-0.113,0.029-0.15,0.051-0.145,0.135l-0.069,0.018
			l-0.127-0.505L48.381,4.906z M47.474,5.342l0.022,0.056c-0.133,0.065-0.146,0.098-0.12,0.166L48.07,7.28
			c0.025,0.064,0.059,0.08,0.201,0.038l0.021,0.05l-0.792,0.321l-0.022-0.053c0.131-0.067,0.146-0.101,0.119-0.167l-0.695-1.718
			c-0.024-0.065-0.057-0.077-0.199-0.036l-0.021-0.054L47.474,5.342z M44.78,6.61c0.231-0.138,0.424-0.205,0.569-0.238
			c0.145-0.035,0.236-0.042,0.279-0.069c0.049-0.027,0.064-0.061,0.075-0.103l0.044-0.006L45.689,6.83l-0.074,0.014
			c-0.006-0.01-0.019-0.042-0.031-0.063c-0.049-0.082-0.318-0.095-0.682,0.123c-0.249,0.149-0.289,0.309-0.216,0.431
			c0.228,0.376,1.438-0.729,1.881,0.006c0.175,0.29,0.04,0.777-0.642,1.184c-0.209,0.127-0.407,0.192-0.561,0.231
			c-0.166,0.042-0.249,0.042-0.313,0.083c-0.026,0.014-0.031,0.046-0.044,0.093l-0.057,0.004L44.946,8.34l0.074-0.015
			c0.005,0.015,0.007,0.029,0.015,0.04c0.072,0.125,0.485-0.001,0.734-0.151c0.401-0.241,0.469-0.432,0.369-0.599
			c-0.234-0.392-1.459,0.697-1.859,0.031C44.111,7.367,44.207,6.954,44.78,6.61z M42.31,8.441c0.413-0.375,0.821-0.426,1.069-0.149
			c0.213,0.233,0.229,0.533-0.012,0.846l0.718,0.203c0.208,0.062,0.274,0.098,0.36,0.04l0.037,0.044l-0.559,0.504l-0.039-0.044
			c0.039-0.041,0.064-0.082,0.039-0.108c-0.014-0.015-0.03-0.029-0.131-0.054l-0.761-0.212l-0.343,0.31l0.495,0.551
			c0.048,0.051,0.084,0.054,0.164-0.004l0.038,0.044l-0.551,0.499l-0.04-0.043c0.056-0.066,0.058-0.104,0.011-0.156l-1.242-1.375
			c-0.046-0.052-0.083-0.054-0.161,0.002l-0.04-0.042L42.31,8.441z M40.413,10.366c0.069-0.094,0.086-0.135,0.046-0.185l0.041-0.056
			l0.393,0.294l-0.044,0.057c-0.052-0.02-0.085,0.006-0.156,0.097l-0.662,0.881l0.433,0.326l0.393-0.522
			c0.069-0.091,0.084-0.133,0.044-0.182l0.043-0.057l0.392,0.294l-0.043,0.058c-0.053-0.021-0.086,0.004-0.158,0.098l-0.391,0.522
			l0.478,0.359l0.705-0.936c0.071-0.093,0.085-0.133,0.044-0.183l0.044-0.058l0.398,0.301l-0.045,0.056
			c-0.057-0.023-0.092,0-0.163,0.095l-1.109,1.472l-0.047-0.034c0.074-0.119,0.069-0.153,0.012-0.195l-1.481-1.117
			c-0.058-0.042-0.092-0.037-0.19,0.075L39.34,11.79L40.413,10.366z M38.107,14.035l0.054,0.024
			c-0.024,0.081-0.017,0.112,0.017,0.127c0.074,0.036,1.097,0.063,1.601,0.119l0.005-0.011c-0.376-0.398-1.047-1.15-1.102-1.177
			c-0.023-0.011-0.046,0.006-0.1,0.083l-0.054-0.027l0.302-0.618l0.053,0.025c-0.017,0.088,0.018,0.123,0.09,0.203
			c0.485,0.54,1.238,1.395,1.338,1.444c0.034,0.016,0.074-0.01,0.105-0.075l0.053,0.027l-0.37,0.758l-0.052-0.026
			c0.031-0.062,0.023-0.124-0.008-0.138c-0.044-0.022-1.432-0.058-1.987-0.112c-0.089-0.009-0.168-0.008-0.205,0.041l-0.053-0.025
			L38.107,14.035z M37.521,15.49l0.054,0.019c-0.032,0.145-0.017,0.178,0.05,0.198l1.763,0.571c0.067,0.023,0.099,0.005,0.155-0.13
			l0.057,0.018l-0.265,0.812l-0.056-0.018c0.033-0.143,0.018-0.176-0.049-0.197l-1.764-0.572c-0.066-0.022-0.098-0.004-0.156,0.132
			l-0.055-0.019L37.521,15.49z M36.703,18.74l0.059,0.006c-0.008,0.07-0.002,0.092,0.021,0.098c0.07,0.01,1.311-0.684,1.504-0.705
			l0.003-0.01L37,17.923c-0.07-0.012-0.099,0.011-0.125,0.094l-0.056-0.01l0.107-0.683l0.059,0.008
			c-0.002,0.088,0.019,0.118,0.089,0.127l1.83,0.291c0.082,0.014,0.098-0.01,0.121-0.075l0.058,0.01l-0.116,0.736l-0.059-0.012
			c0-0.049,0-0.1-0.043-0.104c-0.068-0.012-1.23,0.684-1.629,0.783l-0.002,0.012l1.42,0.223c0.07,0.01,0.099-0.01,0.123-0.088
			l0.058,0.01l-0.106,0.682L38.67,19.92c0.002-0.094-0.02-0.121-0.088-0.133l-1.83-0.289c-0.07-0.01-0.1,0.01-0.121,0.078
			l-0.059-0.008L36.703,18.74z M36.748,22.91c-0.07,0.002-0.096,0.029-0.104,0.148l-0.059,0.002l-0.025-0.773l0.058-0.004
			c0.017,0.096,0.042,0.123,0.112,0.119l1.23-0.043c0.283-0.01,0.458-0.215,0.445-0.586s-0.203-0.562-0.484-0.553l-1.231,0.043
			c-0.07,0.002-0.095,0.029-0.104,0.125l-0.058,0.002l-0.024-0.723l0.059-0.002c0.016,0.107,0.042,0.131,0.111,0.129l1.223-0.043
			c0.498-0.018,0.834,0.271,0.859,1.029c0.025,0.76-0.286,1.07-0.785,1.088L36.748,22.91z M38.405,24.619
			c0,0.189-0.154,0.342-0.344,0.342c-0.188,0-0.341-0.152-0.341-0.342c0-0.188,0.152-0.344,0.341-0.344
			C38.251,24.275,38.405,24.432,38.405,24.619z M38.56,28.979c-0.065,0.029-0.077,0.064-0.028,0.203l-0.054,0.023l-0.726-1.627
			c-0.048-0.107-0.076-0.141-0.139-0.127l-0.029-0.066l0.447-0.201l0.029,0.064c-0.044,0.039-0.038,0.082,0.011,0.186l0.446,1.006
			l0.493-0.219l-0.265-0.596c-0.048-0.107-0.076-0.141-0.139-0.129l-0.029-0.062l0.447-0.203l0.029,0.066
			c-0.044,0.033-0.037,0.078,0.01,0.186l0.266,0.594l0.546-0.244l-0.476-1.07c-0.048-0.105-0.075-0.137-0.139-0.125l-0.029-0.064
			l0.454-0.205l0.03,0.064c-0.051,0.041-0.046,0.082,0.002,0.189l0.752,1.686l-0.055,0.023c-0.066-0.119-0.1-0.135-0.164-0.105
			L38.56,28.979z M40.426,32.021l-0.049,0.035l-0.442-0.633l0.047-0.035c0.071,0.08,0.106,0.088,0.165,0.047l0.57-0.4l-0.631-0.902
			l-0.571,0.4c-0.058,0.043-0.064,0.078-0.013,0.174l-0.047,0.031l-0.444-0.633l0.048-0.033c0.07,0.08,0.105,0.086,0.164,0.047
			l1.517-1.062c0.058-0.041,0.063-0.078,0.012-0.17l0.048-0.035l0.443,0.633l-0.047,0.033c-0.07-0.078-0.105-0.084-0.164-0.045
			l-0.688,0.482l0.631,0.898l0.688-0.48c0.059-0.039,0.062-0.078,0.013-0.17l0.048-0.033l0.443,0.633l-0.049,0.035
			c-0.07-0.082-0.105-0.088-0.162-0.047l-1.518,1.062C40.379,31.893,40.375,31.928,40.426,32.021z M43.578,32.27
			c-0.066-0.047-0.102-0.047-0.15,0.006l-1.162,1.201l0.44,0.422c0.083,0.084,0.122,0.104,0.19,0.055l0.051,0.049l-0.361,0.375
			l-0.051-0.051c0.033-0.057,0.012-0.092-0.073-0.174l-1.244-1.205c-0.085-0.08-0.122-0.098-0.177-0.066l-0.051-0.047l0.359-0.377
			l0.054,0.053c-0.048,0.068-0.026,0.107,0.058,0.191l0.439,0.422l1.16-1.203c0.049-0.051,0.048-0.086-0.012-0.164l0.039-0.039
			l0.527,0.508L43.578,32.27z M44.365,34.773c-0.188,0-0.344-0.152-0.344-0.344c0-0.186,0.155-0.34,0.344-0.34
			c0.189,0,0.341,0.154,0.341,0.34C44.706,34.621,44.555,34.773,44.365,34.773z M48.485,37.109c-0.188,0-0.342-0.156-0.342-0.342
			c0-0.189,0.154-0.344,0.342-0.344c0.188,0,0.343,0.154,0.343,0.344C48.828,36.953,48.674,37.109,48.485,37.109z M50.428,36.279
			c-0.058-0.016-0.105,0.002-0.126,0.078l-0.479,1.791c-0.021,0.076,0.012,0.115,0.071,0.129l-0.017,0.057l-0.707-0.189l0.014-0.059
			c0.078,0.023,0.127,0.006,0.146-0.07l0.361-1.35c-0.072-0.004-0.229-0.014-0.262,0.076l-0.069-0.018l0.136-0.508l0.068,0.02
			c-0.014,0.049,0.039,0.07,0.098,0.088c0.08,0.021,0.148-0.025,0.174-0.115c0.013-0.047-0.004-0.08-0.057-0.104l0.015-0.055
			l0.648,0.174L50.428,36.279z M53.053,38.096c-0.031,0.383-0.427,0.619-1.096,0.561c-0.686-0.059-1.045-0.41-1.014-0.742
			c0.02-0.256,0.199-0.436,0.494-0.514c-0.203-0.086-0.343-0.301-0.326-0.479c0.026-0.307,0.391-0.551,1.004-0.498
			c0.665,0.061,0.982,0.35,0.955,0.648c-0.017,0.197-0.182,0.391-0.422,0.441C52.936,37.635,53.076,37.84,53.053,38.096z
			 M54.449,38.713c-0.747,0.039-1.08-0.443-1.106-0.969c-0.034-0.656,0.292-1.227,1.081-1.27c0.355-0.018,0.648,0.117,0.729,0.111
			c0.031,0,0.052-0.014,0.066-0.025l0.043,0.023l-0.304,0.453l-0.062-0.023c0.004-0.117-0.209-0.234-0.487-0.221
			c-0.405,0.023-0.613,0.357-0.588,0.742c0.159-0.164,0.388-0.291,0.647-0.303c0.498-0.027,0.877,0.189,0.905,0.717
			C55.391,38.303,55.06,38.682,54.449,38.713z M56.978,38.281c-0.661,0.188-1.12-0.01-1.212-0.328
			c-0.072-0.248,0.031-0.48,0.277-0.658c-0.22-0.006-0.428-0.158-0.477-0.332c-0.084-0.295,0.167-0.65,0.76-0.822
			c0.641-0.184,1.043-0.025,1.124,0.262c0.056,0.191-0.03,0.428-0.235,0.562c0.311,0.008,0.516,0.15,0.586,0.4
			C57.907,37.732,57.623,38.096,56.978,38.281z M58.475,36.965c-0.189,0-0.344-0.15-0.344-0.34s0.154-0.34,0.344-0.34
			c0.188,0,0.344,0.15,0.344,0.34S58.662,36.965,58.475,36.965z M60.886,33.076c-0.19,0.186-0.589,0.484-0.924,0.729
			c0.005-0.031,0.018-0.059,0.018-0.092c0-0.049-0.008-0.098-0.022-0.146c-0.033-0.107-0.121-0.248-0.352-0.312
			c-0.26-0.072-0.506,0.043-0.848,0.184c-0.244,0.094-0.535,0.23-0.91,0.572c-0.152,0.139-0.374,0.361-0.299,0.543
			c0.057,0.135,0.184,0.252,0.346,0.346c-0.822,0.25-1.627,0.49-1.914,0.547c-0.195,0.039-0.863,0.238-1.293,0.312
			c-0.475,0.082-0.972,0.16-1.221,0.17c-1.006,0.023-2.458-0.338-2.754-0.504l-0.012-0.006l-0.014-0.008
			c-0.688-0.258-1.613-0.6-2.204-0.75c0.013-0.006,0.026-0.016,0.036-0.018c0.252-0.104,0.401-0.242,0.443-0.414
			c0.027-0.105,0.024-0.271-0.141-0.469c-0.176-0.211-0.459-0.426-0.732-0.555c-0.073-0.035-0.708-0.273-0.982-0.287
			C46.9,32.91,46.79,32.9,46.704,32.953l-0.015,0.01c-0.113,0.066-0.156,0.17-0.156,0.295c0,0.107,0.034,0.229,0.081,0.352
			c-0.194-0.096-0.368-0.188-0.617-0.365c-0.376-0.271-1.298-1.002-1.7-1.244c-0.272-0.164-0.299-0.318-0.629-0.664
			c-0.284-0.301-0.578-0.605-0.84-0.803c-0.339-0.256-0.932-1.166-1.131-1.494c-0.684-1.115-1.776-3.27-2.021-5.404
			c-0.033-0.271-0.036-0.98-0.043-1.607c-0.008-0.537-0.013-1-0.028-1.207c0.03-0.436,0.139-1.602,0.254-1.91
			c0.082-0.219,0.146-0.674,0.229-1.042c0.072-0.319,0.157-0.796,0.217-0.956c0.004-0.019,0.309-0.899,0.519-1.272
			c0.001-0.003,0.974-1.841,0.974-1.841c0.007-0.017,0.506-1.058,0.877-1.446l0.375-0.402c0.4-0.433,0.814-0.881,1.209-1.184
			c0.627-0.484,1.608-1.147,2.48-1.559l1.182-0.584c0.415-0.213,0.643-0.331,0.999-0.44c0.021-0.004,1.827-0.632,3.387-0.793
			l0.3-0.053c0-0.128,0.623-1.295,0.839-1.243c0.194,0.046,0.707,1.237,0.735,1.29c0.039,0.003,0.486,0.019,0.522,0.021
			c0.327,0.026,0.069,0.02,0.464,0.083l0.02,0.003c1.148,0.183,2.434,0.677,2.982,0.883c-0.003-0.001,0.465,0.191,0.518,0.212
			C58.707,8.599,59.5,8.925,59.5,8.925c0.536,0.289,1.017,0.571,1.219,0.729c0.006,0.002,0.289,0.203,0.289,0.203
			c0.59,0.412,1.859,1.262,2.07,1.597l0.324,0.437c0.193,0.244,0.301,0.554,0.398,0.801c0.18,0.446,0.602,0.96,1.011,1.458
			c0.283,0.347,0.553,0.673,0.715,0.948c-0.001-0.003,0.524,0.736,0.63,1.413c0.133,0.848,0.349,2.154,0.461,2.533
			c0.613,2.064,0.438,3.15,0.198,4.242c-0.075,0.334-0.239,0.801-0.276,1.115c-0.043,0.363-0.102,0.799-0.336,1.291
			c-0.09,0.191-0.27,0.605-0.344,0.85c-0.12,0.387-0.246,0.791-0.469,1.088c-0.086,0.117-0.249,0.377-0.475,0.736
			c-0.535,0.852-1.342,2.133-2.042,2.986c-0.225,0.275-0.82,0.76-1.301,1.146C61.272,32.742,61.013,32.951,60.886,33.076z
			 M62.016,34.93c-0.188,0-0.341-0.152-0.341-0.342c0-0.186,0.153-0.34,0.341-0.34c0.189,0,0.343,0.154,0.343,0.34
			C62.358,34.777,62.205,34.93,62.016,34.93z M64.748,34.02l-0.04-0.043c0.054-0.055,0.06-0.094,0.029-0.125
			c-0.017-0.018-0.05-0.029-0.16-0.082l-1.714-0.768c-0.072-0.035-0.099-0.031-0.146,0l-0.039-0.045l0.508-0.471l0.039,0.043
			c-0.043,0.053-0.057,0.076-0.035,0.096c0.015,0.018,0.032,0.025,0.062,0.039l0.381,0.166l0.671-0.623l-0.13-0.352
			c-0.01-0.029-0.027-0.055-0.037-0.064c-0.025-0.031-0.07-0.039-0.137,0.016l-0.039-0.045l0.492-0.455l0.039,0.043
			c-0.045,0.049-0.021,0.109-0.01,0.145l0.67,1.809c0.029,0.076,0.039,0.111,0.062,0.135c0.019,0.02,0.044,0.016,0.116-0.039
			l0.041,0.043L64.748,34.02z M66.468,32.277l-0.046-0.039c0.084-0.121,0.08-0.156,0.026-0.201l-1.44-1.166
			c-0.057-0.043-0.092-0.039-0.194,0.066l-0.044-0.035l0.539-0.668l0.045,0.037c-0.084,0.125-0.08,0.16-0.025,0.203l1.439,1.164
			c0.057,0.047,0.091,0.043,0.195-0.066l0.043,0.039L66.468,32.277z M68.391,29.529l-0.049-0.025
			c0.029-0.066,0.034-0.09,0.012-0.104c-0.062-0.033-1.47,0.172-1.657,0.123l-0.006,0.008l1.131,0.652
			c0.062,0.033,0.095,0.025,0.15-0.045l0.05,0.029l-0.348,0.598l-0.05-0.027c0.033-0.08,0.024-0.115-0.038-0.15l-1.604-0.924
			c-0.072-0.043-0.098-0.027-0.139,0.025l-0.052-0.029l0.372-0.643l0.05,0.027c-0.017,0.049-0.032,0.092,0.004,0.113
			c0.06,0.033,1.393-0.197,1.802-0.148l0.004-0.008l-1.244-0.721c-0.06-0.033-0.094-0.025-0.146,0.039l-0.051-0.027l0.346-0.602
			l0.051,0.029c-0.035,0.088-0.027,0.121,0.035,0.156l1.604,0.926c0.062,0.033,0.098,0.025,0.143-0.029l0.053,0.027L68.391,29.529z
			 M69.596,26.816c-0.182,0.531-0.512,0.773-0.866,0.652c-0.299-0.105-0.456-0.357-0.398-0.748l-0.725,0.174
			c-0.214,0.043-0.289,0.045-0.334,0.135l-0.054-0.018l0.244-0.715l0.057,0.02c-0.017,0.055-0.018,0.102,0.017,0.115
			c0.021,0.006,0.04,0.008,0.142-0.018l0.767-0.182l0.151-0.439l-0.699-0.24c-0.066-0.025-0.1-0.008-0.143,0.082l-0.056-0.02
			l0.244-0.703l0.055,0.016c-0.017,0.088-0.001,0.119,0.065,0.145l1.751,0.602c0.066,0.023,0.098,0.006,0.142-0.08l0.056,0.02
			L69.596,26.816z M70.445,23.299c-0.095,0.773-0.641,1.152-1.26,1.08c-0.617-0.078-1.054-0.576-0.959-1.352
			c0.096-0.773,0.642-1.152,1.26-1.076C70.104,22.027,70.541,22.525,70.445,23.299z M70.161,21.232l-0.004-0.072
			c0.06-0.02,0.069-0.059,0.063-0.16l-0.079-1.104l-0.538,0.039l0.05,0.689c0.007,0.115,0.022,0.156,0.093,0.166l0.006,0.074
			l-0.5,0.031l-0.006-0.07c0.056-0.02,0.066-0.061,0.058-0.178l-0.048-0.689l-0.779,0.055c-0.07,0.004-0.093,0.031-0.095,0.186
			l-0.058,0.004l-0.061-0.85l0.059-0.004c0.022,0.137,0.048,0.16,0.119,0.154l1.848-0.129c0.07-0.004,0.094-0.031,0.097-0.18
			l0.057-0.006l0.125,1.783c0.009,0.104,0.022,0.145,0.086,0.156l0.005,0.07L70.161,21.232z"/>
		<path fill="#FFFFFF" d="M69.424,22.457c-0.492-0.061-0.795,0.164-0.851,0.613c-0.056,0.451,0.185,0.74,0.675,0.801
			c0.492,0.061,0.796-0.162,0.852-0.613C70.154,22.807,69.914,22.516,69.424,22.457z"/>
		<path fill="#FFFFFF" d="M58.412,6.875c0.428,0.147,0.762-0.028,0.924-0.494c0.16-0.467,0.003-0.81-0.425-0.958
			c-0.429-0.15-0.764,0.024-0.925,0.491C57.827,6.384,57.982,6.729,58.412,6.875z"/>
		<path fill="#FFFFFF" d="M42.891,9.171c0.23-0.209,0.256-0.379,0.135-0.515C42.9,8.521,42.732,8.529,42.5,8.736l-0.434,0.392
			l0.391,0.433L42.891,9.171z"/>
		<path fill="#FFFFFF" d="M68.732,26.461c-0.102,0.295-0.041,0.455,0.131,0.514c0.174,0.061,0.32-0.029,0.42-0.324l0.191-0.555
			l-0.549-0.189L68.732,26.461z"/>
	</g>
	<path fill="#FFFFFF" d="M53.345,9.219c-0.17-0.135-0.533-0.768-0.533-0.768c0.021-0.083,0.533-1.208,0.533-1.208
		c0.044,0.195,0.036,0.598,0.022,0.995C53.353,8.637,53.332,9.033,53.345,9.219z M51.41,8.78c0.166,0.042,0.678,0.2,0.678,0.2
		c0.371,0.139,0.705,0.274,1.097,0.379c-0.057,0.119-0.179,0.339-0.179,0.339s-0.844,1.311-0.909,1.405c0,0,0.253-1.344,0.242-1.359
		C52.285,9.663,51.771,9.217,51.41,8.78z M54.92,9.178c-0.008,0.057-0.318,0.418-0.318,0.418c-0.061,0.007-1.002-0.212-1.109-0.264
		c0,0,0.384-0.719,0.531-0.793l1.375,0.14c-0.11,0.038-0.506,0.143-0.862,0.266c-0.411,0.162-0.8,0.305-0.8,0.305
		S54.791,9.196,54.92,9.178z M54.602,11.113c-0.107-0.026-1.036-0.539-1.036-0.539c-0.036-0.027-0.175-1.014-0.16-1.197
		L54.602,11.113z M53.785,7.479c-0.029-0.077-0.055-0.145-0.069-0.187c-0.043-0.13-0.208-0.428-0.271-0.606
		C53.334,6.763,53.158,7.114,53,7.479l-0.096,0.229c-0.112,0.278-0.205,0.534-0.238,0.653c0,0-0.297,0.059-0.707,0.074
		c-0.22,0.008-0.888,0.125-0.888,0.125c0.464,0.71,0.873,1.142,1.063,1.338c0,0-0.232,1.356-0.227,1.514
		c0.023-0.007,0.738-0.373,0.973-0.503c0.235-0.132,0.508-0.22,0.544-0.214c0.014,0.002,0.673,0.279,0.833,0.375
		c0.366,0.218,0.614,0.353,0.702,0.381v-0.017c0,0-0.345-1.443-0.339-1.519c0-0.007,0.179-0.179,0.294-0.325
		c0.193-0.241,0.399-0.409,0.528-0.556c0.129-0.148,0.365-0.421,0.374-0.436c-0.013-0.004-1.56-0.189-1.656-0.231
		c-0.005,0-0.149-0.337-0.274-0.641L53.785,7.479z"/>
</g>
</svg>
