<?xml version="1.0" encoding="utf-8"?>
<!-- Generator: Adobe Illustrator 15.0.0, SVG Export Plug-In . SVG Version: 6.00 Build 0)  -->
<!DOCTYPE svg PUBLIC "-//W3C//DTD SVG 1.1//EN" "http://www.w3.org/Graphics/SVG/1.1/DTD/svg11.dtd">
<svg version="1.1" id="Layer_1" xmlns="http://www.w3.org/2000/svg" xmlns:xlink="http://www.w3.org/1999/xlink" x="0px" y="0px"
	 width="100px" height="50px" viewBox="0 0 100 50" enable-background="new 0 0 100 50" xml:space="preserve">
<circle fill="#C5C5C6" cx="25" cy="25" r="25"/>
<circle fill="#C5C5C6" cx="75" cy="25" r="25"/>
<path fill="#FFFFFF" d="M37.196,18.196v-7.515h-4.063v3.739l-8.138-7.566L8.734,21.979l1.628,1.79v11.306v4.07h9.759V26.13h9.756
	v13.016h9.761v-4.071V23.77l1.627-1.791L37.196,18.196z M27.445,22.068h-4.883v-4.883h4.882L27.445,22.068L27.445,22.068z"/>
<path fill="#F1B521" d="M87.194,18.194v-7.514h-4.062v3.74l-8.137-7.566L58.731,21.979l1.629,1.79v11.306v4.07h9.76V26.13h9.756
	v13.016h9.764v-4.071V23.77l1.628-1.791L87.194,18.194z M77.444,22.068h-4.882v-4.883h4.882V22.068z"/>
</svg>
